<svg class="w-full svg" width="626" height="302" viewBox="0 0 626 302" fill="none" xmlns="http://www.w3.org/2000/svg">
  <rect width="626" height="302" rx="19" fill="#111111" pathLength="1" stroke-dashoffset="0px"
    stroke-dasharray="1px 1px"></rect>
  <ellipse cx="335" cy="95.5" rx="22" ry="21.5" fill="white" pathLength="1" stroke-dashoffset="0px"
    stroke-dasharray="1px 1px"></ellipse>
  <ellipse cx="376" cy="165.5" rx="22" ry="21.5" fill="white" pathLength="1" stroke-dashoffset="0px"
    stroke-dasharray="1px 1px"></ellipse>
  <ellipse cx="294" cy="165.5" rx="22" ry="21.5" fill="white" pathLength="1" stroke-dashoffset="0px"
    stroke-dasharray="1px 1px"></ellipse>
  <ellipse cx="250" cy="237.5" rx="22" ry="21.5" fill="white" pathLength="1" stroke-dashoffset="0px"
    stroke-dasharray="1px 1px"></ellipse>
  <ellipse cx="338" cy="237.5" rx="22" ry="21.5" fill="white" pathLength="1" stroke-dashoffset="0px"
    stroke-dasharray="1px 1px"></ellipse>
  <path d="M334 96L249 241.5" stroke="white" stroke-width="3" pathLength="1" stroke-dashoffset="0px"
    stroke-dasharray="1px 1px"></path>
  <path d="M334.5 97L377 167" stroke="white" stroke-width="3" pathLength="1" stroke-dashoffset="0px"
    stroke-dasharray="1px 1px"></path>
  <path d="M293 166L340 242" stroke="white" stroke-width="3" pathLength="1" stroke-dashoffset="0px"
    stroke-dasharray="1px 1px"></path>
  <path
    d="M249.117 240.468H251.68C251.68 240.194 251.687 239.962 251.701 239.771C251.714 239.572 251.749 239.391 251.803 239.227C251.851 239.063 251.933 238.902 252.049 238.745C252.166 238.588 252.326 238.407 252.531 238.202C252.866 237.908 253.198 237.607 253.526 237.299C253.861 236.985 254.158 236.653 254.418 236.305C254.678 235.963 254.89 235.594 255.054 235.197C255.218 234.794 255.3 234.35 255.3 233.864C255.3 233.208 255.19 232.63 254.972 232.131C254.753 231.632 254.438 231.212 254.028 230.87C253.611 230.535 253.102 230.282 252.5 230.111C251.899 229.94 251.219 229.855 250.46 229.855C249.783 229.855 249.154 229.94 248.573 230.111C247.992 230.275 247.486 230.528 247.056 230.87C246.625 231.212 246.283 231.643 246.03 232.162C245.777 232.675 245.647 233.28 245.641 233.977H248.501C248.508 233.663 248.566 233.393 248.676 233.167C248.792 232.941 248.942 232.757 249.127 232.613C249.305 232.47 249.51 232.367 249.742 232.306C249.975 232.237 250.214 232.203 250.46 232.203C250.774 232.203 251.051 232.237 251.291 232.306C251.537 232.374 251.745 232.477 251.916 232.613C252.08 232.764 252.207 232.955 252.295 233.188C252.384 233.413 252.429 233.683 252.429 233.998C252.429 234.257 252.371 234.517 252.254 234.777C252.138 235.037 251.988 235.29 251.803 235.536C251.612 235.789 251.4 236.035 251.167 236.274C250.935 236.506 250.703 236.729 250.47 236.94C250.149 237.193 249.899 237.433 249.722 237.658C249.544 237.877 249.411 238.116 249.322 238.376C249.233 238.643 249.175 238.94 249.147 239.268C249.127 239.596 249.117 239.996 249.117 240.468ZM248.696 243.575C248.696 244.012 248.843 244.381 249.137 244.682C249.431 244.976 249.838 245.123 250.357 245.123C250.863 245.123 251.267 244.976 251.567 244.682C251.875 244.381 252.029 244.012 252.029 243.575C252.029 243.124 251.875 242.748 251.567 242.447C251.267 242.139 250.863 241.985 250.357 241.985C249.838 241.985 249.431 242.139 249.137 242.447C248.843 242.748 248.696 243.124 248.696 243.575Z"
    fill="black" pathLength="1" stroke-dashoffset="0px" stroke-dasharray="1px 1px"></path>
  <path
    d="M336.117 240.468H338.68C338.68 240.194 338.687 239.962 338.701 239.771C338.714 239.572 338.749 239.391 338.803 239.227C338.851 239.063 338.933 238.902 339.049 238.745C339.166 238.588 339.326 238.407 339.531 238.202C339.866 237.908 340.198 237.607 340.526 237.299C340.861 236.985 341.158 236.653 341.418 236.305C341.678 235.963 341.89 235.594 342.054 235.197C342.218 234.794 342.3 234.35 342.3 233.864C342.3 233.208 342.19 232.63 341.972 232.131C341.753 231.632 341.438 231.212 341.028 230.87C340.611 230.535 340.102 230.282 339.5 230.111C338.899 229.94 338.219 229.855 337.46 229.855C336.783 229.855 336.154 229.94 335.573 230.111C334.992 230.275 334.486 230.528 334.056 230.87C333.625 231.212 333.283 231.643 333.03 232.162C332.777 232.675 332.647 233.28 332.641 233.977H335.501C335.508 233.663 335.566 233.393 335.676 233.167C335.792 232.941 335.942 232.757 336.127 232.613C336.305 232.47 336.51 232.367 336.742 232.306C336.975 232.237 337.214 232.203 337.46 232.203C337.774 232.203 338.051 232.237 338.291 232.306C338.537 232.374 338.745 232.477 338.916 232.613C339.08 232.764 339.207 232.955 339.295 233.188C339.384 233.413 339.429 233.683 339.429 233.998C339.429 234.257 339.371 234.517 339.254 234.777C339.138 235.037 338.988 235.29 338.803 235.536C338.612 235.789 338.4 236.035 338.167 236.274C337.935 236.506 337.703 236.729 337.47 236.94C337.149 237.193 336.899 237.433 336.722 237.658C336.544 237.877 336.411 238.116 336.322 238.376C336.233 238.643 336.175 238.94 336.147 239.268C336.127 239.596 336.117 239.996 336.117 240.468ZM335.696 243.575C335.696 244.012 335.843 244.381 336.137 244.682C336.431 244.976 336.838 245.123 337.357 245.123C337.863 245.123 338.267 244.976 338.567 244.682C338.875 244.381 339.029 244.012 339.029 243.575C339.029 243.124 338.875 242.748 338.567 242.447C338.267 242.139 337.863 241.985 337.357 241.985C336.838 241.985 336.431 242.139 336.137 242.447C335.843 242.748 335.696 243.124 335.696 243.575Z"
    fill="black" pathLength="1" stroke-dashoffset="0px" stroke-dasharray="1px 1px"></path>
  <path
    d="M258.775 54.7871L258.878 54.2256C258.676 54.2191 258.508 54.1637 258.375 54.0596C258.245 53.9554 258.141 53.8219 258.062 53.6592C257.981 53.4997 257.924 53.319 257.892 53.1172C257.859 52.9186 257.843 52.7184 257.843 52.5166V51.6914C257.84 51.304 257.748 50.9639 257.569 50.6709C257.39 50.3747 257.112 50.1517 256.734 50.002C257.112 49.849 257.39 49.626 257.569 49.333C257.752 49.0368 257.843 48.6934 257.843 48.3027V47.4727C257.843 47.2741 257.853 47.0739 257.872 46.8721C257.892 46.6702 257.937 46.488 258.009 46.3252C258.077 46.1657 258.18 46.0339 258.316 45.9297C258.456 45.8255 258.644 45.7702 258.878 45.7637L258.775 45.2021C258.447 45.2119 258.167 45.2835 257.936 45.417C257.704 45.5472 257.517 45.7165 257.374 45.9248C257.221 46.1429 257.109 46.3903 257.037 46.667C256.969 46.9404 256.935 47.209 256.935 47.4727V48.3027C256.935 48.7747 256.822 49.1165 256.598 49.3281C256.376 49.5365 256.036 49.6406 255.577 49.6406V50.3486C256.036 50.3519 256.376 50.4593 256.598 50.6709C256.822 50.8825 256.935 51.2227 256.935 51.6914V52.5166C256.935 52.777 256.972 53.0391 257.047 53.3027C257.122 53.5697 257.232 53.8105 257.379 54.0254C257.532 54.25 257.724 54.4307 257.955 54.5674C258.186 54.7041 258.46 54.7773 258.775 54.7871ZM266.861 53H267.765V49.2109C267.826 49.097 267.898 48.9928 267.979 48.8984C268.064 48.804 268.155 48.721 268.253 48.6494C268.373 48.568 268.505 48.5046 268.648 48.459C268.792 48.4102 268.946 48.3857 269.112 48.3857C269.304 48.3857 269.474 48.4085 269.62 48.4541C269.77 48.4997 269.897 48.5729 270.001 48.6738C270.102 48.7747 270.178 48.9066 270.23 49.0693C270.283 49.2321 270.309 49.4307 270.309 49.665V53H271.212V49.6455C271.212 49.2939 271.168 48.9912 271.08 48.7373C270.995 48.4801 270.873 48.2686 270.714 48.1025C270.554 47.9365 270.361 47.8145 270.133 47.7363C269.908 47.6582 269.658 47.6191 269.381 47.6191C269.176 47.6224 268.98 47.6533 268.795 47.7119C268.613 47.7673 268.443 47.847 268.287 47.9512C268.183 48.0195 268.084 48.1009 267.989 48.1953C267.898 48.2865 267.813 48.3874 267.735 48.498L267.672 47.7168H266.861V53ZM272.613 50.3096V50.417C272.613 50.7979 272.669 51.151 272.779 51.4766C272.89 51.8021 273.049 52.0853 273.258 52.3262C273.463 52.5671 273.714 52.7559 274.01 52.8926C274.309 53.0293 274.646 53.0977 275.021 53.0977C275.392 53.0977 275.725 53.0293 276.021 52.8926C276.318 52.7559 276.57 52.5671 276.778 52.3262C276.983 52.0853 277.141 51.8021 277.252 51.4766C277.363 51.151 277.418 50.7979 277.418 50.417V50.3096C277.418 49.9287 277.363 49.5755 277.252 49.25C277.141 48.9212 276.983 48.6364 276.778 48.3955C276.57 48.1546 276.316 47.9658 276.017 47.8291C275.72 47.6891 275.385 47.6191 275.011 47.6191C274.64 47.6191 274.306 47.6891 274.01 47.8291C273.714 47.9658 273.463 48.1546 273.258 48.3955C273.049 48.6364 272.89 48.9212 272.779 49.25C272.669 49.5755 272.613 49.9287 272.613 50.3096ZM273.517 50.417V50.3096C273.517 50.0524 273.548 49.8066 273.609 49.5723C273.671 49.3346 273.766 49.1263 273.893 48.9473C274.016 48.7682 274.171 48.6266 274.356 48.5225C274.542 48.415 274.76 48.3613 275.011 48.3613C275.261 48.3613 275.479 48.415 275.665 48.5225C275.854 48.6266 276.012 48.7682 276.139 48.9473C276.262 49.1263 276.355 49.3346 276.417 49.5723C276.482 49.8066 276.515 50.0524 276.515 50.3096V50.417C276.515 50.6774 276.484 50.9264 276.422 51.1641C276.36 51.3984 276.267 51.6051 276.144 51.7842C276.017 51.9632 275.859 52.1048 275.67 52.209C275.484 52.3132 275.268 52.3652 275.021 52.3652C274.77 52.3652 274.55 52.3132 274.361 52.209C274.173 52.1048 274.016 51.9632 273.893 51.7842C273.766 51.6051 273.671 51.3984 273.609 51.1641C273.548 50.9264 273.517 50.6774 273.517 50.417ZM278.702 50.3145V50.417C278.702 50.7946 278.753 51.1478 278.854 51.4766C278.954 51.8021 279.096 52.0853 279.278 52.3262C279.461 52.5671 279.68 52.7559 279.938 52.8926C280.198 53.0293 280.488 53.0977 280.807 53.0977C281.132 53.0977 281.417 53.0423 281.661 52.9316C281.905 52.821 282.115 52.6582 282.291 52.4434L282.33 53H283.16V45.5H282.257V48.2393C282.084 48.0374 281.879 47.8844 281.642 47.7803C281.407 47.6729 281.132 47.6191 280.816 47.6191C280.494 47.6191 280.203 47.6859 279.942 47.8193C279.682 47.9528 279.461 48.1383 279.278 48.376C279.093 48.6136 278.95 48.8984 278.849 49.2305C278.751 49.5592 278.702 49.9206 278.702 50.3145ZM279.605 50.417V50.3145C279.605 50.0573 279.633 49.8132 279.688 49.582C279.744 49.3477 279.83 49.141 279.947 48.9619C280.061 48.7861 280.208 48.6462 280.387 48.542C280.569 48.4378 280.787 48.3857 281.041 48.3857C281.337 48.3857 281.585 48.4557 281.783 48.5957C281.982 48.7324 282.14 48.9082 282.257 49.123V51.5742C282.14 51.8053 281.982 51.9893 281.783 52.126C281.585 52.2627 281.334 52.3311 281.031 52.3311C280.781 52.3311 280.566 52.2806 280.387 52.1797C280.208 52.0755 280.061 51.9355 279.947 51.7598C279.83 51.584 279.744 51.3805 279.688 51.1494C279.633 50.9183 279.605 50.6742 279.605 50.417ZM287.213 53.0977C287.727 53.0977 288.159 52.9951 288.507 52.79C288.858 52.5817 289.122 52.3441 289.298 52.0771L288.746 51.6475C288.58 51.8623 288.372 52.0348 288.121 52.165C287.87 52.2952 287.584 52.3604 287.262 52.3604C287.018 52.3604 286.795 52.3148 286.593 52.2236C286.391 52.1325 286.218 52.0072 286.075 51.8477C285.935 51.6979 285.825 51.5254 285.743 51.3301C285.665 51.1348 285.615 50.9085 285.592 50.6514V50.6172H289.366V50.2119C289.366 49.8441 289.319 49.5023 289.225 49.1865C289.133 48.8708 288.993 48.5957 288.805 48.3613C288.616 48.1302 288.378 47.9495 288.092 47.8193C287.809 47.6859 287.477 47.6191 287.096 47.6191C286.793 47.6191 286.497 47.681 286.207 47.8047C285.921 47.9284 285.665 48.1058 285.44 48.3369C285.213 48.5713 285.03 48.8577 284.894 49.1963C284.757 49.5316 284.688 49.9124 284.688 50.3389V50.5439C284.688 50.9118 284.75 51.252 284.874 51.5645C284.998 51.877 285.17 52.1471 285.392 52.375C285.613 52.6029 285.878 52.7803 286.188 52.9072C286.5 53.0342 286.842 53.0977 287.213 53.0977ZM287.096 48.3613C287.327 48.3613 287.525 48.4036 287.691 48.4883C287.861 48.5729 288.001 48.6836 288.111 48.8203C288.222 48.957 288.308 49.1198 288.37 49.3086C288.432 49.4941 288.463 49.6683 288.463 49.8311V49.875H285.621C285.657 49.6309 285.719 49.416 285.807 49.2305C285.898 49.0417 286.008 48.8822 286.139 48.752C286.269 48.625 286.415 48.529 286.578 48.4639C286.741 48.3955 286.913 48.3613 287.096 48.3613ZM293.814 53V45.8906H293.741L291.051 46.9258V47.751L292.911 47.043V53H293.814ZM298.707 52.4141C298.707 52.6029 298.766 52.764 298.883 52.8975C299.003 53.0277 299.181 53.0928 299.415 53.0928C299.646 53.0928 299.824 53.0277 299.947 52.8975C300.071 52.7673 300.133 52.6061 300.133 52.4141C300.133 52.2188 300.071 52.0544 299.947 51.9209C299.827 51.7842 299.649 51.7158 299.415 51.7158C299.177 51.7158 299 51.7842 298.883 51.9209C298.766 52.0576 298.707 52.222 298.707 52.4141ZM298.707 48.1367C298.707 48.3255 298.766 48.4867 298.883 48.6201C299.003 48.7503 299.181 48.8154 299.415 48.8154C299.646 48.8154 299.824 48.7503 299.947 48.6201C300.071 48.4899 300.133 48.3288 300.133 48.1367C300.133 47.9414 300.071 47.777 299.947 47.6436C299.827 47.5068 299.649 47.4385 299.415 47.4385C299.177 47.4385 299 47.5068 298.883 47.6436C298.766 47.7803 298.707 47.9447 298.707 48.1367ZM310.548 50.998H311.451C311.451 50.8711 311.454 50.7588 311.461 50.6611C311.467 50.5602 311.484 50.4658 311.51 50.3779C311.536 50.29 311.575 50.2038 311.627 50.1191C311.682 50.0345 311.759 49.945 311.856 49.8506C312.009 49.7139 312.164 49.5658 312.32 49.4062C312.48 49.2467 312.623 49.0742 312.75 48.8887C312.877 48.7064 312.981 48.5127 313.062 48.3076C313.144 48.0993 313.185 47.8779 313.185 47.6436C313.185 47.3506 313.137 47.0902 313.043 46.8623C312.949 46.6344 312.812 46.4408 312.633 46.2812C312.454 46.1217 312.234 46.0013 311.974 45.9199C311.716 45.8353 311.424 45.793 311.095 45.793C310.799 45.793 310.522 45.8337 310.265 45.915C310.011 45.9932 309.791 46.1071 309.605 46.2568C309.417 46.4098 309.267 46.5954 309.156 46.8135C309.046 47.0316 308.989 47.2773 308.985 47.5508H309.889C309.889 47.3815 309.923 47.2367 309.991 47.1162C310.06 46.9925 310.151 46.89 310.265 46.8086C310.375 46.7305 310.502 46.6735 310.646 46.6377C310.792 46.5986 310.942 46.5791 311.095 46.5791C311.293 46.5791 311.469 46.6051 311.622 46.6572C311.775 46.7093 311.902 46.7858 312.003 46.8867C312.094 46.9779 312.162 47.0902 312.208 47.2236C312.257 47.3538 312.281 47.5036 312.281 47.6729C312.281 47.8356 312.25 47.9902 312.188 48.1367C312.127 48.2832 312.049 48.4215 311.954 48.5518C311.856 48.6852 311.749 48.8122 311.632 48.9326C311.518 49.0531 311.406 49.1702 311.295 49.2842C311.132 49.4339 311.002 49.5641 310.904 49.6748C310.807 49.7822 310.732 49.8945 310.68 50.0117C310.628 50.1322 310.593 50.2689 310.577 50.4219C310.561 50.5716 310.551 50.7637 310.548 50.998ZM310.445 52.5264C310.445 52.6761 310.491 52.8014 310.582 52.9023C310.676 53.0033 310.816 53.0537 311.002 53.0537C311.188 53.0537 311.327 53.0033 311.422 52.9023C311.52 52.8014 311.568 52.6761 311.568 52.5264C311.568 52.3701 311.52 52.2399 311.422 52.1357C311.327 52.0316 311.188 51.9795 311.002 51.9795C310.816 51.9795 310.676 52.0316 310.582 52.1357C310.491 52.2399 310.445 52.3701 310.445 52.5264ZM317.198 52.79V51.9307H316.217V52.8047C316.217 53.0814 316.184 53.3483 316.119 53.6055C316.054 53.8626 315.943 54.1051 315.787 54.333L316.349 54.6406C316.609 54.4095 316.816 54.1247 316.969 53.7861C317.122 53.4476 317.198 53.1156 317.198 52.79ZM326.92 53H327.823V49.2109C327.885 49.097 327.957 48.9928 328.038 48.8984C328.123 48.804 328.214 48.721 328.312 48.6494C328.432 48.568 328.564 48.5046 328.707 48.459C328.85 48.4102 329.005 48.3857 329.171 48.3857C329.363 48.3857 329.532 48.4085 329.679 48.4541C329.828 48.4997 329.955 48.5729 330.06 48.6738C330.16 48.7747 330.237 48.9066 330.289 49.0693C330.341 49.2321 330.367 49.4307 330.367 49.665V53H331.271V49.6455C331.271 49.2939 331.227 48.9912 331.139 48.7373C331.054 48.4801 330.932 48.2686 330.772 48.1025C330.613 47.9365 330.419 47.8145 330.191 47.7363C329.967 47.6582 329.716 47.6191 329.439 47.6191C329.234 47.6224 329.039 47.6533 328.854 47.7119C328.671 47.7673 328.502 47.847 328.346 47.9512C328.242 48.0195 328.142 48.1009 328.048 48.1953C327.957 48.2865 327.872 48.3874 327.794 48.498L327.73 47.7168H326.92V53ZM332.672 50.3096V50.417C332.672 50.7979 332.727 51.151 332.838 51.4766C332.949 51.8021 333.108 52.0853 333.316 52.3262C333.521 52.5671 333.772 52.7559 334.068 52.8926C334.368 53.0293 334.705 53.0977 335.079 53.0977C335.45 53.0977 335.784 53.0293 336.08 52.8926C336.376 52.7559 336.629 52.5671 336.837 52.3262C337.042 52.0853 337.2 51.8021 337.311 51.4766C337.421 51.151 337.477 50.7979 337.477 50.417V50.3096C337.477 49.9287 337.421 49.5755 337.311 49.25C337.2 48.9212 337.042 48.6364 336.837 48.3955C336.629 48.1546 336.375 47.9658 336.075 47.8291C335.779 47.6891 335.444 47.6191 335.069 47.6191C334.698 47.6191 334.365 47.6891 334.068 47.8291C333.772 47.9658 333.521 48.1546 333.316 48.3955C333.108 48.6364 332.949 48.9212 332.838 49.25C332.727 49.5755 332.672 49.9287 332.672 50.3096ZM333.575 50.417V50.3096C333.575 50.0524 333.606 49.8066 333.668 49.5723C333.73 49.3346 333.824 49.1263 333.951 48.9473C334.075 48.7682 334.229 48.6266 334.415 48.5225C334.601 48.415 334.819 48.3613 335.069 48.3613C335.32 48.3613 335.538 48.415 335.724 48.5225C335.912 48.6266 336.07 48.7682 336.197 48.9473C336.321 49.1263 336.414 49.3346 336.476 49.5723C336.541 49.8066 336.573 50.0524 336.573 50.3096V50.417C336.573 50.6774 336.542 50.9264 336.48 51.1641C336.419 51.3984 336.326 51.6051 336.202 51.7842C336.075 51.9632 335.917 52.1048 335.729 52.209C335.543 52.3132 335.326 52.3652 335.079 52.3652C334.828 52.3652 334.609 52.3132 334.42 52.209C334.231 52.1048 334.075 51.9632 333.951 51.7842C333.824 51.6051 333.73 51.3984 333.668 51.1641C333.606 50.9264 333.575 50.6774 333.575 50.417ZM338.761 50.3145V50.417C338.761 50.7946 338.811 51.1478 338.912 51.4766C339.013 51.8021 339.155 52.0853 339.337 52.3262C339.519 52.5671 339.739 52.7559 339.996 52.8926C340.257 53.0293 340.546 53.0977 340.865 53.0977C341.191 53.0977 341.476 53.0423 341.72 52.9316C341.964 52.821 342.174 52.6582 342.35 52.4434L342.389 53H343.219V45.5H342.315V48.2393C342.143 48.0374 341.938 47.8844 341.7 47.7803C341.466 47.6729 341.191 47.6191 340.875 47.6191C340.553 47.6191 340.261 47.6859 340.001 47.8193C339.741 47.9528 339.519 48.1383 339.337 48.376C339.151 48.6136 339.008 48.8984 338.907 49.2305C338.81 49.5592 338.761 49.9206 338.761 50.3145ZM339.664 50.417V50.3145C339.664 50.0573 339.692 49.8132 339.747 49.582C339.802 49.3477 339.889 49.141 340.006 48.9619C340.12 48.7861 340.266 48.6462 340.445 48.542C340.628 48.4378 340.846 48.3857 341.1 48.3857C341.396 48.3857 341.643 48.4557 341.842 48.5957C342.04 48.7324 342.198 48.9082 342.315 49.123V51.5742C342.198 51.8053 342.04 51.9893 341.842 52.126C341.643 52.2627 341.393 52.3311 341.09 52.3311C340.839 52.3311 340.624 52.2806 340.445 52.1797C340.266 52.0755 340.12 51.9355 340.006 51.7598C339.889 51.584 339.802 51.3805 339.747 51.1494C339.692 50.9183 339.664 50.6742 339.664 50.417ZM347.271 53.0977C347.786 53.0977 348.217 52.9951 348.565 52.79C348.917 52.5817 349.181 52.3441 349.356 52.0771L348.805 51.6475C348.639 51.8623 348.43 52.0348 348.18 52.165C347.929 52.2952 347.643 52.3604 347.32 52.3604C347.076 52.3604 346.853 52.3148 346.651 52.2236C346.45 52.1325 346.277 52.0072 346.134 51.8477C345.994 51.6979 345.883 51.5254 345.802 51.3301C345.724 51.1348 345.673 50.9085 345.65 50.6514V50.6172H349.425V50.2119C349.425 49.8441 349.378 49.5023 349.283 49.1865C349.192 48.8708 349.052 48.5957 348.863 48.3613C348.674 48.1302 348.437 47.9495 348.15 47.8193C347.867 47.6859 347.535 47.6191 347.154 47.6191C346.852 47.6191 346.555 47.681 346.266 47.8047C345.979 47.9284 345.724 48.1058 345.499 48.3369C345.271 48.5713 345.089 48.8577 344.952 49.1963C344.815 49.5316 344.747 49.9124 344.747 50.3389V50.5439C344.747 50.9118 344.809 51.252 344.933 51.5645C345.056 51.877 345.229 52.1471 345.45 52.375C345.672 52.6029 345.937 52.7803 346.246 52.9072C346.559 53.0342 346.9 53.0977 347.271 53.0977ZM347.154 48.3613C347.385 48.3613 347.584 48.4036 347.75 48.4883C347.919 48.5729 348.059 48.6836 348.17 48.8203C348.281 48.957 348.367 49.1198 348.429 49.3086C348.491 49.4941 348.521 49.6683 348.521 49.8311V49.875H345.68C345.715 49.6309 345.777 49.416 345.865 49.2305C345.956 49.0417 346.067 48.8822 346.197 48.752C346.327 48.625 346.474 48.529 346.637 48.4639C346.799 48.3955 346.972 48.3613 347.154 48.3613ZM355.304 53V52.2627H351.734L353.644 50.1924C353.823 49.9971 353.992 49.8018 354.151 49.6064C354.314 49.4079 354.457 49.2077 354.581 49.0059C354.701 48.804 354.798 48.6006 354.869 48.3955C354.941 48.1872 354.977 47.9772 354.977 47.7656C354.977 47.4824 354.926 47.2204 354.825 46.9795C354.728 46.7386 354.586 46.5303 354.4 46.3545C354.215 46.1787 353.987 46.042 353.717 45.9443C353.45 45.8434 353.149 45.793 352.813 45.793C352.449 45.793 352.123 45.8516 351.837 45.9688C351.554 46.0859 351.314 46.2438 351.119 46.4424C350.921 46.641 350.769 46.8737 350.665 47.1406C350.561 47.4043 350.509 47.6859 350.509 47.9854H351.417C351.417 47.764 351.445 47.5638 351.5 47.3848C351.559 47.2057 351.646 47.0527 351.764 46.9258C351.878 46.8021 352.021 46.7061 352.193 46.6377C352.369 46.5693 352.576 46.5352 352.813 46.5352C353.009 46.5352 353.183 46.5693 353.336 46.6377C353.492 46.7028 353.626 46.7923 353.736 46.9062C353.844 47.0202 353.925 47.1553 353.98 47.3115C354.039 47.4645 354.068 47.6289 354.068 47.8047C354.068 47.9479 354.05 48.0879 354.015 48.2246C353.979 48.3581 353.919 48.4997 353.834 48.6494C353.749 48.8024 353.637 48.9684 353.497 49.1475C353.357 49.3265 353.183 49.5316 352.975 49.7627L350.646 52.3506V53H355.304ZM358.766 52.4141C358.766 52.6029 358.824 52.764 358.941 52.8975C359.062 53.0277 359.239 53.0928 359.474 53.0928C359.705 53.0928 359.882 53.0277 360.006 52.8975C360.13 52.7673 360.191 52.6061 360.191 52.4141C360.191 52.2188 360.13 52.0544 360.006 51.9209C359.885 51.7842 359.708 51.7158 359.474 51.7158C359.236 51.7158 359.059 51.7842 358.941 51.9209C358.824 52.0576 358.766 52.222 358.766 52.4141ZM358.766 48.1367C358.766 48.3255 358.824 48.4867 358.941 48.6201C359.062 48.7503 359.239 48.8154 359.474 48.8154C359.705 48.8154 359.882 48.7503 360.006 48.6201C360.13 48.4899 360.191 48.3288 360.191 48.1367C360.191 47.9414 360.13 47.777 360.006 47.6436C359.885 47.5068 359.708 47.4385 359.474 47.4385C359.236 47.4385 359.059 47.5068 358.941 47.6436C358.824 47.7803 358.766 47.9447 358.766 48.1367ZM370.606 50.998H371.51C371.51 50.8711 371.513 50.7588 371.52 50.6611C371.526 50.5602 371.542 50.4658 371.568 50.3779C371.594 50.29 371.633 50.2038 371.686 50.1191C371.741 50.0345 371.817 49.945 371.915 49.8506C372.068 49.7139 372.223 49.5658 372.379 49.4062C372.538 49.2467 372.682 49.0742 372.809 48.8887C372.936 48.7064 373.04 48.5127 373.121 48.3076C373.202 48.0993 373.243 47.8779 373.243 47.6436C373.243 47.3506 373.196 47.0902 373.102 46.8623C373.007 46.6344 372.87 46.4408 372.691 46.2812C372.512 46.1217 372.293 46.0013 372.032 45.9199C371.775 45.8353 371.482 45.793 371.153 45.793C370.857 45.793 370.58 45.8337 370.323 45.915C370.069 45.9932 369.85 46.1071 369.664 46.2568C369.475 46.4098 369.326 46.5954 369.215 46.8135C369.104 47.0316 369.047 47.2773 369.044 47.5508H369.947C369.947 47.3815 369.981 47.2367 370.05 47.1162C370.118 46.9925 370.209 46.89 370.323 46.8086C370.434 46.7305 370.561 46.6735 370.704 46.6377C370.851 46.5986 371 46.5791 371.153 46.5791C371.352 46.5791 371.528 46.6051 371.681 46.6572C371.834 46.7093 371.961 46.7858 372.062 46.8867C372.153 46.9779 372.221 47.0902 372.267 47.2236C372.315 47.3538 372.34 47.5036 372.34 47.6729C372.34 47.8356 372.309 47.9902 372.247 48.1367C372.185 48.2832 372.107 48.4215 372.013 48.5518C371.915 48.6852 371.808 48.8122 371.69 48.9326C371.576 49.0531 371.464 49.1702 371.354 49.2842C371.191 49.4339 371.061 49.5641 370.963 49.6748C370.865 49.7822 370.79 49.8945 370.738 50.0117C370.686 50.1322 370.652 50.2689 370.636 50.4219C370.619 50.5716 370.61 50.7637 370.606 50.998ZM370.504 52.5264C370.504 52.6761 370.549 52.8014 370.641 52.9023C370.735 53.0033 370.875 53.0537 371.061 53.0537C371.246 53.0537 371.386 53.0033 371.48 52.9023C371.578 52.8014 371.627 52.6761 371.627 52.5264C371.627 52.3701 371.578 52.2399 371.48 52.1357C371.386 52.0316 371.246 51.9795 371.061 51.9795C370.875 51.9795 370.735 52.0316 370.641 52.1357C370.549 52.2399 370.504 52.3701 370.504 52.5264ZM381.7 54.2256L381.803 54.7871C382.122 54.7806 382.397 54.7074 382.628 54.5674C382.859 54.4274 383.051 54.2484 383.204 54.0303C383.354 53.8122 383.465 53.5697 383.536 53.3027C383.608 53.0391 383.644 52.777 383.644 52.5166V51.6914C383.644 51.4635 383.67 51.2666 383.722 51.1006C383.774 50.9346 383.854 50.7962 383.961 50.6855C384.072 50.5716 384.213 50.4886 384.386 50.4365C384.562 50.3812 384.767 50.3519 385.001 50.3486V49.6406C384.734 49.6406 384.505 49.6064 384.312 49.5381C384.124 49.4665 383.976 49.3542 383.868 49.2012C383.793 49.0938 383.736 48.9668 383.697 48.8203C383.661 48.6706 383.644 48.498 383.644 48.3027V47.4727C383.644 47.1992 383.606 46.9225 383.531 46.6426C383.46 46.3626 383.341 46.1104 383.175 45.8857C383.028 45.6872 382.841 45.526 382.613 45.4023C382.389 45.2786 382.118 45.2119 381.803 45.2021L381.705 45.7637C381.939 45.7702 382.125 45.8255 382.262 45.9297C382.398 46.0339 382.503 46.1657 382.574 46.3252C382.643 46.488 382.687 46.6702 382.706 46.8721C382.729 47.0739 382.74 47.2741 382.74 47.4727V48.3027C382.74 48.5566 382.778 48.7926 382.853 49.0107C382.927 49.2256 383.043 49.4144 383.199 49.5771C383.281 49.665 383.375 49.7448 383.482 49.8164C383.593 49.888 383.714 49.9499 383.844 50.002C383.717 50.054 383.6 50.1143 383.492 50.1826C383.388 50.251 383.294 50.3275 383.209 50.4121C383.049 50.5716 382.931 50.7604 382.853 50.9785C382.778 51.1966 382.74 51.4342 382.74 51.6914V52.5166C382.74 52.7184 382.722 52.9186 382.687 53.1172C382.654 53.319 382.599 53.4997 382.521 53.6592C382.439 53.8219 382.332 53.9554 382.198 54.0596C382.065 54.1637 381.899 54.2191 381.7 54.2256Z"
    fill="#5F9CF8" pathLength="1" stroke-dashoffset="0px" stroke-dasharray="1px 1px"></path>
  <path
    d="M250.347 210.369C250.551 210.73 251.009 210.857 251.369 210.653L257.243 207.327C257.604 207.123 257.731 206.665 257.527 206.305C257.323 205.945 256.865 205.818 256.504 206.022L251.283 208.978L248.327 203.757C248.123 203.396 247.665 203.269 247.305 203.473C246.945 203.677 246.818 204.135 247.022 204.496L250.347 210.369ZM291.277 61.7998L250.277 209.8L251.723 210.2L292.723 62.2002L291.277 61.7998Z"
    fill="#5F9CF8" pathLength="1" stroke-dashoffset="0px" stroke-dasharray="1px 1px"></path>
  <path
    d="M337.45 212.538C337.747 212.827 338.222 212.82 338.511 212.524L343.221 207.688C343.51 207.392 343.503 206.917 343.207 206.628C342.91 206.339 342.435 206.345 342.146 206.642L337.96 210.94L333.662 206.753C333.365 206.464 332.89 206.471 332.601 206.767C332.312 207.064 332.318 207.539 332.615 207.828L337.45 212.538ZM335.25 62.0099L337.224 212.01L338.724 211.99L336.75 61.9901L335.25 62.0099Z"
    fill="#5F9CF8" pathLength="1" stroke-dashoffset="0px" stroke-dasharray="1px 1px"></path>
</svg>