<svg class="w-full svg" width="626" height="302" viewBox="0 0 626 302" fill="none" xmlns="http://www.w3.org/2000/svg">
  <rect width="626" height="302" rx="19" fill="#111111" pathLength="1" stroke-dashoffset="0px"
    stroke-dasharray="1px 1px"></rect>
  <ellipse cx="335" cy="95.5" rx="22" ry="21.5" fill="white" pathLength="1" stroke-dashoffset="0px"
    stroke-dasharray="1px 1px"></ellipse>
  <ellipse cx="376" cy="165.5" rx="22" ry="21.5" fill="white" pathLength="1" stroke-dashoffset="0px"
    stroke-dasharray="1px 1px"></ellipse>
  <ellipse cx="294" cy="165.5" rx="22" ry="21.5" fill="white" pathLength="1" stroke-dashoffset="0px"
    stroke-dasharray="1px 1px"></ellipse>
  <ellipse cx="250" cy="237.5" rx="22" ry="21.5" fill="white" pathLength="1" stroke-dashoffset="0px"
    stroke-dasharray="1px 1px"></ellipse>
  <ellipse cx="338" cy="237.5" rx="22" ry="21.5" fill="white" pathLength="1" stroke-dashoffset="0px"
    stroke-dasharray="1px 1px"></ellipse>
  <path d="M334 96L249 241.5" stroke="white" stroke-width="3" pathLength="1" stroke-dashoffset="0px"
    stroke-dasharray="1px 1px"></path>
  <path d="M334.5 97L377 167" stroke="white" stroke-width="3" pathLength="1" stroke-dashoffset="0px"
    stroke-dasharray="1px 1px"></path>
  <path d="M293 166L340 242" stroke="white" stroke-width="3" pathLength="1" stroke-dashoffset="0px"
    stroke-dasharray="1px 1px"></path>
  <path
    d="M249.117 240.468H251.68C251.68 240.194 251.687 239.962 251.701 239.771C251.714 239.572 251.749 239.391 251.803 239.227C251.851 239.063 251.933 238.902 252.049 238.745C252.166 238.588 252.326 238.407 252.531 238.202C252.866 237.908 253.198 237.607 253.526 237.299C253.861 236.985 254.158 236.653 254.418 236.305C254.678 235.963 254.89 235.594 255.054 235.197C255.218 234.794 255.3 234.35 255.3 233.864C255.3 233.208 255.19 232.63 254.972 232.131C254.753 231.632 254.438 231.212 254.028 230.87C253.611 230.535 253.102 230.282 252.5 230.111C251.899 229.94 251.219 229.855 250.46 229.855C249.783 229.855 249.154 229.94 248.573 230.111C247.992 230.275 247.486 230.528 247.056 230.87C246.625 231.212 246.283 231.643 246.03 232.162C245.777 232.675 245.647 233.28 245.641 233.977H248.501C248.508 233.663 248.566 233.393 248.676 233.167C248.792 232.941 248.942 232.757 249.127 232.613C249.305 232.47 249.51 232.367 249.742 232.306C249.975 232.237 250.214 232.203 250.46 232.203C250.774 232.203 251.051 232.237 251.291 232.306C251.537 232.374 251.745 232.477 251.916 232.613C252.08 232.764 252.207 232.955 252.295 233.188C252.384 233.413 252.429 233.683 252.429 233.998C252.429 234.257 252.371 234.517 252.254 234.777C252.138 235.037 251.988 235.29 251.803 235.536C251.612 235.789 251.4 236.035 251.167 236.274C250.935 236.506 250.703 236.729 250.47 236.94C250.149 237.193 249.899 237.433 249.722 237.658C249.544 237.877 249.411 238.116 249.322 238.376C249.233 238.643 249.175 238.94 249.147 239.268C249.127 239.596 249.117 239.996 249.117 240.468ZM248.696 243.575C248.696 244.012 248.843 244.381 249.137 244.682C249.431 244.976 249.838 245.123 250.357 245.123C250.863 245.123 251.267 244.976 251.567 244.682C251.875 244.381 252.029 244.012 252.029 243.575C252.029 243.124 251.875 242.748 251.567 242.447C251.267 242.139 250.863 241.985 250.357 241.985C249.838 241.985 249.431 242.139 249.137 242.447C248.843 242.748 248.696 243.124 248.696 243.575Z"
    fill="black" pathLength="1" stroke-dashoffset="0px" stroke-dasharray="1px 1px"></path>
  <path
    d="M336.117 240.468H338.68C338.68 240.194 338.687 239.962 338.701 239.771C338.714 239.572 338.749 239.391 338.803 239.227C338.851 239.063 338.933 238.902 339.049 238.745C339.166 238.588 339.326 238.407 339.531 238.202C339.866 237.908 340.198 237.607 340.526 237.299C340.861 236.985 341.158 236.653 341.418 236.305C341.678 235.963 341.89 235.594 342.054 235.197C342.218 234.794 342.3 234.35 342.3 233.864C342.3 233.208 342.19 232.63 341.972 232.131C341.753 231.632 341.438 231.212 341.028 230.87C340.611 230.535 340.102 230.282 339.5 230.111C338.899 229.94 338.219 229.855 337.46 229.855C336.783 229.855 336.154 229.94 335.573 230.111C334.992 230.275 334.486 230.528 334.056 230.87C333.625 231.212 333.283 231.643 333.03 232.162C332.777 232.675 332.647 233.28 332.641 233.977H335.501C335.508 233.663 335.566 233.393 335.676 233.167C335.792 232.941 335.942 232.757 336.127 232.613C336.305 232.47 336.51 232.367 336.742 232.306C336.975 232.237 337.214 232.203 337.46 232.203C337.774 232.203 338.051 232.237 338.291 232.306C338.537 232.374 338.745 232.477 338.916 232.613C339.08 232.764 339.207 232.955 339.295 233.188C339.384 233.413 339.429 233.683 339.429 233.998C339.429 234.257 339.371 234.517 339.254 234.777C339.138 235.037 338.988 235.29 338.803 235.536C338.612 235.789 338.4 236.035 338.167 236.274C337.935 236.506 337.703 236.729 337.47 236.94C337.149 237.193 336.899 237.433 336.722 237.658C336.544 237.877 336.411 238.116 336.322 238.376C336.233 238.643 336.175 238.94 336.147 239.268C336.127 239.596 336.117 239.996 336.117 240.468ZM335.696 243.575C335.696 244.012 335.843 244.381 336.137 244.682C336.431 244.976 336.838 245.123 337.357 245.123C337.863 245.123 338.267 244.976 338.567 244.682C338.875 244.381 339.029 244.012 339.029 243.575C339.029 243.124 338.875 242.748 338.567 242.447C338.267 242.139 337.863 241.985 337.357 241.985C336.838 241.985 336.431 242.139 336.137 242.447C335.843 242.748 335.696 243.124 335.696 243.575Z"
    fill="black" pathLength="1" stroke-dashoffset="0px" stroke-dasharray="1px 1px"></path>
  <path
    d="M255.775 36.7871L255.878 36.2256C255.676 36.2191 255.508 36.1637 255.375 36.0596C255.245 35.9554 255.141 35.8219 255.062 35.6592C254.981 35.4997 254.924 35.319 254.892 35.1172C254.859 34.9186 254.843 34.7184 254.843 34.5166V33.6914C254.84 33.304 254.748 32.9639 254.569 32.6709C254.39 32.3747 254.112 32.1517 253.734 32.002C254.112 31.849 254.39 31.626 254.569 31.333C254.752 31.0368 254.843 30.6934 254.843 30.3027V29.4727C254.843 29.2741 254.853 29.0739 254.872 28.8721C254.892 28.6702 254.937 28.488 255.009 28.3252C255.077 28.1657 255.18 28.0339 255.316 27.9297C255.456 27.8255 255.644 27.7702 255.878 27.7637L255.775 27.2021C255.447 27.2119 255.167 27.2835 254.936 27.417C254.704 27.5472 254.517 27.7165 254.374 27.9248C254.221 28.1429 254.109 28.3903 254.037 28.667C253.969 28.9404 253.935 29.209 253.935 29.4727V30.3027C253.935 30.7747 253.822 31.1165 253.598 31.3281C253.376 31.5365 253.036 31.6406 252.577 31.6406V32.3486C253.036 32.3519 253.376 32.4593 253.598 32.6709C253.822 32.8825 253.935 33.2227 253.935 33.6914V34.5166C253.935 34.777 253.972 35.0391 254.047 35.3027C254.122 35.5697 254.232 35.8105 254.379 36.0254C254.532 36.25 254.724 36.4307 254.955 36.5674C255.186 36.7041 255.46 36.7773 255.775 36.7871ZM263.861 35H264.765V31.2109C264.826 31.097 264.898 30.9928 264.979 30.8984C265.064 30.804 265.155 30.721 265.253 30.6494C265.373 30.568 265.505 30.5046 265.648 30.459C265.792 30.4102 265.946 30.3857 266.112 30.3857C266.304 30.3857 266.474 30.4085 266.62 30.4541C266.77 30.4997 266.897 30.5729 267.001 30.6738C267.102 30.7747 267.178 30.9066 267.23 31.0693C267.283 31.2321 267.309 31.4307 267.309 31.665V35H268.212V31.6455C268.212 31.2939 268.168 30.9912 268.08 30.7373C267.995 30.4801 267.873 30.2686 267.714 30.1025C267.554 29.9365 267.361 29.8145 267.133 29.7363C266.908 29.6582 266.658 29.6191 266.381 29.6191C266.176 29.6224 265.98 29.6533 265.795 29.7119C265.613 29.7673 265.443 29.847 265.287 29.9512C265.183 30.0195 265.084 30.1009 264.989 30.1953C264.898 30.2865 264.813 30.3874 264.735 30.498L264.672 29.7168H263.861V35ZM269.613 32.3096V32.417C269.613 32.7979 269.669 33.151 269.779 33.4766C269.89 33.8021 270.049 34.0853 270.258 34.3262C270.463 34.5671 270.714 34.7559 271.01 34.8926C271.309 35.0293 271.646 35.0977 272.021 35.0977C272.392 35.0977 272.725 35.0293 273.021 34.8926C273.318 34.7559 273.57 34.5671 273.778 34.3262C273.983 34.0853 274.141 33.8021 274.252 33.4766C274.363 33.151 274.418 32.7979 274.418 32.417V32.3096C274.418 31.9287 274.363 31.5755 274.252 31.25C274.141 30.9212 273.983 30.6364 273.778 30.3955C273.57 30.1546 273.316 29.9658 273.017 29.8291C272.72 29.6891 272.385 29.6191 272.011 29.6191C271.64 29.6191 271.306 29.6891 271.01 29.8291C270.714 29.9658 270.463 30.1546 270.258 30.3955C270.049 30.6364 269.89 30.9212 269.779 31.25C269.669 31.5755 269.613 31.9287 269.613 32.3096ZM270.517 32.417V32.3096C270.517 32.0524 270.548 31.8066 270.609 31.5723C270.671 31.3346 270.766 31.1263 270.893 30.9473C271.016 30.7682 271.171 30.6266 271.356 30.5225C271.542 30.415 271.76 30.3613 272.011 30.3613C272.261 30.3613 272.479 30.415 272.665 30.5225C272.854 30.6266 273.012 30.7682 273.139 30.9473C273.262 31.1263 273.355 31.3346 273.417 31.5723C273.482 31.8066 273.515 32.0524 273.515 32.3096V32.417C273.515 32.6774 273.484 32.9264 273.422 33.1641C273.36 33.3984 273.267 33.6051 273.144 33.7842C273.017 33.9632 272.859 34.1048 272.67 34.209C272.484 34.3132 272.268 34.3652 272.021 34.3652C271.77 34.3652 271.55 34.3132 271.361 34.209C271.173 34.1048 271.016 33.9632 270.893 33.7842C270.766 33.6051 270.671 33.3984 270.609 33.1641C270.548 32.9264 270.517 32.6774 270.517 32.417ZM275.702 32.3145V32.417C275.702 32.7946 275.753 33.1478 275.854 33.4766C275.954 33.8021 276.096 34.0853 276.278 34.3262C276.461 34.5671 276.68 34.7559 276.938 34.8926C277.198 35.0293 277.488 35.0977 277.807 35.0977C278.132 35.0977 278.417 35.0423 278.661 34.9316C278.905 34.821 279.115 34.6582 279.291 34.4434L279.33 35H280.16V27.5H279.257V30.2393C279.084 30.0374 278.879 29.8844 278.642 29.7803C278.407 29.6729 278.132 29.6191 277.816 29.6191C277.494 29.6191 277.203 29.6859 276.942 29.8193C276.682 29.9528 276.461 30.1383 276.278 30.376C276.093 30.6136 275.95 30.8984 275.849 31.2305C275.751 31.5592 275.702 31.9206 275.702 32.3145ZM276.605 32.417V32.3145C276.605 32.0573 276.633 31.8132 276.688 31.582C276.744 31.3477 276.83 31.141 276.947 30.9619C277.061 30.7861 277.208 30.6462 277.387 30.542C277.569 30.4378 277.787 30.3857 278.041 30.3857C278.337 30.3857 278.585 30.4557 278.783 30.5957C278.982 30.7324 279.14 30.9082 279.257 31.123V33.5742C279.14 33.8053 278.982 33.9893 278.783 34.126C278.585 34.2627 278.334 34.3311 278.031 34.3311C277.781 34.3311 277.566 34.2806 277.387 34.1797C277.208 34.0755 277.061 33.9355 276.947 33.7598C276.83 33.584 276.744 33.3805 276.688 33.1494C276.633 32.9183 276.605 32.6742 276.605 32.417ZM284.213 35.0977C284.727 35.0977 285.159 34.9951 285.507 34.79C285.858 34.5817 286.122 34.3441 286.298 34.0771L285.746 33.6475C285.58 33.8623 285.372 34.0348 285.121 34.165C284.87 34.2952 284.584 34.3604 284.262 34.3604C284.018 34.3604 283.795 34.3148 283.593 34.2236C283.391 34.1325 283.218 34.0072 283.075 33.8477C282.935 33.6979 282.825 33.5254 282.743 33.3301C282.665 33.1348 282.615 32.9085 282.592 32.6514V32.6172H286.366V32.2119C286.366 31.8441 286.319 31.5023 286.225 31.1865C286.133 30.8708 285.993 30.5957 285.805 30.3613C285.616 30.1302 285.378 29.9495 285.092 29.8193C284.809 29.6859 284.477 29.6191 284.096 29.6191C283.793 29.6191 283.497 29.681 283.207 29.8047C282.921 29.9284 282.665 30.1058 282.44 30.3369C282.213 30.5713 282.03 30.8577 281.894 31.1963C281.757 31.5316 281.688 31.9124 281.688 32.3389V32.5439C281.688 32.9118 281.75 33.252 281.874 33.5645C281.998 33.877 282.17 34.1471 282.392 34.375C282.613 34.6029 282.878 34.7803 283.188 34.9072C283.5 35.0342 283.842 35.0977 284.213 35.0977ZM284.096 30.3613C284.327 30.3613 284.525 30.4036 284.691 30.4883C284.861 30.5729 285.001 30.6836 285.111 30.8203C285.222 30.957 285.308 31.1198 285.37 31.3086C285.432 31.4941 285.463 31.6683 285.463 31.8311V31.875H282.621C282.657 31.6309 282.719 31.416 282.807 31.2305C282.898 31.0417 283.008 30.8822 283.139 30.752C283.269 30.625 283.415 30.529 283.578 30.4639C283.741 30.3955 283.913 30.3613 284.096 30.3613ZM290.814 35V27.8906H290.741L288.051 28.9258V29.751L289.911 29.043V35H290.814ZM295.707 34.4141C295.707 34.6029 295.766 34.764 295.883 34.8975C296.003 35.0277 296.181 35.0928 296.415 35.0928C296.646 35.0928 296.824 35.0277 296.947 34.8975C297.071 34.7673 297.133 34.6061 297.133 34.4141C297.133 34.2188 297.071 34.0544 296.947 33.9209C296.827 33.7842 296.649 33.7158 296.415 33.7158C296.177 33.7158 296 33.7842 295.883 33.9209C295.766 34.0576 295.707 34.222 295.707 34.4141ZM295.707 30.1367C295.707 30.3255 295.766 30.4867 295.883 30.6201C296.003 30.7503 296.181 30.8154 296.415 30.8154C296.646 30.8154 296.824 30.7503 296.947 30.6201C297.071 30.4899 297.133 30.3288 297.133 30.1367C297.133 29.9414 297.071 29.777 296.947 29.6436C296.827 29.5068 296.649 29.4385 296.415 29.4385C296.177 29.4385 296 29.5068 295.883 29.6436C295.766 29.7803 295.707 29.9447 295.707 30.1367ZM307.548 32.998H308.451C308.451 32.8711 308.454 32.7588 308.461 32.6611C308.467 32.5602 308.484 32.4658 308.51 32.3779C308.536 32.29 308.575 32.2038 308.627 32.1191C308.682 32.0345 308.759 31.945 308.856 31.8506C309.009 31.7139 309.164 31.5658 309.32 31.4062C309.48 31.2467 309.623 31.0742 309.75 30.8887C309.877 30.7064 309.981 30.5127 310.062 30.3076C310.144 30.0993 310.185 29.8779 310.185 29.6436C310.185 29.3506 310.137 29.0902 310.043 28.8623C309.949 28.6344 309.812 28.4408 309.633 28.2812C309.454 28.1217 309.234 28.0013 308.974 27.9199C308.716 27.8353 308.424 27.793 308.095 27.793C307.799 27.793 307.522 27.8337 307.265 27.915C307.011 27.9932 306.791 28.1071 306.605 28.2568C306.417 28.4098 306.267 28.5954 306.156 28.8135C306.046 29.0316 305.989 29.2773 305.985 29.5508H306.889C306.889 29.3815 306.923 29.2367 306.991 29.1162C307.06 28.9925 307.151 28.89 307.265 28.8086C307.375 28.7305 307.502 28.6735 307.646 28.6377C307.792 28.5986 307.942 28.5791 308.095 28.5791C308.293 28.5791 308.469 28.6051 308.622 28.6572C308.775 28.7093 308.902 28.7858 309.003 28.8867C309.094 28.9779 309.162 29.0902 309.208 29.2236C309.257 29.3538 309.281 29.5036 309.281 29.6729C309.281 29.8356 309.25 29.9902 309.188 30.1367C309.127 30.2832 309.049 30.4215 308.954 30.5518C308.856 30.6852 308.749 30.8122 308.632 30.9326C308.518 31.0531 308.406 31.1702 308.295 31.2842C308.132 31.4339 308.002 31.5641 307.904 31.6748C307.807 31.7822 307.732 31.8945 307.68 32.0117C307.628 32.1322 307.593 32.2689 307.577 32.4219C307.561 32.5716 307.551 32.7637 307.548 32.998ZM307.445 34.5264C307.445 34.6761 307.491 34.8014 307.582 34.9023C307.676 35.0033 307.816 35.0537 308.002 35.0537C308.188 35.0537 308.327 35.0033 308.422 34.9023C308.52 34.8014 308.568 34.6761 308.568 34.5264C308.568 34.3701 308.52 34.2399 308.422 34.1357C308.327 34.0316 308.188 33.9795 308.002 33.9795C307.816 33.9795 307.676 34.0316 307.582 34.1357C307.491 34.2399 307.445 34.3701 307.445 34.5264ZM314.198 34.79V33.9307H313.217V34.8047C313.217 35.0814 313.184 35.3483 313.119 35.6055C313.054 35.8626 312.943 36.1051 312.787 36.333L313.349 36.6406C313.609 36.4095 313.816 36.1247 313.969 35.7861C314.122 35.4476 314.198 35.1156 314.198 34.79ZM323.92 35H324.823V31.2109C324.885 31.097 324.957 30.9928 325.038 30.8984C325.123 30.804 325.214 30.721 325.312 30.6494C325.432 30.568 325.564 30.5046 325.707 30.459C325.85 30.4102 326.005 30.3857 326.171 30.3857C326.363 30.3857 326.532 30.4085 326.679 30.4541C326.828 30.4997 326.955 30.5729 327.06 30.6738C327.16 30.7747 327.237 30.9066 327.289 31.0693C327.341 31.2321 327.367 31.4307 327.367 31.665V35H328.271V31.6455C328.271 31.2939 328.227 30.9912 328.139 30.7373C328.054 30.4801 327.932 30.2686 327.772 30.1025C327.613 29.9365 327.419 29.8145 327.191 29.7363C326.967 29.6582 326.716 29.6191 326.439 29.6191C326.234 29.6224 326.039 29.6533 325.854 29.7119C325.671 29.7673 325.502 29.847 325.346 29.9512C325.242 30.0195 325.142 30.1009 325.048 30.1953C324.957 30.2865 324.872 30.3874 324.794 30.498L324.73 29.7168H323.92V35ZM329.672 32.3096V32.417C329.672 32.7979 329.727 33.151 329.838 33.4766C329.949 33.8021 330.108 34.0853 330.316 34.3262C330.521 34.5671 330.772 34.7559 331.068 34.8926C331.368 35.0293 331.705 35.0977 332.079 35.0977C332.45 35.0977 332.784 35.0293 333.08 34.8926C333.376 34.7559 333.629 34.5671 333.837 34.3262C334.042 34.0853 334.2 33.8021 334.311 33.4766C334.421 33.151 334.477 32.7979 334.477 32.417V32.3096C334.477 31.9287 334.421 31.5755 334.311 31.25C334.2 30.9212 334.042 30.6364 333.837 30.3955C333.629 30.1546 333.375 29.9658 333.075 29.8291C332.779 29.6891 332.444 29.6191 332.069 29.6191C331.698 29.6191 331.365 29.6891 331.068 29.8291C330.772 29.9658 330.521 30.1546 330.316 30.3955C330.108 30.6364 329.949 30.9212 329.838 31.25C329.727 31.5755 329.672 31.9287 329.672 32.3096ZM330.575 32.417V32.3096C330.575 32.0524 330.606 31.8066 330.668 31.5723C330.73 31.3346 330.824 31.1263 330.951 30.9473C331.075 30.7682 331.229 30.6266 331.415 30.5225C331.601 30.415 331.819 30.3613 332.069 30.3613C332.32 30.3613 332.538 30.415 332.724 30.5225C332.912 30.6266 333.07 30.7682 333.197 30.9473C333.321 31.1263 333.414 31.3346 333.476 31.5723C333.541 31.8066 333.573 32.0524 333.573 32.3096V32.417C333.573 32.6774 333.542 32.9264 333.48 33.1641C333.419 33.3984 333.326 33.6051 333.202 33.7842C333.075 33.9632 332.917 34.1048 332.729 34.209C332.543 34.3132 332.326 34.3652 332.079 34.3652C331.828 34.3652 331.609 34.3132 331.42 34.209C331.231 34.1048 331.075 33.9632 330.951 33.7842C330.824 33.6051 330.73 33.3984 330.668 33.1641C330.606 32.9264 330.575 32.6774 330.575 32.417ZM335.761 32.3145V32.417C335.761 32.7946 335.811 33.1478 335.912 33.4766C336.013 33.8021 336.155 34.0853 336.337 34.3262C336.519 34.5671 336.739 34.7559 336.996 34.8926C337.257 35.0293 337.546 35.0977 337.865 35.0977C338.191 35.0977 338.476 35.0423 338.72 34.9316C338.964 34.821 339.174 34.6582 339.35 34.4434L339.389 35H340.219V27.5H339.315V30.2393C339.143 30.0374 338.938 29.8844 338.7 29.7803C338.466 29.6729 338.191 29.6191 337.875 29.6191C337.553 29.6191 337.261 29.6859 337.001 29.8193C336.741 29.9528 336.519 30.1383 336.337 30.376C336.151 30.6136 336.008 30.8984 335.907 31.2305C335.81 31.5592 335.761 31.9206 335.761 32.3145ZM336.664 32.417V32.3145C336.664 32.0573 336.692 31.8132 336.747 31.582C336.802 31.3477 336.889 31.141 337.006 30.9619C337.12 30.7861 337.266 30.6462 337.445 30.542C337.628 30.4378 337.846 30.3857 338.1 30.3857C338.396 30.3857 338.643 30.4557 338.842 30.5957C339.04 30.7324 339.198 30.9082 339.315 31.123V33.5742C339.198 33.8053 339.04 33.9893 338.842 34.126C338.643 34.2627 338.393 34.3311 338.09 34.3311C337.839 34.3311 337.624 34.2806 337.445 34.1797C337.266 34.0755 337.12 33.9355 337.006 33.7598C336.889 33.584 336.802 33.3805 336.747 33.1494C336.692 32.9183 336.664 32.6742 336.664 32.417ZM344.271 35.0977C344.786 35.0977 345.217 34.9951 345.565 34.79C345.917 34.5817 346.181 34.3441 346.356 34.0771L345.805 33.6475C345.639 33.8623 345.43 34.0348 345.18 34.165C344.929 34.2952 344.643 34.3604 344.32 34.3604C344.076 34.3604 343.853 34.3148 343.651 34.2236C343.45 34.1325 343.277 34.0072 343.134 33.8477C342.994 33.6979 342.883 33.5254 342.802 33.3301C342.724 33.1348 342.673 32.9085 342.65 32.6514V32.6172H346.425V32.2119C346.425 31.8441 346.378 31.5023 346.283 31.1865C346.192 30.8708 346.052 30.5957 345.863 30.3613C345.674 30.1302 345.437 29.9495 345.15 29.8193C344.867 29.6859 344.535 29.6191 344.154 29.6191C343.852 29.6191 343.555 29.681 343.266 29.8047C342.979 29.9284 342.724 30.1058 342.499 30.3369C342.271 30.5713 342.089 30.8577 341.952 31.1963C341.815 31.5316 341.747 31.9124 341.747 32.3389V32.5439C341.747 32.9118 341.809 33.252 341.933 33.5645C342.056 33.877 342.229 34.1471 342.45 34.375C342.672 34.6029 342.937 34.7803 343.246 34.9072C343.559 35.0342 343.9 35.0977 344.271 35.0977ZM344.154 30.3613C344.385 30.3613 344.584 30.4036 344.75 30.4883C344.919 30.5729 345.059 30.6836 345.17 30.8203C345.281 30.957 345.367 31.1198 345.429 31.3086C345.491 31.4941 345.521 31.6683 345.521 31.8311V31.875H342.68C342.715 31.6309 342.777 31.416 342.865 31.2305C342.956 31.0417 343.067 30.8822 343.197 30.752C343.327 30.625 343.474 30.529 343.637 30.4639C343.799 30.3955 343.972 30.3613 344.154 30.3613ZM352.304 35V34.2627H348.734L350.644 32.1924C350.823 31.9971 350.992 31.8018 351.151 31.6064C351.314 31.4079 351.457 31.2077 351.581 31.0059C351.701 30.804 351.798 30.6006 351.869 30.3955C351.941 30.1872 351.977 29.9772 351.977 29.7656C351.977 29.4824 351.926 29.2204 351.825 28.9795C351.728 28.7386 351.586 28.5303 351.4 28.3545C351.215 28.1787 350.987 28.042 350.717 27.9443C350.45 27.8434 350.149 27.793 349.813 27.793C349.449 27.793 349.123 27.8516 348.837 27.9688C348.554 28.0859 348.314 28.2438 348.119 28.4424C347.921 28.641 347.769 28.8737 347.665 29.1406C347.561 29.4043 347.509 29.6859 347.509 29.9854H348.417C348.417 29.764 348.445 29.5638 348.5 29.3848C348.559 29.2057 348.646 29.0527 348.764 28.9258C348.878 28.8021 349.021 28.7061 349.193 28.6377C349.369 28.5693 349.576 28.5352 349.813 28.5352C350.009 28.5352 350.183 28.5693 350.336 28.6377C350.492 28.7028 350.626 28.7923 350.736 28.9062C350.844 29.0202 350.925 29.1553 350.98 29.3115C351.039 29.4645 351.068 29.6289 351.068 29.8047C351.068 29.9479 351.05 30.0879 351.015 30.2246C350.979 30.3581 350.919 30.4997 350.834 30.6494C350.749 30.8024 350.637 30.9684 350.497 31.1475C350.357 31.3265 350.183 31.5316 349.975 31.7627L347.646 34.3506V35H352.304ZM355.766 34.4141C355.766 34.6029 355.824 34.764 355.941 34.8975C356.062 35.0277 356.239 35.0928 356.474 35.0928C356.705 35.0928 356.882 35.0277 357.006 34.8975C357.13 34.7673 357.191 34.6061 357.191 34.4141C357.191 34.2188 357.13 34.0544 357.006 33.9209C356.885 33.7842 356.708 33.7158 356.474 33.7158C356.236 33.7158 356.059 33.7842 355.941 33.9209C355.824 34.0576 355.766 34.222 355.766 34.4141ZM355.766 30.1367C355.766 30.3255 355.824 30.4867 355.941 30.6201C356.062 30.7503 356.239 30.8154 356.474 30.8154C356.705 30.8154 356.882 30.7503 357.006 30.6201C357.13 30.4899 357.191 30.3288 357.191 30.1367C357.191 29.9414 357.13 29.777 357.006 29.6436C356.885 29.5068 356.708 29.4385 356.474 29.4385C356.236 29.4385 356.059 29.5068 355.941 29.6436C355.824 29.7803 355.766 29.9447 355.766 30.1367ZM367.606 32.998H368.51C368.51 32.8711 368.513 32.7588 368.52 32.6611C368.526 32.5602 368.542 32.4658 368.568 32.3779C368.594 32.29 368.633 32.2038 368.686 32.1191C368.741 32.0345 368.817 31.945 368.915 31.8506C369.068 31.7139 369.223 31.5658 369.379 31.4062C369.538 31.2467 369.682 31.0742 369.809 30.8887C369.936 30.7064 370.04 30.5127 370.121 30.3076C370.202 30.0993 370.243 29.8779 370.243 29.6436C370.243 29.3506 370.196 29.0902 370.102 28.8623C370.007 28.6344 369.87 28.4408 369.691 28.2812C369.512 28.1217 369.293 28.0013 369.032 27.9199C368.775 27.8353 368.482 27.793 368.153 27.793C367.857 27.793 367.58 27.8337 367.323 27.915C367.069 27.9932 366.85 28.1071 366.664 28.2568C366.475 28.4098 366.326 28.5954 366.215 28.8135C366.104 29.0316 366.047 29.2773 366.044 29.5508H366.947C366.947 29.3815 366.981 29.2367 367.05 29.1162C367.118 28.9925 367.209 28.89 367.323 28.8086C367.434 28.7305 367.561 28.6735 367.704 28.6377C367.851 28.5986 368 28.5791 368.153 28.5791C368.352 28.5791 368.528 28.6051 368.681 28.6572C368.834 28.7093 368.961 28.7858 369.062 28.8867C369.153 28.9779 369.221 29.0902 369.267 29.2236C369.315 29.3538 369.34 29.5036 369.34 29.6729C369.34 29.8356 369.309 29.9902 369.247 30.1367C369.185 30.2832 369.107 30.4215 369.013 30.5518C368.915 30.6852 368.808 30.8122 368.69 30.9326C368.576 31.0531 368.464 31.1702 368.354 31.2842C368.191 31.4339 368.061 31.5641 367.963 31.6748C367.865 31.7822 367.79 31.8945 367.738 32.0117C367.686 32.1322 367.652 32.2689 367.636 32.4219C367.619 32.5716 367.61 32.7637 367.606 32.998ZM367.504 34.5264C367.504 34.6761 367.549 34.8014 367.641 34.9023C367.735 35.0033 367.875 35.0537 368.061 35.0537C368.246 35.0537 368.386 35.0033 368.48 34.9023C368.578 34.8014 368.627 34.6761 368.627 34.5264C368.627 34.3701 368.578 34.2399 368.48 34.1357C368.386 34.0316 368.246 33.9795 368.061 33.9795C367.875 33.9795 367.735 34.0316 367.641 34.1357C367.549 34.2399 367.504 34.3701 367.504 34.5264ZM378.7 36.2256L378.803 36.7871C379.122 36.7806 379.397 36.7074 379.628 36.5674C379.859 36.4274 380.051 36.2484 380.204 36.0303C380.354 35.8122 380.465 35.5697 380.536 35.3027C380.608 35.0391 380.644 34.777 380.644 34.5166V33.6914C380.644 33.4635 380.67 33.2666 380.722 33.1006C380.774 32.9346 380.854 32.7962 380.961 32.6855C381.072 32.5716 381.213 32.4886 381.386 32.4365C381.562 32.3812 381.767 32.3519 382.001 32.3486V31.6406C381.734 31.6406 381.505 31.6064 381.312 31.5381C381.124 31.4665 380.976 31.3542 380.868 31.2012C380.793 31.0938 380.736 30.9668 380.697 30.8203C380.661 30.6706 380.644 30.498 380.644 30.3027V29.4727C380.644 29.1992 380.606 28.9225 380.531 28.6426C380.46 28.3626 380.341 28.1104 380.175 27.8857C380.028 27.6872 379.841 27.526 379.613 27.4023C379.389 27.2786 379.118 27.2119 378.803 27.2021L378.705 27.7637C378.939 27.7702 379.125 27.8255 379.262 27.9297C379.398 28.0339 379.503 28.1657 379.574 28.3252C379.643 28.488 379.687 28.6702 379.706 28.8721C379.729 29.0739 379.74 29.2741 379.74 29.4727V30.3027C379.74 30.5566 379.778 30.7926 379.853 31.0107C379.927 31.2256 380.043 31.4144 380.199 31.5771C380.281 31.665 380.375 31.7448 380.482 31.8164C380.593 31.888 380.714 31.9499 380.844 32.002C380.717 32.054 380.6 32.1143 380.492 32.1826C380.388 32.251 380.294 32.3275 380.209 32.4121C380.049 32.5716 379.931 32.7604 379.853 32.9785C379.778 33.1966 379.74 33.4342 379.74 33.6914V34.5166C379.74 34.7184 379.722 34.9186 379.687 35.1172C379.654 35.319 379.599 35.4997 379.521 35.6592C379.439 35.8219 379.332 35.9554 379.198 36.0596C379.065 36.1637 378.899 36.2191 378.7 36.2256Z"
    fill="#5F9CF8" pathLength="1" stroke-dashoffset="0px" stroke-dasharray="1px 1px"></path>
  <rect x="307.5" y="67.5" width="55" height="55" stroke="#E139F0" pathLength="1" stroke-dashoffset="0px"
    stroke-dasharray="1px 1px"></rect>
  <path
    d="M151.753 94.5029V91.5H150.85V99H151.753V95.1621C151.818 95.0579 151.891 94.9635 151.973 94.8789C152.057 94.791 152.148 94.7145 152.246 94.6494C152.37 94.5648 152.505 94.4997 152.651 94.4541C152.798 94.4085 152.952 94.3857 153.115 94.3857C153.314 94.3825 153.49 94.4102 153.643 94.4688C153.796 94.5241 153.923 94.6087 154.023 94.7227C154.118 94.8268 154.189 94.9587 154.238 95.1182C154.287 95.2744 154.312 95.4567 154.312 95.665V99H155.215V95.6748C155.215 95.32 155.171 95.014 155.083 94.7568C154.998 94.4964 154.876 94.2816 154.717 94.1123C154.557 93.943 154.364 93.8193 154.136 93.7412C153.911 93.6598 153.66 93.6191 153.384 93.6191C153.172 93.6224 152.972 93.6533 152.783 93.7119C152.598 93.7705 152.427 93.8568 152.271 93.9707C152.173 94.0391 152.08 94.1188 151.992 94.21C151.904 94.2979 151.825 94.3955 151.753 94.5029ZM160.327 99H161.27V98.9219C161.211 98.7754 161.165 98.6045 161.133 98.4092C161.1 98.2106 161.084 98.0234 161.084 97.8477V95.3916C161.084 95.0954 161.03 94.8366 160.923 94.6152C160.815 94.3939 160.669 94.2083 160.483 94.0586C160.295 93.9121 160.072 93.8031 159.814 93.7314C159.557 93.6566 159.279 93.6191 158.979 93.6191C158.651 93.6191 158.356 93.6647 158.096 93.7559C157.839 93.847 157.62 93.9658 157.441 94.1123C157.259 94.262 157.119 94.4297 157.021 94.6152C156.927 94.8008 156.878 94.9896 156.875 95.1816H157.783C157.783 95.071 157.809 94.9652 157.861 94.8643C157.917 94.7601 157.993 94.6706 158.091 94.5957C158.188 94.5208 158.307 94.4606 158.447 94.415C158.59 94.3695 158.752 94.3467 158.931 94.3467C159.123 94.3467 159.295 94.3711 159.448 94.4199C159.604 94.4688 159.736 94.5371 159.844 94.625C159.951 94.7161 160.034 94.8252 160.093 94.9521C160.151 95.0791 160.181 95.2223 160.181 95.3818V95.7969H159.194C158.826 95.7969 158.493 95.8327 158.193 95.9043C157.897 95.9759 157.643 96.0833 157.432 96.2266C157.22 96.373 157.056 96.5553 156.938 96.7734C156.825 96.9915 156.768 97.2454 156.768 97.5352C156.768 97.7565 156.81 97.9632 156.895 98.1553C156.982 98.3441 157.106 98.5068 157.266 98.6436C157.422 98.7835 157.612 98.8942 157.837 98.9756C158.065 99.057 158.319 99.0977 158.599 99.0977C158.771 99.0977 158.934 99.0798 159.087 99.0439C159.24 99.0081 159.385 98.9593 159.521 98.8975C159.655 98.8356 159.777 98.764 159.888 98.6826C160.002 98.6012 160.104 98.515 160.195 98.4238C160.205 98.5345 160.22 98.6419 160.239 98.7461C160.262 98.847 160.291 98.9316 160.327 99ZM158.73 98.3115C158.555 98.3115 158.4 98.2887 158.267 98.2432C158.133 98.1976 158.022 98.1341 157.935 98.0527C157.847 97.9746 157.78 97.8802 157.734 97.7695C157.692 97.6589 157.671 97.5384 157.671 97.4082C157.671 97.2715 157.695 97.1494 157.744 97.042C157.796 96.9346 157.871 96.8418 157.969 96.7637C158.105 96.653 158.289 96.5716 158.521 96.5195C158.755 96.4642 159.028 96.4365 159.341 96.4365H160.181V97.5059C160.129 97.61 160.057 97.7109 159.966 97.8086C159.875 97.903 159.767 97.9876 159.644 98.0625C159.517 98.1374 159.377 98.1976 159.224 98.2432C159.071 98.2887 158.906 98.3115 158.73 98.3115ZM166.372 97.5986C166.372 97.6833 166.356 97.763 166.323 97.8379C166.291 97.9128 166.243 97.9811 166.182 98.043C166.081 98.1439 165.941 98.2236 165.762 98.2822C165.583 98.3376 165.373 98.3652 165.132 98.3652C164.979 98.3652 164.824 98.349 164.668 98.3164C164.512 98.2839 164.37 98.2285 164.243 98.1504C164.113 98.0723 164.004 97.9697 163.916 97.8428C163.831 97.7158 163.783 97.5596 163.77 97.374H162.866C162.866 97.5986 162.917 97.8151 163.018 98.0234C163.122 98.2318 163.271 98.4141 163.467 98.5703C163.659 98.7298 163.895 98.8584 164.175 98.9561C164.455 99.0505 164.774 99.0977 165.132 99.0977C165.444 99.0977 165.732 99.0602 165.996 98.9854C166.26 98.9105 166.486 98.8047 166.675 98.668C166.864 98.5312 167.01 98.3669 167.114 98.1748C167.222 97.9827 167.275 97.7695 167.275 97.5352C167.275 97.3171 167.228 97.125 167.134 96.959C167.043 96.793 166.909 96.6465 166.733 96.5195C166.558 96.3958 166.341 96.29 166.084 96.2021C165.827 96.111 165.535 96.0312 165.21 95.9629C164.963 95.9141 164.757 95.8636 164.595 95.8115C164.435 95.7594 164.308 95.7008 164.214 95.6357C164.116 95.5706 164.048 95.4974 164.009 95.416C163.97 95.3346 163.95 95.2419 163.95 95.1377C163.95 95.0368 163.975 94.9391 164.023 94.8447C164.072 94.7503 164.146 94.6673 164.243 94.5957C164.338 94.5241 164.456 94.4671 164.6 94.4248C164.746 94.3825 164.915 94.3613 165.107 94.3613C165.293 94.3613 165.459 94.3874 165.605 94.4395C165.755 94.4915 165.882 94.5599 165.986 94.6445C166.09 94.7292 166.172 94.8268 166.23 94.9375C166.289 95.0449 166.318 95.1556 166.318 95.2695H167.222C167.222 95.0384 167.171 94.8236 167.07 94.625C166.973 94.4232 166.833 94.2474 166.65 94.0977C166.468 93.9479 166.247 93.8307 165.986 93.7461C165.726 93.6615 165.433 93.6191 165.107 93.6191C164.805 93.6191 164.526 93.6598 164.272 93.7412C164.022 93.8226 163.805 93.9333 163.623 94.0732C163.441 94.2132 163.299 94.3776 163.198 94.5664C163.097 94.752 163.047 94.9521 163.047 95.167C163.047 95.3851 163.096 95.5771 163.193 95.7432C163.291 95.9059 163.429 96.0475 163.608 96.168C163.784 96.2917 163.996 96.3975 164.243 96.4854C164.494 96.5732 164.771 96.6481 165.073 96.71C165.321 96.7588 165.527 96.8141 165.693 96.876C165.859 96.9346 165.993 96.9997 166.094 97.0713C166.195 97.1429 166.266 97.2227 166.309 97.3105C166.351 97.3952 166.372 97.4912 166.372 97.5986ZM175.63 93.2139V93.9268H176.514V93.1992C176.514 92.9193 176.551 92.6589 176.626 92.418C176.704 92.1771 176.82 91.9411 176.973 91.71L176.479 91.3584C176.343 91.4756 176.222 91.609 176.118 91.7588C176.014 91.9085 175.926 92.0648 175.854 92.2275C175.78 92.3936 175.723 92.5612 175.684 92.7305C175.648 92.8997 175.63 93.0609 175.63 93.2139ZM177.217 93.2139V93.9268H178.101V93.1992C178.101 92.9193 178.138 92.6589 178.213 92.418C178.291 92.1771 178.407 91.9411 178.56 91.71L178.066 91.3584C177.93 91.4756 177.809 91.609 177.705 91.7588C177.601 91.9085 177.513 92.0648 177.441 92.2275C177.367 92.3936 177.31 92.5612 177.271 92.7305C177.235 92.8997 177.217 93.0609 177.217 93.2139ZM182.524 96.998H183.428C183.428 96.8711 183.431 96.7588 183.438 96.6611C183.444 96.5602 183.46 96.4658 183.486 96.3779C183.512 96.29 183.551 96.2038 183.604 96.1191C183.659 96.0345 183.735 95.945 183.833 95.8506C183.986 95.7139 184.141 95.5658 184.297 95.4062C184.456 95.2467 184.6 95.0742 184.727 94.8887C184.854 94.7064 184.958 94.5127 185.039 94.3076C185.12 94.0993 185.161 93.8779 185.161 93.6436C185.161 93.3506 185.114 93.0902 185.02 92.8623C184.925 92.6344 184.788 92.4408 184.609 92.2812C184.43 92.1217 184.211 92.0013 183.95 91.9199C183.693 91.8353 183.4 91.793 183.071 91.793C182.775 91.793 182.498 91.8337 182.241 91.915C181.987 91.9932 181.768 92.1071 181.582 92.2568C181.393 92.4098 181.243 92.5954 181.133 92.8135C181.022 93.0316 180.965 93.2773 180.962 93.5508H181.865C181.865 93.3815 181.899 93.2367 181.968 93.1162C182.036 92.9925 182.127 92.89 182.241 92.8086C182.352 92.7305 182.479 92.6735 182.622 92.6377C182.769 92.5986 182.918 92.5791 183.071 92.5791C183.27 92.5791 183.446 92.6051 183.599 92.6572C183.752 92.7093 183.879 92.7858 183.979 92.8867C184.071 92.9779 184.139 93.0902 184.185 93.2236C184.233 93.3538 184.258 93.5036 184.258 93.6729C184.258 93.8356 184.227 93.9902 184.165 94.1367C184.103 94.2832 184.025 94.4215 183.931 94.5518C183.833 94.6852 183.726 94.8122 183.608 94.9326C183.494 95.0531 183.382 95.1702 183.271 95.2842C183.109 95.4339 182.979 95.5641 182.881 95.6748C182.783 95.7822 182.708 95.8945 182.656 96.0117C182.604 96.1322 182.57 96.2689 182.554 96.4219C182.537 96.5716 182.528 96.7637 182.524 96.998ZM182.422 98.5264C182.422 98.6761 182.467 98.8014 182.559 98.9023C182.653 99.0033 182.793 99.0537 182.979 99.0537C183.164 99.0537 183.304 99.0033 183.398 98.9023C183.496 98.8014 183.545 98.6761 183.545 98.5264C183.545 98.3701 183.496 98.2399 183.398 98.1357C183.304 98.0316 183.164 97.9795 182.979 97.9795C182.793 97.9795 182.653 98.0316 182.559 98.1357C182.467 98.2399 182.422 98.3701 182.422 98.5264ZM188.848 92.1104V91.3926H187.964V92.125C187.964 92.4049 187.925 92.6654 187.847 92.9062C187.772 93.1471 187.658 93.3831 187.505 93.6143L187.998 93.9658C188.135 93.8486 188.255 93.7152 188.359 93.5654C188.464 93.4157 188.553 93.2578 188.628 93.0918C188.7 92.929 188.753 92.763 188.789 92.5938C188.828 92.4245 188.848 92.2633 188.848 92.1104ZM190.469 92.1104V91.3926H189.585V92.125C189.585 92.4049 189.546 92.6654 189.468 92.9062C189.393 93.1471 189.279 93.3831 189.126 93.6143L189.619 93.9658C189.756 93.8486 189.876 93.7152 189.98 93.5654C190.085 93.4157 190.174 93.2578 190.249 93.0918C190.321 92.929 190.374 92.763 190.41 92.5938C190.449 92.4245 190.469 92.2633 190.469 92.1104ZM198.892 101.031H199.795V98.4922C199.86 98.5638 199.93 98.6305 200.005 98.6924C200.08 98.751 200.16 98.8047 200.244 98.8535C200.384 98.9316 200.54 98.9919 200.713 99.0342C200.889 99.0765 201.077 99.0977 201.279 99.0977C201.611 99.0977 201.906 99.0293 202.163 98.8926C202.424 98.7559 202.642 98.5671 202.817 98.3262C202.993 98.0853 203.127 97.8021 203.218 97.4766C203.309 97.1478 203.354 96.7946 203.354 96.417V96.3145C203.354 95.9206 203.309 95.5592 203.218 95.2305C203.127 94.8984 202.993 94.6136 202.817 94.376C202.642 94.1383 202.424 93.9528 202.163 93.8193C201.903 93.6859 201.603 93.6191 201.265 93.6191C201.073 93.6191 200.892 93.6403 200.723 93.6826C200.557 93.7217 200.405 93.7803 200.269 93.8584C200.171 93.9105 200.08 93.974 199.995 94.0488C199.91 94.1204 199.832 94.2018 199.761 94.293L199.717 93.7168H198.892V101.031ZM202.451 96.3145V96.417C202.451 96.6742 202.422 96.9199 202.363 97.1543C202.308 97.3887 202.222 97.5954 202.104 97.7744C201.987 97.9535 201.838 98.0967 201.655 98.2041C201.473 98.3083 201.257 98.3604 201.006 98.3604C200.85 98.3604 200.706 98.3408 200.576 98.3018C200.449 98.2627 200.334 98.209 200.229 98.1406C200.138 98.082 200.057 98.0104 199.985 97.9258C199.914 97.8411 199.85 97.75 199.795 97.6523V95.1084C199.857 94.9977 199.928 94.8968 200.01 94.8057C200.091 94.7145 200.184 94.638 200.288 94.5762C200.382 94.5143 200.488 94.4671 200.605 94.4346C200.726 94.402 200.856 94.3857 200.996 94.3857C201.25 94.3857 201.468 94.4378 201.65 94.542C201.833 94.6462 201.984 94.7861 202.104 94.9619C202.222 95.141 202.308 95.3477 202.363 95.582C202.422 95.8132 202.451 96.0573 202.451 96.3145ZM205.044 91.5V92.2861H206.841V98.2188H205.044V99H209.468V98.2188H207.744V91.5H205.044ZM214.38 99H215.322V98.9219C215.264 98.7754 215.218 98.6045 215.186 98.4092C215.153 98.2106 215.137 98.0234 215.137 97.8477V95.3916C215.137 95.0954 215.083 94.8366 214.976 94.6152C214.868 94.3939 214.722 94.2083 214.536 94.0586C214.347 93.9121 214.124 93.8031 213.867 93.7314C213.61 93.6566 213.332 93.6191 213.032 93.6191C212.703 93.6191 212.409 93.6647 212.148 93.7559C211.891 93.847 211.673 93.9658 211.494 94.1123C211.312 94.262 211.172 94.4297 211.074 94.6152C210.98 94.8008 210.931 94.9896 210.928 95.1816H211.836C211.836 95.071 211.862 94.9652 211.914 94.8643C211.969 94.7601 212.046 94.6706 212.144 94.5957C212.241 94.5208 212.36 94.4606 212.5 94.415C212.643 94.3695 212.804 94.3467 212.983 94.3467C213.175 94.3467 213.348 94.3711 213.501 94.4199C213.657 94.4688 213.789 94.5371 213.896 94.625C214.004 94.7161 214.087 94.8252 214.146 94.9521C214.204 95.0791 214.233 95.2223 214.233 95.3818V95.7969H213.247C212.879 95.7969 212.546 95.8327 212.246 95.9043C211.95 95.9759 211.696 96.0833 211.484 96.2266C211.273 96.373 211.108 96.5553 210.991 96.7734C210.877 96.9915 210.82 97.2454 210.82 97.5352C210.82 97.7565 210.863 97.9632 210.947 98.1553C211.035 98.3441 211.159 98.5068 211.318 98.6436C211.475 98.7835 211.665 98.8942 211.89 98.9756C212.118 99.057 212.371 99.0977 212.651 99.0977C212.824 99.0977 212.987 99.0798 213.14 99.0439C213.293 99.0081 213.438 98.9593 213.574 98.8975C213.708 98.8356 213.83 98.764 213.94 98.6826C214.054 98.6012 214.157 98.515 214.248 98.4238C214.258 98.5345 214.272 98.6419 214.292 98.7461C214.315 98.847 214.344 98.9316 214.38 99ZM212.783 98.3115C212.607 98.3115 212.453 98.2887 212.319 98.2432C212.186 98.1976 212.075 98.1341 211.987 98.0527C211.899 97.9746 211.833 97.8802 211.787 97.7695C211.745 97.6589 211.724 97.5384 211.724 97.4082C211.724 97.2715 211.748 97.1494 211.797 97.042C211.849 96.9346 211.924 96.8418 212.021 96.7637C212.158 96.653 212.342 96.5716 212.573 96.5195C212.808 96.4642 213.081 96.4365 213.394 96.4365H214.233V97.5059C214.181 97.61 214.11 97.7109 214.019 97.8086C213.927 97.903 213.82 97.9876 213.696 98.0625C213.569 98.1374 213.429 98.1976 213.276 98.2432C213.123 98.2887 212.959 98.3115 212.783 98.3115ZM219.165 98.3652C218.882 98.3652 218.644 98.3099 218.452 98.1992C218.263 98.0853 218.112 97.9372 217.998 97.7549C217.881 97.5758 217.796 97.374 217.744 97.1494C217.695 96.9215 217.671 96.6921 217.671 96.4609V96.2559C217.671 96.028 217.695 95.8018 217.744 95.5771C217.796 95.3525 217.881 95.1491 217.998 94.9668C218.115 94.7878 218.268 94.6429 218.457 94.5322C218.649 94.4183 218.885 94.3613 219.165 94.3613C219.347 94.3613 219.517 94.3923 219.673 94.4541C219.832 94.516 219.969 94.6006 220.083 94.708C220.197 94.8154 220.286 94.9408 220.352 95.084C220.42 95.224 220.456 95.3737 220.459 95.5332H221.313C221.313 95.2663 221.26 95.0156 221.152 94.7812C221.045 94.5469 220.897 94.3434 220.708 94.1709C220.516 94.0016 220.288 93.8682 220.024 93.7705C219.764 93.6696 219.478 93.6191 219.165 93.6191C218.765 93.6191 218.415 93.6908 218.115 93.834C217.816 93.9772 217.567 94.1693 217.368 94.4102C217.166 94.6543 217.015 94.9359 216.914 95.2549C216.813 95.5739 216.763 95.9076 216.763 96.2559V96.4609C216.763 96.8125 216.813 97.1478 216.914 97.4668C217.015 97.7826 217.166 98.0609 217.368 98.3018C217.567 98.5459 217.816 98.7396 218.115 98.8828C218.415 99.026 218.765 99.0977 219.165 99.0977C219.445 99.0977 219.714 99.0505 219.971 98.9561C220.228 98.8584 220.456 98.7282 220.654 98.5654C220.853 98.4059 221.011 98.2204 221.128 98.0088C221.248 97.7939 221.31 97.5693 221.313 97.335H220.459C220.456 97.4814 220.417 97.6182 220.342 97.7451C220.27 97.8688 220.174 97.9762 220.054 98.0674C219.933 98.1618 219.795 98.235 219.639 98.2871C219.486 98.3392 219.328 98.3652 219.165 98.3652ZM225.254 99.0977C225.768 99.0977 226.2 98.9951 226.548 98.79C226.899 98.5817 227.163 98.3441 227.339 98.0771L226.787 97.6475C226.621 97.8623 226.413 98.0348 226.162 98.165C225.911 98.2952 225.625 98.3604 225.303 98.3604C225.059 98.3604 224.836 98.3148 224.634 98.2236C224.432 98.1325 224.259 98.0072 224.116 97.8477C223.976 97.6979 223.866 97.5254 223.784 97.3301C223.706 97.1348 223.656 96.9085 223.633 96.6514V96.6172H227.407V96.2119C227.407 95.8441 227.36 95.5023 227.266 95.1865C227.174 94.8708 227.035 94.5957 226.846 94.3613C226.657 94.1302 226.419 93.9495 226.133 93.8193C225.85 93.6859 225.518 93.6191 225.137 93.6191C224.834 93.6191 224.538 93.681 224.248 93.8047C223.962 93.9284 223.706 94.1058 223.481 94.3369C223.254 94.5713 223.071 94.8577 222.935 95.1963C222.798 95.5316 222.729 95.9124 222.729 96.3389V96.5439C222.729 96.9118 222.791 97.252 222.915 97.5645C223.039 97.877 223.211 98.1471 223.433 98.375C223.654 98.6029 223.919 98.7803 224.229 98.9072C224.541 99.0342 224.883 99.0977 225.254 99.0977ZM225.137 94.3613C225.368 94.3613 225.566 94.4036 225.732 94.4883C225.902 94.5729 226.042 94.6836 226.152 94.8203C226.263 94.957 226.349 95.1198 226.411 95.3086C226.473 95.4941 226.504 95.6683 226.504 95.8311V95.875H223.662C223.698 95.6309 223.76 95.416 223.848 95.2305C223.939 95.0417 224.049 94.8822 224.18 94.752C224.31 94.625 224.456 94.529 224.619 94.4639C224.782 94.3955 224.954 94.3613 225.137 94.3613ZM229.829 94.5029V91.5H228.926V99H229.829V95.1621C229.894 95.0579 229.967 94.9635 230.049 94.8789C230.133 94.791 230.225 94.7145 230.322 94.6494C230.446 94.5648 230.581 94.4997 230.728 94.4541C230.874 94.4085 231.029 94.3857 231.191 94.3857C231.39 94.3825 231.566 94.4102 231.719 94.4688C231.872 94.5241 231.999 94.6087 232.1 94.7227C232.194 94.8268 232.266 94.9587 232.314 95.1182C232.363 95.2744 232.388 95.4567 232.388 95.665V99H233.291V95.6748C233.291 95.32 233.247 95.014 233.159 94.7568C233.075 94.4964 232.952 94.2816 232.793 94.1123C232.633 93.943 232.44 93.8193 232.212 93.7412C231.987 93.6598 231.737 93.6191 231.46 93.6191C231.248 93.6224 231.048 93.6533 230.859 93.7119C230.674 93.7705 230.503 93.8568 230.347 93.9707C230.249 94.0391 230.156 94.1188 230.068 94.21C229.98 94.2979 229.901 94.3955 229.829 94.5029ZM234.678 96.3096V96.417C234.678 96.7979 234.733 97.151 234.844 97.4766C234.954 97.8021 235.114 98.0853 235.322 98.3262C235.527 98.5671 235.778 98.7559 236.074 98.8926C236.374 99.0293 236.711 99.0977 237.085 99.0977C237.456 99.0977 237.79 99.0293 238.086 98.8926C238.382 98.7559 238.634 98.5671 238.843 98.3262C239.048 98.0853 239.206 97.8021 239.316 97.4766C239.427 97.151 239.482 96.7979 239.482 96.417V96.3096C239.482 95.9287 239.427 95.5755 239.316 95.25C239.206 94.9212 239.048 94.6364 238.843 94.3955C238.634 94.1546 238.381 93.9658 238.081 93.8291C237.785 93.6891 237.45 93.6191 237.075 93.6191C236.704 93.6191 236.37 93.6891 236.074 93.8291C235.778 93.9658 235.527 94.1546 235.322 94.3955C235.114 94.6364 234.954 94.9212 234.844 95.25C234.733 95.5755 234.678 95.9287 234.678 96.3096ZM235.581 96.417V96.3096C235.581 96.0524 235.612 95.8066 235.674 95.5723C235.736 95.3346 235.83 95.1263 235.957 94.9473C236.081 94.7682 236.235 94.6266 236.421 94.5225C236.606 94.415 236.825 94.3613 237.075 94.3613C237.326 94.3613 237.544 94.415 237.729 94.5225C237.918 94.6266 238.076 94.7682 238.203 94.9473C238.327 95.1263 238.42 95.3346 238.481 95.5723C238.547 95.8066 238.579 96.0524 238.579 96.3096V96.417C238.579 96.6774 238.548 96.9264 238.486 97.1641C238.424 97.3984 238.332 97.6051 238.208 97.7842C238.081 97.9632 237.923 98.1048 237.734 98.209C237.549 98.3132 237.332 98.3652 237.085 98.3652C236.834 98.3652 236.615 98.3132 236.426 98.209C236.237 98.1048 236.081 97.9632 235.957 97.7842C235.83 97.6051 235.736 97.3984 235.674 97.1641C235.612 96.9264 235.581 96.6774 235.581 96.417ZM241.079 91.5V92.2861H242.876V98.2188H241.079V99H245.503V98.2188H243.779V91.5H241.079ZM246.772 96.3145V96.417C246.772 96.7946 246.823 97.1478 246.924 97.4766C247.025 97.8021 247.166 98.0853 247.349 98.3262C247.531 98.5671 247.751 98.7559 248.008 98.8926C248.268 99.0293 248.558 99.0977 248.877 99.0977C249.202 99.0977 249.487 99.0423 249.731 98.9316C249.976 98.821 250.186 98.6582 250.361 98.4434L250.4 99H251.23V91.5H250.327V94.2393C250.155 94.0374 249.95 93.8844 249.712 93.7803C249.478 93.6729 249.202 93.6191 248.887 93.6191C248.564 93.6191 248.273 93.6859 248.013 93.8193C247.752 93.9528 247.531 94.1383 247.349 94.376C247.163 94.6136 247.02 94.8984 246.919 95.2305C246.821 95.5592 246.772 95.9206 246.772 96.3145ZM247.676 96.417V96.3145C247.676 96.0573 247.703 95.8132 247.759 95.582C247.814 95.3477 247.9 95.141 248.018 94.9619C248.132 94.7861 248.278 94.6462 248.457 94.542C248.639 94.4378 248.857 94.3857 249.111 94.3857C249.408 94.3857 249.655 94.4557 249.854 94.5957C250.052 94.7324 250.21 94.9082 250.327 95.123V97.5742C250.21 97.8053 250.052 97.9893 249.854 98.126C249.655 98.2627 249.404 98.3311 249.102 98.3311C248.851 98.3311 248.636 98.2806 248.457 98.1797C248.278 98.0755 248.132 97.9355 248.018 97.7598C247.9 97.584 247.814 97.3805 247.759 97.1494C247.703 96.9183 247.676 96.6742 247.676 96.417ZM255.283 99.0977C255.798 99.0977 256.229 98.9951 256.577 98.79C256.929 98.5817 257.192 98.3441 257.368 98.0771L256.816 97.6475C256.65 97.8623 256.442 98.0348 256.191 98.165C255.941 98.2952 255.654 98.3604 255.332 98.3604C255.088 98.3604 254.865 98.3148 254.663 98.2236C254.461 98.1325 254.289 98.0072 254.146 97.8477C254.006 97.6979 253.895 97.5254 253.813 97.3301C253.735 97.1348 253.685 96.9085 253.662 96.6514V96.6172H257.437V96.2119C257.437 95.8441 257.389 95.5023 257.295 95.1865C257.204 94.8708 257.064 94.5957 256.875 94.3613C256.686 94.1302 256.449 93.9495 256.162 93.8193C255.879 93.6859 255.547 93.6191 255.166 93.6191C254.863 93.6191 254.567 93.681 254.277 93.8047C253.991 93.9284 253.735 94.1058 253.511 94.3369C253.283 94.5713 253.101 94.8577 252.964 95.1963C252.827 95.5316 252.759 95.9124 252.759 96.3389V96.5439C252.759 96.9118 252.821 97.252 252.944 97.5645C253.068 97.877 253.241 98.1471 253.462 98.375C253.683 98.6029 253.949 98.7803 254.258 98.9072C254.57 99.0342 254.912 99.0977 255.283 99.0977ZM255.166 94.3613C255.397 94.3613 255.596 94.4036 255.762 94.4883C255.931 94.5729 256.071 94.6836 256.182 94.8203C256.292 94.957 256.379 95.1198 256.44 95.3086C256.502 95.4941 256.533 95.6683 256.533 95.8311V95.875H253.691C253.727 95.6309 253.789 95.416 253.877 95.2305C253.968 95.0417 254.079 94.8822 254.209 94.752C254.339 94.625 254.486 94.529 254.648 94.4639C254.811 94.3955 254.984 94.3613 255.166 94.3613ZM262.417 93.6191C262.033 93.6191 261.689 93.7038 261.387 93.873C261.087 94.0391 260.83 94.2669 260.615 94.5566L260.61 94.4248L260.571 93.7168H259.712V99H260.62V95.6113C260.679 95.4486 260.752 95.3021 260.84 95.1719C260.931 95.0384 261.037 94.9261 261.157 94.835C261.291 94.7308 261.447 94.6527 261.626 94.6006C261.805 94.5452 262.005 94.5176 262.227 94.5176C262.399 94.5176 262.563 94.5273 262.72 94.5469C262.879 94.5632 263.047 94.5908 263.223 94.6299L263.345 93.7461C263.254 93.707 263.117 93.6761 262.935 93.6533C262.756 93.6305 262.583 93.6191 262.417 93.6191ZM266.606 96.998H267.51C267.51 96.8711 267.513 96.7588 267.52 96.6611C267.526 96.5602 267.542 96.4658 267.568 96.3779C267.594 96.29 267.633 96.2038 267.686 96.1191C267.741 96.0345 267.817 95.945 267.915 95.8506C268.068 95.7139 268.223 95.5658 268.379 95.4062C268.538 95.2467 268.682 95.0742 268.809 94.8887C268.936 94.7064 269.04 94.5127 269.121 94.3076C269.202 94.0993 269.243 93.8779 269.243 93.6436C269.243 93.3506 269.196 93.0902 269.102 92.8623C269.007 92.6344 268.87 92.4408 268.691 92.2812C268.512 92.1217 268.293 92.0013 268.032 91.9199C267.775 91.8353 267.482 91.793 267.153 91.793C266.857 91.793 266.58 91.8337 266.323 91.915C266.069 91.9932 265.85 92.1071 265.664 92.2568C265.475 92.4098 265.326 92.5954 265.215 92.8135C265.104 93.0316 265.047 93.2773 265.044 93.5508H265.947C265.947 93.3815 265.981 93.2367 266.05 93.1162C266.118 92.9925 266.209 92.89 266.323 92.8086C266.434 92.7305 266.561 92.6735 266.704 92.6377C266.851 92.5986 267 92.5791 267.153 92.5791C267.352 92.5791 267.528 92.6051 267.681 92.6572C267.834 92.7093 267.961 92.7858 268.062 92.8867C268.153 92.9779 268.221 93.0902 268.267 93.2236C268.315 93.3538 268.34 93.5036 268.34 93.6729C268.34 93.8356 268.309 93.9902 268.247 94.1367C268.185 94.2832 268.107 94.4215 268.013 94.5518C267.915 94.6852 267.808 94.8122 267.69 94.9326C267.576 95.0531 267.464 95.1702 267.354 95.2842C267.191 95.4339 267.061 95.5641 266.963 95.6748C266.865 95.7822 266.79 95.8945 266.738 96.0117C266.686 96.1322 266.652 96.2689 266.636 96.4219C266.619 96.5716 266.61 96.7637 266.606 96.998ZM266.504 98.5264C266.504 98.6761 266.549 98.8014 266.641 98.9023C266.735 99.0033 266.875 99.0537 267.061 99.0537C267.246 99.0537 267.386 99.0033 267.48 98.9023C267.578 98.8014 267.627 98.6761 267.627 98.5264C267.627 98.3701 267.578 98.2399 267.48 98.1357C267.386 98.0316 267.246 97.9795 267.061 97.9795C266.875 97.9795 266.735 98.0316 266.641 98.1357C266.549 98.2399 266.504 98.3701 266.504 98.5264ZM277.866 96.1143V96.1631C277.866 96.6286 277.902 97.0664 277.974 97.4766C278.049 97.8867 278.148 98.266 278.271 98.6143C278.392 98.9658 278.532 99.2848 278.691 99.5713C278.854 99.861 279.025 100.118 279.204 100.343C279.38 100.571 279.557 100.763 279.736 100.919C279.919 101.078 280.091 101.204 280.254 101.295L280.444 100.743C280.311 100.636 280.177 100.506 280.044 100.353C279.914 100.203 279.787 100.03 279.663 99.835C279.543 99.6299 279.427 99.3971 279.316 99.1367C279.206 98.8796 279.108 98.5996 279.023 98.2969C278.945 97.9974 278.883 97.6702 278.838 97.3154C278.792 96.9606 278.77 96.5798 278.77 96.1729V96.1045C278.77 95.6813 278.794 95.2858 278.843 94.918C278.892 94.5501 278.96 94.2132 279.048 93.9072C279.139 93.5687 279.253 93.2578 279.39 92.9746C279.526 92.6882 279.67 92.4391 279.819 92.2275C279.92 92.0908 280.023 91.9671 280.127 91.8564C280.234 91.7458 280.34 91.6514 280.444 91.5732L280.254 90.9775C280.091 91.0687 279.92 91.194 279.741 91.3535C279.562 91.513 279.385 91.7051 279.209 91.9297C279.03 92.1543 278.859 92.4115 278.696 92.7012C278.537 92.9909 278.395 93.3099 278.271 93.6582C278.148 94.0098 278.049 94.3906 277.974 94.8008C277.902 95.2109 277.866 95.6488 277.866 96.1143ZM282.979 99H283.882V95.2109C283.944 95.097 284.015 94.9928 284.097 94.8984C284.181 94.804 284.272 94.721 284.37 94.6494C284.491 94.568 284.622 94.5046 284.766 94.459C284.909 94.4102 285.063 94.3857 285.229 94.3857C285.422 94.3857 285.591 94.4085 285.737 94.4541C285.887 94.4997 286.014 94.5729 286.118 94.6738C286.219 94.7747 286.296 94.9066 286.348 95.0693C286.4 95.2321 286.426 95.4307 286.426 95.665V99H287.329V95.6455C287.329 95.2939 287.285 94.9912 287.197 94.7373C287.113 94.4801 286.991 94.2686 286.831 94.1025C286.672 93.9365 286.478 93.8145 286.25 93.7363C286.025 93.6582 285.775 93.6191 285.498 93.6191C285.293 93.6224 285.098 93.6533 284.912 93.7119C284.73 93.7673 284.561 93.847 284.404 93.9512C284.3 94.0195 284.201 94.1009 284.106 94.1953C284.015 94.2865 283.931 94.3874 283.853 94.498L283.789 93.7168H282.979V99ZM288.73 96.3096V96.417C288.73 96.7979 288.786 97.151 288.896 97.4766C289.007 97.8021 289.167 98.0853 289.375 98.3262C289.58 98.5671 289.831 98.7559 290.127 98.8926C290.426 99.0293 290.763 99.0977 291.138 99.0977C291.509 99.0977 291.842 99.0293 292.139 98.8926C292.435 98.7559 292.687 98.5671 292.896 98.3262C293.101 98.0853 293.258 97.8021 293.369 97.4766C293.48 97.151 293.535 96.7979 293.535 96.417V96.3096C293.535 95.9287 293.48 95.5755 293.369 95.25C293.258 94.9212 293.101 94.6364 292.896 94.3955C292.687 94.1546 292.433 93.9658 292.134 93.8291C291.838 93.6891 291.502 93.6191 291.128 93.6191C290.757 93.6191 290.423 93.6891 290.127 93.8291C289.831 93.9658 289.58 94.1546 289.375 94.3955C289.167 94.6364 289.007 94.9212 288.896 95.25C288.786 95.5755 288.73 95.9287 288.73 96.3096ZM289.634 96.417V96.3096C289.634 96.0524 289.665 95.8066 289.727 95.5723C289.788 95.3346 289.883 95.1263 290.01 94.9473C290.133 94.7682 290.288 94.6266 290.474 94.5225C290.659 94.415 290.877 94.3613 291.128 94.3613C291.379 94.3613 291.597 94.415 291.782 94.5225C291.971 94.6266 292.129 94.7682 292.256 94.9473C292.38 95.1263 292.472 95.3346 292.534 95.5723C292.599 95.8066 292.632 96.0524 292.632 96.3096V96.417C292.632 96.6774 292.601 96.9264 292.539 97.1641C292.477 97.3984 292.384 97.6051 292.261 97.7842C292.134 97.9632 291.976 98.1048 291.787 98.209C291.602 98.3132 291.385 98.3652 291.138 98.3652C290.887 98.3652 290.667 98.3132 290.479 98.209C290.29 98.1048 290.133 97.9632 290.01 97.7842C289.883 97.6051 289.788 97.3984 289.727 97.1641C289.665 96.9264 289.634 96.6774 289.634 96.417ZM298.286 96.1631V96.1143C298.286 95.6162 298.247 95.1686 298.169 94.7715C298.094 94.3711 297.998 94 297.881 93.6582C297.76 93.3034 297.62 92.9844 297.461 92.7012C297.301 92.418 297.131 92.1608 296.948 91.9297C296.772 91.7051 296.593 91.513 296.411 91.3535C296.229 91.194 296.056 91.0687 295.894 90.9775L295.703 91.5293C295.811 91.6172 295.921 91.7246 296.035 91.8516C296.149 91.9753 296.26 92.1201 296.367 92.2861C296.507 92.4977 296.644 92.7467 296.777 93.0332C296.911 93.3164 297.025 93.637 297.119 93.9951C297.184 94.2458 297.243 94.5501 297.295 94.9082C297.35 95.2663 297.378 95.665 297.378 96.1045V96.1729C297.378 96.5602 297.357 96.9248 297.314 97.2666C297.275 97.6051 297.218 97.9209 297.144 98.2139C297.072 98.5296 296.979 98.8193 296.865 99.083C296.755 99.3499 296.639 99.5892 296.519 99.8008C296.392 100.009 296.258 100.193 296.118 100.353C295.978 100.512 295.84 100.642 295.703 100.743L295.894 101.295C296.056 101.204 296.227 101.078 296.406 100.919C296.589 100.763 296.769 100.571 296.948 100.343C297.124 100.118 297.292 99.861 297.451 99.5713C297.614 99.2848 297.757 98.9658 297.881 98.6143C298.005 98.266 298.102 97.8867 298.174 97.4766C298.249 97.0664 298.286 96.6286 298.286 96.1631Z"
    fill="#E139F0" pathLength="1" stroke-dashoffset="0px" stroke-dasharray="1px 1px"></path>
</svg>