<svg class="w-full svg" width="626" height="302" viewBox="0 0 626 302" fill="none" xmlns="http://www.w3.org/2000/svg">
  <rect width="626" height="302" rx="19" fill="#111111" pathLength="1" stroke-dashoffset="0px"
    stroke-dasharray="1px 1px"></rect>
  <ellipse cx="140" cy="114.5" rx="22" ry="21.5" fill="white" pathLength="1" stroke-dashoffset="0px"
    stroke-dasharray="1px 1px"></ellipse>
  <ellipse cx="181" cy="184.5" rx="22" ry="21.5" fill="white" pathLength="1" stroke-dashoffset="0px"
    stroke-dasharray="1px 1px"></ellipse>
  <ellipse cx="99" cy="184.5" rx="22" ry="21.5" fill="white" pathLength="1" stroke-dashoffset="0px"
    stroke-dasharray="1px 1px"></ellipse>
  <ellipse cx="55" cy="256.5" rx="22" ry="21.5" fill="white" pathLength="1" stroke-dashoffset="0px"
    stroke-dasharray="1px 1px"></ellipse>
  <ellipse cx="143" cy="256.5" rx="22" ry="21.5" fill="white" pathLength="1" stroke-dashoffset="0px"
    stroke-dasharray="1px 1px"></ellipse>
  <path d="M139 115L54 260.5" stroke="white" stroke-width="3" pathLength="1" stroke-dashoffset="0px"
    stroke-dasharray="1px 1px"></path>
  <path d="M139.5 116L182 186" stroke="white" stroke-width="3" pathLength="1" stroke-dashoffset="0px"
    stroke-dasharray="1px 1px"></path>
  <path d="M98 185L145 261" stroke="white" stroke-width="3" pathLength="1" stroke-dashoffset="0px"
    stroke-dasharray="1px 1px"></path>
  <path
    d="M68.5449 21.4336H67.4609C67.4258 21.6914 67.3652 21.9316 67.2793 22.1543C67.1934 22.373 67.0781 22.5625 66.9336 22.7227C66.7891 22.8867 66.6113 23.0137 66.4004 23.1035C66.1934 23.1934 65.9473 23.2383 65.6621 23.2383C65.4004 23.2383 65.1719 23.1973 64.9766 23.1152C64.7812 23.0293 64.6113 22.9121 64.4668 22.7637C64.3223 22.6191 64.2031 22.4512 64.1094 22.2598C64.0156 22.0684 63.9395 21.8633 63.8809 21.6445C63.8223 21.4297 63.7793 21.2109 63.752 20.9883C63.7285 20.7617 63.7168 20.543 63.7168 20.332V19.1309C63.7168 18.9199 63.7285 18.7031 63.752 18.4805C63.7793 18.2539 63.8223 18.0332 63.8809 17.8184C63.9395 17.6035 64.0156 17.4004 64.1094 17.209C64.207 17.0176 64.3281 16.8496 64.4727 16.7051C64.6133 16.5605 64.7812 16.4473 64.9766 16.3652C65.1758 16.2793 65.4043 16.2363 65.6621 16.2363C65.9473 16.2363 66.1934 16.2852 66.4004 16.3828C66.6113 16.4766 66.7891 16.6074 66.9336 16.7754C67.0781 16.9434 67.1934 17.1387 67.2793 17.3613C67.3652 17.584 67.4258 17.8242 67.4609 18.082H68.5449C68.498 17.6758 68.4004 17.3047 68.252 16.9688C68.1074 16.6328 67.9141 16.3438 67.6719 16.1016C67.4297 15.8633 67.1406 15.6797 66.8047 15.5508C66.4688 15.418 66.0879 15.3516 65.6621 15.3516C65.3066 15.3516 64.9863 15.4023 64.7012 15.5039C64.416 15.6016 64.1621 15.7383 63.9395 15.9141C63.7129 16.0898 63.5176 16.2988 63.3535 16.541C63.1934 16.7793 63.0605 17.0391 62.9551 17.3203C62.8457 17.6016 62.7637 17.8965 62.709 18.2051C62.6582 18.5137 62.6309 18.8262 62.627 19.1426V20.332C62.6309 20.6484 62.6582 20.9609 62.709 21.2695C62.7637 21.5781 62.8457 21.873 62.9551 22.1543C63.0605 22.4355 63.1934 22.6953 63.3535 22.9336C63.5176 23.1719 63.7129 23.3789 63.9395 23.5547C64.1621 23.7305 64.416 23.8691 64.7012 23.9707C64.9902 24.0684 65.3105 24.1172 65.6621 24.1172C66.0723 24.1172 66.4434 24.0527 66.7754 23.9238C67.1113 23.791 67.4023 23.6055 67.6484 23.3672C67.8906 23.1328 68.0879 22.8516 68.2402 22.5234C68.3926 22.1914 68.4941 21.8281 68.5449 21.4336ZM74.4043 24H75.3887V17.6602H74.2988V22.207C74.2402 22.3438 74.166 22.4707 74.0762 22.5879C73.9902 22.7012 73.8887 22.7988 73.7715 22.8809C73.6309 22.9824 73.4648 23.0625 73.2734 23.1211C73.082 23.1758 72.8652 23.2031 72.623 23.2031C72.416 23.2031 72.2324 23.1758 72.0723 23.1211C71.916 23.0664 71.7832 22.9707 71.6738 22.834C71.5645 22.7012 71.4824 22.5215 71.4277 22.2949C71.373 22.0684 71.3457 21.7832 71.3457 21.4395V17.6602H70.2617V21.4277C70.2617 21.9004 70.3125 22.3066 70.4141 22.6465C70.5195 22.9824 70.668 23.2598 70.8594 23.4785C71.0508 23.6973 71.2812 23.8594 71.5508 23.9648C71.8203 24.0664 72.1211 24.1172 72.4531 24.1172C72.8672 24.1172 73.2324 24.0312 73.5488 23.8594C73.8652 23.6836 74.1289 23.4395 74.3398 23.127L74.4043 24ZM81.5879 17.543C81.127 17.543 80.7148 17.6445 80.3516 17.8477C79.9922 18.0469 79.6836 18.3203 79.4258 18.668L79.4199 18.5098L79.373 17.6602H78.3418V24H79.4316V19.9336C79.502 19.7383 79.5898 19.5625 79.6953 19.4062C79.8047 19.2461 79.9316 19.1113 80.0762 19.002C80.2363 18.877 80.4238 18.7832 80.6387 18.7207C80.8535 18.6543 81.0938 18.6211 81.3594 18.6211C81.5664 18.6211 81.7637 18.6328 81.9512 18.6562C82.1426 18.6758 82.3438 18.709 82.5547 18.7559L82.7012 17.6953C82.5918 17.6484 82.4277 17.6113 82.209 17.584C81.9941 17.5566 81.7871 17.543 81.5879 17.543ZM88.7949 17.543C88.334 17.543 87.9219 17.6445 87.5586 17.8477C87.1992 18.0469 86.8906 18.3203 86.6328 18.668L86.627 18.5098L86.5801 17.6602H85.5488V24H86.6387V19.9336C86.709 19.7383 86.7969 19.5625 86.9023 19.4062C87.0117 19.2461 87.1387 19.1113 87.2832 19.002C87.4434 18.877 87.6309 18.7832 87.8457 18.7207C88.0605 18.6543 88.3008 18.6211 88.5664 18.6211C88.7734 18.6211 88.9707 18.6328 89.1582 18.6562C89.3496 18.6758 89.5508 18.709 89.7617 18.7559L89.9082 17.6953C89.7988 17.6484 89.6348 17.6113 89.416 17.584C89.2012 17.5566 88.9941 17.543 88.7949 17.543ZM94.6484 24.1172C95.2656 24.1172 95.7832 23.9941 96.2012 23.748C96.623 23.498 96.9395 23.2129 97.1504 22.8926L96.4883 22.377C96.2891 22.6348 96.0391 22.8418 95.7383 22.998C95.4375 23.1543 95.0938 23.2324 94.707 23.2324C94.4141 23.2324 94.1465 23.1777 93.9043 23.0684C93.6621 22.959 93.4551 22.8086 93.2832 22.6172C93.1152 22.4375 92.9824 22.2305 92.8848 21.9961C92.791 21.7617 92.7305 21.4902 92.7031 21.1816V21.1406H97.2324V20.6543C97.2324 20.2129 97.1758 19.8027 97.0625 19.4238C96.9531 19.0449 96.7852 18.7148 96.5586 18.4336C96.332 18.1562 96.0469 17.9395 95.7031 17.7832C95.3633 17.623 94.9648 17.543 94.5078 17.543C94.1445 17.543 93.7891 17.6172 93.4414 17.7656C93.0977 17.9141 92.791 18.127 92.5215 18.4043C92.248 18.6855 92.0293 19.0293 91.8652 19.4355C91.7012 19.8379 91.6191 20.2949 91.6191 20.8066V21.0527C91.6191 21.4941 91.6934 21.9023 91.8418 22.2773C91.9902 22.6523 92.1973 22.9766 92.4629 23.25C92.7285 23.5234 93.0469 23.7363 93.418 23.8887C93.793 24.041 94.2031 24.1172 94.6484 24.1172ZM94.5078 18.4336C94.7852 18.4336 95.0234 18.4844 95.2227 18.5859C95.4258 18.6875 95.5938 18.8203 95.7266 18.9844C95.8594 19.1484 95.9629 19.3438 96.0371 19.5703C96.1113 19.793 96.1484 20.002 96.1484 20.1973V20.25H92.7383C92.7812 19.957 92.8555 19.6992 92.9609 19.4766C93.0703 19.25 93.2031 19.0586 93.3594 18.9023C93.5156 18.75 93.6914 18.6348 93.8867 18.5566C94.082 18.4746 94.2891 18.4336 94.5078 18.4336ZM99.0547 24H100.139V19.4531C100.213 19.3164 100.299 19.1914 100.396 19.0781C100.498 18.9648 100.607 18.8652 100.725 18.7793C100.869 18.6816 101.027 18.6055 101.199 18.5508C101.371 18.4922 101.557 18.4629 101.756 18.4629C101.986 18.4629 102.189 18.4902 102.365 18.5449C102.545 18.5996 102.697 18.6875 102.822 18.8086C102.943 18.9297 103.035 19.0879 103.098 19.2832C103.16 19.4785 103.191 19.7168 103.191 19.998V24H104.275V19.9746C104.275 19.5527 104.223 19.1895 104.117 18.8848C104.016 18.5762 103.869 18.3223 103.678 18.123C103.486 17.9238 103.254 17.7773 102.98 17.6836C102.711 17.5898 102.41 17.543 102.078 17.543C101.832 17.5469 101.598 17.584 101.375 17.6543C101.156 17.7207 100.953 17.8164 100.766 17.9414C100.641 18.0234 100.521 18.1211 100.408 18.2344C100.299 18.3438 100.197 18.4648 100.104 18.5977L100.027 17.6602H99.0547V24ZM108.828 16.125H107.738V17.6602H106.074V18.498H107.738V21.9434C107.738 22.334 107.789 22.668 107.891 22.9453C107.996 23.2188 108.139 23.4414 108.318 23.6133C108.498 23.7891 108.709 23.918 108.951 24C109.197 24.0781 109.461 24.1172 109.742 24.1172C109.91 24.1172 110.078 24.1094 110.246 24.0938C110.418 24.0781 110.58 24.0547 110.732 24.0234C110.885 23.9961 111.025 23.9629 111.154 23.9238C111.283 23.8809 111.393 23.832 111.482 23.7773L111.33 23.0098C111.264 23.0254 111.178 23.0449 111.072 23.0684C110.971 23.0879 110.861 23.1074 110.744 23.127C110.623 23.1465 110.5 23.1641 110.375 23.1797C110.25 23.1914 110.129 23.1973 110.012 23.1973C109.852 23.1973 109.699 23.1777 109.555 23.1387C109.414 23.0996 109.289 23.0312 109.18 22.9336C109.07 22.8398 108.984 22.7129 108.922 22.5527C108.859 22.3926 108.828 22.1895 108.828 21.9434V18.498H111.242V17.6602H108.828V16.125ZM126.049 20.9004V20.7773C126.049 20.4453 126.021 20.1309 125.967 19.834C125.912 19.5332 125.832 19.2598 125.727 19.0137C125.625 18.7949 125.508 18.5977 125.375 18.4219C125.242 18.2422 125.092 18.0898 124.924 17.9648C124.736 17.832 124.527 17.7285 124.297 17.6543C124.066 17.5801 123.814 17.543 123.541 17.543C123.322 17.543 123.119 17.5645 122.932 17.6074C122.744 17.6504 122.572 17.7129 122.416 17.7949C122.291 17.8613 122.174 17.9414 122.064 18.0352C121.955 18.125 121.855 18.2266 121.766 18.3398V15H120.682V24H121.678L121.73 23.2793C121.801 23.3691 121.875 23.4512 121.953 23.5254C122.031 23.5996 122.113 23.668 122.199 23.7305C122.379 23.8555 122.58 23.9512 122.803 24.0176C123.029 24.084 123.279 24.1172 123.553 24.1172C123.791 24.1172 124.012 24.0879 124.215 24.0293C124.422 23.9707 124.611 23.8887 124.783 23.7832C125.021 23.6309 125.225 23.4395 125.393 23.209C125.564 22.9746 125.703 22.7109 125.809 22.418C125.887 22.1953 125.945 21.957 125.984 21.7031C126.027 21.4453 126.049 21.1777 126.049 20.9004ZM124.965 20.7773V20.9004C124.965 21.0879 124.953 21.2715 124.93 21.4512C124.906 21.6309 124.869 21.7988 124.818 21.9551C124.756 22.1621 124.672 22.3496 124.566 22.5176C124.461 22.6855 124.33 22.8242 124.174 22.9336C124.057 23.0195 123.924 23.0859 123.775 23.1328C123.627 23.1758 123.463 23.1973 123.283 23.1973C123.096 23.1973 122.924 23.1738 122.768 23.127C122.611 23.0762 122.471 23.0059 122.346 22.916C122.221 22.8262 122.109 22.7227 122.012 22.6055C121.918 22.4844 121.836 22.3535 121.766 22.2129V19.4414C121.832 19.3008 121.912 19.1719 122.006 19.0547C122.104 18.9336 122.215 18.8281 122.34 18.7383C122.461 18.6523 122.6 18.5859 122.756 18.5391C122.912 18.4883 123.084 18.4629 123.271 18.4629C123.443 18.4629 123.6 18.4824 123.74 18.5215C123.881 18.5605 124.008 18.6152 124.121 18.6855C124.285 18.7832 124.424 18.918 124.537 19.0898C124.65 19.2617 124.742 19.4512 124.812 19.6582C124.863 19.8262 124.9 20.0059 124.924 20.1973C124.951 20.3848 124.965 20.5781 124.965 20.7773ZM128.053 15V15.9434H130.209V23.0625H128.053V24H133.361V23.0625H131.293V15H128.053ZM134.785 20.7715V20.9004C134.785 21.3574 134.852 21.7812 134.984 22.1719C135.117 22.5625 135.309 22.9023 135.559 23.1914C135.805 23.4805 136.105 23.707 136.461 23.8711C136.82 24.0352 137.225 24.1172 137.674 24.1172C138.119 24.1172 138.52 24.0352 138.875 23.8711C139.23 23.707 139.533 23.4805 139.783 23.1914C140.029 22.9023 140.219 22.5625 140.352 22.1719C140.484 21.7812 140.551 21.3574 140.551 20.9004V20.7715C140.551 20.3145 140.484 19.8906 140.352 19.5C140.219 19.1055 140.029 18.7637 139.783 18.4746C139.533 18.1855 139.229 17.959 138.869 17.7949C138.514 17.627 138.111 17.543 137.662 17.543C137.217 17.543 136.816 17.627 136.461 17.7949C136.105 17.959 135.805 18.1855 135.559 18.4746C135.309 18.7637 135.117 19.1055 134.984 19.5C134.852 19.8906 134.785 20.3145 134.785 20.7715ZM135.869 20.9004V20.7715C135.869 20.4629 135.906 20.168 135.98 19.8867C136.055 19.6016 136.168 19.3516 136.32 19.1367C136.469 18.9219 136.654 18.752 136.877 18.627C137.1 18.498 137.361 18.4336 137.662 18.4336C137.963 18.4336 138.225 18.498 138.447 18.627C138.674 18.752 138.863 18.9219 139.016 19.1367C139.164 19.3516 139.275 19.6016 139.35 19.8867C139.428 20.168 139.467 20.4629 139.467 20.7715V20.9004C139.467 21.2129 139.43 21.5117 139.355 21.7969C139.281 22.0781 139.17 22.3262 139.021 22.541C138.869 22.7559 138.68 22.9258 138.453 23.0508C138.23 23.1758 137.971 23.2383 137.674 23.2383C137.373 23.2383 137.109 23.1758 136.883 23.0508C136.656 22.9258 136.469 22.7559 136.32 22.541C136.168 22.3262 136.055 22.0781 135.98 21.7969C135.906 21.5117 135.869 21.2129 135.869 20.9004ZM144.998 23.2383C144.658 23.2383 144.373 23.1719 144.143 23.0391C143.916 22.9023 143.734 22.7246 143.598 22.5059C143.457 22.291 143.355 22.0488 143.293 21.7793C143.234 21.5059 143.205 21.2305 143.205 20.9531V20.707C143.205 20.4336 143.234 20.1621 143.293 19.8926C143.355 19.623 143.457 19.3789 143.598 19.1602C143.738 18.9453 143.922 18.7715 144.148 18.6387C144.379 18.502 144.662 18.4336 144.998 18.4336C145.217 18.4336 145.42 18.4707 145.607 18.5449C145.799 18.6191 145.963 18.7207 146.1 18.8496C146.236 18.9785 146.344 19.1289 146.422 19.3008C146.504 19.4688 146.547 19.6484 146.551 19.8398H147.576C147.576 19.5195 147.512 19.2188 147.383 18.9375C147.254 18.6562 147.076 18.4121 146.85 18.2051C146.619 18.002 146.346 17.8418 146.029 17.7246C145.717 17.6035 145.373 17.543 144.998 17.543C144.518 17.543 144.098 17.6289 143.738 17.8008C143.379 17.9727 143.08 18.2031 142.842 18.4922C142.6 18.7852 142.418 19.123 142.297 19.5059C142.176 19.8887 142.115 20.2891 142.115 20.707V20.9531C142.115 21.375 142.176 21.7773 142.297 22.1602C142.418 22.5391 142.6 22.873 142.842 23.1621C143.08 23.4551 143.379 23.6875 143.738 23.8594C144.098 24.0312 144.518 24.1172 144.998 24.1172C145.334 24.1172 145.656 24.0605 145.965 23.9473C146.273 23.8301 146.547 23.6738 146.785 23.4785C147.023 23.2871 147.213 23.0645 147.354 22.8105C147.498 22.5527 147.572 22.2832 147.576 22.002H146.551C146.547 22.1777 146.5 22.3418 146.41 22.4941C146.324 22.6426 146.209 22.7715 146.064 22.8809C145.92 22.9941 145.754 23.082 145.566 23.1445C145.383 23.207 145.193 23.2383 144.998 23.2383ZM151.402 21.041L153.729 24H155.105L152.146 20.3027L154.713 17.6602H153.395L151.314 19.7461L150.605 20.5078V15H149.516V24H150.605V21.8086L151.402 21.041Z"
    fill="#FF0000" pathLength="1" stroke-dashoffset="0px" stroke-dasharray="1px 1px"></path>
  <path d="M62 25.1719H155.686V25.7578H62V25.1719Z" fill="#FF0000" pathLength="1" stroke-dashoffset="0px"
    stroke-dasharray="1px 1px"></path>
  <path
    d="M307.363 21V12.4688H306.268L306.25 18.832L302.939 12.4688H301.838V21H302.934L302.951 14.625L306.262 21H307.363ZM312.027 21.1172C312.645 21.1172 313.162 20.9941 313.58 20.748C314.002 20.498 314.318 20.2129 314.529 19.8926L313.867 19.377C313.668 19.6348 313.418 19.8418 313.117 19.998C312.816 20.1543 312.473 20.2324 312.086 20.2324C311.793 20.2324 311.525 20.1777 311.283 20.0684C311.041 19.959 310.834 19.8086 310.662 19.6172C310.494 19.4375 310.361 19.2305 310.264 18.9961C310.17 18.7617 310.109 18.4902 310.082 18.1816V18.1406H314.611V17.6543C314.611 17.2129 314.555 16.8027 314.441 16.4238C314.332 16.0449 314.164 15.7148 313.938 15.4336C313.711 15.1562 313.426 14.9395 313.082 14.7832C312.742 14.623 312.344 14.543 311.887 14.543C311.523 14.543 311.168 14.6172 310.82 14.7656C310.477 14.9141 310.17 15.127 309.9 15.4043C309.627 15.6855 309.408 16.0293 309.244 16.4355C309.08 16.8379 308.998 17.2949 308.998 17.8066V18.0527C308.998 18.4941 309.072 18.9023 309.221 19.2773C309.369 19.6523 309.576 19.9766 309.842 20.25C310.107 20.5234 310.426 20.7363 310.797 20.8887C311.172 21.041 311.582 21.1172 312.027 21.1172ZM311.887 15.4336C312.164 15.4336 312.402 15.4844 312.602 15.5859C312.805 15.6875 312.973 15.8203 313.105 15.9844C313.238 16.1484 313.342 16.3438 313.416 16.5703C313.49 16.793 313.527 17.002 313.527 17.1973V17.25H310.117C310.16 16.957 310.234 16.6992 310.34 16.4766C310.449 16.25 310.582 16.0586 310.738 15.9023C310.895 15.75 311.07 15.6348 311.266 15.5566C311.461 15.4746 311.668 15.4336 311.887 15.4336ZM317.043 21H317.898L318.877 17.1152L319.035 16.1309L319.199 17.1152L320.189 21H321.045L322.393 14.6602H321.432L320.729 18.7031L320.57 19.6992L320.4 18.7031L319.393 14.6602H318.695L317.682 18.7031L317.523 19.6113L317.395 18.7031L316.656 14.6602H315.695L317.043 21ZM336.221 17.9004V17.7773C336.221 17.4453 336.193 17.1309 336.139 16.834C336.084 16.5332 336.004 16.2598 335.898 16.0137C335.797 15.7949 335.68 15.5977 335.547 15.4219C335.414 15.2422 335.264 15.0898 335.096 14.9648C334.908 14.832 334.699 14.7285 334.469 14.6543C334.238 14.5801 333.986 14.543 333.713 14.543C333.494 14.543 333.291 14.5645 333.104 14.6074C332.916 14.6504 332.744 14.7129 332.588 14.7949C332.463 14.8613 332.346 14.9414 332.236 15.0352C332.127 15.125 332.027 15.2266 331.938 15.3398V12H330.854V21H331.85L331.902 20.2793C331.973 20.3691 332.047 20.4512 332.125 20.5254C332.203 20.5996 332.285 20.668 332.371 20.7305C332.551 20.8555 332.752 20.9512 332.975 21.0176C333.201 21.084 333.451 21.1172 333.725 21.1172C333.963 21.1172 334.184 21.0879 334.387 21.0293C334.594 20.9707 334.783 20.8887 334.955 20.7832C335.193 20.6309 335.396 20.4395 335.564 20.209C335.736 19.9746 335.875 19.7109 335.98 19.418C336.059 19.1953 336.117 18.957 336.156 18.7031C336.199 18.4453 336.221 18.1777 336.221 17.9004ZM335.137 17.7773V17.9004C335.137 18.0879 335.125 18.2715 335.102 18.4512C335.078 18.6309 335.041 18.7988 334.99 18.9551C334.928 19.1621 334.844 19.3496 334.738 19.5176C334.633 19.6855 334.502 19.8242 334.346 19.9336C334.229 20.0195 334.096 20.0859 333.947 20.1328C333.799 20.1758 333.635 20.1973 333.455 20.1973C333.268 20.1973 333.096 20.1738 332.939 20.127C332.783 20.0762 332.643 20.0059 332.518 19.916C332.393 19.8262 332.281 19.7227 332.184 19.6055C332.09 19.4844 332.008 19.3535 331.938 19.2129V16.4414C332.004 16.3008 332.084 16.1719 332.178 16.0547C332.275 15.9336 332.387 15.8281 332.512 15.7383C332.633 15.6523 332.771 15.5859 332.928 15.5391C333.084 15.4883 333.256 15.4629 333.443 15.4629C333.615 15.4629 333.771 15.4824 333.912 15.5215C334.053 15.5605 334.18 15.6152 334.293 15.6855C334.457 15.7832 334.596 15.918 334.709 16.0898C334.822 16.2617 334.914 16.4512 334.984 16.6582C335.035 16.8262 335.072 17.0059 335.096 17.1973C335.123 17.3848 335.137 17.5781 335.137 17.7773ZM338.225 12V12.9434H340.381V20.0625H338.225V21H343.533V20.0625H341.465V12H338.225ZM344.957 17.7715V17.9004C344.957 18.3574 345.023 18.7812 345.156 19.1719C345.289 19.5625 345.48 19.9023 345.73 20.1914C345.977 20.4805 346.277 20.707 346.633 20.8711C346.992 21.0352 347.396 21.1172 347.846 21.1172C348.291 21.1172 348.691 21.0352 349.047 20.8711C349.402 20.707 349.705 20.4805 349.955 20.1914C350.201 19.9023 350.391 19.5625 350.523 19.1719C350.656 18.7812 350.723 18.3574 350.723 17.9004V17.7715C350.723 17.3145 350.656 16.8906 350.523 16.5C350.391 16.1055 350.201 15.7637 349.955 15.4746C349.705 15.1855 349.4 14.959 349.041 14.7949C348.686 14.627 348.283 14.543 347.834 14.543C347.389 14.543 346.988 14.627 346.633 14.7949C346.277 14.959 345.977 15.1855 345.73 15.4746C345.48 15.7637 345.289 16.1055 345.156 16.5C345.023 16.8906 344.957 17.3145 344.957 17.7715ZM346.041 17.9004V17.7715C346.041 17.4629 346.078 17.168 346.152 16.8867C346.227 16.6016 346.34 16.3516 346.492 16.1367C346.641 15.9219 346.826 15.752 347.049 15.627C347.271 15.498 347.533 15.4336 347.834 15.4336C348.135 15.4336 348.396 15.498 348.619 15.627C348.846 15.752 349.035 15.9219 349.188 16.1367C349.336 16.3516 349.447 16.6016 349.521 16.8867C349.6 17.168 349.639 17.4629 349.639 17.7715V17.9004C349.639 18.2129 349.602 18.5117 349.527 18.7969C349.453 19.0781 349.342 19.3262 349.193 19.541C349.041 19.7559 348.852 19.9258 348.625 20.0508C348.402 20.1758 348.143 20.2383 347.846 20.2383C347.545 20.2383 347.281 20.1758 347.055 20.0508C346.828 19.9258 346.641 19.7559 346.492 19.541C346.34 19.3262 346.227 19.0781 346.152 18.7969C346.078 18.5117 346.041 18.2129 346.041 17.9004ZM355.17 20.2383C354.83 20.2383 354.545 20.1719 354.314 20.0391C354.088 19.9023 353.906 19.7246 353.77 19.5059C353.629 19.291 353.527 19.0488 353.465 18.7793C353.406 18.5059 353.377 18.2305 353.377 17.9531V17.707C353.377 17.4336 353.406 17.1621 353.465 16.8926C353.527 16.623 353.629 16.3789 353.77 16.1602C353.91 15.9453 354.094 15.7715 354.32 15.6387C354.551 15.502 354.834 15.4336 355.17 15.4336C355.389 15.4336 355.592 15.4707 355.779 15.5449C355.971 15.6191 356.135 15.7207 356.271 15.8496C356.408 15.9785 356.516 16.1289 356.594 16.3008C356.676 16.4688 356.719 16.6484 356.723 16.8398H357.748C357.748 16.5195 357.684 16.2188 357.555 15.9375C357.426 15.6562 357.248 15.4121 357.021 15.2051C356.791 15.002 356.518 14.8418 356.201 14.7246C355.889 14.6035 355.545 14.543 355.17 14.543C354.689 14.543 354.27 14.6289 353.91 14.8008C353.551 14.9727 353.252 15.2031 353.014 15.4922C352.771 15.7852 352.59 16.123 352.469 16.5059C352.348 16.8887 352.287 17.2891 352.287 17.707V17.9531C352.287 18.375 352.348 18.7773 352.469 19.1602C352.59 19.5391 352.771 19.873 353.014 20.1621C353.252 20.4551 353.551 20.6875 353.91 20.8594C354.27 21.0312 354.689 21.1172 355.17 21.1172C355.506 21.1172 355.828 21.0605 356.137 20.9473C356.445 20.8301 356.719 20.6738 356.957 20.4785C357.195 20.2871 357.385 20.0645 357.525 19.8105C357.67 19.5527 357.744 19.2832 357.748 19.002H356.723C356.719 19.1777 356.672 19.3418 356.582 19.4941C356.496 19.6426 356.381 19.7715 356.236 19.8809C356.092 19.9941 355.926 20.082 355.738 20.1445C355.555 20.207 355.365 20.2383 355.17 20.2383ZM361.574 18.041L363.9 21H365.277L362.318 17.3027L364.885 14.6602H363.566L361.486 16.7461L360.777 17.5078V12H359.688V21H360.777V18.8086L361.574 18.041Z"
    fill="#10D310" pathLength="1" stroke-dashoffset="0px" stroke-dasharray="1px 1px"></path>
  <path d="M301 22.1719H365.857V22.7578H301V22.1719Z" fill="#10D310" pathLength="1" stroke-dashoffset="0px"
    stroke-dasharray="1px 1px"></path>
  <path
    d="M460.545 41.4336H459.461C459.426 41.6914 459.365 41.9316 459.279 42.1543C459.193 42.373 459.078 42.5625 458.934 42.7227C458.789 42.8867 458.611 43.0137 458.4 43.1035C458.193 43.1934 457.947 43.2383 457.662 43.2383C457.4 43.2383 457.172 43.1973 456.977 43.1152C456.781 43.0293 456.611 42.9121 456.467 42.7637C456.322 42.6191 456.203 42.4512 456.109 42.2598C456.016 42.0684 455.939 41.8633 455.881 41.6445C455.822 41.4297 455.779 41.2109 455.752 40.9883C455.729 40.7617 455.717 40.543 455.717 40.332V39.1309C455.717 38.9199 455.729 38.7031 455.752 38.4805C455.779 38.2539 455.822 38.0332 455.881 37.8184C455.939 37.6035 456.016 37.4004 456.109 37.209C456.207 37.0176 456.328 36.8496 456.473 36.7051C456.613 36.5605 456.781 36.4473 456.977 36.3652C457.176 36.2793 457.404 36.2363 457.662 36.2363C457.947 36.2363 458.193 36.2852 458.4 36.3828C458.611 36.4766 458.789 36.6074 458.934 36.7754C459.078 36.9434 459.193 37.1387 459.279 37.3613C459.365 37.584 459.426 37.8242 459.461 38.082H460.545C460.498 37.6758 460.4 37.3047 460.252 36.9688C460.107 36.6328 459.914 36.3438 459.672 36.1016C459.43 35.8633 459.141 35.6797 458.805 35.5508C458.469 35.418 458.088 35.3516 457.662 35.3516C457.307 35.3516 456.986 35.4023 456.701 35.5039C456.416 35.6016 456.162 35.7383 455.939 35.9141C455.713 36.0898 455.518 36.2988 455.354 36.541C455.193 36.7793 455.061 37.0391 454.955 37.3203C454.846 37.6016 454.764 37.8965 454.709 38.2051C454.658 38.5137 454.631 38.8262 454.627 39.1426V40.332C454.631 40.6484 454.658 40.9609 454.709 41.2695C454.764 41.5781 454.846 41.873 454.955 42.1543C455.061 42.4355 455.193 42.6953 455.354 42.9336C455.518 43.1719 455.713 43.3789 455.939 43.5547C456.162 43.7305 456.416 43.8691 456.701 43.9707C456.99 44.0684 457.311 44.1172 457.662 44.1172C458.072 44.1172 458.443 44.0527 458.775 43.9238C459.111 43.791 459.402 43.6055 459.648 43.3672C459.891 43.1328 460.088 42.8516 460.24 42.5234C460.393 42.1914 460.494 41.8281 460.545 41.4336ZM463.311 38.6035V35H462.227V44H463.311V39.3945C463.389 39.2695 463.477 39.1562 463.574 39.0547C463.676 38.9492 463.785 38.8574 463.902 38.7793C464.051 38.6777 464.213 38.5996 464.389 38.5449C464.564 38.4902 464.75 38.4629 464.945 38.4629C465.184 38.459 465.395 38.4922 465.578 38.5625C465.762 38.6289 465.914 38.7305 466.035 38.8672C466.148 38.9922 466.234 39.1504 466.293 39.3418C466.352 39.5293 466.381 39.748 466.381 39.998V44H467.465V40.0098C467.465 39.584 467.412 39.2168 467.307 38.9082C467.205 38.5957 467.059 38.3379 466.867 38.1348C466.676 37.9316 466.443 37.7832 466.17 37.6895C465.9 37.5918 465.6 37.543 465.268 37.543C465.014 37.5469 464.773 37.584 464.547 37.6543C464.324 37.7246 464.119 37.8281 463.932 37.9648C463.814 38.0469 463.703 38.1426 463.598 38.252C463.492 38.3574 463.396 38.4746 463.311 38.6035ZM473.6 44H474.73V43.9062C474.66 43.7305 474.605 43.5254 474.566 43.291C474.527 43.0527 474.508 42.8281 474.508 42.6172V39.6699C474.508 39.3145 474.443 39.0039 474.314 38.7383C474.186 38.4727 474.01 38.25 473.787 38.0703C473.561 37.8945 473.293 37.7637 472.984 37.6777C472.676 37.5879 472.342 37.543 471.982 37.543C471.588 37.543 471.234 37.5977 470.922 37.707C470.613 37.8164 470.352 37.959 470.137 38.1348C469.918 38.3145 469.75 38.5156 469.633 38.7383C469.52 38.9609 469.461 39.1875 469.457 39.418H470.547C470.547 39.2852 470.578 39.1582 470.641 39.0371C470.707 38.9121 470.799 38.8047 470.916 38.7148C471.033 38.625 471.176 38.5527 471.344 38.498C471.516 38.4434 471.709 38.416 471.924 38.416C472.154 38.416 472.361 38.4453 472.545 38.5039C472.732 38.5625 472.891 38.6445 473.02 38.75C473.148 38.8594 473.248 38.9902 473.318 39.1426C473.389 39.2949 473.424 39.4668 473.424 39.6582V40.1562H472.24C471.799 40.1562 471.398 40.1992 471.039 40.2852C470.684 40.3711 470.379 40.5 470.125 40.6719C469.871 40.8477 469.674 41.0664 469.533 41.3281C469.396 41.5898 469.328 41.8945 469.328 42.2422C469.328 42.5078 469.379 42.7559 469.48 42.9863C469.586 43.2129 469.734 43.4082 469.926 43.5723C470.113 43.7402 470.342 43.873 470.611 43.9707C470.885 44.0684 471.189 44.1172 471.525 44.1172C471.732 44.1172 471.928 44.0957 472.111 44.0527C472.295 44.0098 472.469 43.9512 472.633 43.877C472.793 43.8027 472.939 43.7168 473.072 43.6191C473.209 43.5215 473.332 43.418 473.441 43.3086C473.453 43.4414 473.471 43.5703 473.494 43.6953C473.521 43.8164 473.557 43.918 473.6 44ZM471.684 43.1738C471.473 43.1738 471.287 43.1465 471.127 43.0918C470.967 43.0371 470.834 42.9609 470.729 42.8633C470.623 42.7695 470.543 42.6562 470.488 42.5234C470.438 42.3906 470.412 42.2461 470.412 42.0898C470.412 41.9258 470.441 41.7793 470.5 41.6504C470.562 41.5215 470.652 41.4102 470.77 41.3164C470.934 41.1836 471.154 41.0859 471.432 41.0234C471.713 40.957 472.041 40.9238 472.416 40.9238H473.424V42.207C473.361 42.332 473.275 42.4531 473.166 42.5703C473.057 42.6836 472.928 42.7852 472.779 42.875C472.627 42.9648 472.459 43.0371 472.275 43.0918C472.092 43.1465 471.895 43.1738 471.684 43.1738ZM476.641 44H477.725V39.4531C477.799 39.3164 477.885 39.1914 477.982 39.0781C478.084 38.9648 478.193 38.8652 478.311 38.7793C478.455 38.6816 478.613 38.6055 478.785 38.5508C478.957 38.4922 479.143 38.4629 479.342 38.4629C479.572 38.4629 479.775 38.4902 479.951 38.5449C480.131 38.5996 480.283 38.6875 480.408 38.8086C480.529 38.9297 480.621 39.0879 480.684 39.2832C480.746 39.4785 480.777 39.7168 480.777 39.998V44H481.861V39.9746C481.861 39.5527 481.809 39.1895 481.703 38.8848C481.602 38.5762 481.455 38.3223 481.264 38.123C481.072 37.9238 480.84 37.7773 480.566 37.6836C480.297 37.5898 479.996 37.543 479.664 37.543C479.418 37.5469 479.184 37.584 478.961 37.6543C478.742 37.7207 478.539 37.8164 478.352 37.9414C478.227 38.0234 478.107 38.1211 477.994 38.2344C477.885 38.3438 477.783 38.4648 477.689 38.5977L477.613 37.6602H476.641V44ZM483.648 40.7773V40.9004C483.648 41.3535 483.707 41.7773 483.824 42.1719C483.941 42.5625 484.109 42.9023 484.328 43.1914C484.543 43.4805 484.807 43.707 485.119 43.8711C485.432 44.0352 485.781 44.1172 486.168 44.1172C486.398 44.1172 486.613 44.0918 486.812 44.041C487.012 43.9941 487.193 43.9258 487.357 43.8359C487.463 43.7773 487.561 43.709 487.65 43.6309C487.744 43.5527 487.832 43.4668 487.914 43.373V43.918C487.914 44.1914 487.875 44.4336 487.797 44.6445C487.719 44.8555 487.607 45.0312 487.463 45.1719C487.314 45.3164 487.137 45.4258 486.93 45.5C486.723 45.5742 486.49 45.6113 486.232 45.6113C486.088 45.6113 485.943 45.5957 485.799 45.5645C485.654 45.5371 485.51 45.4902 485.365 45.4238C485.221 45.3574 485.078 45.2676 484.938 45.1543C484.797 45.0449 484.66 44.9102 484.527 44.75L483.965 45.4004C484.109 45.6074 484.281 45.7812 484.48 45.9219C484.684 46.0625 484.895 46.1738 485.113 46.2559C485.328 46.3418 485.541 46.4023 485.752 46.4375C485.963 46.4766 486.15 46.4961 486.314 46.4961C486.713 46.4961 487.076 46.4375 487.404 46.3203C487.732 46.2031 488.016 46.0312 488.254 45.8047C488.488 45.5781 488.67 45.3027 488.799 44.9785C488.932 44.6543 488.998 44.2832 488.998 43.8652V37.6602H488.014L487.961 38.3516C487.887 38.2578 487.807 38.1719 487.721 38.0938C487.639 38.0156 487.551 37.9473 487.457 37.8887C487.285 37.7754 487.092 37.6895 486.877 37.6309C486.666 37.5723 486.434 37.543 486.18 37.543C485.785 37.543 485.432 37.623 485.119 37.7832C484.807 37.9434 484.541 38.166 484.322 38.4512C484.104 38.7363 483.936 39.0781 483.818 39.4766C483.705 39.8711 483.648 40.3047 483.648 40.7773ZM484.732 40.9004V40.7773C484.732 40.4688 484.764 40.1758 484.826 39.8984C484.893 39.6172 484.996 39.3691 485.137 39.1543C485.273 38.9434 485.449 38.7754 485.664 38.6504C485.883 38.5254 486.145 38.4629 486.449 38.4629C486.629 38.4629 486.793 38.4863 486.941 38.5332C487.09 38.5762 487.225 38.6367 487.346 38.7148C487.467 38.7969 487.574 38.8926 487.668 39.002C487.762 39.1113 487.844 39.2324 487.914 39.3652V42.2715C487.844 42.4082 487.762 42.5332 487.668 42.6465C487.574 42.7598 487.469 42.8574 487.352 42.9395C487.23 43.0215 487.094 43.0859 486.941 43.1328C486.793 43.1758 486.625 43.1973 486.438 43.1973C486.137 43.1973 485.879 43.1367 485.664 43.0156C485.449 42.8906 485.273 42.7227 485.137 42.5117C484.996 42.3008 484.893 42.0566 484.826 41.7793C484.764 41.502 484.732 41.209 484.732 40.9004ZM493.855 44.1172C494.473 44.1172 494.99 43.9941 495.408 43.748C495.83 43.498 496.146 43.2129 496.357 42.8926L495.695 42.377C495.496 42.6348 495.246 42.8418 494.945 42.998C494.645 43.1543 494.301 43.2324 493.914 43.2324C493.621 43.2324 493.354 43.1777 493.111 43.0684C492.869 42.959 492.662 42.8086 492.49 42.6172C492.322 42.4375 492.189 42.2305 492.092 41.9961C491.998 41.7617 491.938 41.4902 491.91 41.1816V41.1406H496.439V40.6543C496.439 40.2129 496.383 39.8027 496.27 39.4238C496.16 39.0449 495.992 38.7148 495.766 38.4336C495.539 38.1562 495.254 37.9395 494.91 37.7832C494.57 37.623 494.172 37.543 493.715 37.543C493.352 37.543 492.996 37.6172 492.648 37.7656C492.305 37.9141 491.998 38.127 491.729 38.4043C491.455 38.6855 491.236 39.0293 491.072 39.4355C490.908 39.8379 490.826 40.2949 490.826 40.8066V41.0527C490.826 41.4941 490.9 41.9023 491.049 42.2773C491.197 42.6523 491.404 42.9766 491.67 43.25C491.936 43.5234 492.254 43.7363 492.625 43.8887C493 44.041 493.41 44.1172 493.855 44.1172ZM493.715 38.4336C493.992 38.4336 494.23 38.4844 494.43 38.5859C494.633 38.6875 494.801 38.8203 494.934 38.9844C495.066 39.1484 495.17 39.3438 495.244 39.5703C495.318 39.793 495.355 40.002 495.355 40.1973V40.25H491.945C491.988 39.957 492.062 39.6992 492.168 39.4766C492.277 39.25 492.41 39.0586 492.566 38.9023C492.723 38.75 492.898 38.6348 493.094 38.5566C493.289 38.4746 493.496 38.4336 493.715 38.4336ZM502.475 42.3184C502.475 42.4199 502.455 42.5156 502.416 42.6055C502.377 42.6953 502.32 42.7773 502.246 42.8516C502.125 42.9727 501.957 43.0684 501.742 43.1387C501.527 43.2051 501.275 43.2383 500.986 43.2383C500.803 43.2383 500.617 43.2188 500.43 43.1797C500.242 43.1406 500.072 43.0742 499.92 42.9805C499.764 42.8867 499.633 42.7637 499.527 42.6113C499.426 42.459 499.367 42.2715 499.352 42.0488H498.268C498.268 42.3184 498.328 42.5781 498.449 42.8281C498.574 43.0781 498.754 43.2969 498.988 43.4844C499.219 43.6758 499.502 43.8301 499.838 43.9473C500.174 44.0605 500.557 44.1172 500.986 44.1172C501.361 44.1172 501.707 44.0723 502.023 43.9824C502.34 43.8926 502.611 43.7656 502.838 43.6016C503.064 43.4375 503.24 43.2402 503.365 43.0098C503.494 42.7793 503.559 42.5234 503.559 42.2422C503.559 41.9805 503.502 41.75 503.389 41.5508C503.279 41.3516 503.119 41.1758 502.908 41.0234C502.697 40.875 502.438 40.748 502.129 40.6426C501.82 40.5332 501.471 40.4375 501.08 40.3555C500.783 40.2969 500.537 40.2363 500.342 40.1738C500.15 40.1113 499.998 40.041 499.885 39.9629C499.768 39.8848 499.686 39.7969 499.639 39.6992C499.592 39.6016 499.568 39.4902 499.568 39.3652C499.568 39.2441 499.598 39.127 499.656 39.0137C499.715 38.9004 499.803 38.8008 499.92 38.7148C500.033 38.6289 500.176 38.5605 500.348 38.5098C500.523 38.459 500.727 38.4336 500.957 38.4336C501.18 38.4336 501.379 38.4648 501.555 38.5273C501.734 38.5898 501.887 38.6719 502.012 38.7734C502.137 38.875 502.234 38.9922 502.305 39.125C502.375 39.2539 502.41 39.3867 502.41 39.5234H503.494C503.494 39.2461 503.434 38.9883 503.312 38.75C503.195 38.5078 503.027 38.2969 502.809 38.1172C502.59 37.9375 502.324 37.7969 502.012 37.6953C501.699 37.5938 501.348 37.543 500.957 37.543C500.594 37.543 500.26 37.5918 499.955 37.6895C499.654 37.7871 499.395 37.9199 499.176 38.0879C498.957 38.2559 498.787 38.4531 498.666 38.6797C498.545 38.9023 498.484 39.1426 498.484 39.4004C498.484 39.6621 498.543 39.8926 498.66 40.0918C498.777 40.2871 498.943 40.457 499.158 40.6016C499.369 40.75 499.623 40.877 499.92 40.9824C500.221 41.0879 500.553 41.1777 500.916 41.252C501.213 41.3105 501.461 41.377 501.66 41.4512C501.859 41.5215 502.02 41.5996 502.141 41.6855C502.262 41.7715 502.348 41.8672 502.398 41.9727C502.449 42.0742 502.475 42.1895 502.475 42.3184ZM515.242 36.125H514.152V37.6602H512.488V38.498H514.152V41.9434C514.152 42.334 514.203 42.668 514.305 42.9453C514.41 43.2188 514.553 43.4414 514.732 43.6133C514.912 43.7891 515.123 43.918 515.365 44C515.611 44.0781 515.875 44.1172 516.156 44.1172C516.324 44.1172 516.492 44.1094 516.66 44.0938C516.832 44.0781 516.994 44.0547 517.146 44.0234C517.299 43.9961 517.439 43.9629 517.568 43.9238C517.697 43.8809 517.807 43.832 517.896 43.7773L517.744 43.0098C517.678 43.0254 517.592 43.0449 517.486 43.0684C517.385 43.0879 517.275 43.1074 517.158 43.127C517.037 43.1465 516.914 43.1641 516.789 43.1797C516.664 43.1914 516.543 43.1973 516.426 43.1973C516.266 43.1973 516.113 43.1777 515.969 43.1387C515.828 43.0996 515.703 43.0312 515.594 42.9336C515.484 42.8398 515.398 42.7129 515.336 42.5527C515.273 42.3926 515.242 42.1895 515.242 41.9434V38.498H517.656V37.6602H515.242V36.125ZM519.578 40.7715V40.9004C519.578 41.3574 519.645 41.7812 519.777 42.1719C519.91 42.5625 520.102 42.9023 520.352 43.1914C520.598 43.4805 520.898 43.707 521.254 43.8711C521.613 44.0352 522.018 44.1172 522.467 44.1172C522.912 44.1172 523.312 44.0352 523.668 43.8711C524.023 43.707 524.326 43.4805 524.576 43.1914C524.822 42.9023 525.012 42.5625 525.145 42.1719C525.277 41.7812 525.344 41.3574 525.344 40.9004V40.7715C525.344 40.3145 525.277 39.8906 525.145 39.5C525.012 39.1055 524.822 38.7637 524.576 38.4746C524.326 38.1855 524.021 37.959 523.662 37.7949C523.307 37.627 522.904 37.543 522.455 37.543C522.01 37.543 521.609 37.627 521.254 37.7949C520.898 37.959 520.598 38.1855 520.352 38.4746C520.102 38.7637 519.91 39.1055 519.777 39.5C519.645 39.8906 519.578 40.3145 519.578 40.7715ZM520.662 40.9004V40.7715C520.662 40.4629 520.699 40.168 520.773 39.8867C520.848 39.6016 520.961 39.3516 521.113 39.1367C521.262 38.9219 521.447 38.752 521.67 38.627C521.893 38.498 522.154 38.4336 522.455 38.4336C522.756 38.4336 523.018 38.498 523.24 38.627C523.467 38.752 523.656 38.9219 523.809 39.1367C523.957 39.3516 524.068 39.6016 524.143 39.8867C524.221 40.168 524.26 40.4629 524.26 40.7715V40.9004C524.26 41.2129 524.223 41.5117 524.148 41.7969C524.074 42.0781 523.963 42.3262 523.814 42.541C523.662 42.7559 523.473 42.9258 523.246 43.0508C523.023 43.1758 522.764 43.2383 522.467 43.2383C522.166 43.2383 521.902 43.1758 521.676 43.0508C521.449 42.9258 521.262 42.7559 521.113 42.541C520.961 42.3262 520.848 42.0781 520.773 41.7969C520.699 41.5117 520.662 41.2129 520.662 40.9004ZM538.451 37.543C537.99 37.543 537.578 37.6445 537.215 37.8477C536.855 38.0469 536.547 38.3203 536.289 38.668L536.283 38.5098L536.236 37.6602H535.205V44H536.295V39.9336C536.365 39.7383 536.453 39.5625 536.559 39.4062C536.668 39.2461 536.795 39.1113 536.939 39.002C537.1 38.877 537.287 38.7832 537.502 38.7207C537.717 38.6543 537.957 38.6211 538.223 38.6211C538.43 38.6211 538.627 38.6328 538.814 38.6562C539.006 38.6758 539.207 38.709 539.418 38.7559L539.564 37.6953C539.455 37.6484 539.291 37.6113 539.072 37.584C538.857 37.5566 538.65 37.543 538.451 37.543ZM544.305 44.1172C544.922 44.1172 545.439 43.9941 545.857 43.748C546.279 43.498 546.596 43.2129 546.807 42.8926L546.145 42.377C545.945 42.6348 545.695 42.8418 545.395 42.998C545.094 43.1543 544.75 43.2324 544.363 43.2324C544.07 43.2324 543.803 43.1777 543.561 43.0684C543.318 42.959 543.111 42.8086 542.939 42.6172C542.771 42.4375 542.639 42.2305 542.541 41.9961C542.447 41.7617 542.387 41.4902 542.359 41.1816V41.1406H546.889V40.6543C546.889 40.2129 546.832 39.8027 546.719 39.4238C546.609 39.0449 546.441 38.7148 546.215 38.4336C545.988 38.1562 545.703 37.9395 545.359 37.7832C545.02 37.623 544.621 37.543 544.164 37.543C543.801 37.543 543.445 37.6172 543.098 37.7656C542.754 37.9141 542.447 38.127 542.178 38.4043C541.904 38.6855 541.686 39.0293 541.521 39.4355C541.357 39.8379 541.275 40.2949 541.275 40.8066V41.0527C541.275 41.4941 541.35 41.9023 541.498 42.2773C541.646 42.6523 541.854 42.9766 542.119 43.25C542.385 43.5234 542.703 43.7363 543.074 43.8887C543.449 44.041 543.859 44.1172 544.305 44.1172ZM544.164 38.4336C544.441 38.4336 544.68 38.4844 544.879 38.5859C545.082 38.6875 545.25 38.8203 545.383 38.9844C545.516 39.1484 545.619 39.3438 545.693 39.5703C545.768 39.793 545.805 40.002 545.805 40.1973V40.25H542.395C542.438 39.957 542.512 39.6992 542.617 39.4766C542.727 39.25 542.859 39.0586 543.016 38.9023C543.172 38.75 543.348 38.6348 543.543 38.5566C543.738 38.4746 543.945 38.4336 544.164 38.4336ZM552.877 44H554.008V43.9062C553.938 43.7305 553.883 43.5254 553.844 43.291C553.805 43.0527 553.785 42.8281 553.785 42.6172V39.6699C553.785 39.3145 553.721 39.0039 553.592 38.7383C553.463 38.4727 553.287 38.25 553.064 38.0703C552.838 37.8945 552.57 37.7637 552.262 37.6777C551.953 37.5879 551.619 37.543 551.26 37.543C550.865 37.543 550.512 37.5977 550.199 37.707C549.891 37.8164 549.629 37.959 549.414 38.1348C549.195 38.3145 549.027 38.5156 548.91 38.7383C548.797 38.9609 548.738 39.1875 548.734 39.418H549.824C549.824 39.2852 549.855 39.1582 549.918 39.0371C549.984 38.9121 550.076 38.8047 550.193 38.7148C550.311 38.625 550.453 38.5527 550.621 38.498C550.793 38.4434 550.986 38.416 551.201 38.416C551.432 38.416 551.639 38.4453 551.822 38.5039C552.01 38.5625 552.168 38.6445 552.297 38.75C552.426 38.8594 552.525 38.9902 552.596 39.1426C552.666 39.2949 552.701 39.4668 552.701 39.6582V40.1562H551.518C551.076 40.1562 550.676 40.1992 550.316 40.2852C549.961 40.3711 549.656 40.5 549.402 40.6719C549.148 40.8477 548.951 41.0664 548.811 41.3281C548.674 41.5898 548.605 41.8945 548.605 42.2422C548.605 42.5078 548.656 42.7559 548.758 42.9863C548.863 43.2129 549.012 43.4082 549.203 43.5723C549.391 43.7402 549.619 43.873 549.889 43.9707C550.162 44.0684 550.467 44.1172 550.803 44.1172C551.01 44.1172 551.205 44.0957 551.389 44.0527C551.572 44.0098 551.746 43.9512 551.91 43.877C552.07 43.8027 552.217 43.7168 552.35 43.6191C552.486 43.5215 552.609 43.418 552.719 43.3086C552.73 43.4414 552.748 43.5703 552.771 43.6953C552.799 43.8164 552.834 43.918 552.877 44ZM550.961 43.1738C550.75 43.1738 550.564 43.1465 550.404 43.0918C550.244 43.0371 550.111 42.9609 550.006 42.8633C549.9 42.7695 549.82 42.6562 549.766 42.5234C549.715 42.3906 549.689 42.2461 549.689 42.0898C549.689 41.9258 549.719 41.7793 549.777 41.6504C549.84 41.5215 549.93 41.4102 550.047 41.3164C550.211 41.1836 550.432 41.0859 550.709 41.0234C550.99 40.957 551.318 40.9238 551.693 40.9238H552.701V42.207C552.639 42.332 552.553 42.4531 552.443 42.5703C552.334 42.6836 552.205 42.7852 552.057 42.875C551.904 42.9648 551.736 43.0371 551.553 43.0918C551.369 43.1465 551.172 43.1738 550.961 43.1738ZM556.088 35V35.9434H558.244V43.0625H556.088V44H561.396V43.0625H559.328V35H556.088ZM570.221 44H572.195C572.605 43.9961 572.986 43.9473 573.338 43.8535C573.693 43.7598 574.012 43.625 574.293 43.4492C574.559 43.2812 574.799 43.0781 575.014 42.8398C575.229 42.6016 575.406 42.3359 575.547 42.043C575.684 41.7617 575.787 41.4531 575.857 41.1172C575.932 40.7812 575.969 40.4258 575.969 40.0508V39.4238C575.965 39.0332 575.924 38.666 575.846 38.3223C575.771 37.9785 575.662 37.6621 575.518 37.373C575.357 37.0332 575.143 36.7344 574.873 36.4766C574.607 36.2148 574.301 36.0039 573.953 35.8438C573.703 35.7266 573.43 35.6367 573.133 35.5742C572.84 35.5078 572.527 35.4727 572.195 35.4688H570.221V44ZM571.322 36.3594H572.195C572.465 36.3633 572.713 36.3945 572.939 36.4531C573.166 36.5078 573.371 36.5859 573.555 36.6875C573.812 36.8242 574.029 37.0039 574.205 37.2266C574.385 37.4453 574.527 37.6914 574.633 37.9648C574.715 38.1758 574.775 38.4043 574.814 38.6504C574.857 38.8926 574.881 39.1465 574.885 39.4121V40.0508C574.881 40.3125 574.859 40.5645 574.82 40.8066C574.781 41.0449 574.723 41.2676 574.645 41.4746C574.555 41.7285 574.432 41.959 574.275 42.166C574.123 42.3691 573.941 42.541 573.73 42.6816C573.531 42.8184 573.303 42.9238 573.045 42.998C572.791 43.0723 572.508 43.1113 572.195 43.1152H571.322V36.3594ZM583.088 40.2266V39.2539C583.084 38.9492 583.057 38.6406 583.006 38.3281C582.959 38.0156 582.885 37.7148 582.783 37.4258C582.678 37.1367 582.545 36.8672 582.385 36.6172C582.229 36.3633 582.041 36.1426 581.822 35.9551C581.604 35.7676 581.352 35.6211 581.066 35.5156C580.781 35.4062 580.463 35.3516 580.111 35.3516C579.76 35.3516 579.441 35.4062 579.156 35.5156C578.875 35.6211 578.625 35.7676 578.406 35.9551C578.188 36.1465 577.998 36.3691 577.838 36.623C577.682 36.873 577.553 37.1426 577.451 37.4316C577.346 37.7207 577.268 38.0215 577.217 38.334C577.17 38.6426 577.145 38.9492 577.141 39.2539V40.2266C577.145 40.5312 577.172 40.8379 577.223 41.1465C577.273 41.4551 577.352 41.7539 577.457 42.043C577.559 42.332 577.689 42.6035 577.85 42.8574C578.01 43.1074 578.199 43.3262 578.418 43.5137C578.637 43.7012 578.887 43.8496 579.168 43.959C579.453 44.0645 579.771 44.1172 580.123 44.1172C580.475 44.1172 580.791 44.0645 581.072 43.959C581.357 43.8496 581.609 43.7012 581.828 43.5137C582.047 43.3262 582.234 43.1074 582.391 42.8574C582.551 42.6074 582.682 42.3379 582.783 42.0488C582.885 41.7598 582.959 41.4609 583.006 41.1523C583.057 40.8398 583.084 40.5312 583.088 40.2266ZM582.016 39.2422V40.2266C582.012 40.4297 581.998 40.6426 581.975 40.8652C581.955 41.0879 581.918 41.3066 581.863 41.5215C581.805 41.7402 581.729 41.9492 581.635 42.1484C581.545 42.3438 581.432 42.5156 581.295 42.6641C581.154 42.8164 580.986 42.9375 580.791 43.0273C580.6 43.1172 580.377 43.1621 580.123 43.1621C579.869 43.1621 579.646 43.1172 579.455 43.0273C579.264 42.9375 579.098 42.8164 578.957 42.6641C578.816 42.5156 578.699 42.3418 578.605 42.1426C578.512 41.9434 578.436 41.7344 578.377 41.5156C578.318 41.3008 578.275 41.082 578.248 40.8594C578.225 40.6367 578.211 40.4258 578.207 40.2266V39.2422C578.211 39.043 578.225 38.834 578.248 38.6152C578.275 38.3926 578.318 38.1719 578.377 37.9531C578.432 37.7383 578.506 37.5332 578.6 37.3379C578.693 37.1387 578.811 36.9629 578.951 36.8105C579.092 36.6621 579.258 36.543 579.449 36.4531C579.641 36.3633 579.861 36.3184 580.111 36.3184C580.365 36.3184 580.588 36.3633 580.779 36.4531C580.971 36.5391 581.137 36.6562 581.277 36.8047C581.418 36.957 581.535 37.1328 581.629 37.332C581.723 37.5273 581.799 37.7324 581.857 37.9473C581.912 38.166 581.951 38.3867 581.975 38.6094C581.998 38.8281 582.012 39.0391 582.016 39.2422ZM585.936 35.4688H584.594V44H585.648V40.5957L585.561 37.1562L587.008 41.627H587.629L589.205 37.0332L589.117 40.5957V44H590.172V35.4688H588.824L587.324 39.7344L585.936 35.4688Z"
    fill="white" pathLength="1" stroke-dashoffset="0px" stroke-dasharray="1px 1px"></path>
  <path d="M454 45.1719H590.928V45.7578H454V45.1719Z" fill="white" pathLength="1" stroke-dashoffset="0px"
    stroke-dasharray="1px 1px"></path>
  <path d="M57.4287 264V249.07H57.2749L50.7739 251.418V253.9L54.5474 252.546V264H57.4287Z" fill="black" pathLength="1"
    stroke-dashoffset="0px" stroke-dasharray="1px 1px"></path>
  <path
    d="M147.208 264V261.713H140.655L143.465 258.74C143.95 258.241 144.391 257.766 144.788 257.314C145.184 256.856 145.526 256.409 145.813 255.971C146.093 255.534 146.309 255.093 146.459 254.648C146.616 254.197 146.695 253.726 146.695 253.233C146.695 252.584 146.592 251.993 146.387 251.459C146.182 250.919 145.885 250.458 145.495 250.075C145.099 249.692 144.606 249.395 144.019 249.183C143.438 248.971 142.768 248.865 142.009 248.865C141.216 248.865 140.491 248.995 139.835 249.255C139.186 249.508 138.632 249.856 138.174 250.301C137.709 250.745 137.35 251.265 137.097 251.859C136.844 252.447 136.718 253.073 136.718 253.736H139.579C139.579 253.333 139.63 252.974 139.732 252.659C139.835 252.345 139.985 252.082 140.184 251.87C140.375 251.665 140.614 251.511 140.901 251.408C141.195 251.299 141.534 251.244 141.917 251.244C142.21 251.244 142.477 251.292 142.716 251.388C142.962 251.483 143.174 251.62 143.352 251.798C143.523 251.982 143.656 252.205 143.752 252.464C143.848 252.724 143.896 253.021 143.896 253.356C143.896 253.582 143.858 253.814 143.783 254.054C143.714 254.293 143.602 254.549 143.444 254.823C143.28 255.103 143.068 255.411 142.809 255.746C142.549 256.081 142.231 256.453 141.855 256.863L137.025 262.052V264H147.208Z"
    fill="black" pathLength="1" stroke-dashoffset="0px" stroke-dasharray="1px 1px"></path>
  <ellipse cx="335" cy="114.5" rx="22" ry="21.5" fill="white" pathLength="1" stroke-dashoffset="0px"
    stroke-dasharray="1px 1px"></ellipse>
  <ellipse cx="376" cy="184.5" rx="22" ry="21.5" fill="white" pathLength="1" stroke-dashoffset="0px"
    stroke-dasharray="1px 1px"></ellipse>
  <ellipse cx="294" cy="184.5" rx="22" ry="21.5" fill="white" pathLength="1" stroke-dashoffset="0px"
    stroke-dasharray="1px 1px"></ellipse>
  <ellipse cx="250" cy="256.5" rx="22" ry="21.5" fill="white" pathLength="1" stroke-dashoffset="0px"
    stroke-dasharray="1px 1px"></ellipse>
  <ellipse cx="338" cy="256.5" rx="22" ry="21.5" fill="white" pathLength="1" stroke-dashoffset="0px"
    stroke-dasharray="1px 1px"></ellipse>
  <path d="M334 115L249 260.5" stroke="white" stroke-width="3" pathLength="1" stroke-dashoffset="0px"
    stroke-dasharray="1px 1px"></path>
  <path d="M334.5 116L377 186" stroke="white" stroke-width="3" pathLength="1" stroke-dashoffset="0px"
    stroke-dasharray="1px 1px"></path>
  <path d="M293 185L340 261" stroke="white" stroke-width="3" pathLength="1" stroke-dashoffset="0px"
    stroke-dasharray="1px 1px"></path>
  <path
    d="M248.317 255.284V257.499H249.865C250.255 257.499 250.604 257.543 250.911 257.632C251.226 257.721 251.496 257.858 251.721 258.042C251.94 258.227 252.107 258.463 252.224 258.75C252.34 259.037 252.398 259.382 252.398 259.786C252.398 260.107 252.347 260.397 252.244 260.657C252.148 260.917 252.005 261.136 251.813 261.313C251.615 261.512 251.369 261.662 251.075 261.765C250.781 261.867 250.45 261.918 250.081 261.918C249.752 261.918 249.452 261.871 249.178 261.775C248.905 261.672 248.669 261.532 248.471 261.354C248.266 261.184 248.108 260.979 247.999 260.739C247.89 260.493 247.835 260.227 247.835 259.939H244.984C244.984 260.664 245.125 261.293 245.405 261.826C245.692 262.359 246.071 262.8 246.543 263.149C247.015 263.504 247.551 263.771 248.153 263.949C248.761 264.12 249.383 264.205 250.019 264.205C250.757 264.205 251.444 264.109 252.08 263.918C252.723 263.72 253.276 263.433 253.741 263.057C254.206 262.688 254.572 262.229 254.838 261.683C255.105 261.136 255.238 260.514 255.238 259.816C255.238 259.42 255.19 259.044 255.095 258.688C254.999 258.333 254.852 258.005 254.654 257.704C254.456 257.41 254.203 257.147 253.895 256.915C253.594 256.682 253.235 256.491 252.818 256.34C253.174 256.169 253.488 255.968 253.762 255.735C254.035 255.496 254.264 255.236 254.449 254.956C254.633 254.676 254.773 254.382 254.869 254.074C254.965 253.76 255.013 253.442 255.013 253.121C255.013 252.423 254.89 251.812 254.644 251.285C254.404 250.752 254.066 250.304 253.628 249.942C253.191 249.586 252.665 249.32 252.049 249.142C251.434 248.958 250.757 248.865 250.019 248.865C249.335 248.865 248.696 248.964 248.102 249.163C247.514 249.361 247.001 249.638 246.563 249.993C246.126 250.355 245.781 250.786 245.528 251.285C245.282 251.784 245.159 252.338 245.159 252.946H248.009C248.009 252.673 248.064 252.427 248.173 252.208C248.283 251.989 248.433 251.801 248.625 251.644C248.809 251.494 249.024 251.377 249.271 251.295C249.523 251.213 249.793 251.172 250.081 251.172C250.429 251.172 250.733 251.22 250.993 251.316C251.26 251.412 251.479 251.545 251.649 251.716C251.82 251.894 251.947 252.105 252.029 252.352C252.118 252.591 252.162 252.857 252.162 253.151C252.162 253.452 252.118 253.732 252.029 253.992C251.947 254.245 251.82 254.46 251.649 254.638C251.465 254.843 251.222 255.004 250.921 255.12C250.627 255.229 250.275 255.284 249.865 255.284H248.317Z"
    fill="black" pathLength="1" stroke-dashoffset="0px" stroke-dasharray="1px 1px"></path>
  <path
    d="M340.772 258.453V249.07H337.88L331.605 258.976L331.718 260.76H337.921V264H340.772V260.76H342.505V258.453H340.772ZM334.404 258.453L337.645 253.397L337.921 252.905V258.453H334.404Z"
    fill="black" pathLength="1" stroke-dashoffset="0px" stroke-dasharray="1px 1px"></path>
  <rect x="26.5" y="86.5" width="184" height="203" stroke="#5F9CF8" pathLength="1" stroke-dashoffset="0px"
    stroke-dasharray="1px 1px"></rect>
  <path
    d="M63.7754 73.7871L63.8779 73.2256C63.6761 73.2191 63.5085 73.1637 63.375 73.0596C63.2448 72.9554 63.1406 72.8219 63.0625 72.6592C62.9811 72.4997 62.9242 72.319 62.8916 72.1172C62.859 71.9186 62.8428 71.7184 62.8428 71.5166V70.6914C62.8395 70.304 62.7484 69.9639 62.5693 69.6709C62.3903 69.3747 62.112 69.1517 61.7344 69.002C62.112 68.849 62.3903 68.626 62.5693 68.333C62.7516 68.0368 62.8428 67.6934 62.8428 67.3027V66.4727C62.8428 66.2741 62.8525 66.0739 62.8721 65.8721C62.8916 65.6702 62.9372 65.488 63.0088 65.3252C63.0771 65.1657 63.1797 65.0339 63.3164 64.9297C63.4564 64.8255 63.6436 64.7702 63.8779 64.7637L63.7754 64.2021C63.4466 64.2119 63.1667 64.2835 62.9355 64.417C62.7044 64.5472 62.5173 64.7165 62.374 64.9248C62.221 65.1429 62.1087 65.3903 62.0371 65.667C61.9688 65.9404 61.9346 66.209 61.9346 66.4727V67.3027C61.9346 67.7747 61.8223 68.1165 61.5977 68.3281C61.3763 68.5365 61.0361 68.6406 60.5771 68.6406V69.3486C61.0361 69.3519 61.3763 69.4593 61.5977 69.6709C61.8223 69.8825 61.9346 70.2227 61.9346 70.6914V71.5166C61.9346 71.777 61.972 72.0391 62.0469 72.3027C62.1217 72.5697 62.2324 72.8105 62.3789 73.0254C62.5319 73.25 62.724 73.4307 62.9551 73.5674C63.1862 73.7041 63.4596 73.7773 63.7754 73.7871ZM71.8613 72H72.7646V68.2109C72.8265 68.097 72.8981 67.9928 72.9795 67.8984C73.0641 67.804 73.1553 67.721 73.2529 67.6494C73.3734 67.568 73.5052 67.5046 73.6484 67.459C73.7917 67.4102 73.9463 67.3857 74.1123 67.3857C74.3044 67.3857 74.4736 67.4085 74.6201 67.4541C74.7699 67.4997 74.8968 67.5729 75.001 67.6738C75.1019 67.7747 75.1784 67.9066 75.2305 68.0693C75.2826 68.2321 75.3086 68.4307 75.3086 68.665V72H76.2119V68.6455C76.2119 68.2939 76.168 67.9912 76.0801 67.7373C75.9954 67.4801 75.8734 67.2686 75.7139 67.1025C75.5544 66.9365 75.3607 66.8145 75.1328 66.7363C74.9082 66.6582 74.6576 66.6191 74.3809 66.6191C74.1758 66.6224 73.9805 66.6533 73.7949 66.7119C73.6126 66.7673 73.4434 66.847 73.2871 66.9512C73.1829 67.0195 73.0837 67.1009 72.9893 67.1953C72.8981 67.2865 72.8135 67.3874 72.7354 67.498L72.6719 66.7168H71.8613V72ZM77.6133 69.3096V69.417C77.6133 69.7979 77.6686 70.151 77.7793 70.4766C77.89 70.8021 78.0495 71.0853 78.2578 71.3262C78.4629 71.5671 78.7135 71.7559 79.0098 71.8926C79.3092 72.0293 79.6462 72.0977 80.0205 72.0977C80.3916 72.0977 80.7253 72.0293 81.0215 71.8926C81.3177 71.7559 81.57 71.5671 81.7783 71.3262C81.9834 71.0853 82.1413 70.8021 82.252 70.4766C82.3626 70.151 82.418 69.7979 82.418 69.417V69.3096C82.418 68.9287 82.3626 68.5755 82.252 68.25C82.1413 67.9212 81.9834 67.6364 81.7783 67.3955C81.57 67.1546 81.3161 66.9658 81.0166 66.8291C80.7204 66.6891 80.3851 66.6191 80.0107 66.6191C79.6396 66.6191 79.306 66.6891 79.0098 66.8291C78.7135 66.9658 78.4629 67.1546 78.2578 67.3955C78.0495 67.6364 77.89 67.9212 77.7793 68.25C77.6686 68.5755 77.6133 68.9287 77.6133 69.3096ZM78.5166 69.417V69.3096C78.5166 69.0524 78.5475 68.8066 78.6094 68.5723C78.6712 68.3346 78.7656 68.1263 78.8926 67.9473C79.0163 67.7682 79.1709 67.6266 79.3564 67.5225C79.542 67.415 79.7601 67.3613 80.0107 67.3613C80.2614 67.3613 80.4795 67.415 80.665 67.5225C80.8538 67.6266 81.0117 67.7682 81.1387 67.9473C81.2624 68.1263 81.3551 68.3346 81.417 68.5723C81.4821 68.8066 81.5146 69.0524 81.5146 69.3096V69.417C81.5146 69.6774 81.4837 69.9264 81.4219 70.1641C81.36 70.3984 81.2673 70.6051 81.1436 70.7842C81.0166 70.9632 80.8587 71.1048 80.6699 71.209C80.4844 71.3132 80.2679 71.3652 80.0205 71.3652C79.7699 71.3652 79.5501 71.3132 79.3613 71.209C79.1725 71.1048 79.0163 70.9632 78.8926 70.7842C78.7656 70.6051 78.6712 70.3984 78.6094 70.1641C78.5475 69.9264 78.5166 69.6774 78.5166 69.417ZM83.7021 69.3145V69.417C83.7021 69.7946 83.7526 70.1478 83.8535 70.4766C83.9544 70.8021 84.096 71.0853 84.2783 71.3262C84.4606 71.5671 84.6803 71.7559 84.9375 71.8926C85.1979 72.0293 85.4876 72.0977 85.8066 72.0977C86.1322 72.0977 86.417 72.0423 86.6611 71.9316C86.9053 71.821 87.1152 71.6582 87.291 71.4434L87.3301 72H88.1602V64.5H87.2568V67.2393C87.0843 67.0374 86.8792 66.8844 86.6416 66.7803C86.4072 66.6729 86.1322 66.6191 85.8164 66.6191C85.4941 66.6191 85.2028 66.6859 84.9424 66.8193C84.682 66.9528 84.4606 67.1383 84.2783 67.376C84.0928 67.6136 83.9495 67.8984 83.8486 68.2305C83.751 68.5592 83.7021 68.9206 83.7021 69.3145ZM84.6055 69.417V69.3145C84.6055 69.0573 84.6331 68.8132 84.6885 68.582C84.7438 68.3477 84.8301 68.141 84.9473 67.9619C85.0612 67.7861 85.2077 67.6462 85.3867 67.542C85.569 67.4378 85.7871 67.3857 86.041 67.3857C86.3372 67.3857 86.5846 67.4557 86.7832 67.5957C86.9818 67.7324 87.1396 67.9082 87.2568 68.123V70.5742C87.1396 70.8053 86.9818 70.9893 86.7832 71.126C86.5846 71.2627 86.334 71.3311 86.0312 71.3311C85.7806 71.3311 85.5658 71.2806 85.3867 71.1797C85.2077 71.0755 85.0612 70.9355 84.9473 70.7598C84.8301 70.584 84.7438 70.3805 84.6885 70.1494C84.6331 69.9183 84.6055 69.6742 84.6055 69.417ZM92.2129 72.0977C92.7272 72.0977 93.1585 71.9951 93.5068 71.79C93.8584 71.5817 94.1221 71.3441 94.2979 71.0771L93.7461 70.6475C93.5801 70.8623 93.3717 71.0348 93.1211 71.165C92.8704 71.2952 92.584 71.3604 92.2617 71.3604C92.0176 71.3604 91.7946 71.3148 91.5928 71.2236C91.391 71.1325 91.2184 71.0072 91.0752 70.8477C90.9352 70.6979 90.8245 70.5254 90.7432 70.3301C90.665 70.1348 90.6146 69.9085 90.5918 69.6514V69.6172H94.3662V69.2119C94.3662 68.8441 94.319 68.5023 94.2246 68.1865C94.1335 67.8708 93.9935 67.5957 93.8047 67.3613C93.6159 67.1302 93.3783 66.9495 93.0918 66.8193C92.8086 66.6859 92.4766 66.6191 92.0957 66.6191C91.793 66.6191 91.4967 66.681 91.207 66.8047C90.9206 66.9284 90.665 67.1058 90.4404 67.3369C90.2126 67.5713 90.0303 67.8577 89.8936 68.1963C89.7568 68.5316 89.6885 68.9124 89.6885 69.3389V69.5439C89.6885 69.9118 89.7503 70.252 89.874 70.5645C89.9977 70.877 90.1702 71.1471 90.3916 71.375C90.613 71.6029 90.8783 71.7803 91.1875 71.9072C91.5 72.0342 91.8418 72.0977 92.2129 72.0977ZM92.0957 67.3613C92.3268 67.3613 92.5254 67.4036 92.6914 67.4883C92.8607 67.5729 93.0007 67.6836 93.1113 67.8203C93.222 67.957 93.3083 68.1198 93.3701 68.3086C93.432 68.4941 93.4629 68.6683 93.4629 68.8311V68.875H90.6211C90.6569 68.6309 90.7188 68.416 90.8066 68.2305C90.8978 68.0417 91.0085 67.8822 91.1387 67.752C91.2689 67.625 91.4154 67.529 91.5781 67.4639C91.7409 67.3955 91.9134 67.3613 92.0957 67.3613ZM98.8145 72V64.8906H98.7412L96.0508 65.9258V66.751L97.9111 66.043V72H98.8145ZM103.707 71.4141C103.707 71.6029 103.766 71.764 103.883 71.8975C104.003 72.0277 104.181 72.0928 104.415 72.0928C104.646 72.0928 104.824 72.0277 104.947 71.8975C105.071 71.7673 105.133 71.6061 105.133 71.4141C105.133 71.2188 105.071 71.0544 104.947 70.9209C104.827 70.7842 104.649 70.7158 104.415 70.7158C104.177 70.7158 104 70.7842 103.883 70.9209C103.766 71.0576 103.707 71.222 103.707 71.4141ZM103.707 67.1367C103.707 67.3255 103.766 67.4867 103.883 67.6201C104.003 67.7503 104.181 67.8154 104.415 67.8154C104.646 67.8154 104.824 67.7503 104.947 67.6201C105.071 67.4899 105.133 67.3288 105.133 67.1367C105.133 66.9414 105.071 66.777 104.947 66.6436C104.827 66.5068 104.649 66.4385 104.415 66.4385C104.177 66.4385 104 66.5068 103.883 66.6436C103.766 66.7803 103.707 66.9447 103.707 67.1367ZM116.832 72V64.8906H116.759L114.068 65.9258V66.751L115.929 66.043V72H116.832ZM122.198 71.79V70.9307H121.217V71.8047C121.217 72.0814 121.184 72.3483 121.119 72.6055C121.054 72.8626 120.943 73.1051 120.787 73.333L121.349 73.6406C121.609 73.4095 121.816 73.1247 121.969 72.7861C122.122 72.4476 122.198 72.1156 122.198 71.79ZM131.92 72H132.823V68.2109C132.885 68.097 132.957 67.9928 133.038 67.8984C133.123 67.804 133.214 67.721 133.312 67.6494C133.432 67.568 133.564 67.5046 133.707 67.459C133.85 67.4102 134.005 67.3857 134.171 67.3857C134.363 67.3857 134.532 67.4085 134.679 67.4541C134.828 67.4997 134.955 67.5729 135.06 67.6738C135.16 67.7747 135.237 67.9066 135.289 68.0693C135.341 68.2321 135.367 68.4307 135.367 68.665V72H136.271V68.6455C136.271 68.2939 136.227 67.9912 136.139 67.7373C136.054 67.4801 135.932 67.2686 135.772 67.1025C135.613 66.9365 135.419 66.8145 135.191 66.7363C134.967 66.6582 134.716 66.6191 134.439 66.6191C134.234 66.6224 134.039 66.6533 133.854 66.7119C133.671 66.7673 133.502 66.847 133.346 66.9512C133.242 67.0195 133.142 67.1009 133.048 67.1953C132.957 67.2865 132.872 67.3874 132.794 67.498L132.73 66.7168H131.92V72ZM137.672 69.3096V69.417C137.672 69.7979 137.727 70.151 137.838 70.4766C137.949 70.8021 138.108 71.0853 138.316 71.3262C138.521 71.5671 138.772 71.7559 139.068 71.8926C139.368 72.0293 139.705 72.0977 140.079 72.0977C140.45 72.0977 140.784 72.0293 141.08 71.8926C141.376 71.7559 141.629 71.5671 141.837 71.3262C142.042 71.0853 142.2 70.8021 142.311 70.4766C142.421 70.151 142.477 69.7979 142.477 69.417V69.3096C142.477 68.9287 142.421 68.5755 142.311 68.25C142.2 67.9212 142.042 67.6364 141.837 67.3955C141.629 67.1546 141.375 66.9658 141.075 66.8291C140.779 66.6891 140.444 66.6191 140.069 66.6191C139.698 66.6191 139.365 66.6891 139.068 66.8291C138.772 66.9658 138.521 67.1546 138.316 67.3955C138.108 67.6364 137.949 67.9212 137.838 68.25C137.727 68.5755 137.672 68.9287 137.672 69.3096ZM138.575 69.417V69.3096C138.575 69.0524 138.606 68.8066 138.668 68.5723C138.73 68.3346 138.824 68.1263 138.951 67.9473C139.075 67.7682 139.229 67.6266 139.415 67.5225C139.601 67.415 139.819 67.3613 140.069 67.3613C140.32 67.3613 140.538 67.415 140.724 67.5225C140.912 67.6266 141.07 67.7682 141.197 67.9473C141.321 68.1263 141.414 68.3346 141.476 68.5723C141.541 68.8066 141.573 69.0524 141.573 69.3096V69.417C141.573 69.6774 141.542 69.9264 141.48 70.1641C141.419 70.3984 141.326 70.6051 141.202 70.7842C141.075 70.9632 140.917 71.1048 140.729 71.209C140.543 71.3132 140.326 71.3652 140.079 71.3652C139.828 71.3652 139.609 71.3132 139.42 71.209C139.231 71.1048 139.075 70.9632 138.951 70.7842C138.824 70.6051 138.73 70.3984 138.668 70.1641C138.606 69.9264 138.575 69.6774 138.575 69.417ZM143.761 69.3145V69.417C143.761 69.7946 143.811 70.1478 143.912 70.4766C144.013 70.8021 144.155 71.0853 144.337 71.3262C144.519 71.5671 144.739 71.7559 144.996 71.8926C145.257 72.0293 145.546 72.0977 145.865 72.0977C146.191 72.0977 146.476 72.0423 146.72 71.9316C146.964 71.821 147.174 71.6582 147.35 71.4434L147.389 72H148.219V64.5H147.315V67.2393C147.143 67.0374 146.938 66.8844 146.7 66.7803C146.466 66.6729 146.191 66.6191 145.875 66.6191C145.553 66.6191 145.261 66.6859 145.001 66.8193C144.741 66.9528 144.519 67.1383 144.337 67.376C144.151 67.6136 144.008 67.8984 143.907 68.2305C143.81 68.5592 143.761 68.9206 143.761 69.3145ZM144.664 69.417V69.3145C144.664 69.0573 144.692 68.8132 144.747 68.582C144.802 68.3477 144.889 68.141 145.006 67.9619C145.12 67.7861 145.266 67.6462 145.445 67.542C145.628 67.4378 145.846 67.3857 146.1 67.3857C146.396 67.3857 146.643 67.4557 146.842 67.5957C147.04 67.7324 147.198 67.9082 147.315 68.123V70.5742C147.198 70.8053 147.04 70.9893 146.842 71.126C146.643 71.2627 146.393 71.3311 146.09 71.3311C145.839 71.3311 145.624 71.2806 145.445 71.1797C145.266 71.0755 145.12 70.9355 145.006 70.7598C144.889 70.584 144.802 70.3805 144.747 70.1494C144.692 69.9183 144.664 69.6742 144.664 69.417ZM152.271 72.0977C152.786 72.0977 153.217 71.9951 153.565 71.79C153.917 71.5817 154.181 71.3441 154.356 71.0771L153.805 70.6475C153.639 70.8623 153.43 71.0348 153.18 71.165C152.929 71.2952 152.643 71.3604 152.32 71.3604C152.076 71.3604 151.853 71.3148 151.651 71.2236C151.45 71.1325 151.277 71.0072 151.134 70.8477C150.994 70.6979 150.883 70.5254 150.802 70.3301C150.724 70.1348 150.673 69.9085 150.65 69.6514V69.6172H154.425V69.2119C154.425 68.8441 154.378 68.5023 154.283 68.1865C154.192 67.8708 154.052 67.5957 153.863 67.3613C153.674 67.1302 153.437 66.9495 153.15 66.8193C152.867 66.6859 152.535 66.6191 152.154 66.6191C151.852 66.6191 151.555 66.681 151.266 66.8047C150.979 66.9284 150.724 67.1058 150.499 67.3369C150.271 67.5713 150.089 67.8577 149.952 68.1963C149.815 68.5316 149.747 68.9124 149.747 69.3389V69.5439C149.747 69.9118 149.809 70.252 149.933 70.5645C150.056 70.877 150.229 71.1471 150.45 71.375C150.672 71.6029 150.937 71.7803 151.246 71.9072C151.559 72.0342 151.9 72.0977 152.271 72.0977ZM152.154 67.3613C152.385 67.3613 152.584 67.4036 152.75 67.4883C152.919 67.5729 153.059 67.6836 153.17 67.8203C153.281 67.957 153.367 68.1198 153.429 68.3086C153.491 68.4941 153.521 68.6683 153.521 68.8311V68.875H150.68C150.715 68.6309 150.777 68.416 150.865 68.2305C150.956 68.0417 151.067 67.8822 151.197 67.752C151.327 67.625 151.474 67.529 151.637 67.4639C151.799 67.3955 151.972 67.3613 152.154 67.3613ZM160.304 72V71.2627H156.734L158.644 69.1924C158.823 68.9971 158.992 68.8018 159.151 68.6064C159.314 68.4079 159.457 68.2077 159.581 68.0059C159.701 67.804 159.798 67.6006 159.869 67.3955C159.941 67.1872 159.977 66.9772 159.977 66.7656C159.977 66.4824 159.926 66.2204 159.825 65.9795C159.728 65.7386 159.586 65.5303 159.4 65.3545C159.215 65.1787 158.987 65.042 158.717 64.9443C158.45 64.8434 158.149 64.793 157.813 64.793C157.449 64.793 157.123 64.8516 156.837 64.9688C156.554 65.0859 156.314 65.2438 156.119 65.4424C155.921 65.641 155.769 65.8737 155.665 66.1406C155.561 66.4043 155.509 66.6859 155.509 66.9854H156.417C156.417 66.764 156.445 66.5638 156.5 66.3848C156.559 66.2057 156.646 66.0527 156.764 65.9258C156.878 65.8021 157.021 65.7061 157.193 65.6377C157.369 65.5693 157.576 65.5352 157.813 65.5352C158.009 65.5352 158.183 65.5693 158.336 65.6377C158.492 65.7028 158.626 65.7923 158.736 65.9062C158.844 66.0202 158.925 66.1553 158.98 66.3115C159.039 66.4645 159.068 66.6289 159.068 66.8047C159.068 66.9479 159.05 67.0879 159.015 67.2246C158.979 67.3581 158.919 67.4997 158.834 67.6494C158.749 67.8024 158.637 67.9684 158.497 68.1475C158.357 68.3265 158.183 68.5316 157.975 68.7627L155.646 71.3506V72H160.304ZM163.766 71.4141C163.766 71.6029 163.824 71.764 163.941 71.8975C164.062 72.0277 164.239 72.0928 164.474 72.0928C164.705 72.0928 164.882 72.0277 165.006 71.8975C165.13 71.7673 165.191 71.6061 165.191 71.4141C165.191 71.2188 165.13 71.0544 165.006 70.9209C164.885 70.7842 164.708 70.7158 164.474 70.7158C164.236 70.7158 164.059 70.7842 163.941 70.9209C163.824 71.0576 163.766 71.222 163.766 71.4141ZM163.766 67.1367C163.766 67.3255 163.824 67.4867 163.941 67.6201C164.062 67.7503 164.239 67.8154 164.474 67.8154C164.705 67.8154 164.882 67.7503 165.006 67.6201C165.13 67.4899 165.191 67.3288 165.191 67.1367C165.191 66.9414 165.13 66.777 165.006 66.6436C164.885 66.5068 164.708 66.4385 164.474 66.4385C164.236 66.4385 164.059 66.5068 163.941 66.6436C163.824 66.7803 163.766 66.9447 163.766 67.1367ZM178.321 72V71.2627H174.752L176.661 69.1924C176.84 68.9971 177.009 68.8018 177.169 68.6064C177.332 68.4079 177.475 68.2077 177.599 68.0059C177.719 67.804 177.815 67.6006 177.887 67.3955C177.958 67.1872 177.994 66.9772 177.994 66.7656C177.994 66.4824 177.944 66.2204 177.843 65.9795C177.745 65.7386 177.604 65.5303 177.418 65.3545C177.232 65.1787 177.005 65.042 176.734 64.9443C176.467 64.8434 176.166 64.793 175.831 64.793C175.466 64.793 175.141 64.8516 174.854 64.9688C174.571 65.0859 174.332 65.2438 174.137 65.4424C173.938 65.641 173.787 65.8737 173.683 66.1406C173.578 66.4043 173.526 66.6859 173.526 66.9854H174.435C174.435 66.764 174.462 66.5638 174.518 66.3848C174.576 66.2057 174.664 66.0527 174.781 65.9258C174.895 65.8021 175.038 65.7061 175.211 65.6377C175.387 65.5693 175.593 65.5352 175.831 65.5352C176.026 65.5352 176.201 65.5693 176.354 65.6377C176.51 65.7028 176.643 65.7923 176.754 65.9062C176.861 66.0202 176.943 66.1553 176.998 66.3115C177.057 66.4645 177.086 66.6289 177.086 66.8047C177.086 66.9479 177.068 67.0879 177.032 67.2246C176.996 67.3581 176.936 67.4997 176.852 67.6494C176.767 67.8024 176.655 67.9684 176.515 68.1475C176.375 68.3265 176.201 68.5316 175.992 68.7627L173.663 71.3506V72H178.321ZM186.7 73.2256L186.803 73.7871C187.122 73.7806 187.397 73.7074 187.628 73.5674C187.859 73.4274 188.051 73.2484 188.204 73.0303C188.354 72.8122 188.465 72.5697 188.536 72.3027C188.608 72.0391 188.644 71.777 188.644 71.5166V70.6914C188.644 70.4635 188.67 70.2666 188.722 70.1006C188.774 69.9346 188.854 69.7962 188.961 69.6855C189.072 69.5716 189.213 69.4886 189.386 69.4365C189.562 69.3812 189.767 69.3519 190.001 69.3486V68.6406C189.734 68.6406 189.505 68.6064 189.312 68.5381C189.124 68.4665 188.976 68.3542 188.868 68.2012C188.793 68.0938 188.736 67.9668 188.697 67.8203C188.661 67.6706 188.644 67.498 188.644 67.3027V66.4727C188.644 66.1992 188.606 65.9225 188.531 65.6426C188.46 65.3626 188.341 65.1104 188.175 64.8857C188.028 64.6872 187.841 64.526 187.613 64.4023C187.389 64.2786 187.118 64.2119 186.803 64.2021L186.705 64.7637C186.939 64.7702 187.125 64.8255 187.262 64.9297C187.398 65.0339 187.503 65.1657 187.574 65.3252C187.643 65.488 187.687 65.6702 187.706 65.8721C187.729 66.0739 187.74 66.2741 187.74 66.4727V67.3027C187.74 67.5566 187.778 67.7926 187.853 68.0107C187.927 68.2256 188.043 68.4144 188.199 68.5771C188.281 68.665 188.375 68.7448 188.482 68.8164C188.593 68.888 188.714 68.9499 188.844 69.002C188.717 69.054 188.6 69.1143 188.492 69.1826C188.388 69.251 188.294 69.3275 188.209 69.4121C188.049 69.5716 187.931 69.7604 187.853 69.9785C187.778 70.1966 187.74 70.4342 187.74 70.6914V71.5166C187.74 71.7184 187.722 71.9186 187.687 72.1172C187.654 72.319 187.599 72.4997 187.521 72.6592C187.439 72.8219 187.332 72.9554 187.198 73.0596C187.065 73.1637 186.899 73.2191 186.7 73.2256Z"
    fill="#5F9CF8" pathLength="1" stroke-dashoffset="0px" stroke-dasharray="1px 1px"></path>
  <path
    d="M55.3473 229.369C55.5514 229.73 56.009 229.857 56.3695 229.653L62.2435 226.327C62.6039 226.123 62.7307 225.665 62.5266 225.305C62.3226 224.945 61.8649 224.818 61.5045 225.022L56.2832 227.978L53.3272 222.757C53.1231 222.396 52.6655 222.269 52.305 222.473C51.9446 222.677 51.8178 223.135 52.0219 223.496L55.3473 229.369ZM96.2772 80.7998L55.2772 228.8L56.7228 229.2L97.7228 81.2002L96.2772 80.7998Z"
    fill="#5F9CF8" pathLength="1" stroke-dashoffset="0px" stroke-dasharray="1px 1px"></path>
  <path
    d="M142.45 231.538C142.747 231.827 143.222 231.82 143.511 231.524L148.221 226.688C148.51 226.392 148.503 225.917 148.207 225.628C147.91 225.339 147.435 225.345 147.146 225.642L142.96 229.94L138.662 225.753C138.365 225.464 137.89 225.471 137.601 225.767C137.312 226.064 137.318 226.539 137.615 226.828L142.45 231.538ZM140.25 81.0099L142.224 231.01L143.724 230.99L141.75 80.9901L140.25 81.0099Z"
    fill="#5F9CF8" pathLength="1" stroke-dashoffset="0px" stroke-dasharray="1px 1px"></path>
  <rect x="223.5" y="86.5" width="184" height="203" stroke="#5F9CF8" pathLength="1" stroke-dashoffset="0px"
    stroke-dasharray="1px 1px"></rect>
  <path
    d="M255.775 73.7871L255.878 73.2256C255.676 73.2191 255.508 73.1637 255.375 73.0596C255.245 72.9554 255.141 72.8219 255.062 72.6592C254.981 72.4997 254.924 72.319 254.892 72.1172C254.859 71.9186 254.843 71.7184 254.843 71.5166V70.6914C254.84 70.304 254.748 69.9639 254.569 69.6709C254.39 69.3747 254.112 69.1517 253.734 69.002C254.112 68.849 254.39 68.626 254.569 68.333C254.752 68.0368 254.843 67.6934 254.843 67.3027V66.4727C254.843 66.2741 254.853 66.0739 254.872 65.8721C254.892 65.6702 254.937 65.488 255.009 65.3252C255.077 65.1657 255.18 65.0339 255.316 64.9297C255.456 64.8255 255.644 64.7702 255.878 64.7637L255.775 64.2021C255.447 64.2119 255.167 64.2835 254.936 64.417C254.704 64.5472 254.517 64.7165 254.374 64.9248C254.221 65.1429 254.109 65.3903 254.037 65.667C253.969 65.9404 253.935 66.209 253.935 66.4727V67.3027C253.935 67.7747 253.822 68.1165 253.598 68.3281C253.376 68.5365 253.036 68.6406 252.577 68.6406V69.3486C253.036 69.3519 253.376 69.4593 253.598 69.6709C253.822 69.8825 253.935 70.2227 253.935 70.6914V71.5166C253.935 71.777 253.972 72.0391 254.047 72.3027C254.122 72.5697 254.232 72.8105 254.379 73.0254C254.532 73.25 254.724 73.4307 254.955 73.5674C255.186 73.7041 255.46 73.7773 255.775 73.7871ZM263.861 72H264.765V68.2109C264.826 68.097 264.898 67.9928 264.979 67.8984C265.064 67.804 265.155 67.721 265.253 67.6494C265.373 67.568 265.505 67.5046 265.648 67.459C265.792 67.4102 265.946 67.3857 266.112 67.3857C266.304 67.3857 266.474 67.4085 266.62 67.4541C266.77 67.4997 266.897 67.5729 267.001 67.6738C267.102 67.7747 267.178 67.9066 267.23 68.0693C267.283 68.2321 267.309 68.4307 267.309 68.665V72H268.212V68.6455C268.212 68.2939 268.168 67.9912 268.08 67.7373C267.995 67.4801 267.873 67.2686 267.714 67.1025C267.554 66.9365 267.361 66.8145 267.133 66.7363C266.908 66.6582 266.658 66.6191 266.381 66.6191C266.176 66.6224 265.98 66.6533 265.795 66.7119C265.613 66.7673 265.443 66.847 265.287 66.9512C265.183 67.0195 265.084 67.1009 264.989 67.1953C264.898 67.2865 264.813 67.3874 264.735 67.498L264.672 66.7168H263.861V72ZM269.613 69.3096V69.417C269.613 69.7979 269.669 70.151 269.779 70.4766C269.89 70.8021 270.049 71.0853 270.258 71.3262C270.463 71.5671 270.714 71.7559 271.01 71.8926C271.309 72.0293 271.646 72.0977 272.021 72.0977C272.392 72.0977 272.725 72.0293 273.021 71.8926C273.318 71.7559 273.57 71.5671 273.778 71.3262C273.983 71.0853 274.141 70.8021 274.252 70.4766C274.363 70.151 274.418 69.7979 274.418 69.417V69.3096C274.418 68.9287 274.363 68.5755 274.252 68.25C274.141 67.9212 273.983 67.6364 273.778 67.3955C273.57 67.1546 273.316 66.9658 273.017 66.8291C272.72 66.6891 272.385 66.6191 272.011 66.6191C271.64 66.6191 271.306 66.6891 271.01 66.8291C270.714 66.9658 270.463 67.1546 270.258 67.3955C270.049 67.6364 269.89 67.9212 269.779 68.25C269.669 68.5755 269.613 68.9287 269.613 69.3096ZM270.517 69.417V69.3096C270.517 69.0524 270.548 68.8066 270.609 68.5723C270.671 68.3346 270.766 68.1263 270.893 67.9473C271.016 67.7682 271.171 67.6266 271.356 67.5225C271.542 67.415 271.76 67.3613 272.011 67.3613C272.261 67.3613 272.479 67.415 272.665 67.5225C272.854 67.6266 273.012 67.7682 273.139 67.9473C273.262 68.1263 273.355 68.3346 273.417 68.5723C273.482 68.8066 273.515 69.0524 273.515 69.3096V69.417C273.515 69.6774 273.484 69.9264 273.422 70.1641C273.36 70.3984 273.267 70.6051 273.144 70.7842C273.017 70.9632 272.859 71.1048 272.67 71.209C272.484 71.3132 272.268 71.3652 272.021 71.3652C271.77 71.3652 271.55 71.3132 271.361 71.209C271.173 71.1048 271.016 70.9632 270.893 70.7842C270.766 70.6051 270.671 70.3984 270.609 70.1641C270.548 69.9264 270.517 69.6774 270.517 69.417ZM275.702 69.3145V69.417C275.702 69.7946 275.753 70.1478 275.854 70.4766C275.954 70.8021 276.096 71.0853 276.278 71.3262C276.461 71.5671 276.68 71.7559 276.938 71.8926C277.198 72.0293 277.488 72.0977 277.807 72.0977C278.132 72.0977 278.417 72.0423 278.661 71.9316C278.905 71.821 279.115 71.6582 279.291 71.4434L279.33 72H280.16V64.5H279.257V67.2393C279.084 67.0374 278.879 66.8844 278.642 66.7803C278.407 66.6729 278.132 66.6191 277.816 66.6191C277.494 66.6191 277.203 66.6859 276.942 66.8193C276.682 66.9528 276.461 67.1383 276.278 67.376C276.093 67.6136 275.95 67.8984 275.849 68.2305C275.751 68.5592 275.702 68.9206 275.702 69.3145ZM276.605 69.417V69.3145C276.605 69.0573 276.633 68.8132 276.688 68.582C276.744 68.3477 276.83 68.141 276.947 67.9619C277.061 67.7861 277.208 67.6462 277.387 67.542C277.569 67.4378 277.787 67.3857 278.041 67.3857C278.337 67.3857 278.585 67.4557 278.783 67.5957C278.982 67.7324 279.14 67.9082 279.257 68.123V70.5742C279.14 70.8053 278.982 70.9893 278.783 71.126C278.585 71.2627 278.334 71.3311 278.031 71.3311C277.781 71.3311 277.566 71.2806 277.387 71.1797C277.208 71.0755 277.061 70.9355 276.947 70.7598C276.83 70.584 276.744 70.3805 276.688 70.1494C276.633 69.9183 276.605 69.6742 276.605 69.417ZM284.213 72.0977C284.727 72.0977 285.159 71.9951 285.507 71.79C285.858 71.5817 286.122 71.3441 286.298 71.0771L285.746 70.6475C285.58 70.8623 285.372 71.0348 285.121 71.165C284.87 71.2952 284.584 71.3604 284.262 71.3604C284.018 71.3604 283.795 71.3148 283.593 71.2236C283.391 71.1325 283.218 71.0072 283.075 70.8477C282.935 70.6979 282.825 70.5254 282.743 70.3301C282.665 70.1348 282.615 69.9085 282.592 69.6514V69.6172H286.366V69.2119C286.366 68.8441 286.319 68.5023 286.225 68.1865C286.133 67.8708 285.993 67.5957 285.805 67.3613C285.616 67.1302 285.378 66.9495 285.092 66.8193C284.809 66.6859 284.477 66.6191 284.096 66.6191C283.793 66.6191 283.497 66.681 283.207 66.8047C282.921 66.9284 282.665 67.1058 282.44 67.3369C282.213 67.5713 282.03 67.8577 281.894 68.1963C281.757 68.5316 281.688 68.9124 281.688 69.3389V69.5439C281.688 69.9118 281.75 70.252 281.874 70.5645C281.998 70.877 282.17 71.1471 282.392 71.375C282.613 71.6029 282.878 71.7803 283.188 71.9072C283.5 72.0342 283.842 72.0977 284.213 72.0977ZM284.096 67.3613C284.327 67.3613 284.525 67.4036 284.691 67.4883C284.861 67.5729 285.001 67.6836 285.111 67.8203C285.222 67.957 285.308 68.1198 285.37 68.3086C285.432 68.4941 285.463 68.6683 285.463 68.8311V68.875H282.621C282.657 68.6309 282.719 68.416 282.807 68.2305C282.898 68.0417 283.008 67.8822 283.139 67.752C283.269 67.625 283.415 67.529 283.578 67.4639C283.741 67.3955 283.913 67.3613 284.096 67.3613ZM290.814 72V64.8906H290.741L288.051 65.9258V66.751L289.911 66.043V72H290.814ZM295.707 71.4141C295.707 71.6029 295.766 71.764 295.883 71.8975C296.003 72.0277 296.181 72.0928 296.415 72.0928C296.646 72.0928 296.824 72.0277 296.947 71.8975C297.071 71.7673 297.133 71.6061 297.133 71.4141C297.133 71.2188 297.071 71.0544 296.947 70.9209C296.827 70.7842 296.649 70.7158 296.415 70.7158C296.177 70.7158 296 70.7842 295.883 70.9209C295.766 71.0576 295.707 71.222 295.707 71.4141ZM295.707 67.1367C295.707 67.3255 295.766 67.4867 295.883 67.6201C296.003 67.7503 296.181 67.8154 296.415 67.8154C296.646 67.8154 296.824 67.7503 296.947 67.6201C297.071 67.4899 297.133 67.3288 297.133 67.1367C297.133 66.9414 297.071 66.777 296.947 66.6436C296.827 66.5068 296.649 66.4385 296.415 66.4385C296.177 66.4385 296 66.5068 295.883 66.6436C295.766 66.7803 295.707 66.9447 295.707 67.1367ZM306.957 68.0107V68.7432H307.602C307.826 68.7432 308.031 68.7692 308.217 68.8213C308.406 68.8734 308.567 68.9531 308.7 69.0605C308.83 69.168 308.931 69.3031 309.003 69.4658C309.078 69.6253 309.115 69.8158 309.115 70.0371C309.115 70.2617 309.083 70.457 309.018 70.623C308.956 70.7858 308.866 70.9225 308.749 71.0332C308.632 71.1439 308.49 71.2269 308.324 71.2822C308.158 71.3343 307.973 71.3604 307.768 71.3604C307.562 71.3604 307.375 71.3311 307.206 71.2725C307.04 71.2139 306.898 71.1309 306.781 71.0234C306.664 70.916 306.573 70.7858 306.508 70.6328C306.446 70.4798 306.415 70.3105 306.415 70.125H305.512C305.512 70.4375 305.57 70.7158 305.688 70.96C305.808 71.2041 305.969 71.4108 306.171 71.5801C306.373 71.7493 306.61 71.8779 306.884 71.9658C307.16 72.0537 307.455 72.0977 307.768 72.0977C308.087 72.0977 308.383 72.0521 308.656 71.9609C308.933 71.8665 309.172 71.7298 309.374 71.5508C309.576 71.375 309.734 71.1585 309.848 70.9014C309.962 70.6442 310.019 70.3496 310.019 70.0176C310.019 69.8548 309.999 69.6904 309.96 69.5244C309.924 69.3584 309.861 69.2005 309.77 69.0508C309.675 68.901 309.55 68.766 309.394 68.6455C309.241 68.5251 309.049 68.4274 308.817 68.3525C309.009 68.2712 309.174 68.1702 309.311 68.0498C309.451 67.9261 309.564 67.7943 309.652 67.6543C309.74 67.5176 309.805 67.376 309.848 67.2295C309.89 67.083 309.911 66.9414 309.911 66.8047C309.911 66.4759 309.859 66.1862 309.755 65.9355C309.651 65.6849 309.504 65.4749 309.315 65.3057C309.127 65.1364 308.9 65.0094 308.637 64.9248C308.373 64.8369 308.082 64.793 307.763 64.793C307.434 64.793 307.134 64.8451 306.864 64.9492C306.597 65.0501 306.368 65.1885 306.176 65.3643C305.984 65.5433 305.834 65.7533 305.727 65.9941C305.622 66.2318 305.57 66.4857 305.57 66.7559H306.479C306.479 66.5703 306.509 66.4027 306.571 66.2529C306.633 66.1032 306.721 65.9746 306.835 65.8672C306.946 65.7598 307.079 65.6784 307.235 65.623C307.395 65.5645 307.571 65.5352 307.763 65.5352C307.961 65.5352 308.137 65.5612 308.29 65.6133C308.446 65.6621 308.576 65.737 308.681 65.8379C308.788 65.9421 308.869 66.0739 308.925 66.2334C308.98 66.3896 309.008 66.5736 309.008 66.7852C309.008 66.9642 308.977 67.1286 308.915 67.2783C308.853 67.4281 308.764 67.5566 308.646 67.6641C308.526 67.7715 308.378 67.8561 308.202 67.918C308.03 67.9798 307.829 68.0107 307.602 68.0107H306.957ZM314.198 71.79V70.9307H313.217V71.8047C313.217 72.0814 313.184 72.3483 313.119 72.6055C313.054 72.8626 312.943 73.1051 312.787 73.333L313.349 73.6406C313.609 73.4095 313.816 73.1247 313.969 72.7861C314.122 72.4476 314.198 72.1156 314.198 71.79ZM323.92 72H324.823V68.2109C324.885 68.097 324.957 67.9928 325.038 67.8984C325.123 67.804 325.214 67.721 325.312 67.6494C325.432 67.568 325.564 67.5046 325.707 67.459C325.85 67.4102 326.005 67.3857 326.171 67.3857C326.363 67.3857 326.532 67.4085 326.679 67.4541C326.828 67.4997 326.955 67.5729 327.06 67.6738C327.16 67.7747 327.237 67.9066 327.289 68.0693C327.341 68.2321 327.367 68.4307 327.367 68.665V72H328.271V68.6455C328.271 68.2939 328.227 67.9912 328.139 67.7373C328.054 67.4801 327.932 67.2686 327.772 67.1025C327.613 66.9365 327.419 66.8145 327.191 66.7363C326.967 66.6582 326.716 66.6191 326.439 66.6191C326.234 66.6224 326.039 66.6533 325.854 66.7119C325.671 66.7673 325.502 66.847 325.346 66.9512C325.242 67.0195 325.142 67.1009 325.048 67.1953C324.957 67.2865 324.872 67.3874 324.794 67.498L324.73 66.7168H323.92V72ZM329.672 69.3096V69.417C329.672 69.7979 329.727 70.151 329.838 70.4766C329.949 70.8021 330.108 71.0853 330.316 71.3262C330.521 71.5671 330.772 71.7559 331.068 71.8926C331.368 72.0293 331.705 72.0977 332.079 72.0977C332.45 72.0977 332.784 72.0293 333.08 71.8926C333.376 71.7559 333.629 71.5671 333.837 71.3262C334.042 71.0853 334.2 70.8021 334.311 70.4766C334.421 70.151 334.477 69.7979 334.477 69.417V69.3096C334.477 68.9287 334.421 68.5755 334.311 68.25C334.2 67.9212 334.042 67.6364 333.837 67.3955C333.629 67.1546 333.375 66.9658 333.075 66.8291C332.779 66.6891 332.444 66.6191 332.069 66.6191C331.698 66.6191 331.365 66.6891 331.068 66.8291C330.772 66.9658 330.521 67.1546 330.316 67.3955C330.108 67.6364 329.949 67.9212 329.838 68.25C329.727 68.5755 329.672 68.9287 329.672 69.3096ZM330.575 69.417V69.3096C330.575 69.0524 330.606 68.8066 330.668 68.5723C330.73 68.3346 330.824 68.1263 330.951 67.9473C331.075 67.7682 331.229 67.6266 331.415 67.5225C331.601 67.415 331.819 67.3613 332.069 67.3613C332.32 67.3613 332.538 67.415 332.724 67.5225C332.912 67.6266 333.07 67.7682 333.197 67.9473C333.321 68.1263 333.414 68.3346 333.476 68.5723C333.541 68.8066 333.573 69.0524 333.573 69.3096V69.417C333.573 69.6774 333.542 69.9264 333.48 70.1641C333.419 70.3984 333.326 70.6051 333.202 70.7842C333.075 70.9632 332.917 71.1048 332.729 71.209C332.543 71.3132 332.326 71.3652 332.079 71.3652C331.828 71.3652 331.609 71.3132 331.42 71.209C331.231 71.1048 331.075 70.9632 330.951 70.7842C330.824 70.6051 330.73 70.3984 330.668 70.1641C330.606 69.9264 330.575 69.6774 330.575 69.417ZM335.761 69.3145V69.417C335.761 69.7946 335.811 70.1478 335.912 70.4766C336.013 70.8021 336.155 71.0853 336.337 71.3262C336.519 71.5671 336.739 71.7559 336.996 71.8926C337.257 72.0293 337.546 72.0977 337.865 72.0977C338.191 72.0977 338.476 72.0423 338.72 71.9316C338.964 71.821 339.174 71.6582 339.35 71.4434L339.389 72H340.219V64.5H339.315V67.2393C339.143 67.0374 338.938 66.8844 338.7 66.7803C338.466 66.6729 338.191 66.6191 337.875 66.6191C337.553 66.6191 337.261 66.6859 337.001 66.8193C336.741 66.9528 336.519 67.1383 336.337 67.376C336.151 67.6136 336.008 67.8984 335.907 68.2305C335.81 68.5592 335.761 68.9206 335.761 69.3145ZM336.664 69.417V69.3145C336.664 69.0573 336.692 68.8132 336.747 68.582C336.802 68.3477 336.889 68.141 337.006 67.9619C337.12 67.7861 337.266 67.6462 337.445 67.542C337.628 67.4378 337.846 67.3857 338.1 67.3857C338.396 67.3857 338.643 67.4557 338.842 67.5957C339.04 67.7324 339.198 67.9082 339.315 68.123V70.5742C339.198 70.8053 339.04 70.9893 338.842 71.126C338.643 71.2627 338.393 71.3311 338.09 71.3311C337.839 71.3311 337.624 71.2806 337.445 71.1797C337.266 71.0755 337.12 70.9355 337.006 70.7598C336.889 70.584 336.802 70.3805 336.747 70.1494C336.692 69.9183 336.664 69.6742 336.664 69.417ZM344.271 72.0977C344.786 72.0977 345.217 71.9951 345.565 71.79C345.917 71.5817 346.181 71.3441 346.356 71.0771L345.805 70.6475C345.639 70.8623 345.43 71.0348 345.18 71.165C344.929 71.2952 344.643 71.3604 344.32 71.3604C344.076 71.3604 343.853 71.3148 343.651 71.2236C343.45 71.1325 343.277 71.0072 343.134 70.8477C342.994 70.6979 342.883 70.5254 342.802 70.3301C342.724 70.1348 342.673 69.9085 342.65 69.6514V69.6172H346.425V69.2119C346.425 68.8441 346.378 68.5023 346.283 68.1865C346.192 67.8708 346.052 67.5957 345.863 67.3613C345.674 67.1302 345.437 66.9495 345.15 66.8193C344.867 66.6859 344.535 66.6191 344.154 66.6191C343.852 66.6191 343.555 66.681 343.266 66.8047C342.979 66.9284 342.724 67.1058 342.499 67.3369C342.271 67.5713 342.089 67.8577 341.952 68.1963C341.815 68.5316 341.747 68.9124 341.747 69.3389V69.5439C341.747 69.9118 341.809 70.252 341.933 70.5645C342.056 70.877 342.229 71.1471 342.45 71.375C342.672 71.6029 342.937 71.7803 343.246 71.9072C343.559 72.0342 343.9 72.0977 344.271 72.0977ZM344.154 67.3613C344.385 67.3613 344.584 67.4036 344.75 67.4883C344.919 67.5729 345.059 67.6836 345.17 67.8203C345.281 67.957 345.367 68.1198 345.429 68.3086C345.491 68.4941 345.521 68.6683 345.521 68.8311V68.875H342.68C342.715 68.6309 342.777 68.416 342.865 68.2305C342.956 68.0417 343.067 67.8822 343.197 67.752C343.327 67.625 343.474 67.529 343.637 67.4639C343.799 67.3955 343.972 67.3613 344.154 67.3613ZM352.304 72V71.2627H348.734L350.644 69.1924C350.823 68.9971 350.992 68.8018 351.151 68.6064C351.314 68.4079 351.457 68.2077 351.581 68.0059C351.701 67.804 351.798 67.6006 351.869 67.3955C351.941 67.1872 351.977 66.9772 351.977 66.7656C351.977 66.4824 351.926 66.2204 351.825 65.9795C351.728 65.7386 351.586 65.5303 351.4 65.3545C351.215 65.1787 350.987 65.042 350.717 64.9443C350.45 64.8434 350.149 64.793 349.813 64.793C349.449 64.793 349.123 64.8516 348.837 64.9688C348.554 65.0859 348.314 65.2438 348.119 65.4424C347.921 65.641 347.769 65.8737 347.665 66.1406C347.561 66.4043 347.509 66.6859 347.509 66.9854H348.417C348.417 66.764 348.445 66.5638 348.5 66.3848C348.559 66.2057 348.646 66.0527 348.764 65.9258C348.878 65.8021 349.021 65.7061 349.193 65.6377C349.369 65.5693 349.576 65.5352 349.813 65.5352C350.009 65.5352 350.183 65.5693 350.336 65.6377C350.492 65.7028 350.626 65.7923 350.736 65.9062C350.844 66.0202 350.925 66.1553 350.98 66.3115C351.039 66.4645 351.068 66.6289 351.068 66.8047C351.068 66.9479 351.05 67.0879 351.015 67.2246C350.979 67.3581 350.919 67.4997 350.834 67.6494C350.749 67.8024 350.637 67.9684 350.497 68.1475C350.357 68.3265 350.183 68.5316 349.975 68.7627L347.646 71.3506V72H352.304ZM355.766 71.4141C355.766 71.6029 355.824 71.764 355.941 71.8975C356.062 72.0277 356.239 72.0928 356.474 72.0928C356.705 72.0928 356.882 72.0277 357.006 71.8975C357.13 71.7673 357.191 71.6061 357.191 71.4141C357.191 71.2188 357.13 71.0544 357.006 70.9209C356.885 70.7842 356.708 70.7158 356.474 70.7158C356.236 70.7158 356.059 70.7842 355.941 70.9209C355.824 71.0576 355.766 71.222 355.766 71.4141ZM355.766 67.1367C355.766 67.3255 355.824 67.4867 355.941 67.6201C356.062 67.7503 356.239 67.8154 356.474 67.8154C356.705 67.8154 356.882 67.7503 357.006 67.6201C357.13 67.4899 357.191 67.3288 357.191 67.1367C357.191 66.9414 357.13 66.777 357.006 66.6436C356.885 66.5068 356.708 66.4385 356.474 66.4385C356.236 66.4385 356.059 66.5068 355.941 66.6436C355.824 66.7803 355.766 66.9447 355.766 67.1367ZM369.623 69.6123V64.8906H368.661L365.478 69.8174V70.3496H368.72V72H369.623V70.3496H370.614V69.6123H369.623ZM366.479 69.6123L368.573 66.3652L368.72 66.0918V69.6123H366.479ZM378.7 73.2256L378.803 73.7871C379.122 73.7806 379.397 73.7074 379.628 73.5674C379.859 73.4274 380.051 73.2484 380.204 73.0303C380.354 72.8122 380.465 72.5697 380.536 72.3027C380.608 72.0391 380.644 71.777 380.644 71.5166V70.6914C380.644 70.4635 380.67 70.2666 380.722 70.1006C380.774 69.9346 380.854 69.7962 380.961 69.6855C381.072 69.5716 381.213 69.4886 381.386 69.4365C381.562 69.3812 381.767 69.3519 382.001 69.3486V68.6406C381.734 68.6406 381.505 68.6064 381.312 68.5381C381.124 68.4665 380.976 68.3542 380.868 68.2012C380.793 68.0938 380.736 67.9668 380.697 67.8203C380.661 67.6706 380.644 67.498 380.644 67.3027V66.4727C380.644 66.1992 380.606 65.9225 380.531 65.6426C380.46 65.3626 380.341 65.1104 380.175 64.8857C380.028 64.6872 379.841 64.526 379.613 64.4023C379.389 64.2786 379.118 64.2119 378.803 64.2021L378.705 64.7637C378.939 64.7702 379.125 64.8255 379.262 64.9297C379.398 65.0339 379.503 65.1657 379.574 65.3252C379.643 65.488 379.687 65.6702 379.706 65.8721C379.729 66.0739 379.74 66.2741 379.74 66.4727V67.3027C379.74 67.5566 379.778 67.7926 379.853 68.0107C379.927 68.2256 380.043 68.4144 380.199 68.5771C380.281 68.665 380.375 68.7448 380.482 68.8164C380.593 68.888 380.714 68.9499 380.844 69.002C380.717 69.054 380.6 69.1143 380.492 69.1826C380.388 69.251 380.294 69.3275 380.209 69.4121C380.049 69.5716 379.931 69.7604 379.853 69.9785C379.778 70.1966 379.74 70.4342 379.74 70.6914V71.5166C379.74 71.7184 379.722 71.9186 379.687 72.1172C379.654 72.319 379.599 72.4997 379.521 72.6592C379.439 72.8219 379.332 72.9554 379.198 73.0596C379.065 73.1637 378.899 73.2191 378.7 73.2256Z"
    fill="#5F9CF8" pathLength="1" stroke-dashoffset="0px" stroke-dasharray="1px 1px"></path>
  <path
    d="M252.347 229.369C252.551 229.73 253.009 229.857 253.369 229.653L259.243 226.327C259.604 226.123 259.731 225.665 259.527 225.305C259.323 224.945 258.865 224.818 258.504 225.022L253.283 227.978L250.327 222.757C250.123 222.396 249.665 222.269 249.305 222.473C248.945 222.677 248.818 223.135 249.022 223.496L252.347 229.369ZM293.277 80.7998L252.277 228.8L253.723 229.2L294.723 81.2002L293.277 80.7998Z"
    fill="#5F9CF8" pathLength="1" stroke-dashoffset="0px" stroke-dasharray="1px 1px"></path>
  <path
    d="M339.45 231.538C339.747 231.827 340.222 231.82 340.511 231.524L345.221 226.688C345.51 226.392 345.503 225.917 345.207 225.628C344.91 225.339 344.435 225.345 344.146 225.642L339.96 229.94L335.662 225.753C335.365 225.464 334.89 225.471 334.601 225.767C334.312 226.064 334.318 226.539 334.615 226.828L339.45 231.538ZM337.25 81.0099L339.224 231.01L340.724 230.99L338.75 80.9901L337.25 81.0099Z"
    fill="#5F9CF8" pathLength="1" stroke-dashoffset="0px" stroke-dasharray="1px 1px"></path>
</svg>