<svg class="w-full svg" width="626" height="302" viewBox="0 0 626 302" fill="none" xmlns="http://www.w3.org/2000/svg">
  <rect width="626" height="302" rx="19" fill="#111111" pathLength="1" stroke-dashoffset="0px"
    stroke-dasharray="1px 1px"></rect>
  <ellipse cx="335" cy="95.5" rx="22" ry="21.5" fill="white" pathLength="1" stroke-dashoffset="0px"
    stroke-dasharray="1px 1px"></ellipse>
  <ellipse cx="376" cy="165.5" rx="22" ry="21.5" fill="white" pathLength="1" stroke-dashoffset="0px"
    stroke-dasharray="1px 1px"></ellipse>
  <ellipse cx="294" cy="165.5" rx="22" ry="21.5" fill="white" pathLength="1" stroke-dashoffset="0px"
    stroke-dasharray="1px 1px"></ellipse>
  <ellipse cx="250" cy="237.5" rx="22" ry="21.5" fill="white" pathLength="1" stroke-dashoffset="0px"
    stroke-dasharray="1px 1px"></ellipse>
  <ellipse cx="338" cy="237.5" rx="22" ry="21.5" fill="white" pathLength="1" stroke-dashoffset="0px"
    stroke-dasharray="1px 1px"></ellipse>
  <path d="M334 96L249 241.5" stroke="white" stroke-width="3" pathLength="1" stroke-dashoffset="0px"
    stroke-dasharray="1px 1px"></path>
  <path d="M334.5 97L377 167" stroke="white" stroke-width="3" pathLength="1" stroke-dashoffset="0px"
    stroke-dasharray="1px 1px"></path>
  <path d="M293 166L340 242" stroke="white" stroke-width="3" pathLength="1" stroke-dashoffset="0px"
    stroke-dasharray="1px 1px"></path>
  <path
    d="M249.117 240.468H251.68C251.68 240.194 251.687 239.962 251.701 239.771C251.714 239.572 251.749 239.391 251.803 239.227C251.851 239.063 251.933 238.902 252.049 238.745C252.166 238.588 252.326 238.407 252.531 238.202C252.866 237.908 253.198 237.607 253.526 237.299C253.861 236.985 254.158 236.653 254.418 236.305C254.678 235.963 254.89 235.594 255.054 235.197C255.218 234.794 255.3 234.35 255.3 233.864C255.3 233.208 255.19 232.63 254.972 232.131C254.753 231.632 254.438 231.212 254.028 230.87C253.611 230.535 253.102 230.282 252.5 230.111C251.899 229.94 251.219 229.855 250.46 229.855C249.783 229.855 249.154 229.94 248.573 230.111C247.992 230.275 247.486 230.528 247.056 230.87C246.625 231.212 246.283 231.643 246.03 232.162C245.777 232.675 245.647 233.28 245.641 233.977H248.501C248.508 233.663 248.566 233.393 248.676 233.167C248.792 232.941 248.942 232.757 249.127 232.613C249.305 232.47 249.51 232.367 249.742 232.306C249.975 232.237 250.214 232.203 250.46 232.203C250.774 232.203 251.051 232.237 251.291 232.306C251.537 232.374 251.745 232.477 251.916 232.613C252.08 232.764 252.207 232.955 252.295 233.188C252.384 233.413 252.429 233.683 252.429 233.998C252.429 234.257 252.371 234.517 252.254 234.777C252.138 235.037 251.988 235.29 251.803 235.536C251.612 235.789 251.4 236.035 251.167 236.274C250.935 236.506 250.703 236.729 250.47 236.94C250.149 237.193 249.899 237.433 249.722 237.658C249.544 237.877 249.411 238.116 249.322 238.376C249.233 238.643 249.175 238.94 249.147 239.268C249.127 239.596 249.117 239.996 249.117 240.468ZM248.696 243.575C248.696 244.012 248.843 244.381 249.137 244.682C249.431 244.976 249.838 245.123 250.357 245.123C250.863 245.123 251.267 244.976 251.567 244.682C251.875 244.381 252.029 244.012 252.029 243.575C252.029 243.124 251.875 242.748 251.567 242.447C251.267 242.139 250.863 241.985 250.357 241.985C249.838 241.985 249.431 242.139 249.137 242.447C248.843 242.748 248.696 243.124 248.696 243.575Z"
    fill="black" pathLength="1" stroke-dashoffset="0px" stroke-dasharray="1px 1px"></path>
  <path
    d="M336.117 240.468H338.68C338.68 240.194 338.687 239.962 338.701 239.771C338.714 239.572 338.749 239.391 338.803 239.227C338.851 239.063 338.933 238.902 339.049 238.745C339.166 238.588 339.326 238.407 339.531 238.202C339.866 237.908 340.198 237.607 340.526 237.299C340.861 236.985 341.158 236.653 341.418 236.305C341.678 235.963 341.89 235.594 342.054 235.197C342.218 234.794 342.3 234.35 342.3 233.864C342.3 233.208 342.19 232.63 341.972 232.131C341.753 231.632 341.438 231.212 341.028 230.87C340.611 230.535 340.102 230.282 339.5 230.111C338.899 229.94 338.219 229.855 337.46 229.855C336.783 229.855 336.154 229.94 335.573 230.111C334.992 230.275 334.486 230.528 334.056 230.87C333.625 231.212 333.283 231.643 333.03 232.162C332.777 232.675 332.647 233.28 332.641 233.977H335.501C335.508 233.663 335.566 233.393 335.676 233.167C335.792 232.941 335.942 232.757 336.127 232.613C336.305 232.47 336.51 232.367 336.742 232.306C336.975 232.237 337.214 232.203 337.46 232.203C337.774 232.203 338.051 232.237 338.291 232.306C338.537 232.374 338.745 232.477 338.916 232.613C339.08 232.764 339.207 232.955 339.295 233.188C339.384 233.413 339.429 233.683 339.429 233.998C339.429 234.257 339.371 234.517 339.254 234.777C339.138 235.037 338.988 235.29 338.803 235.536C338.612 235.789 338.4 236.035 338.167 236.274C337.935 236.506 337.703 236.729 337.47 236.94C337.149 237.193 336.899 237.433 336.722 237.658C336.544 237.877 336.411 238.116 336.322 238.376C336.233 238.643 336.175 238.94 336.147 239.268C336.127 239.596 336.117 239.996 336.117 240.468ZM335.696 243.575C335.696 244.012 335.843 244.381 336.137 244.682C336.431 244.976 336.838 245.123 337.357 245.123C337.863 245.123 338.267 244.976 338.567 244.682C338.875 244.381 339.029 244.012 339.029 243.575C339.029 243.124 338.875 242.748 338.567 242.447C338.267 242.139 337.863 241.985 337.357 241.985C336.838 241.985 336.431 242.139 336.137 242.447C335.843 242.748 335.696 243.124 335.696 243.575Z"
    fill="black" pathLength="1" stroke-dashoffset="0px" stroke-dasharray="1px 1px"></path>
  <path
    d="M255.775 36.7871L255.878 36.2256C255.676 36.2191 255.508 36.1637 255.375 36.0596C255.245 35.9554 255.141 35.8219 255.062 35.6592C254.981 35.4997 254.924 35.319 254.892 35.1172C254.859 34.9186 254.843 34.7184 254.843 34.5166V33.6914C254.84 33.304 254.748 32.9639 254.569 32.6709C254.39 32.3747 254.112 32.1517 253.734 32.002C254.112 31.849 254.39 31.626 254.569 31.333C254.752 31.0368 254.843 30.6934 254.843 30.3027V29.4727C254.843 29.2741 254.853 29.0739 254.872 28.8721C254.892 28.6702 254.937 28.488 255.009 28.3252C255.077 28.1657 255.18 28.0339 255.316 27.9297C255.456 27.8255 255.644 27.7702 255.878 27.7637L255.775 27.2021C255.447 27.2119 255.167 27.2835 254.936 27.417C254.704 27.5472 254.517 27.7165 254.374 27.9248C254.221 28.1429 254.109 28.3903 254.037 28.667C253.969 28.9404 253.935 29.209 253.935 29.4727V30.3027C253.935 30.7747 253.822 31.1165 253.598 31.3281C253.376 31.5365 253.036 31.6406 252.577 31.6406V32.3486C253.036 32.3519 253.376 32.4593 253.598 32.6709C253.822 32.8825 253.935 33.2227 253.935 33.6914V34.5166C253.935 34.777 253.972 35.0391 254.047 35.3027C254.122 35.5697 254.232 35.8105 254.379 36.0254C254.532 36.25 254.724 36.4307 254.955 36.5674C255.186 36.7041 255.46 36.7773 255.775 36.7871ZM263.861 35H264.765V31.2109C264.826 31.097 264.898 30.9928 264.979 30.8984C265.064 30.804 265.155 30.721 265.253 30.6494C265.373 30.568 265.505 30.5046 265.648 30.459C265.792 30.4102 265.946 30.3857 266.112 30.3857C266.304 30.3857 266.474 30.4085 266.62 30.4541C266.77 30.4997 266.897 30.5729 267.001 30.6738C267.102 30.7747 267.178 30.9066 267.23 31.0693C267.283 31.2321 267.309 31.4307 267.309 31.665V35H268.212V31.6455C268.212 31.2939 268.168 30.9912 268.08 30.7373C267.995 30.4801 267.873 30.2686 267.714 30.1025C267.554 29.9365 267.361 29.8145 267.133 29.7363C266.908 29.6582 266.658 29.6191 266.381 29.6191C266.176 29.6224 265.98 29.6533 265.795 29.7119C265.613 29.7673 265.443 29.847 265.287 29.9512C265.183 30.0195 265.084 30.1009 264.989 30.1953C264.898 30.2865 264.813 30.3874 264.735 30.498L264.672 29.7168H263.861V35ZM269.613 32.3096V32.417C269.613 32.7979 269.669 33.151 269.779 33.4766C269.89 33.8021 270.049 34.0853 270.258 34.3262C270.463 34.5671 270.714 34.7559 271.01 34.8926C271.309 35.0293 271.646 35.0977 272.021 35.0977C272.392 35.0977 272.725 35.0293 273.021 34.8926C273.318 34.7559 273.57 34.5671 273.778 34.3262C273.983 34.0853 274.141 33.8021 274.252 33.4766C274.363 33.151 274.418 32.7979 274.418 32.417V32.3096C274.418 31.9287 274.363 31.5755 274.252 31.25C274.141 30.9212 273.983 30.6364 273.778 30.3955C273.57 30.1546 273.316 29.9658 273.017 29.8291C272.72 29.6891 272.385 29.6191 272.011 29.6191C271.64 29.6191 271.306 29.6891 271.01 29.8291C270.714 29.9658 270.463 30.1546 270.258 30.3955C270.049 30.6364 269.89 30.9212 269.779 31.25C269.669 31.5755 269.613 31.9287 269.613 32.3096ZM270.517 32.417V32.3096C270.517 32.0524 270.548 31.8066 270.609 31.5723C270.671 31.3346 270.766 31.1263 270.893 30.9473C271.016 30.7682 271.171 30.6266 271.356 30.5225C271.542 30.415 271.76 30.3613 272.011 30.3613C272.261 30.3613 272.479 30.415 272.665 30.5225C272.854 30.6266 273.012 30.7682 273.139 30.9473C273.262 31.1263 273.355 31.3346 273.417 31.5723C273.482 31.8066 273.515 32.0524 273.515 32.3096V32.417C273.515 32.6774 273.484 32.9264 273.422 33.1641C273.36 33.3984 273.267 33.6051 273.144 33.7842C273.017 33.9632 272.859 34.1048 272.67 34.209C272.484 34.3132 272.268 34.3652 272.021 34.3652C271.77 34.3652 271.55 34.3132 271.361 34.209C271.173 34.1048 271.016 33.9632 270.893 33.7842C270.766 33.6051 270.671 33.3984 270.609 33.1641C270.548 32.9264 270.517 32.6774 270.517 32.417ZM275.702 32.3145V32.417C275.702 32.7946 275.753 33.1478 275.854 33.4766C275.954 33.8021 276.096 34.0853 276.278 34.3262C276.461 34.5671 276.68 34.7559 276.938 34.8926C277.198 35.0293 277.488 35.0977 277.807 35.0977C278.132 35.0977 278.417 35.0423 278.661 34.9316C278.905 34.821 279.115 34.6582 279.291 34.4434L279.33 35H280.16V27.5H279.257V30.2393C279.084 30.0374 278.879 29.8844 278.642 29.7803C278.407 29.6729 278.132 29.6191 277.816 29.6191C277.494 29.6191 277.203 29.6859 276.942 29.8193C276.682 29.9528 276.461 30.1383 276.278 30.376C276.093 30.6136 275.95 30.8984 275.849 31.2305C275.751 31.5592 275.702 31.9206 275.702 32.3145ZM276.605 32.417V32.3145C276.605 32.0573 276.633 31.8132 276.688 31.582C276.744 31.3477 276.83 31.141 276.947 30.9619C277.061 30.7861 277.208 30.6462 277.387 30.542C277.569 30.4378 277.787 30.3857 278.041 30.3857C278.337 30.3857 278.585 30.4557 278.783 30.5957C278.982 30.7324 279.14 30.9082 279.257 31.123V33.5742C279.14 33.8053 278.982 33.9893 278.783 34.126C278.585 34.2627 278.334 34.3311 278.031 34.3311C277.781 34.3311 277.566 34.2806 277.387 34.1797C277.208 34.0755 277.061 33.9355 276.947 33.7598C276.83 33.584 276.744 33.3805 276.688 33.1494C276.633 32.9183 276.605 32.6742 276.605 32.417ZM284.213 35.0977C284.727 35.0977 285.159 34.9951 285.507 34.79C285.858 34.5817 286.122 34.3441 286.298 34.0771L285.746 33.6475C285.58 33.8623 285.372 34.0348 285.121 34.165C284.87 34.2952 284.584 34.3604 284.262 34.3604C284.018 34.3604 283.795 34.3148 283.593 34.2236C283.391 34.1325 283.218 34.0072 283.075 33.8477C282.935 33.6979 282.825 33.5254 282.743 33.3301C282.665 33.1348 282.615 32.9085 282.592 32.6514V32.6172H286.366V32.2119C286.366 31.8441 286.319 31.5023 286.225 31.1865C286.133 30.8708 285.993 30.5957 285.805 30.3613C285.616 30.1302 285.378 29.9495 285.092 29.8193C284.809 29.6859 284.477 29.6191 284.096 29.6191C283.793 29.6191 283.497 29.681 283.207 29.8047C282.921 29.9284 282.665 30.1058 282.44 30.3369C282.213 30.5713 282.03 30.8577 281.894 31.1963C281.757 31.5316 281.688 31.9124 281.688 32.3389V32.5439C281.688 32.9118 281.75 33.252 281.874 33.5645C281.998 33.877 282.17 34.1471 282.392 34.375C282.613 34.6029 282.878 34.7803 283.188 34.9072C283.5 35.0342 283.842 35.0977 284.213 35.0977ZM284.096 30.3613C284.327 30.3613 284.525 30.4036 284.691 30.4883C284.861 30.5729 285.001 30.6836 285.111 30.8203C285.222 30.957 285.308 31.1198 285.37 31.3086C285.432 31.4941 285.463 31.6683 285.463 31.8311V31.875H282.621C282.657 31.6309 282.719 31.416 282.807 31.2305C282.898 31.0417 283.008 30.8822 283.139 30.752C283.269 30.625 283.415 30.529 283.578 30.4639C283.741 30.3955 283.913 30.3613 284.096 30.3613ZM290.814 35V27.8906H290.741L288.051 28.9258V29.751L289.911 29.043V35H290.814ZM295.707 34.4141C295.707 34.6029 295.766 34.764 295.883 34.8975C296.003 35.0277 296.181 35.0928 296.415 35.0928C296.646 35.0928 296.824 35.0277 296.947 34.8975C297.071 34.7673 297.133 34.6061 297.133 34.4141C297.133 34.2188 297.071 34.0544 296.947 33.9209C296.827 33.7842 296.649 33.7158 296.415 33.7158C296.177 33.7158 296 33.7842 295.883 33.9209C295.766 34.0576 295.707 34.222 295.707 34.4141ZM295.707 30.1367C295.707 30.3255 295.766 30.4867 295.883 30.6201C296.003 30.7503 296.181 30.8154 296.415 30.8154C296.646 30.8154 296.824 30.7503 296.947 30.6201C297.071 30.4899 297.133 30.3288 297.133 30.1367C297.133 29.9414 297.071 29.777 296.947 29.6436C296.827 29.5068 296.649 29.4385 296.415 29.4385C296.177 29.4385 296 29.5068 295.883 29.6436C295.766 29.7803 295.707 29.9447 295.707 30.1367ZM307.548 32.998H308.451C308.451 32.8711 308.454 32.7588 308.461 32.6611C308.467 32.5602 308.484 32.4658 308.51 32.3779C308.536 32.29 308.575 32.2038 308.627 32.1191C308.682 32.0345 308.759 31.945 308.856 31.8506C309.009 31.7139 309.164 31.5658 309.32 31.4062C309.48 31.2467 309.623 31.0742 309.75 30.8887C309.877 30.7064 309.981 30.5127 310.062 30.3076C310.144 30.0993 310.185 29.8779 310.185 29.6436C310.185 29.3506 310.137 29.0902 310.043 28.8623C309.949 28.6344 309.812 28.4408 309.633 28.2812C309.454 28.1217 309.234 28.0013 308.974 27.9199C308.716 27.8353 308.424 27.793 308.095 27.793C307.799 27.793 307.522 27.8337 307.265 27.915C307.011 27.9932 306.791 28.1071 306.605 28.2568C306.417 28.4098 306.267 28.5954 306.156 28.8135C306.046 29.0316 305.989 29.2773 305.985 29.5508H306.889C306.889 29.3815 306.923 29.2367 306.991 29.1162C307.06 28.9925 307.151 28.89 307.265 28.8086C307.375 28.7305 307.502 28.6735 307.646 28.6377C307.792 28.5986 307.942 28.5791 308.095 28.5791C308.293 28.5791 308.469 28.6051 308.622 28.6572C308.775 28.7093 308.902 28.7858 309.003 28.8867C309.094 28.9779 309.162 29.0902 309.208 29.2236C309.257 29.3538 309.281 29.5036 309.281 29.6729C309.281 29.8356 309.25 29.9902 309.188 30.1367C309.127 30.2832 309.049 30.4215 308.954 30.5518C308.856 30.6852 308.749 30.8122 308.632 30.9326C308.518 31.0531 308.406 31.1702 308.295 31.2842C308.132 31.4339 308.002 31.5641 307.904 31.6748C307.807 31.7822 307.732 31.8945 307.68 32.0117C307.628 32.1322 307.593 32.2689 307.577 32.4219C307.561 32.5716 307.551 32.7637 307.548 32.998ZM307.445 34.5264C307.445 34.6761 307.491 34.8014 307.582 34.9023C307.676 35.0033 307.816 35.0537 308.002 35.0537C308.188 35.0537 308.327 35.0033 308.422 34.9023C308.52 34.8014 308.568 34.6761 308.568 34.5264C308.568 34.3701 308.52 34.2399 308.422 34.1357C308.327 34.0316 308.188 33.9795 308.002 33.9795C307.816 33.9795 307.676 34.0316 307.582 34.1357C307.491 34.2399 307.445 34.3701 307.445 34.5264ZM314.198 34.79V33.9307H313.217V34.8047C313.217 35.0814 313.184 35.3483 313.119 35.6055C313.054 35.8626 312.943 36.1051 312.787 36.333L313.349 36.6406C313.609 36.4095 313.816 36.1247 313.969 35.7861C314.122 35.4476 314.198 35.1156 314.198 34.79ZM323.92 35H324.823V31.2109C324.885 31.097 324.957 30.9928 325.038 30.8984C325.123 30.804 325.214 30.721 325.312 30.6494C325.432 30.568 325.564 30.5046 325.707 30.459C325.85 30.4102 326.005 30.3857 326.171 30.3857C326.363 30.3857 326.532 30.4085 326.679 30.4541C326.828 30.4997 326.955 30.5729 327.06 30.6738C327.16 30.7747 327.237 30.9066 327.289 31.0693C327.341 31.2321 327.367 31.4307 327.367 31.665V35H328.271V31.6455C328.271 31.2939 328.227 30.9912 328.139 30.7373C328.054 30.4801 327.932 30.2686 327.772 30.1025C327.613 29.9365 327.419 29.8145 327.191 29.7363C326.967 29.6582 326.716 29.6191 326.439 29.6191C326.234 29.6224 326.039 29.6533 325.854 29.7119C325.671 29.7673 325.502 29.847 325.346 29.9512C325.242 30.0195 325.142 30.1009 325.048 30.1953C324.957 30.2865 324.872 30.3874 324.794 30.498L324.73 29.7168H323.92V35ZM329.672 32.3096V32.417C329.672 32.7979 329.727 33.151 329.838 33.4766C329.949 33.8021 330.108 34.0853 330.316 34.3262C330.521 34.5671 330.772 34.7559 331.068 34.8926C331.368 35.0293 331.705 35.0977 332.079 35.0977C332.45 35.0977 332.784 35.0293 333.08 34.8926C333.376 34.7559 333.629 34.5671 333.837 34.3262C334.042 34.0853 334.2 33.8021 334.311 33.4766C334.421 33.151 334.477 32.7979 334.477 32.417V32.3096C334.477 31.9287 334.421 31.5755 334.311 31.25C334.2 30.9212 334.042 30.6364 333.837 30.3955C333.629 30.1546 333.375 29.9658 333.075 29.8291C332.779 29.6891 332.444 29.6191 332.069 29.6191C331.698 29.6191 331.365 29.6891 331.068 29.8291C330.772 29.9658 330.521 30.1546 330.316 30.3955C330.108 30.6364 329.949 30.9212 329.838 31.25C329.727 31.5755 329.672 31.9287 329.672 32.3096ZM330.575 32.417V32.3096C330.575 32.0524 330.606 31.8066 330.668 31.5723C330.73 31.3346 330.824 31.1263 330.951 30.9473C331.075 30.7682 331.229 30.6266 331.415 30.5225C331.601 30.415 331.819 30.3613 332.069 30.3613C332.32 30.3613 332.538 30.415 332.724 30.5225C332.912 30.6266 333.07 30.7682 333.197 30.9473C333.321 31.1263 333.414 31.3346 333.476 31.5723C333.541 31.8066 333.573 32.0524 333.573 32.3096V32.417C333.573 32.6774 333.542 32.9264 333.48 33.1641C333.419 33.3984 333.326 33.6051 333.202 33.7842C333.075 33.9632 332.917 34.1048 332.729 34.209C332.543 34.3132 332.326 34.3652 332.079 34.3652C331.828 34.3652 331.609 34.3132 331.42 34.209C331.231 34.1048 331.075 33.9632 330.951 33.7842C330.824 33.6051 330.73 33.3984 330.668 33.1641C330.606 32.9264 330.575 32.6774 330.575 32.417ZM335.761 32.3145V32.417C335.761 32.7946 335.811 33.1478 335.912 33.4766C336.013 33.8021 336.155 34.0853 336.337 34.3262C336.519 34.5671 336.739 34.7559 336.996 34.8926C337.257 35.0293 337.546 35.0977 337.865 35.0977C338.191 35.0977 338.476 35.0423 338.72 34.9316C338.964 34.821 339.174 34.6582 339.35 34.4434L339.389 35H340.219V27.5H339.315V30.2393C339.143 30.0374 338.938 29.8844 338.7 29.7803C338.466 29.6729 338.191 29.6191 337.875 29.6191C337.553 29.6191 337.261 29.6859 337.001 29.8193C336.741 29.9528 336.519 30.1383 336.337 30.376C336.151 30.6136 336.008 30.8984 335.907 31.2305C335.81 31.5592 335.761 31.9206 335.761 32.3145ZM336.664 32.417V32.3145C336.664 32.0573 336.692 31.8132 336.747 31.582C336.802 31.3477 336.889 31.141 337.006 30.9619C337.12 30.7861 337.266 30.6462 337.445 30.542C337.628 30.4378 337.846 30.3857 338.1 30.3857C338.396 30.3857 338.643 30.4557 338.842 30.5957C339.04 30.7324 339.198 30.9082 339.315 31.123V33.5742C339.198 33.8053 339.04 33.9893 338.842 34.126C338.643 34.2627 338.393 34.3311 338.09 34.3311C337.839 34.3311 337.624 34.2806 337.445 34.1797C337.266 34.0755 337.12 33.9355 337.006 33.7598C336.889 33.584 336.802 33.3805 336.747 33.1494C336.692 32.9183 336.664 32.6742 336.664 32.417ZM344.271 35.0977C344.786 35.0977 345.217 34.9951 345.565 34.79C345.917 34.5817 346.181 34.3441 346.356 34.0771L345.805 33.6475C345.639 33.8623 345.43 34.0348 345.18 34.165C344.929 34.2952 344.643 34.3604 344.32 34.3604C344.076 34.3604 343.853 34.3148 343.651 34.2236C343.45 34.1325 343.277 34.0072 343.134 33.8477C342.994 33.6979 342.883 33.5254 342.802 33.3301C342.724 33.1348 342.673 32.9085 342.65 32.6514V32.6172H346.425V32.2119C346.425 31.8441 346.378 31.5023 346.283 31.1865C346.192 30.8708 346.052 30.5957 345.863 30.3613C345.674 30.1302 345.437 29.9495 345.15 29.8193C344.867 29.6859 344.535 29.6191 344.154 29.6191C343.852 29.6191 343.555 29.681 343.266 29.8047C342.979 29.9284 342.724 30.1058 342.499 30.3369C342.271 30.5713 342.089 30.8577 341.952 31.1963C341.815 31.5316 341.747 31.9124 341.747 32.3389V32.5439C341.747 32.9118 341.809 33.252 341.933 33.5645C342.056 33.877 342.229 34.1471 342.45 34.375C342.672 34.6029 342.937 34.7803 343.246 34.9072C343.559 35.0342 343.9 35.0977 344.271 35.0977ZM344.154 30.3613C344.385 30.3613 344.584 30.4036 344.75 30.4883C344.919 30.5729 345.059 30.6836 345.17 30.8203C345.281 30.957 345.367 31.1198 345.429 31.3086C345.491 31.4941 345.521 31.6683 345.521 31.8311V31.875H342.68C342.715 31.6309 342.777 31.416 342.865 31.2305C342.956 31.0417 343.067 30.8822 343.197 30.752C343.327 30.625 343.474 30.529 343.637 30.4639C343.799 30.3955 343.972 30.3613 344.154 30.3613ZM352.304 35V34.2627H348.734L350.644 32.1924C350.823 31.9971 350.992 31.8018 351.151 31.6064C351.314 31.4079 351.457 31.2077 351.581 31.0059C351.701 30.804 351.798 30.6006 351.869 30.3955C351.941 30.1872 351.977 29.9772 351.977 29.7656C351.977 29.4824 351.926 29.2204 351.825 28.9795C351.728 28.7386 351.586 28.5303 351.4 28.3545C351.215 28.1787 350.987 28.042 350.717 27.9443C350.45 27.8434 350.149 27.793 349.813 27.793C349.449 27.793 349.123 27.8516 348.837 27.9688C348.554 28.0859 348.314 28.2438 348.119 28.4424C347.921 28.641 347.769 28.8737 347.665 29.1406C347.561 29.4043 347.509 29.6859 347.509 29.9854H348.417C348.417 29.764 348.445 29.5638 348.5 29.3848C348.559 29.2057 348.646 29.0527 348.764 28.9258C348.878 28.8021 349.021 28.7061 349.193 28.6377C349.369 28.5693 349.576 28.5352 349.813 28.5352C350.009 28.5352 350.183 28.5693 350.336 28.6377C350.492 28.7028 350.626 28.7923 350.736 28.9062C350.844 29.0202 350.925 29.1553 350.98 29.3115C351.039 29.4645 351.068 29.6289 351.068 29.8047C351.068 29.9479 351.05 30.0879 351.015 30.2246C350.979 30.3581 350.919 30.4997 350.834 30.6494C350.749 30.8024 350.637 30.9684 350.497 31.1475C350.357 31.3265 350.183 31.5316 349.975 31.7627L347.646 34.3506V35H352.304ZM355.766 34.4141C355.766 34.6029 355.824 34.764 355.941 34.8975C356.062 35.0277 356.239 35.0928 356.474 35.0928C356.705 35.0928 356.882 35.0277 357.006 34.8975C357.13 34.7673 357.191 34.6061 357.191 34.4141C357.191 34.2188 357.13 34.0544 357.006 33.9209C356.885 33.7842 356.708 33.7158 356.474 33.7158C356.236 33.7158 356.059 33.7842 355.941 33.9209C355.824 34.0576 355.766 34.222 355.766 34.4141ZM355.766 30.1367C355.766 30.3255 355.824 30.4867 355.941 30.6201C356.062 30.7503 356.239 30.8154 356.474 30.8154C356.705 30.8154 356.882 30.7503 357.006 30.6201C357.13 30.4899 357.191 30.3288 357.191 30.1367C357.191 29.9414 357.13 29.777 357.006 29.6436C356.885 29.5068 356.708 29.4385 356.474 29.4385C356.236 29.4385 356.059 29.5068 355.941 29.6436C355.824 29.7803 355.766 29.9447 355.766 30.1367ZM367.606 32.998H368.51C368.51 32.8711 368.513 32.7588 368.52 32.6611C368.526 32.5602 368.542 32.4658 368.568 32.3779C368.594 32.29 368.633 32.2038 368.686 32.1191C368.741 32.0345 368.817 31.945 368.915 31.8506C369.068 31.7139 369.223 31.5658 369.379 31.4062C369.538 31.2467 369.682 31.0742 369.809 30.8887C369.936 30.7064 370.04 30.5127 370.121 30.3076C370.202 30.0993 370.243 29.8779 370.243 29.6436C370.243 29.3506 370.196 29.0902 370.102 28.8623C370.007 28.6344 369.87 28.4408 369.691 28.2812C369.512 28.1217 369.293 28.0013 369.032 27.9199C368.775 27.8353 368.482 27.793 368.153 27.793C367.857 27.793 367.58 27.8337 367.323 27.915C367.069 27.9932 366.85 28.1071 366.664 28.2568C366.475 28.4098 366.326 28.5954 366.215 28.8135C366.104 29.0316 366.047 29.2773 366.044 29.5508H366.947C366.947 29.3815 366.981 29.2367 367.05 29.1162C367.118 28.9925 367.209 28.89 367.323 28.8086C367.434 28.7305 367.561 28.6735 367.704 28.6377C367.851 28.5986 368 28.5791 368.153 28.5791C368.352 28.5791 368.528 28.6051 368.681 28.6572C368.834 28.7093 368.961 28.7858 369.062 28.8867C369.153 28.9779 369.221 29.0902 369.267 29.2236C369.315 29.3538 369.34 29.5036 369.34 29.6729C369.34 29.8356 369.309 29.9902 369.247 30.1367C369.185 30.2832 369.107 30.4215 369.013 30.5518C368.915 30.6852 368.808 30.8122 368.69 30.9326C368.576 31.0531 368.464 31.1702 368.354 31.2842C368.191 31.4339 368.061 31.5641 367.963 31.6748C367.865 31.7822 367.79 31.8945 367.738 32.0117C367.686 32.1322 367.652 32.2689 367.636 32.4219C367.619 32.5716 367.61 32.7637 367.606 32.998ZM367.504 34.5264C367.504 34.6761 367.549 34.8014 367.641 34.9023C367.735 35.0033 367.875 35.0537 368.061 35.0537C368.246 35.0537 368.386 35.0033 368.48 34.9023C368.578 34.8014 368.627 34.6761 368.627 34.5264C368.627 34.3701 368.578 34.2399 368.48 34.1357C368.386 34.0316 368.246 33.9795 368.061 33.9795C367.875 33.9795 367.735 34.0316 367.641 34.1357C367.549 34.2399 367.504 34.3701 367.504 34.5264ZM378.7 36.2256L378.803 36.7871C379.122 36.7806 379.397 36.7074 379.628 36.5674C379.859 36.4274 380.051 36.2484 380.204 36.0303C380.354 35.8122 380.465 35.5697 380.536 35.3027C380.608 35.0391 380.644 34.777 380.644 34.5166V33.6914C380.644 33.4635 380.67 33.2666 380.722 33.1006C380.774 32.9346 380.854 32.7962 380.961 32.6855C381.072 32.5716 381.213 32.4886 381.386 32.4365C381.562 32.3812 381.767 32.3519 382.001 32.3486V31.6406C381.734 31.6406 381.505 31.6064 381.312 31.5381C381.124 31.4665 380.976 31.3542 380.868 31.2012C380.793 31.0938 380.736 30.9668 380.697 30.8203C380.661 30.6706 380.644 30.498 380.644 30.3027V29.4727C380.644 29.1992 380.606 28.9225 380.531 28.6426C380.46 28.3626 380.341 28.1104 380.175 27.8857C380.028 27.6872 379.841 27.526 379.613 27.4023C379.389 27.2786 379.118 27.2119 378.803 27.2021L378.705 27.7637C378.939 27.7702 379.125 27.8255 379.262 27.9297C379.398 28.0339 379.503 28.1657 379.574 28.3252C379.643 28.488 379.687 28.6702 379.706 28.8721C379.729 29.0739 379.74 29.2741 379.74 29.4727V30.3027C379.74 30.5566 379.778 30.7926 379.853 31.0107C379.927 31.2256 380.043 31.4144 380.199 31.5771C380.281 31.665 380.375 31.7448 380.482 31.8164C380.593 31.888 380.714 31.9499 380.844 32.002C380.717 32.054 380.6 32.1143 380.492 32.1826C380.388 32.251 380.294 32.3275 380.209 32.4121C380.049 32.5716 379.931 32.7604 379.853 32.9785C379.778 33.1966 379.74 33.4342 379.74 33.6914V34.5166C379.74 34.7184 379.722 34.9186 379.687 35.1172C379.654 35.319 379.599 35.4997 379.521 35.6592C379.439 35.8219 379.332 35.9554 379.198 36.0596C379.065 36.1637 378.899 36.2191 378.7 36.2256Z"
    fill="#5F9CF8" pathLength="1" stroke-dashoffset="0px" stroke-dasharray="1px 1px"></path>
  <rect x="266.5" y="137.5" width="55" height="55" stroke="#E139F0" pathLength="1" stroke-dashoffset="0px"
    stroke-dasharray="1px 1px"></rect>
  <path
    d="M106.753 162.503V159.5H105.85V167H106.753V163.162C106.818 163.058 106.891 162.964 106.973 162.879C107.057 162.791 107.148 162.715 107.246 162.649C107.37 162.565 107.505 162.5 107.651 162.454C107.798 162.409 107.952 162.386 108.115 162.386C108.314 162.382 108.49 162.41 108.643 162.469C108.796 162.524 108.923 162.609 109.023 162.723C109.118 162.827 109.189 162.959 109.238 163.118C109.287 163.274 109.312 163.457 109.312 163.665V167H110.215V163.675C110.215 163.32 110.171 163.014 110.083 162.757C109.998 162.496 109.876 162.282 109.717 162.112C109.557 161.943 109.364 161.819 109.136 161.741C108.911 161.66 108.66 161.619 108.384 161.619C108.172 161.622 107.972 161.653 107.783 161.712C107.598 161.771 107.427 161.857 107.271 161.971C107.173 162.039 107.08 162.119 106.992 162.21C106.904 162.298 106.825 162.396 106.753 162.503ZM115.327 167H116.27V166.922C116.211 166.775 116.165 166.604 116.133 166.409C116.1 166.211 116.084 166.023 116.084 165.848V163.392C116.084 163.095 116.03 162.837 115.923 162.615C115.815 162.394 115.669 162.208 115.483 162.059C115.295 161.912 115.072 161.803 114.814 161.731C114.557 161.657 114.279 161.619 113.979 161.619C113.651 161.619 113.356 161.665 113.096 161.756C112.839 161.847 112.62 161.966 112.441 162.112C112.259 162.262 112.119 162.43 112.021 162.615C111.927 162.801 111.878 162.99 111.875 163.182H112.783C112.783 163.071 112.809 162.965 112.861 162.864C112.917 162.76 112.993 162.671 113.091 162.596C113.188 162.521 113.307 162.461 113.447 162.415C113.59 162.369 113.752 162.347 113.931 162.347C114.123 162.347 114.295 162.371 114.448 162.42C114.604 162.469 114.736 162.537 114.844 162.625C114.951 162.716 115.034 162.825 115.093 162.952C115.151 163.079 115.181 163.222 115.181 163.382V163.797H114.194C113.826 163.797 113.493 163.833 113.193 163.904C112.897 163.976 112.643 164.083 112.432 164.227C112.22 164.373 112.056 164.555 111.938 164.773C111.825 164.992 111.768 165.245 111.768 165.535C111.768 165.757 111.81 165.963 111.895 166.155C111.982 166.344 112.106 166.507 112.266 166.644C112.422 166.784 112.612 166.894 112.837 166.976C113.065 167.057 113.319 167.098 113.599 167.098C113.771 167.098 113.934 167.08 114.087 167.044C114.24 167.008 114.385 166.959 114.521 166.897C114.655 166.836 114.777 166.764 114.888 166.683C115.002 166.601 115.104 166.515 115.195 166.424C115.205 166.535 115.22 166.642 115.239 166.746C115.262 166.847 115.291 166.932 115.327 167ZM113.73 166.312C113.555 166.312 113.4 166.289 113.267 166.243C113.133 166.198 113.022 166.134 112.935 166.053C112.847 165.975 112.78 165.88 112.734 165.77C112.692 165.659 112.671 165.538 112.671 165.408C112.671 165.271 112.695 165.149 112.744 165.042C112.796 164.935 112.871 164.842 112.969 164.764C113.105 164.653 113.289 164.572 113.521 164.52C113.755 164.464 114.028 164.437 114.341 164.437H115.181V165.506C115.129 165.61 115.057 165.711 114.966 165.809C114.875 165.903 114.767 165.988 114.644 166.062C114.517 166.137 114.377 166.198 114.224 166.243C114.071 166.289 113.906 166.312 113.73 166.312ZM121.372 165.599C121.372 165.683 121.356 165.763 121.323 165.838C121.291 165.913 121.243 165.981 121.182 166.043C121.081 166.144 120.941 166.224 120.762 166.282C120.583 166.338 120.373 166.365 120.132 166.365C119.979 166.365 119.824 166.349 119.668 166.316C119.512 166.284 119.37 166.229 119.243 166.15C119.113 166.072 119.004 165.97 118.916 165.843C118.831 165.716 118.783 165.56 118.77 165.374H117.866C117.866 165.599 117.917 165.815 118.018 166.023C118.122 166.232 118.271 166.414 118.467 166.57C118.659 166.73 118.895 166.858 119.175 166.956C119.455 167.05 119.774 167.098 120.132 167.098C120.444 167.098 120.732 167.06 120.996 166.985C121.26 166.91 121.486 166.805 121.675 166.668C121.864 166.531 122.01 166.367 122.114 166.175C122.222 165.983 122.275 165.77 122.275 165.535C122.275 165.317 122.228 165.125 122.134 164.959C122.043 164.793 121.909 164.646 121.733 164.52C121.558 164.396 121.341 164.29 121.084 164.202C120.827 164.111 120.535 164.031 120.21 163.963C119.963 163.914 119.757 163.864 119.595 163.812C119.435 163.759 119.308 163.701 119.214 163.636C119.116 163.571 119.048 163.497 119.009 163.416C118.97 163.335 118.95 163.242 118.95 163.138C118.95 163.037 118.975 162.939 119.023 162.845C119.072 162.75 119.146 162.667 119.243 162.596C119.338 162.524 119.456 162.467 119.6 162.425C119.746 162.382 119.915 162.361 120.107 162.361C120.293 162.361 120.459 162.387 120.605 162.439C120.755 162.492 120.882 162.56 120.986 162.645C121.09 162.729 121.172 162.827 121.23 162.938C121.289 163.045 121.318 163.156 121.318 163.27H122.222C122.222 163.038 122.171 162.824 122.07 162.625C121.973 162.423 121.833 162.247 121.65 162.098C121.468 161.948 121.247 161.831 120.986 161.746C120.726 161.661 120.433 161.619 120.107 161.619C119.805 161.619 119.526 161.66 119.272 161.741C119.022 161.823 118.805 161.933 118.623 162.073C118.441 162.213 118.299 162.378 118.198 162.566C118.097 162.752 118.047 162.952 118.047 163.167C118.047 163.385 118.096 163.577 118.193 163.743C118.291 163.906 118.429 164.048 118.608 164.168C118.784 164.292 118.996 164.397 119.243 164.485C119.494 164.573 119.771 164.648 120.073 164.71C120.321 164.759 120.527 164.814 120.693 164.876C120.859 164.935 120.993 165 121.094 165.071C121.195 165.143 121.266 165.223 121.309 165.311C121.351 165.395 121.372 165.491 121.372 165.599ZM130.63 161.214V161.927H131.514V161.199C131.514 160.919 131.551 160.659 131.626 160.418C131.704 160.177 131.82 159.941 131.973 159.71L131.479 159.358C131.343 159.476 131.222 159.609 131.118 159.759C131.014 159.909 130.926 160.065 130.854 160.228C130.78 160.394 130.723 160.561 130.684 160.73C130.648 160.9 130.63 161.061 130.63 161.214ZM132.217 161.214V161.927H133.101V161.199C133.101 160.919 133.138 160.659 133.213 160.418C133.291 160.177 133.407 159.941 133.56 159.71L133.066 159.358C132.93 159.476 132.809 159.609 132.705 159.759C132.601 159.909 132.513 160.065 132.441 160.228C132.367 160.394 132.31 160.561 132.271 160.73C132.235 160.9 132.217 161.061 132.217 161.214ZM137.524 164.998H138.428C138.428 164.871 138.431 164.759 138.438 164.661C138.444 164.56 138.46 164.466 138.486 164.378C138.512 164.29 138.551 164.204 138.604 164.119C138.659 164.035 138.735 163.945 138.833 163.851C138.986 163.714 139.141 163.566 139.297 163.406C139.456 163.247 139.6 163.074 139.727 162.889C139.854 162.706 139.958 162.513 140.039 162.308C140.12 162.099 140.161 161.878 140.161 161.644C140.161 161.351 140.114 161.09 140.02 160.862C139.925 160.634 139.788 160.441 139.609 160.281C139.43 160.122 139.211 160.001 138.95 159.92C138.693 159.835 138.4 159.793 138.071 159.793C137.775 159.793 137.498 159.834 137.241 159.915C136.987 159.993 136.768 160.107 136.582 160.257C136.393 160.41 136.243 160.595 136.133 160.813C136.022 161.032 135.965 161.277 135.962 161.551H136.865C136.865 161.382 136.899 161.237 136.968 161.116C137.036 160.993 137.127 160.89 137.241 160.809C137.352 160.73 137.479 160.674 137.622 160.638C137.769 160.599 137.918 160.579 138.071 160.579C138.27 160.579 138.446 160.605 138.599 160.657C138.752 160.709 138.879 160.786 138.979 160.887C139.071 160.978 139.139 161.09 139.185 161.224C139.233 161.354 139.258 161.504 139.258 161.673C139.258 161.836 139.227 161.99 139.165 162.137C139.103 162.283 139.025 162.422 138.931 162.552C138.833 162.685 138.726 162.812 138.608 162.933C138.494 163.053 138.382 163.17 138.271 163.284C138.109 163.434 137.979 163.564 137.881 163.675C137.783 163.782 137.708 163.895 137.656 164.012C137.604 164.132 137.57 164.269 137.554 164.422C137.537 164.572 137.528 164.764 137.524 164.998ZM137.422 166.526C137.422 166.676 137.467 166.801 137.559 166.902C137.653 167.003 137.793 167.054 137.979 167.054C138.164 167.054 138.304 167.003 138.398 166.902C138.496 166.801 138.545 166.676 138.545 166.526C138.545 166.37 138.496 166.24 138.398 166.136C138.304 166.032 138.164 165.979 137.979 165.979C137.793 165.979 137.653 166.032 137.559 166.136C137.467 166.24 137.422 166.37 137.422 166.526ZM143.848 160.11V159.393H142.964V160.125C142.964 160.405 142.925 160.665 142.847 160.906C142.772 161.147 142.658 161.383 142.505 161.614L142.998 161.966C143.135 161.849 143.255 161.715 143.359 161.565C143.464 161.416 143.553 161.258 143.628 161.092C143.7 160.929 143.753 160.763 143.789 160.594C143.828 160.424 143.848 160.263 143.848 160.11ZM145.469 160.11V159.393H144.585V160.125C144.585 160.405 144.546 160.665 144.468 160.906C144.393 161.147 144.279 161.383 144.126 161.614L144.619 161.966C144.756 161.849 144.876 161.715 144.98 161.565C145.085 161.416 145.174 161.258 145.249 161.092C145.321 160.929 145.374 160.763 145.41 160.594C145.449 160.424 145.469 160.263 145.469 160.11ZM153.892 169.031H154.795V166.492C154.86 166.564 154.93 166.631 155.005 166.692C155.08 166.751 155.16 166.805 155.244 166.854C155.384 166.932 155.54 166.992 155.713 167.034C155.889 167.076 156.077 167.098 156.279 167.098C156.611 167.098 156.906 167.029 157.163 166.893C157.424 166.756 157.642 166.567 157.817 166.326C157.993 166.085 158.127 165.802 158.218 165.477C158.309 165.148 158.354 164.795 158.354 164.417V164.314C158.354 163.921 158.309 163.559 158.218 163.23C158.127 162.898 157.993 162.614 157.817 162.376C157.642 162.138 157.424 161.953 157.163 161.819C156.903 161.686 156.603 161.619 156.265 161.619C156.073 161.619 155.892 161.64 155.723 161.683C155.557 161.722 155.405 161.78 155.269 161.858C155.171 161.91 155.08 161.974 154.995 162.049C154.91 162.12 154.832 162.202 154.761 162.293L154.717 161.717H153.892V169.031ZM157.451 164.314V164.417C157.451 164.674 157.422 164.92 157.363 165.154C157.308 165.389 157.222 165.595 157.104 165.774C156.987 165.953 156.838 166.097 156.655 166.204C156.473 166.308 156.257 166.36 156.006 166.36C155.85 166.36 155.706 166.341 155.576 166.302C155.449 166.263 155.334 166.209 155.229 166.141C155.138 166.082 155.057 166.01 154.985 165.926C154.914 165.841 154.85 165.75 154.795 165.652V163.108C154.857 162.998 154.928 162.897 155.01 162.806C155.091 162.715 155.184 162.638 155.288 162.576C155.382 162.514 155.488 162.467 155.605 162.435C155.726 162.402 155.856 162.386 155.996 162.386C156.25 162.386 156.468 162.438 156.65 162.542C156.833 162.646 156.984 162.786 157.104 162.962C157.222 163.141 157.308 163.348 157.363 163.582C157.422 163.813 157.451 164.057 157.451 164.314ZM160.044 159.5V160.286H161.841V166.219H160.044V167H164.468V166.219H162.744V159.5H160.044ZM169.38 167H170.322V166.922C170.264 166.775 170.218 166.604 170.186 166.409C170.153 166.211 170.137 166.023 170.137 165.848V163.392C170.137 163.095 170.083 162.837 169.976 162.615C169.868 162.394 169.722 162.208 169.536 162.059C169.347 161.912 169.124 161.803 168.867 161.731C168.61 161.657 168.332 161.619 168.032 161.619C167.703 161.619 167.409 161.665 167.148 161.756C166.891 161.847 166.673 161.966 166.494 162.112C166.312 162.262 166.172 162.43 166.074 162.615C165.98 162.801 165.931 162.99 165.928 163.182H166.836C166.836 163.071 166.862 162.965 166.914 162.864C166.969 162.76 167.046 162.671 167.144 162.596C167.241 162.521 167.36 162.461 167.5 162.415C167.643 162.369 167.804 162.347 167.983 162.347C168.175 162.347 168.348 162.371 168.501 162.42C168.657 162.469 168.789 162.537 168.896 162.625C169.004 162.716 169.087 162.825 169.146 162.952C169.204 163.079 169.233 163.222 169.233 163.382V163.797H168.247C167.879 163.797 167.546 163.833 167.246 163.904C166.95 163.976 166.696 164.083 166.484 164.227C166.273 164.373 166.108 164.555 165.991 164.773C165.877 164.992 165.82 165.245 165.82 165.535C165.82 165.757 165.863 165.963 165.947 166.155C166.035 166.344 166.159 166.507 166.318 166.644C166.475 166.784 166.665 166.894 166.89 166.976C167.118 167.057 167.371 167.098 167.651 167.098C167.824 167.098 167.987 167.08 168.14 167.044C168.293 167.008 168.438 166.959 168.574 166.897C168.708 166.836 168.83 166.764 168.94 166.683C169.054 166.601 169.157 166.515 169.248 166.424C169.258 166.535 169.272 166.642 169.292 166.746C169.315 166.847 169.344 166.932 169.38 167ZM167.783 166.312C167.607 166.312 167.453 166.289 167.319 166.243C167.186 166.198 167.075 166.134 166.987 166.053C166.899 165.975 166.833 165.88 166.787 165.77C166.745 165.659 166.724 165.538 166.724 165.408C166.724 165.271 166.748 165.149 166.797 165.042C166.849 164.935 166.924 164.842 167.021 164.764C167.158 164.653 167.342 164.572 167.573 164.52C167.808 164.464 168.081 164.437 168.394 164.437H169.233V165.506C169.181 165.61 169.11 165.711 169.019 165.809C168.927 165.903 168.82 165.988 168.696 166.062C168.569 166.137 168.429 166.198 168.276 166.243C168.123 166.289 167.959 166.312 167.783 166.312ZM174.165 166.365C173.882 166.365 173.644 166.31 173.452 166.199C173.263 166.085 173.112 165.937 172.998 165.755C172.881 165.576 172.796 165.374 172.744 165.149C172.695 164.922 172.671 164.692 172.671 164.461V164.256C172.671 164.028 172.695 163.802 172.744 163.577C172.796 163.353 172.881 163.149 172.998 162.967C173.115 162.788 173.268 162.643 173.457 162.532C173.649 162.418 173.885 162.361 174.165 162.361C174.347 162.361 174.517 162.392 174.673 162.454C174.832 162.516 174.969 162.601 175.083 162.708C175.197 162.815 175.286 162.941 175.352 163.084C175.42 163.224 175.456 163.374 175.459 163.533H176.313C176.313 163.266 176.26 163.016 176.152 162.781C176.045 162.547 175.897 162.343 175.708 162.171C175.516 162.002 175.288 161.868 175.024 161.771C174.764 161.67 174.478 161.619 174.165 161.619C173.765 161.619 173.415 161.691 173.115 161.834C172.816 161.977 172.567 162.169 172.368 162.41C172.166 162.654 172.015 162.936 171.914 163.255C171.813 163.574 171.763 163.908 171.763 164.256V164.461C171.763 164.812 171.813 165.148 171.914 165.467C172.015 165.783 172.166 166.061 172.368 166.302C172.567 166.546 172.816 166.74 173.115 166.883C173.415 167.026 173.765 167.098 174.165 167.098C174.445 167.098 174.714 167.05 174.971 166.956C175.228 166.858 175.456 166.728 175.654 166.565C175.853 166.406 176.011 166.22 176.128 166.009C176.248 165.794 176.31 165.569 176.313 165.335H175.459C175.456 165.481 175.417 165.618 175.342 165.745C175.27 165.869 175.174 165.976 175.054 166.067C174.933 166.162 174.795 166.235 174.639 166.287C174.486 166.339 174.328 166.365 174.165 166.365ZM180.254 167.098C180.768 167.098 181.2 166.995 181.548 166.79C181.899 166.582 182.163 166.344 182.339 166.077L181.787 165.647C181.621 165.862 181.413 166.035 181.162 166.165C180.911 166.295 180.625 166.36 180.303 166.36C180.059 166.36 179.836 166.315 179.634 166.224C179.432 166.132 179.259 166.007 179.116 165.848C178.976 165.698 178.866 165.525 178.784 165.33C178.706 165.135 178.656 164.909 178.633 164.651V164.617H182.407V164.212C182.407 163.844 182.36 163.502 182.266 163.187C182.174 162.871 182.035 162.596 181.846 162.361C181.657 162.13 181.419 161.95 181.133 161.819C180.85 161.686 180.518 161.619 180.137 161.619C179.834 161.619 179.538 161.681 179.248 161.805C178.962 161.928 178.706 162.106 178.481 162.337C178.254 162.571 178.071 162.858 177.935 163.196C177.798 163.532 177.729 163.912 177.729 164.339V164.544C177.729 164.912 177.791 165.252 177.915 165.564C178.039 165.877 178.211 166.147 178.433 166.375C178.654 166.603 178.919 166.78 179.229 166.907C179.541 167.034 179.883 167.098 180.254 167.098ZM180.137 162.361C180.368 162.361 180.566 162.404 180.732 162.488C180.902 162.573 181.042 162.684 181.152 162.82C181.263 162.957 181.349 163.12 181.411 163.309C181.473 163.494 181.504 163.668 181.504 163.831V163.875H178.662C178.698 163.631 178.76 163.416 178.848 163.23C178.939 163.042 179.049 162.882 179.18 162.752C179.31 162.625 179.456 162.529 179.619 162.464C179.782 162.396 179.954 162.361 180.137 162.361ZM184.829 162.503V159.5H183.926V167H184.829V163.162C184.894 163.058 184.967 162.964 185.049 162.879C185.133 162.791 185.225 162.715 185.322 162.649C185.446 162.565 185.581 162.5 185.728 162.454C185.874 162.409 186.029 162.386 186.191 162.386C186.39 162.382 186.566 162.41 186.719 162.469C186.872 162.524 186.999 162.609 187.1 162.723C187.194 162.827 187.266 162.959 187.314 163.118C187.363 163.274 187.388 163.457 187.388 163.665V167H188.291V163.675C188.291 163.32 188.247 163.014 188.159 162.757C188.075 162.496 187.952 162.282 187.793 162.112C187.633 161.943 187.44 161.819 187.212 161.741C186.987 161.66 186.737 161.619 186.46 161.619C186.248 161.622 186.048 161.653 185.859 161.712C185.674 161.771 185.503 161.857 185.347 161.971C185.249 162.039 185.156 162.119 185.068 162.21C184.98 162.298 184.901 162.396 184.829 162.503ZM189.678 164.31V164.417C189.678 164.798 189.733 165.151 189.844 165.477C189.954 165.802 190.114 166.085 190.322 166.326C190.527 166.567 190.778 166.756 191.074 166.893C191.374 167.029 191.711 167.098 192.085 167.098C192.456 167.098 192.79 167.029 193.086 166.893C193.382 166.756 193.634 166.567 193.843 166.326C194.048 166.085 194.206 165.802 194.316 165.477C194.427 165.151 194.482 164.798 194.482 164.417V164.31C194.482 163.929 194.427 163.576 194.316 163.25C194.206 162.921 194.048 162.636 193.843 162.396C193.634 162.155 193.381 161.966 193.081 161.829C192.785 161.689 192.45 161.619 192.075 161.619C191.704 161.619 191.37 161.689 191.074 161.829C190.778 161.966 190.527 162.155 190.322 162.396C190.114 162.636 189.954 162.921 189.844 163.25C189.733 163.576 189.678 163.929 189.678 164.31ZM190.581 164.417V164.31C190.581 164.052 190.612 163.807 190.674 163.572C190.736 163.335 190.83 163.126 190.957 162.947C191.081 162.768 191.235 162.627 191.421 162.522C191.606 162.415 191.825 162.361 192.075 162.361C192.326 162.361 192.544 162.415 192.729 162.522C192.918 162.627 193.076 162.768 193.203 162.947C193.327 163.126 193.42 163.335 193.481 163.572C193.547 163.807 193.579 164.052 193.579 164.31V164.417C193.579 164.677 193.548 164.926 193.486 165.164C193.424 165.398 193.332 165.605 193.208 165.784C193.081 165.963 192.923 166.105 192.734 166.209C192.549 166.313 192.332 166.365 192.085 166.365C191.834 166.365 191.615 166.313 191.426 166.209C191.237 166.105 191.081 165.963 190.957 165.784C190.83 165.605 190.736 165.398 190.674 165.164C190.612 164.926 190.581 164.677 190.581 164.417ZM196.079 159.5V160.286H197.876V166.219H196.079V167H200.503V166.219H198.779V159.5H196.079ZM201.772 164.314V164.417C201.772 164.795 201.823 165.148 201.924 165.477C202.025 165.802 202.166 166.085 202.349 166.326C202.531 166.567 202.751 166.756 203.008 166.893C203.268 167.029 203.558 167.098 203.877 167.098C204.202 167.098 204.487 167.042 204.731 166.932C204.976 166.821 205.186 166.658 205.361 166.443L205.4 167H206.23V159.5H205.327V162.239C205.155 162.037 204.95 161.884 204.712 161.78C204.478 161.673 204.202 161.619 203.887 161.619C203.564 161.619 203.273 161.686 203.013 161.819C202.752 161.953 202.531 162.138 202.349 162.376C202.163 162.614 202.02 162.898 201.919 163.23C201.821 163.559 201.772 163.921 201.772 164.314ZM202.676 164.417V164.314C202.676 164.057 202.703 163.813 202.759 163.582C202.814 163.348 202.9 163.141 203.018 162.962C203.132 162.786 203.278 162.646 203.457 162.542C203.639 162.438 203.857 162.386 204.111 162.386C204.408 162.386 204.655 162.456 204.854 162.596C205.052 162.732 205.21 162.908 205.327 163.123V165.574C205.21 165.805 205.052 165.989 204.854 166.126C204.655 166.263 204.404 166.331 204.102 166.331C203.851 166.331 203.636 166.281 203.457 166.18C203.278 166.076 203.132 165.936 203.018 165.76C202.9 165.584 202.814 165.381 202.759 165.149C202.703 164.918 202.676 164.674 202.676 164.417ZM210.283 167.098C210.798 167.098 211.229 166.995 211.577 166.79C211.929 166.582 212.192 166.344 212.368 166.077L211.816 165.647C211.65 165.862 211.442 166.035 211.191 166.165C210.941 166.295 210.654 166.36 210.332 166.36C210.088 166.36 209.865 166.315 209.663 166.224C209.461 166.132 209.289 166.007 209.146 165.848C209.006 165.698 208.895 165.525 208.813 165.33C208.735 165.135 208.685 164.909 208.662 164.651V164.617H212.437V164.212C212.437 163.844 212.389 163.502 212.295 163.187C212.204 162.871 212.064 162.596 211.875 162.361C211.686 162.13 211.449 161.95 211.162 161.819C210.879 161.686 210.547 161.619 210.166 161.619C209.863 161.619 209.567 161.681 209.277 161.805C208.991 161.928 208.735 162.106 208.511 162.337C208.283 162.571 208.101 162.858 207.964 163.196C207.827 163.532 207.759 163.912 207.759 164.339V164.544C207.759 164.912 207.821 165.252 207.944 165.564C208.068 165.877 208.241 166.147 208.462 166.375C208.683 166.603 208.949 166.78 209.258 166.907C209.57 167.034 209.912 167.098 210.283 167.098ZM210.166 162.361C210.397 162.361 210.596 162.404 210.762 162.488C210.931 162.573 211.071 162.684 211.182 162.82C211.292 162.957 211.379 163.12 211.44 163.309C211.502 163.494 211.533 163.668 211.533 163.831V163.875H208.691C208.727 163.631 208.789 163.416 208.877 163.23C208.968 163.042 209.079 162.882 209.209 162.752C209.339 162.625 209.486 162.529 209.648 162.464C209.811 162.396 209.984 162.361 210.166 162.361ZM217.417 161.619C217.033 161.619 216.689 161.704 216.387 161.873C216.087 162.039 215.83 162.267 215.615 162.557L215.61 162.425L215.571 161.717H214.712V167H215.62V163.611C215.679 163.449 215.752 163.302 215.84 163.172C215.931 163.038 216.037 162.926 216.157 162.835C216.291 162.731 216.447 162.653 216.626 162.601C216.805 162.545 217.005 162.518 217.227 162.518C217.399 162.518 217.563 162.527 217.72 162.547C217.879 162.563 218.047 162.591 218.223 162.63L218.345 161.746C218.254 161.707 218.117 161.676 217.935 161.653C217.756 161.631 217.583 161.619 217.417 161.619ZM221.606 164.998H222.51C222.51 164.871 222.513 164.759 222.52 164.661C222.526 164.56 222.542 164.466 222.568 164.378C222.594 164.29 222.633 164.204 222.686 164.119C222.741 164.035 222.817 163.945 222.915 163.851C223.068 163.714 223.223 163.566 223.379 163.406C223.538 163.247 223.682 163.074 223.809 162.889C223.936 162.706 224.04 162.513 224.121 162.308C224.202 162.099 224.243 161.878 224.243 161.644C224.243 161.351 224.196 161.09 224.102 160.862C224.007 160.634 223.87 160.441 223.691 160.281C223.512 160.122 223.293 160.001 223.032 159.92C222.775 159.835 222.482 159.793 222.153 159.793C221.857 159.793 221.58 159.834 221.323 159.915C221.069 159.993 220.85 160.107 220.664 160.257C220.475 160.41 220.326 160.595 220.215 160.813C220.104 161.032 220.047 161.277 220.044 161.551H220.947C220.947 161.382 220.981 161.237 221.05 161.116C221.118 160.993 221.209 160.89 221.323 160.809C221.434 160.73 221.561 160.674 221.704 160.638C221.851 160.599 222 160.579 222.153 160.579C222.352 160.579 222.528 160.605 222.681 160.657C222.834 160.709 222.961 160.786 223.062 160.887C223.153 160.978 223.221 161.09 223.267 161.224C223.315 161.354 223.34 161.504 223.34 161.673C223.34 161.836 223.309 161.99 223.247 162.137C223.185 162.283 223.107 162.422 223.013 162.552C222.915 162.685 222.808 162.812 222.69 162.933C222.576 163.053 222.464 163.17 222.354 163.284C222.191 163.434 222.061 163.564 221.963 163.675C221.865 163.782 221.79 163.895 221.738 164.012C221.686 164.132 221.652 164.269 221.636 164.422C221.619 164.572 221.61 164.764 221.606 164.998ZM221.504 166.526C221.504 166.676 221.549 166.801 221.641 166.902C221.735 167.003 221.875 167.054 222.061 167.054C222.246 167.054 222.386 167.003 222.48 166.902C222.578 166.801 222.627 166.676 222.627 166.526C222.627 166.37 222.578 166.24 222.48 166.136C222.386 166.032 222.246 165.979 222.061 165.979C221.875 165.979 221.735 166.032 221.641 166.136C221.549 166.24 221.504 166.37 221.504 166.526ZM232.866 164.114V164.163C232.866 164.629 232.902 165.066 232.974 165.477C233.049 165.887 233.148 166.266 233.271 166.614C233.392 166.966 233.532 167.285 233.691 167.571C233.854 167.861 234.025 168.118 234.204 168.343C234.38 168.571 234.557 168.763 234.736 168.919C234.919 169.078 235.091 169.204 235.254 169.295L235.444 168.743C235.311 168.636 235.177 168.506 235.044 168.353C234.914 168.203 234.787 168.03 234.663 167.835C234.543 167.63 234.427 167.397 234.316 167.137C234.206 166.88 234.108 166.6 234.023 166.297C233.945 165.997 233.883 165.67 233.838 165.315C233.792 164.961 233.77 164.58 233.77 164.173V164.104C233.77 163.681 233.794 163.286 233.843 162.918C233.892 162.55 233.96 162.213 234.048 161.907C234.139 161.569 234.253 161.258 234.39 160.975C234.526 160.688 234.67 160.439 234.819 160.228C234.92 160.091 235.023 159.967 235.127 159.856C235.234 159.746 235.34 159.651 235.444 159.573L235.254 158.978C235.091 159.069 234.92 159.194 234.741 159.354C234.562 159.513 234.385 159.705 234.209 159.93C234.03 160.154 233.859 160.411 233.696 160.701C233.537 160.991 233.395 161.31 233.271 161.658C233.148 162.01 233.049 162.391 232.974 162.801C232.902 163.211 232.866 163.649 232.866 164.114ZM237.979 167H238.882V163.211C238.944 163.097 239.015 162.993 239.097 162.898C239.181 162.804 239.272 162.721 239.37 162.649C239.491 162.568 239.622 162.505 239.766 162.459C239.909 162.41 240.063 162.386 240.229 162.386C240.422 162.386 240.591 162.409 240.737 162.454C240.887 162.5 241.014 162.573 241.118 162.674C241.219 162.775 241.296 162.907 241.348 163.069C241.4 163.232 241.426 163.431 241.426 163.665V167H242.329V163.646C242.329 163.294 242.285 162.991 242.197 162.737C242.113 162.48 241.991 162.269 241.831 162.103C241.672 161.937 241.478 161.814 241.25 161.736C241.025 161.658 240.775 161.619 240.498 161.619C240.293 161.622 240.098 161.653 239.912 161.712C239.73 161.767 239.561 161.847 239.404 161.951C239.3 162.02 239.201 162.101 239.106 162.195C239.015 162.286 238.931 162.387 238.853 162.498L238.789 161.717H237.979V167ZM243.73 164.31V164.417C243.73 164.798 243.786 165.151 243.896 165.477C244.007 165.802 244.167 166.085 244.375 166.326C244.58 166.567 244.831 166.756 245.127 166.893C245.426 167.029 245.763 167.098 246.138 167.098C246.509 167.098 246.842 167.029 247.139 166.893C247.435 166.756 247.687 166.567 247.896 166.326C248.101 166.085 248.258 165.802 248.369 165.477C248.48 165.151 248.535 164.798 248.535 164.417V164.31C248.535 163.929 248.48 163.576 248.369 163.25C248.258 162.921 248.101 162.636 247.896 162.396C247.687 162.155 247.433 161.966 247.134 161.829C246.838 161.689 246.502 161.619 246.128 161.619C245.757 161.619 245.423 161.689 245.127 161.829C244.831 161.966 244.58 162.155 244.375 162.396C244.167 162.636 244.007 162.921 243.896 163.25C243.786 163.576 243.73 163.929 243.73 164.31ZM244.634 164.417V164.31C244.634 164.052 244.665 163.807 244.727 163.572C244.788 163.335 244.883 163.126 245.01 162.947C245.133 162.768 245.288 162.627 245.474 162.522C245.659 162.415 245.877 162.361 246.128 162.361C246.379 162.361 246.597 162.415 246.782 162.522C246.971 162.627 247.129 162.768 247.256 162.947C247.38 163.126 247.472 163.335 247.534 163.572C247.599 163.807 247.632 164.052 247.632 164.31V164.417C247.632 164.677 247.601 164.926 247.539 165.164C247.477 165.398 247.384 165.605 247.261 165.784C247.134 165.963 246.976 166.105 246.787 166.209C246.602 166.313 246.385 166.365 246.138 166.365C245.887 166.365 245.667 166.313 245.479 166.209C245.29 166.105 245.133 165.963 245.01 165.784C244.883 165.605 244.788 165.398 244.727 165.164C244.665 164.926 244.634 164.677 244.634 164.417ZM253.286 164.163V164.114C253.286 163.616 253.247 163.169 253.169 162.771C253.094 162.371 252.998 162 252.881 161.658C252.76 161.303 252.62 160.984 252.461 160.701C252.301 160.418 252.131 160.161 251.948 159.93C251.772 159.705 251.593 159.513 251.411 159.354C251.229 159.194 251.056 159.069 250.894 158.978L250.703 159.529C250.811 159.617 250.921 159.725 251.035 159.852C251.149 159.975 251.26 160.12 251.367 160.286C251.507 160.498 251.644 160.747 251.777 161.033C251.911 161.316 252.025 161.637 252.119 161.995C252.184 162.246 252.243 162.55 252.295 162.908C252.35 163.266 252.378 163.665 252.378 164.104V164.173C252.378 164.56 252.357 164.925 252.314 165.267C252.275 165.605 252.218 165.921 252.144 166.214C252.072 166.53 251.979 166.819 251.865 167.083C251.755 167.35 251.639 167.589 251.519 167.801C251.392 168.009 251.258 168.193 251.118 168.353C250.978 168.512 250.84 168.642 250.703 168.743L250.894 169.295C251.056 169.204 251.227 169.078 251.406 168.919C251.589 168.763 251.769 168.571 251.948 168.343C252.124 168.118 252.292 167.861 252.451 167.571C252.614 167.285 252.757 166.966 252.881 166.614C253.005 166.266 253.102 165.887 253.174 165.477C253.249 165.066 253.286 164.629 253.286 164.163Z"
    fill="#E139F0" pathLength="1" stroke-dashoffset="0px" stroke-dasharray="1px 1px"></path>
</svg>