<svg class="w-full svg" width="626" height="302" viewBox="0 0 626 302" fill="none" xmlns="http://www.w3.org/2000/svg">
  <rect width="626" height="302" rx="19" fill="#111111" pathLength="1" stroke-dashoffset="0px"
    stroke-dasharray="1px 1px"></rect>
  <ellipse cx="140" cy="88.5" rx="22" ry="21.5" fill="white" pathLength="1" stroke-dashoffset="0px"
    stroke-dasharray="1px 1px"></ellipse>
  <ellipse cx="181" cy="158.5" rx="22" ry="21.5" fill="white" pathLength="1" stroke-dashoffset="0px"
    stroke-dasharray="1px 1px"></ellipse>
  <ellipse cx="99" cy="158.5" rx="22" ry="21.5" fill="white" pathLength="1" stroke-dashoffset="0px"
    stroke-dasharray="1px 1px"></ellipse>
  <ellipse cx="55" cy="230.5" rx="22" ry="21.5" fill="white" pathLength="1" stroke-dashoffset="0px"
    stroke-dasharray="1px 1px"></ellipse>
  <ellipse cx="143" cy="230.5" rx="22" ry="21.5" fill="white" pathLength="1" stroke-dashoffset="0px"
    stroke-dasharray="1px 1px"></ellipse>
  <path d="M139 89L54 234.5" stroke="white" stroke-width="3" pathLength="1" stroke-dashoffset="0px"
    stroke-dasharray="1px 1px"></path>
  <path d="M139.5 90L182 160" stroke="white" stroke-width="3" pathLength="1" stroke-dashoffset="0px"
    stroke-dasharray="1px 1px"></path>
  <path d="M98 159L145 235" stroke="white" stroke-width="3" pathLength="1" stroke-dashoffset="0px"
    stroke-dasharray="1px 1px"></path>
  <ellipse cx="22" cy="21.5" rx="22" ry="21.5" transform="matrix(-1 0 0 1 354 67)" fill="white" pathLength="1"
    stroke-dashoffset="0px" stroke-dasharray="1px 1px"></ellipse>
  <ellipse cx="22" cy="21.5" rx="22" ry="21.5" transform="matrix(-1 0 0 1 313 137)" fill="white" pathLength="1"
    stroke-dashoffset="0px" stroke-dasharray="1px 1px"></ellipse>
  <ellipse cx="22" cy="21.5" rx="22" ry="21.5" transform="matrix(-1 0 0 1 395 137)" fill="white" pathLength="1"
    stroke-dashoffset="0px" stroke-dasharray="1px 1px"></ellipse>
  <path d="M332 90L290 160" stroke="white" stroke-width="3" pathLength="1" stroke-dashoffset="0px"
    stroke-dasharray="1px 1px"></path>
  <path d="M330 88L377 164" stroke="white" stroke-width="3" pathLength="1" stroke-dashoffset="0px"
    stroke-dasharray="1px 1px"></path>
  <path
    d="M56.5449 41.4336H55.4609C55.4258 41.6914 55.3652 41.9316 55.2793 42.1543C55.1934 42.373 55.0781 42.5625 54.9336 42.7227C54.7891 42.8867 54.6113 43.0137 54.4004 43.1035C54.1934 43.1934 53.9473 43.2383 53.6621 43.2383C53.4004 43.2383 53.1719 43.1973 52.9766 43.1152C52.7812 43.0293 52.6113 42.9121 52.4668 42.7637C52.3223 42.6191 52.2031 42.4512 52.1094 42.2598C52.0156 42.0684 51.9395 41.8633 51.8809 41.6445C51.8223 41.4297 51.7793 41.2109 51.752 40.9883C51.7285 40.7617 51.7168 40.543 51.7168 40.332V39.1309C51.7168 38.9199 51.7285 38.7031 51.752 38.4805C51.7793 38.2539 51.8223 38.0332 51.8809 37.8184C51.9395 37.6035 52.0156 37.4004 52.1094 37.209C52.207 37.0176 52.3281 36.8496 52.4727 36.7051C52.6133 36.5605 52.7812 36.4473 52.9766 36.3652C53.1758 36.2793 53.4043 36.2363 53.6621 36.2363C53.9473 36.2363 54.1934 36.2852 54.4004 36.3828C54.6113 36.4766 54.7891 36.6074 54.9336 36.7754C55.0781 36.9434 55.1934 37.1387 55.2793 37.3613C55.3652 37.584 55.4258 37.8242 55.4609 38.082H56.5449C56.498 37.6758 56.4004 37.3047 56.252 36.9688C56.1074 36.6328 55.9141 36.3438 55.6719 36.1016C55.4297 35.8633 55.1406 35.6797 54.8047 35.5508C54.4688 35.418 54.0879 35.3516 53.6621 35.3516C53.3066 35.3516 52.9863 35.4023 52.7012 35.5039C52.416 35.6016 52.1621 35.7383 51.9395 35.9141C51.7129 36.0898 51.5176 36.2988 51.3535 36.541C51.1934 36.7793 51.0605 37.0391 50.9551 37.3203C50.8457 37.6016 50.7637 37.8965 50.709 38.2051C50.6582 38.5137 50.6309 38.8262 50.627 39.1426V40.332C50.6309 40.6484 50.6582 40.9609 50.709 41.2695C50.7637 41.5781 50.8457 41.873 50.9551 42.1543C51.0605 42.4355 51.1934 42.6953 51.3535 42.9336C51.5176 43.1719 51.7129 43.3789 51.9395 43.5547C52.1621 43.7305 52.416 43.8691 52.7012 43.9707C52.9902 44.0684 53.3105 44.1172 53.6621 44.1172C54.0723 44.1172 54.4434 44.0527 54.7754 43.9238C55.1113 43.791 55.4023 43.6055 55.6484 43.3672C55.8906 43.1328 56.0879 42.8516 56.2402 42.5234C56.3926 42.1914 56.4941 41.8281 56.5449 41.4336ZM62.4043 44H63.3887V37.6602H62.2988V42.207C62.2402 42.3438 62.166 42.4707 62.0762 42.5879C61.9902 42.7012 61.8887 42.7988 61.7715 42.8809C61.6309 42.9824 61.4648 43.0625 61.2734 43.1211C61.082 43.1758 60.8652 43.2031 60.623 43.2031C60.416 43.2031 60.2324 43.1758 60.0723 43.1211C59.916 43.0664 59.7832 42.9707 59.6738 42.834C59.5645 42.7012 59.4824 42.5215 59.4277 42.2949C59.373 42.0684 59.3457 41.7832 59.3457 41.4395V37.6602H58.2617V41.4277C58.2617 41.9004 58.3125 42.3066 58.4141 42.6465C58.5195 42.9824 58.668 43.2598 58.8594 43.4785C59.0508 43.6973 59.2812 43.8594 59.5508 43.9648C59.8203 44.0664 60.1211 44.1172 60.4531 44.1172C60.8672 44.1172 61.2324 44.0312 61.5488 43.8594C61.8652 43.6836 62.1289 43.4395 62.3398 43.127L62.4043 44ZM69.5879 37.543C69.127 37.543 68.7148 37.6445 68.3516 37.8477C67.9922 38.0469 67.6836 38.3203 67.4258 38.668L67.4199 38.5098L67.373 37.6602H66.3418V44H67.4316V39.9336C67.502 39.7383 67.5898 39.5625 67.6953 39.4062C67.8047 39.2461 67.9316 39.1113 68.0762 39.002C68.2363 38.877 68.4238 38.7832 68.6387 38.7207C68.8535 38.6543 69.0938 38.6211 69.3594 38.6211C69.5664 38.6211 69.7637 38.6328 69.9512 38.6562C70.1426 38.6758 70.3438 38.709 70.5547 38.7559L70.7012 37.6953C70.5918 37.6484 70.4277 37.6113 70.209 37.584C69.9941 37.5566 69.7871 37.543 69.5879 37.543ZM76.7949 37.543C76.334 37.543 75.9219 37.6445 75.5586 37.8477C75.1992 38.0469 74.8906 38.3203 74.6328 38.668L74.627 38.5098L74.5801 37.6602H73.5488V44H74.6387V39.9336C74.709 39.7383 74.7969 39.5625 74.9023 39.4062C75.0117 39.2461 75.1387 39.1113 75.2832 39.002C75.4434 38.877 75.6309 38.7832 75.8457 38.7207C76.0605 38.6543 76.3008 38.6211 76.5664 38.6211C76.7734 38.6211 76.9707 38.6328 77.1582 38.6562C77.3496 38.6758 77.5508 38.709 77.7617 38.7559L77.9082 37.6953C77.7988 37.6484 77.6348 37.6113 77.416 37.584C77.2012 37.5566 76.9941 37.543 76.7949 37.543ZM82.6484 44.1172C83.2656 44.1172 83.7832 43.9941 84.2012 43.748C84.623 43.498 84.9395 43.2129 85.1504 42.8926L84.4883 42.377C84.2891 42.6348 84.0391 42.8418 83.7383 42.998C83.4375 43.1543 83.0938 43.2324 82.707 43.2324C82.4141 43.2324 82.1465 43.1777 81.9043 43.0684C81.6621 42.959 81.4551 42.8086 81.2832 42.6172C81.1152 42.4375 80.9824 42.2305 80.8848 41.9961C80.791 41.7617 80.7305 41.4902 80.7031 41.1816V41.1406H85.2324V40.6543C85.2324 40.2129 85.1758 39.8027 85.0625 39.4238C84.9531 39.0449 84.7852 38.7148 84.5586 38.4336C84.332 38.1562 84.0469 37.9395 83.7031 37.7832C83.3633 37.623 82.9648 37.543 82.5078 37.543C82.1445 37.543 81.7891 37.6172 81.4414 37.7656C81.0977 37.9141 80.791 38.127 80.5215 38.4043C80.248 38.6855 80.0293 39.0293 79.8652 39.4355C79.7012 39.8379 79.6191 40.2949 79.6191 40.8066V41.0527C79.6191 41.4941 79.6934 41.9023 79.8418 42.2773C79.9902 42.6523 80.1973 42.9766 80.4629 43.25C80.7285 43.5234 81.0469 43.7363 81.418 43.8887C81.793 44.041 82.2031 44.1172 82.6484 44.1172ZM82.5078 38.4336C82.7852 38.4336 83.0234 38.4844 83.2227 38.5859C83.4258 38.6875 83.5938 38.8203 83.7266 38.9844C83.8594 39.1484 83.9629 39.3438 84.0371 39.5703C84.1113 39.793 84.1484 40.002 84.1484 40.1973V40.25H80.7383C80.7812 39.957 80.8555 39.6992 80.9609 39.4766C81.0703 39.25 81.2031 39.0586 81.3594 38.9023C81.5156 38.75 81.6914 38.6348 81.8867 38.5566C82.082 38.4746 82.2891 38.4336 82.5078 38.4336ZM87.0547 44H88.1387V39.4531C88.2129 39.3164 88.2988 39.1914 88.3965 39.0781C88.498 38.9648 88.6074 38.8652 88.7246 38.7793C88.8691 38.6816 89.0273 38.6055 89.1992 38.5508C89.3711 38.4922 89.5566 38.4629 89.7559 38.4629C89.9863 38.4629 90.1895 38.4902 90.3652 38.5449C90.5449 38.5996 90.6973 38.6875 90.8223 38.8086C90.9434 38.9297 91.0352 39.0879 91.0977 39.2832C91.1602 39.4785 91.1914 39.7168 91.1914 39.998V44H92.2754V39.9746C92.2754 39.5527 92.2227 39.1895 92.1172 38.8848C92.0156 38.5762 91.8691 38.3223 91.6777 38.123C91.4863 37.9238 91.2539 37.7773 90.9805 37.6836C90.7109 37.5898 90.4102 37.543 90.0781 37.543C89.832 37.5469 89.5977 37.584 89.375 37.6543C89.1562 37.7207 88.9531 37.8164 88.7656 37.9414C88.6406 38.0234 88.5215 38.1211 88.4082 38.2344C88.2988 38.3438 88.1973 38.4648 88.1035 38.5977L88.0273 37.6602H87.0547V44ZM96.8281 36.125H95.7383V37.6602H94.0742V38.498H95.7383V41.9434C95.7383 42.334 95.7891 42.668 95.8906 42.9453C95.9961 43.2188 96.1387 43.4414 96.3184 43.6133C96.498 43.7891 96.709 43.918 96.9512 44C97.1973 44.0781 97.4609 44.1172 97.7422 44.1172C97.9102 44.1172 98.0781 44.1094 98.2461 44.0938C98.418 44.0781 98.5801 44.0547 98.7324 44.0234C98.8848 43.9961 99.0254 43.9629 99.1543 43.9238C99.2832 43.8809 99.3926 43.832 99.4824 43.7773L99.3301 43.0098C99.2637 43.0254 99.1777 43.0449 99.0723 43.0684C98.9707 43.0879 98.8613 43.1074 98.7441 43.127C98.623 43.1465 98.5 43.1641 98.375 43.1797C98.25 43.1914 98.1289 43.1973 98.0117 43.1973C97.8516 43.1973 97.6992 43.1777 97.5547 43.1387C97.4141 43.0996 97.2891 43.0312 97.1797 42.9336C97.0703 42.8398 96.9844 42.7129 96.9219 42.5527C96.8594 42.3926 96.8281 42.1895 96.8281 41.9434V38.498H99.2422V37.6602H96.8281V36.125ZM110.838 44H111.664L114.248 37.6602H113.141L111.365 42.4414L111.26 42.834L111.16 42.4414L109.344 37.6602H108.23L110.838 44ZM116.053 37.6602V38.6035H118.209V43.0625H116.053V44H121.361V43.0625H119.293V37.6602H116.053ZM118.068 35.9961C118.068 36.1719 118.121 36.3184 118.227 36.4355C118.336 36.5527 118.5 36.6113 118.719 36.6113C118.934 36.6113 119.096 36.5527 119.205 36.4355C119.314 36.3184 119.369 36.1719 119.369 35.9961C119.369 35.8984 119.354 35.8086 119.322 35.7266C119.291 35.6445 119.244 35.5762 119.182 35.5215C119.131 35.4707 119.066 35.4316 118.988 35.4043C118.91 35.373 118.82 35.3574 118.719 35.3574C118.617 35.3574 118.525 35.373 118.443 35.4043C118.365 35.4316 118.301 35.4707 118.25 35.5215C118.188 35.5801 118.141 35.6504 118.109 35.7324C118.082 35.8145 118.068 35.9023 118.068 35.9961ZM127.244 37.543C126.783 37.543 126.371 37.6445 126.008 37.8477C125.648 38.0469 125.34 38.3203 125.082 38.668L125.076 38.5098L125.029 37.6602H123.998V44H125.088V39.9336C125.158 39.7383 125.246 39.5625 125.352 39.4062C125.461 39.2461 125.588 39.1113 125.732 39.002C125.893 38.877 126.08 38.7832 126.295 38.7207C126.51 38.6543 126.75 38.6211 127.016 38.6211C127.223 38.6211 127.42 38.6328 127.607 38.6562C127.799 38.6758 128 38.709 128.211 38.7559L128.357 37.6953C128.248 37.6484 128.084 37.6113 127.865 37.584C127.65 37.5566 127.443 37.543 127.244 37.543ZM132.863 36.125H131.773V37.6602H130.109V38.498H131.773V41.9434C131.773 42.334 131.824 42.668 131.926 42.9453C132.031 43.2188 132.174 43.4414 132.354 43.6133C132.533 43.7891 132.744 43.918 132.986 44C133.232 44.0781 133.496 44.1172 133.777 44.1172C133.945 44.1172 134.113 44.1094 134.281 44.0938C134.453 44.0781 134.615 44.0547 134.768 44.0234C134.92 43.9961 135.061 43.9629 135.189 43.9238C135.318 43.8809 135.428 43.832 135.518 43.7773L135.365 43.0098C135.299 43.0254 135.213 43.0449 135.107 43.0684C135.006 43.0879 134.896 43.1074 134.779 43.127C134.658 43.1465 134.535 43.1641 134.41 43.1797C134.285 43.1914 134.164 43.1973 134.047 43.1973C133.887 43.1973 133.734 43.1777 133.59 43.1387C133.449 43.0996 133.324 43.0312 133.215 42.9336C133.105 42.8398 133.02 42.7129 132.957 42.5527C132.895 42.3926 132.863 42.1895 132.863 41.9434V38.498H135.277V37.6602H132.863V36.125ZM141.682 44H142.666V37.6602H141.576V42.207C141.518 42.3438 141.443 42.4707 141.354 42.5879C141.268 42.7012 141.166 42.7988 141.049 42.8809C140.908 42.9824 140.742 43.0625 140.551 43.1211C140.359 43.1758 140.143 43.2031 139.9 43.2031C139.693 43.2031 139.51 43.1758 139.35 43.1211C139.193 43.0664 139.061 42.9707 138.951 42.834C138.842 42.7012 138.76 42.5215 138.705 42.2949C138.65 42.0684 138.623 41.7832 138.623 41.4395V37.6602H137.539V41.4277C137.539 41.9004 137.59 42.3066 137.691 42.6465C137.797 42.9824 137.945 43.2598 138.137 43.4785C138.328 43.6973 138.559 43.8594 138.828 43.9648C139.098 44.0664 139.398 44.1172 139.73 44.1172C140.145 44.1172 140.51 44.0312 140.826 43.8594C141.143 43.6836 141.406 43.4395 141.617 43.127L141.682 44ZM148.877 44H150.008V43.9062C149.938 43.7305 149.883 43.5254 149.844 43.291C149.805 43.0527 149.785 42.8281 149.785 42.6172V39.6699C149.785 39.3145 149.721 39.0039 149.592 38.7383C149.463 38.4727 149.287 38.25 149.064 38.0703C148.838 37.8945 148.57 37.7637 148.262 37.6777C147.953 37.5879 147.619 37.543 147.26 37.543C146.865 37.543 146.512 37.5977 146.199 37.707C145.891 37.8164 145.629 37.959 145.414 38.1348C145.195 38.3145 145.027 38.5156 144.91 38.7383C144.797 38.9609 144.738 39.1875 144.734 39.418H145.824C145.824 39.2852 145.855 39.1582 145.918 39.0371C145.984 38.9121 146.076 38.8047 146.193 38.7148C146.311 38.625 146.453 38.5527 146.621 38.498C146.793 38.4434 146.986 38.416 147.201 38.416C147.432 38.416 147.639 38.4453 147.822 38.5039C148.01 38.5625 148.168 38.6445 148.297 38.75C148.426 38.8594 148.525 38.9902 148.596 39.1426C148.666 39.2949 148.701 39.4668 148.701 39.6582V40.1562H147.518C147.076 40.1562 146.676 40.1992 146.316 40.2852C145.961 40.3711 145.656 40.5 145.402 40.6719C145.148 40.8477 144.951 41.0664 144.811 41.3281C144.674 41.5898 144.605 41.8945 144.605 42.2422C144.605 42.5078 144.656 42.7559 144.758 42.9863C144.863 43.2129 145.012 43.4082 145.203 43.5723C145.391 43.7402 145.619 43.873 145.889 43.9707C146.162 44.0684 146.467 44.1172 146.803 44.1172C147.01 44.1172 147.205 44.0957 147.389 44.0527C147.572 44.0098 147.746 43.9512 147.91 43.877C148.07 43.8027 148.217 43.7168 148.35 43.6191C148.486 43.5215 148.609 43.418 148.719 43.3086C148.73 43.4414 148.748 43.5703 148.771 43.6953C148.799 43.8164 148.834 43.918 148.877 44ZM146.961 43.1738C146.75 43.1738 146.564 43.1465 146.404 43.0918C146.244 43.0371 146.111 42.9609 146.006 42.8633C145.9 42.7695 145.82 42.6562 145.766 42.5234C145.715 42.3906 145.689 42.2461 145.689 42.0898C145.689 41.9258 145.719 41.7793 145.777 41.6504C145.84 41.5215 145.93 41.4102 146.047 41.3164C146.211 41.1836 146.432 41.0859 146.709 41.0234C146.99 40.957 147.318 40.9238 147.693 40.9238H148.701V42.207C148.639 42.332 148.553 42.4531 148.443 42.5703C148.334 42.6836 148.205 42.7852 148.057 42.875C147.904 42.9648 147.736 43.0371 147.553 43.0918C147.369 43.1465 147.172 43.1738 146.961 43.1738ZM152.088 35V35.9434H154.244V43.0625H152.088V44H157.396V43.0625H155.328V35H152.088ZM166.221 44H168.195C168.605 43.9961 168.986 43.9473 169.338 43.8535C169.693 43.7598 170.012 43.625 170.293 43.4492C170.559 43.2812 170.799 43.0781 171.014 42.8398C171.229 42.6016 171.406 42.3359 171.547 42.043C171.684 41.7617 171.787 41.4531 171.857 41.1172C171.932 40.7812 171.969 40.4258 171.969 40.0508V39.4238C171.965 39.0332 171.924 38.666 171.846 38.3223C171.771 37.9785 171.662 37.6621 171.518 37.373C171.357 37.0332 171.143 36.7344 170.873 36.4766C170.607 36.2148 170.301 36.0039 169.953 35.8438C169.703 35.7266 169.43 35.6367 169.133 35.5742C168.84 35.5078 168.527 35.4727 168.195 35.4688H166.221V44ZM167.322 36.3594H168.195C168.465 36.3633 168.713 36.3945 168.939 36.4531C169.166 36.5078 169.371 36.5859 169.555 36.6875C169.812 36.8242 170.029 37.0039 170.205 37.2266C170.385 37.4453 170.527 37.6914 170.633 37.9648C170.715 38.1758 170.775 38.4043 170.814 38.6504C170.857 38.8926 170.881 39.1465 170.885 39.4121V40.0508C170.881 40.3125 170.859 40.5645 170.82 40.8066C170.781 41.0449 170.723 41.2676 170.645 41.4746C170.555 41.7285 170.432 41.959 170.275 42.166C170.123 42.3691 169.941 42.541 169.73 42.6816C169.531 42.8184 169.303 42.9238 169.045 42.998C168.791 43.0723 168.508 43.1113 168.195 43.1152H167.322V36.3594ZM179.088 40.2266V39.2539C179.084 38.9492 179.057 38.6406 179.006 38.3281C178.959 38.0156 178.885 37.7148 178.783 37.4258C178.678 37.1367 178.545 36.8672 178.385 36.6172C178.229 36.3633 178.041 36.1426 177.822 35.9551C177.604 35.7676 177.352 35.6211 177.066 35.5156C176.781 35.4062 176.463 35.3516 176.111 35.3516C175.76 35.3516 175.441 35.4062 175.156 35.5156C174.875 35.6211 174.625 35.7676 174.406 35.9551C174.188 36.1465 173.998 36.3691 173.838 36.623C173.682 36.873 173.553 37.1426 173.451 37.4316C173.346 37.7207 173.268 38.0215 173.217 38.334C173.17 38.6426 173.145 38.9492 173.141 39.2539V40.2266C173.145 40.5312 173.172 40.8379 173.223 41.1465C173.273 41.4551 173.352 41.7539 173.457 42.043C173.559 42.332 173.689 42.6035 173.85 42.8574C174.01 43.1074 174.199 43.3262 174.418 43.5137C174.637 43.7012 174.887 43.8496 175.168 43.959C175.453 44.0645 175.771 44.1172 176.123 44.1172C176.475 44.1172 176.791 44.0645 177.072 43.959C177.357 43.8496 177.609 43.7012 177.828 43.5137C178.047 43.3262 178.234 43.1074 178.391 42.8574C178.551 42.6074 178.682 42.3379 178.783 42.0488C178.885 41.7598 178.959 41.4609 179.006 41.1523C179.057 40.8398 179.084 40.5312 179.088 40.2266ZM178.016 39.2422V40.2266C178.012 40.4297 177.998 40.6426 177.975 40.8652C177.955 41.0879 177.918 41.3066 177.863 41.5215C177.805 41.7402 177.729 41.9492 177.635 42.1484C177.545 42.3438 177.432 42.5156 177.295 42.6641C177.154 42.8164 176.986 42.9375 176.791 43.0273C176.6 43.1172 176.377 43.1621 176.123 43.1621C175.869 43.1621 175.646 43.1172 175.455 43.0273C175.264 42.9375 175.098 42.8164 174.957 42.6641C174.816 42.5156 174.699 42.3418 174.605 42.1426C174.512 41.9434 174.436 41.7344 174.377 41.5156C174.318 41.3008 174.275 41.082 174.248 40.8594C174.225 40.6367 174.211 40.4258 174.207 40.2266V39.2422C174.211 39.043 174.225 38.834 174.248 38.6152C174.275 38.3926 174.318 38.1719 174.377 37.9531C174.432 37.7383 174.506 37.5332 174.6 37.3379C174.693 37.1387 174.811 36.9629 174.951 36.8105C175.092 36.6621 175.258 36.543 175.449 36.4531C175.641 36.3633 175.861 36.3184 176.111 36.3184C176.365 36.3184 176.588 36.3633 176.779 36.4531C176.971 36.5391 177.137 36.6562 177.277 36.8047C177.418 36.957 177.535 37.1328 177.629 37.332C177.723 37.5273 177.799 37.7324 177.857 37.9473C177.912 38.166 177.951 38.3867 177.975 38.6094C177.998 38.8281 178.012 39.0391 178.016 39.2422ZM181.936 35.4688H180.594V44H181.648V40.5957L181.561 37.1562L183.008 41.627H183.629L185.205 37.0332L185.117 40.5957V44H186.172V35.4688H184.824L183.324 39.7344L181.936 35.4688Z"
    fill="#FF0000" pathLength="1" stroke-dashoffset="0px" stroke-dasharray="1px 1px"></path>
  <path d="M50 45.1719H186.928V45.7578H50V45.1719Z" fill="#FF0000" pathLength="1" stroke-dashoffset="0px"
    stroke-dasharray="1px 1px"></path>
  <path
    d="M283.363 44V35.4688H282.268L282.25 41.832L278.939 35.4688H277.838V44H278.934L278.951 37.625L282.262 44H283.363ZM288.027 44.1172C288.645 44.1172 289.162 43.9941 289.58 43.748C290.002 43.498 290.318 43.2129 290.529 42.8926L289.867 42.377C289.668 42.6348 289.418 42.8418 289.117 42.998C288.816 43.1543 288.473 43.2324 288.086 43.2324C287.793 43.2324 287.525 43.1777 287.283 43.0684C287.041 42.959 286.834 42.8086 286.662 42.6172C286.494 42.4375 286.361 42.2305 286.264 41.9961C286.17 41.7617 286.109 41.4902 286.082 41.1816V41.1406H290.611V40.6543C290.611 40.2129 290.555 39.8027 290.441 39.4238C290.332 39.0449 290.164 38.7148 289.938 38.4336C289.711 38.1562 289.426 37.9395 289.082 37.7832C288.742 37.623 288.344 37.543 287.887 37.543C287.523 37.543 287.168 37.6172 286.82 37.7656C286.477 37.9141 286.17 38.127 285.9 38.4043C285.627 38.6855 285.408 39.0293 285.244 39.4355C285.08 39.8379 284.998 40.2949 284.998 40.8066V41.0527C284.998 41.4941 285.072 41.9023 285.221 42.2773C285.369 42.6523 285.576 42.9766 285.842 43.25C286.107 43.5234 286.426 43.7363 286.797 43.8887C287.172 44.041 287.582 44.1172 288.027 44.1172ZM287.887 38.4336C288.164 38.4336 288.402 38.4844 288.602 38.5859C288.805 38.6875 288.973 38.8203 289.105 38.9844C289.238 39.1484 289.342 39.3438 289.416 39.5703C289.49 39.793 289.527 40.002 289.527 40.1973V40.25H286.117C286.16 39.957 286.234 39.6992 286.34 39.4766C286.449 39.25 286.582 39.0586 286.738 38.9023C286.895 38.75 287.07 38.6348 287.266 38.5566C287.461 38.4746 287.668 38.4336 287.887 38.4336ZM293.043 44H293.898L294.877 40.1152L295.035 39.1309L295.199 40.1152L296.189 44H297.045L298.393 37.6602H297.432L296.729 41.7031L296.57 42.6992L296.4 41.7031L295.393 37.6602H294.695L293.682 41.7031L293.523 42.6113L293.395 41.7031L292.656 37.6602H291.695L293.043 44ZM309.01 44H309.836L312.42 37.6602H311.312L309.537 42.4414L309.432 42.834L309.332 42.4414L307.516 37.6602H306.402L309.01 44ZM314.225 37.6602V38.6035H316.381V43.0625H314.225V44H319.533V43.0625H317.465V37.6602H314.225ZM316.24 35.9961C316.24 36.1719 316.293 36.3184 316.398 36.4355C316.508 36.5527 316.672 36.6113 316.891 36.6113C317.105 36.6113 317.268 36.5527 317.377 36.4355C317.486 36.3184 317.541 36.1719 317.541 35.9961C317.541 35.8984 317.525 35.8086 317.494 35.7266C317.463 35.6445 317.416 35.5762 317.354 35.5215C317.303 35.4707 317.238 35.4316 317.16 35.4043C317.082 35.373 316.992 35.3574 316.891 35.3574C316.789 35.3574 316.697 35.373 316.615 35.4043C316.537 35.4316 316.473 35.4707 316.422 35.5215C316.359 35.5801 316.312 35.6504 316.281 35.7324C316.254 35.8145 316.24 35.9023 316.24 35.9961ZM325.416 37.543C324.955 37.543 324.543 37.6445 324.18 37.8477C323.82 38.0469 323.512 38.3203 323.254 38.668L323.248 38.5098L323.201 37.6602H322.17V44H323.26V39.9336C323.33 39.7383 323.418 39.5625 323.523 39.4062C323.633 39.2461 323.76 39.1113 323.904 39.002C324.064 38.877 324.252 38.7832 324.467 38.7207C324.682 38.6543 324.922 38.6211 325.188 38.6211C325.395 38.6211 325.592 38.6328 325.779 38.6562C325.971 38.6758 326.172 38.709 326.383 38.7559L326.529 37.6953C326.42 37.6484 326.256 37.6113 326.037 37.584C325.822 37.5566 325.615 37.543 325.416 37.543ZM331.035 36.125H329.945V37.6602H328.281V38.498H329.945V41.9434C329.945 42.334 329.996 42.668 330.098 42.9453C330.203 43.2188 330.346 43.4414 330.525 43.6133C330.705 43.7891 330.916 43.918 331.158 44C331.404 44.0781 331.668 44.1172 331.949 44.1172C332.117 44.1172 332.285 44.1094 332.453 44.0938C332.625 44.0781 332.787 44.0547 332.939 44.0234C333.092 43.9961 333.232 43.9629 333.361 43.9238C333.49 43.8809 333.6 43.832 333.689 43.7773L333.537 43.0098C333.471 43.0254 333.385 43.0449 333.279 43.0684C333.178 43.0879 333.068 43.1074 332.951 43.127C332.83 43.1465 332.707 43.1641 332.582 43.1797C332.457 43.1914 332.336 43.1973 332.219 43.1973C332.059 43.1973 331.906 43.1777 331.762 43.1387C331.621 43.0996 331.496 43.0312 331.387 42.9336C331.277 42.8398 331.191 42.7129 331.129 42.5527C331.066 42.3926 331.035 42.1895 331.035 41.9434V38.498H333.449V37.6602H331.035V36.125ZM339.854 44H340.838V37.6602H339.748V42.207C339.689 42.3438 339.615 42.4707 339.525 42.5879C339.439 42.7012 339.338 42.7988 339.221 42.8809C339.08 42.9824 338.914 43.0625 338.723 43.1211C338.531 43.1758 338.314 43.2031 338.072 43.2031C337.865 43.2031 337.682 43.1758 337.521 43.1211C337.365 43.0664 337.232 42.9707 337.123 42.834C337.014 42.7012 336.932 42.5215 336.877 42.2949C336.822 42.0684 336.795 41.7832 336.795 41.4395V37.6602H335.711V41.4277C335.711 41.9004 335.762 42.3066 335.863 42.6465C335.969 42.9824 336.117 43.2598 336.309 43.4785C336.5 43.6973 336.73 43.8594 337 43.9648C337.27 44.0664 337.57 44.1172 337.902 44.1172C338.316 44.1172 338.682 44.0312 338.998 43.8594C339.314 43.6836 339.578 43.4395 339.789 43.127L339.854 44ZM347.049 44H348.18V43.9062C348.109 43.7305 348.055 43.5254 348.016 43.291C347.977 43.0527 347.957 42.8281 347.957 42.6172V39.6699C347.957 39.3145 347.893 39.0039 347.764 38.7383C347.635 38.4727 347.459 38.25 347.236 38.0703C347.01 37.8945 346.742 37.7637 346.434 37.6777C346.125 37.5879 345.791 37.543 345.432 37.543C345.037 37.543 344.684 37.5977 344.371 37.707C344.062 37.8164 343.801 37.959 343.586 38.1348C343.367 38.3145 343.199 38.5156 343.082 38.7383C342.969 38.9609 342.91 39.1875 342.906 39.418H343.996C343.996 39.2852 344.027 39.1582 344.09 39.0371C344.156 38.9121 344.248 38.8047 344.365 38.7148C344.482 38.625 344.625 38.5527 344.793 38.498C344.965 38.4434 345.158 38.416 345.373 38.416C345.604 38.416 345.811 38.4453 345.994 38.5039C346.182 38.5625 346.34 38.6445 346.469 38.75C346.598 38.8594 346.697 38.9902 346.768 39.1426C346.838 39.2949 346.873 39.4668 346.873 39.6582V40.1562H345.689C345.248 40.1562 344.848 40.1992 344.488 40.2852C344.133 40.3711 343.828 40.5 343.574 40.6719C343.32 40.8477 343.123 41.0664 342.982 41.3281C342.846 41.5898 342.777 41.8945 342.777 42.2422C342.777 42.5078 342.828 42.7559 342.93 42.9863C343.035 43.2129 343.184 43.4082 343.375 43.5723C343.562 43.7402 343.791 43.873 344.061 43.9707C344.334 44.0684 344.639 44.1172 344.975 44.1172C345.182 44.1172 345.377 44.0957 345.561 44.0527C345.744 44.0098 345.918 43.9512 346.082 43.877C346.242 43.8027 346.389 43.7168 346.521 43.6191C346.658 43.5215 346.781 43.418 346.891 43.3086C346.902 43.4414 346.92 43.5703 346.943 43.6953C346.971 43.8164 347.006 43.918 347.049 44ZM345.133 43.1738C344.922 43.1738 344.736 43.1465 344.576 43.0918C344.416 43.0371 344.283 42.9609 344.178 42.8633C344.072 42.7695 343.992 42.6562 343.938 42.5234C343.887 42.3906 343.861 42.2461 343.861 42.0898C343.861 41.9258 343.891 41.7793 343.949 41.6504C344.012 41.5215 344.102 41.4102 344.219 41.3164C344.383 41.1836 344.604 41.0859 344.881 41.0234C345.162 40.957 345.49 40.9238 345.865 40.9238H346.873V42.207C346.811 42.332 346.725 42.4531 346.615 42.5703C346.506 42.6836 346.377 42.7852 346.229 42.875C346.076 42.9648 345.908 43.0371 345.725 43.0918C345.541 43.1465 345.344 43.1738 345.133 43.1738ZM350.26 35V35.9434H352.416V43.0625H350.26V44H355.568V43.0625H353.5V35H350.26ZM364.393 44H366.367C366.777 43.9961 367.158 43.9473 367.51 43.8535C367.865 43.7598 368.184 43.625 368.465 43.4492C368.73 43.2812 368.971 43.0781 369.186 42.8398C369.4 42.6016 369.578 42.3359 369.719 42.043C369.855 41.7617 369.959 41.4531 370.029 41.1172C370.104 40.7812 370.141 40.4258 370.141 40.0508V39.4238C370.137 39.0332 370.096 38.666 370.018 38.3223C369.943 37.9785 369.834 37.6621 369.689 37.373C369.529 37.0332 369.314 36.7344 369.045 36.4766C368.779 36.2148 368.473 36.0039 368.125 35.8438C367.875 35.7266 367.602 35.6367 367.305 35.5742C367.012 35.5078 366.699 35.4727 366.367 35.4688H364.393V44ZM365.494 36.3594H366.367C366.637 36.3633 366.885 36.3945 367.111 36.4531C367.338 36.5078 367.543 36.5859 367.727 36.6875C367.984 36.8242 368.201 37.0039 368.377 37.2266C368.557 37.4453 368.699 37.6914 368.805 37.9648C368.887 38.1758 368.947 38.4043 368.986 38.6504C369.029 38.8926 369.053 39.1465 369.057 39.4121V40.0508C369.053 40.3125 369.031 40.5645 368.992 40.8066C368.953 41.0449 368.895 41.2676 368.816 41.4746C368.727 41.7285 368.604 41.959 368.447 42.166C368.295 42.3691 368.113 42.541 367.902 42.6816C367.703 42.8184 367.475 42.9238 367.217 42.998C366.963 43.0723 366.68 43.1113 366.367 43.1152H365.494V36.3594ZM377.26 40.2266V39.2539C377.256 38.9492 377.229 38.6406 377.178 38.3281C377.131 38.0156 377.057 37.7148 376.955 37.4258C376.85 37.1367 376.717 36.8672 376.557 36.6172C376.4 36.3633 376.213 36.1426 375.994 35.9551C375.775 35.7676 375.523 35.6211 375.238 35.5156C374.953 35.4062 374.635 35.3516 374.283 35.3516C373.932 35.3516 373.613 35.4062 373.328 35.5156C373.047 35.6211 372.797 35.7676 372.578 35.9551C372.359 36.1465 372.17 36.3691 372.01 36.623C371.854 36.873 371.725 37.1426 371.623 37.4316C371.518 37.7207 371.439 38.0215 371.389 38.334C371.342 38.6426 371.316 38.9492 371.312 39.2539V40.2266C371.316 40.5312 371.344 40.8379 371.395 41.1465C371.445 41.4551 371.523 41.7539 371.629 42.043C371.73 42.332 371.861 42.6035 372.021 42.8574C372.182 43.1074 372.371 43.3262 372.59 43.5137C372.809 43.7012 373.059 43.8496 373.34 43.959C373.625 44.0645 373.943 44.1172 374.295 44.1172C374.646 44.1172 374.963 44.0645 375.244 43.959C375.529 43.8496 375.781 43.7012 376 43.5137C376.219 43.3262 376.406 43.1074 376.562 42.8574C376.723 42.6074 376.854 42.3379 376.955 42.0488C377.057 41.7598 377.131 41.4609 377.178 41.1523C377.229 40.8398 377.256 40.5312 377.26 40.2266ZM376.188 39.2422V40.2266C376.184 40.4297 376.17 40.6426 376.146 40.8652C376.127 41.0879 376.09 41.3066 376.035 41.5215C375.977 41.7402 375.9 41.9492 375.807 42.1484C375.717 42.3438 375.604 42.5156 375.467 42.6641C375.326 42.8164 375.158 42.9375 374.963 43.0273C374.771 43.1172 374.549 43.1621 374.295 43.1621C374.041 43.1621 373.818 43.1172 373.627 43.0273C373.436 42.9375 373.27 42.8164 373.129 42.6641C372.988 42.5156 372.871 42.3418 372.777 42.1426C372.684 41.9434 372.607 41.7344 372.549 41.5156C372.49 41.3008 372.447 41.082 372.42 40.8594C372.396 40.6367 372.383 40.4258 372.379 40.2266V39.2422C372.383 39.043 372.396 38.834 372.42 38.6152C372.447 38.3926 372.49 38.1719 372.549 37.9531C372.604 37.7383 372.678 37.5332 372.771 37.3379C372.865 37.1387 372.982 36.9629 373.123 36.8105C373.264 36.6621 373.43 36.543 373.621 36.4531C373.812 36.3633 374.033 36.3184 374.283 36.3184C374.537 36.3184 374.76 36.3633 374.951 36.4531C375.143 36.5391 375.309 36.6562 375.449 36.8047C375.59 36.957 375.707 37.1328 375.801 37.332C375.895 37.5273 375.971 37.7324 376.029 37.9473C376.084 38.166 376.123 38.3867 376.146 38.6094C376.17 38.8281 376.184 39.0391 376.188 39.2422ZM380.107 35.4688H378.766V44H379.82V40.5957L379.732 37.1562L381.18 41.627H381.801L383.377 37.0332L383.289 40.5957V44H384.344V35.4688H382.996L381.496 39.7344L380.107 35.4688Z"
    fill="#10D310" pathLength="1" stroke-dashoffset="0px" stroke-dasharray="1px 1px"></path>
  <path d="M277 45.1719H385.1V45.7578H277V45.1719Z" fill="#10D310" pathLength="1" stroke-dashoffset="0px"
    stroke-dasharray="1px 1px"></path>
  <path
    d="M460.545 41.4336H459.461C459.426 41.6914 459.365 41.9316 459.279 42.1543C459.193 42.373 459.078 42.5625 458.934 42.7227C458.789 42.8867 458.611 43.0137 458.4 43.1035C458.193 43.1934 457.947 43.2383 457.662 43.2383C457.4 43.2383 457.172 43.1973 456.977 43.1152C456.781 43.0293 456.611 42.9121 456.467 42.7637C456.322 42.6191 456.203 42.4512 456.109 42.2598C456.016 42.0684 455.939 41.8633 455.881 41.6445C455.822 41.4297 455.779 41.2109 455.752 40.9883C455.729 40.7617 455.717 40.543 455.717 40.332V39.1309C455.717 38.9199 455.729 38.7031 455.752 38.4805C455.779 38.2539 455.822 38.0332 455.881 37.8184C455.939 37.6035 456.016 37.4004 456.109 37.209C456.207 37.0176 456.328 36.8496 456.473 36.7051C456.613 36.5605 456.781 36.4473 456.977 36.3652C457.176 36.2793 457.404 36.2363 457.662 36.2363C457.947 36.2363 458.193 36.2852 458.4 36.3828C458.611 36.4766 458.789 36.6074 458.934 36.7754C459.078 36.9434 459.193 37.1387 459.279 37.3613C459.365 37.584 459.426 37.8242 459.461 38.082H460.545C460.498 37.6758 460.4 37.3047 460.252 36.9688C460.107 36.6328 459.914 36.3438 459.672 36.1016C459.43 35.8633 459.141 35.6797 458.805 35.5508C458.469 35.418 458.088 35.3516 457.662 35.3516C457.307 35.3516 456.986 35.4023 456.701 35.5039C456.416 35.6016 456.162 35.7383 455.939 35.9141C455.713 36.0898 455.518 36.2988 455.354 36.541C455.193 36.7793 455.061 37.0391 454.955 37.3203C454.846 37.6016 454.764 37.8965 454.709 38.2051C454.658 38.5137 454.631 38.8262 454.627 39.1426V40.332C454.631 40.6484 454.658 40.9609 454.709 41.2695C454.764 41.5781 454.846 41.873 454.955 42.1543C455.061 42.4355 455.193 42.6953 455.354 42.9336C455.518 43.1719 455.713 43.3789 455.939 43.5547C456.162 43.7305 456.416 43.8691 456.701 43.9707C456.99 44.0684 457.311 44.1172 457.662 44.1172C458.072 44.1172 458.443 44.0527 458.775 43.9238C459.111 43.791 459.402 43.6055 459.648 43.3672C459.891 43.1328 460.088 42.8516 460.24 42.5234C460.393 42.1914 460.494 41.8281 460.545 41.4336ZM463.311 38.6035V35H462.227V44H463.311V39.3945C463.389 39.2695 463.477 39.1562 463.574 39.0547C463.676 38.9492 463.785 38.8574 463.902 38.7793C464.051 38.6777 464.213 38.5996 464.389 38.5449C464.564 38.4902 464.75 38.4629 464.945 38.4629C465.184 38.459 465.395 38.4922 465.578 38.5625C465.762 38.6289 465.914 38.7305 466.035 38.8672C466.148 38.9922 466.234 39.1504 466.293 39.3418C466.352 39.5293 466.381 39.748 466.381 39.998V44H467.465V40.0098C467.465 39.584 467.412 39.2168 467.307 38.9082C467.205 38.5957 467.059 38.3379 466.867 38.1348C466.676 37.9316 466.443 37.7832 466.17 37.6895C465.9 37.5918 465.6 37.543 465.268 37.543C465.014 37.5469 464.773 37.584 464.547 37.6543C464.324 37.7246 464.119 37.8281 463.932 37.9648C463.814 38.0469 463.703 38.1426 463.598 38.252C463.492 38.3574 463.396 38.4746 463.311 38.6035ZM473.6 44H474.73V43.9062C474.66 43.7305 474.605 43.5254 474.566 43.291C474.527 43.0527 474.508 42.8281 474.508 42.6172V39.6699C474.508 39.3145 474.443 39.0039 474.314 38.7383C474.186 38.4727 474.01 38.25 473.787 38.0703C473.561 37.8945 473.293 37.7637 472.984 37.6777C472.676 37.5879 472.342 37.543 471.982 37.543C471.588 37.543 471.234 37.5977 470.922 37.707C470.613 37.8164 470.352 37.959 470.137 38.1348C469.918 38.3145 469.75 38.5156 469.633 38.7383C469.52 38.9609 469.461 39.1875 469.457 39.418H470.547C470.547 39.2852 470.578 39.1582 470.641 39.0371C470.707 38.9121 470.799 38.8047 470.916 38.7148C471.033 38.625 471.176 38.5527 471.344 38.498C471.516 38.4434 471.709 38.416 471.924 38.416C472.154 38.416 472.361 38.4453 472.545 38.5039C472.732 38.5625 472.891 38.6445 473.02 38.75C473.148 38.8594 473.248 38.9902 473.318 39.1426C473.389 39.2949 473.424 39.4668 473.424 39.6582V40.1562H472.24C471.799 40.1562 471.398 40.1992 471.039 40.2852C470.684 40.3711 470.379 40.5 470.125 40.6719C469.871 40.8477 469.674 41.0664 469.533 41.3281C469.396 41.5898 469.328 41.8945 469.328 42.2422C469.328 42.5078 469.379 42.7559 469.48 42.9863C469.586 43.2129 469.734 43.4082 469.926 43.5723C470.113 43.7402 470.342 43.873 470.611 43.9707C470.885 44.0684 471.189 44.1172 471.525 44.1172C471.732 44.1172 471.928 44.0957 472.111 44.0527C472.295 44.0098 472.469 43.9512 472.633 43.877C472.793 43.8027 472.939 43.7168 473.072 43.6191C473.209 43.5215 473.332 43.418 473.441 43.3086C473.453 43.4414 473.471 43.5703 473.494 43.6953C473.521 43.8164 473.557 43.918 473.6 44ZM471.684 43.1738C471.473 43.1738 471.287 43.1465 471.127 43.0918C470.967 43.0371 470.834 42.9609 470.729 42.8633C470.623 42.7695 470.543 42.6562 470.488 42.5234C470.438 42.3906 470.412 42.2461 470.412 42.0898C470.412 41.9258 470.441 41.7793 470.5 41.6504C470.562 41.5215 470.652 41.4102 470.77 41.3164C470.934 41.1836 471.154 41.0859 471.432 41.0234C471.713 40.957 472.041 40.9238 472.416 40.9238H473.424V42.207C473.361 42.332 473.275 42.4531 473.166 42.5703C473.057 42.6836 472.928 42.7852 472.779 42.875C472.627 42.9648 472.459 43.0371 472.275 43.0918C472.092 43.1465 471.895 43.1738 471.684 43.1738ZM476.641 44H477.725V39.4531C477.799 39.3164 477.885 39.1914 477.982 39.0781C478.084 38.9648 478.193 38.8652 478.311 38.7793C478.455 38.6816 478.613 38.6055 478.785 38.5508C478.957 38.4922 479.143 38.4629 479.342 38.4629C479.572 38.4629 479.775 38.4902 479.951 38.5449C480.131 38.5996 480.283 38.6875 480.408 38.8086C480.529 38.9297 480.621 39.0879 480.684 39.2832C480.746 39.4785 480.777 39.7168 480.777 39.998V44H481.861V39.9746C481.861 39.5527 481.809 39.1895 481.703 38.8848C481.602 38.5762 481.455 38.3223 481.264 38.123C481.072 37.9238 480.84 37.7773 480.566 37.6836C480.297 37.5898 479.996 37.543 479.664 37.543C479.418 37.5469 479.184 37.584 478.961 37.6543C478.742 37.7207 478.539 37.8164 478.352 37.9414C478.227 38.0234 478.107 38.1211 477.994 38.2344C477.885 38.3438 477.783 38.4648 477.689 38.5977L477.613 37.6602H476.641V44ZM483.648 40.7773V40.9004C483.648 41.3535 483.707 41.7773 483.824 42.1719C483.941 42.5625 484.109 42.9023 484.328 43.1914C484.543 43.4805 484.807 43.707 485.119 43.8711C485.432 44.0352 485.781 44.1172 486.168 44.1172C486.398 44.1172 486.613 44.0918 486.812 44.041C487.012 43.9941 487.193 43.9258 487.357 43.8359C487.463 43.7773 487.561 43.709 487.65 43.6309C487.744 43.5527 487.832 43.4668 487.914 43.373V43.918C487.914 44.1914 487.875 44.4336 487.797 44.6445C487.719 44.8555 487.607 45.0312 487.463 45.1719C487.314 45.3164 487.137 45.4258 486.93 45.5C486.723 45.5742 486.49 45.6113 486.232 45.6113C486.088 45.6113 485.943 45.5957 485.799 45.5645C485.654 45.5371 485.51 45.4902 485.365 45.4238C485.221 45.3574 485.078 45.2676 484.938 45.1543C484.797 45.0449 484.66 44.9102 484.527 44.75L483.965 45.4004C484.109 45.6074 484.281 45.7812 484.48 45.9219C484.684 46.0625 484.895 46.1738 485.113 46.2559C485.328 46.3418 485.541 46.4023 485.752 46.4375C485.963 46.4766 486.15 46.4961 486.314 46.4961C486.713 46.4961 487.076 46.4375 487.404 46.3203C487.732 46.2031 488.016 46.0312 488.254 45.8047C488.488 45.5781 488.67 45.3027 488.799 44.9785C488.932 44.6543 488.998 44.2832 488.998 43.8652V37.6602H488.014L487.961 38.3516C487.887 38.2578 487.807 38.1719 487.721 38.0938C487.639 38.0156 487.551 37.9473 487.457 37.8887C487.285 37.7754 487.092 37.6895 486.877 37.6309C486.666 37.5723 486.434 37.543 486.18 37.543C485.785 37.543 485.432 37.623 485.119 37.7832C484.807 37.9434 484.541 38.166 484.322 38.4512C484.104 38.7363 483.936 39.0781 483.818 39.4766C483.705 39.8711 483.648 40.3047 483.648 40.7773ZM484.732 40.9004V40.7773C484.732 40.4688 484.764 40.1758 484.826 39.8984C484.893 39.6172 484.996 39.3691 485.137 39.1543C485.273 38.9434 485.449 38.7754 485.664 38.6504C485.883 38.5254 486.145 38.4629 486.449 38.4629C486.629 38.4629 486.793 38.4863 486.941 38.5332C487.09 38.5762 487.225 38.6367 487.346 38.7148C487.467 38.7969 487.574 38.8926 487.668 39.002C487.762 39.1113 487.844 39.2324 487.914 39.3652V42.2715C487.844 42.4082 487.762 42.5332 487.668 42.6465C487.574 42.7598 487.469 42.8574 487.352 42.9395C487.23 43.0215 487.094 43.0859 486.941 43.1328C486.793 43.1758 486.625 43.1973 486.438 43.1973C486.137 43.1973 485.879 43.1367 485.664 43.0156C485.449 42.8906 485.273 42.7227 485.137 42.5117C484.996 42.3008 484.893 42.0566 484.826 41.7793C484.764 41.502 484.732 41.209 484.732 40.9004ZM493.855 44.1172C494.473 44.1172 494.99 43.9941 495.408 43.748C495.83 43.498 496.146 43.2129 496.357 42.8926L495.695 42.377C495.496 42.6348 495.246 42.8418 494.945 42.998C494.645 43.1543 494.301 43.2324 493.914 43.2324C493.621 43.2324 493.354 43.1777 493.111 43.0684C492.869 42.959 492.662 42.8086 492.49 42.6172C492.322 42.4375 492.189 42.2305 492.092 41.9961C491.998 41.7617 491.938 41.4902 491.91 41.1816V41.1406H496.439V40.6543C496.439 40.2129 496.383 39.8027 496.27 39.4238C496.16 39.0449 495.992 38.7148 495.766 38.4336C495.539 38.1562 495.254 37.9395 494.91 37.7832C494.57 37.623 494.172 37.543 493.715 37.543C493.352 37.543 492.996 37.6172 492.648 37.7656C492.305 37.9141 491.998 38.127 491.729 38.4043C491.455 38.6855 491.236 39.0293 491.072 39.4355C490.908 39.8379 490.826 40.2949 490.826 40.8066V41.0527C490.826 41.4941 490.9 41.9023 491.049 42.2773C491.197 42.6523 491.404 42.9766 491.67 43.25C491.936 43.5234 492.254 43.7363 492.625 43.8887C493 44.041 493.41 44.1172 493.855 44.1172ZM493.715 38.4336C493.992 38.4336 494.23 38.4844 494.43 38.5859C494.633 38.6875 494.801 38.8203 494.934 38.9844C495.066 39.1484 495.17 39.3438 495.244 39.5703C495.318 39.793 495.355 40.002 495.355 40.1973V40.25H491.945C491.988 39.957 492.062 39.6992 492.168 39.4766C492.277 39.25 492.41 39.0586 492.566 38.9023C492.723 38.75 492.898 38.6348 493.094 38.5566C493.289 38.4746 493.496 38.4336 493.715 38.4336ZM502.475 42.3184C502.475 42.4199 502.455 42.5156 502.416 42.6055C502.377 42.6953 502.32 42.7773 502.246 42.8516C502.125 42.9727 501.957 43.0684 501.742 43.1387C501.527 43.2051 501.275 43.2383 500.986 43.2383C500.803 43.2383 500.617 43.2188 500.43 43.1797C500.242 43.1406 500.072 43.0742 499.92 42.9805C499.764 42.8867 499.633 42.7637 499.527 42.6113C499.426 42.459 499.367 42.2715 499.352 42.0488H498.268C498.268 42.3184 498.328 42.5781 498.449 42.8281C498.574 43.0781 498.754 43.2969 498.988 43.4844C499.219 43.6758 499.502 43.8301 499.838 43.9473C500.174 44.0605 500.557 44.1172 500.986 44.1172C501.361 44.1172 501.707 44.0723 502.023 43.9824C502.34 43.8926 502.611 43.7656 502.838 43.6016C503.064 43.4375 503.24 43.2402 503.365 43.0098C503.494 42.7793 503.559 42.5234 503.559 42.2422C503.559 41.9805 503.502 41.75 503.389 41.5508C503.279 41.3516 503.119 41.1758 502.908 41.0234C502.697 40.875 502.438 40.748 502.129 40.6426C501.82 40.5332 501.471 40.4375 501.08 40.3555C500.783 40.2969 500.537 40.2363 500.342 40.1738C500.15 40.1113 499.998 40.041 499.885 39.9629C499.768 39.8848 499.686 39.7969 499.639 39.6992C499.592 39.6016 499.568 39.4902 499.568 39.3652C499.568 39.2441 499.598 39.127 499.656 39.0137C499.715 38.9004 499.803 38.8008 499.92 38.7148C500.033 38.6289 500.176 38.5605 500.348 38.5098C500.523 38.459 500.727 38.4336 500.957 38.4336C501.18 38.4336 501.379 38.4648 501.555 38.5273C501.734 38.5898 501.887 38.6719 502.012 38.7734C502.137 38.875 502.234 38.9922 502.305 39.125C502.375 39.2539 502.41 39.3867 502.41 39.5234H503.494C503.494 39.2461 503.434 38.9883 503.312 38.75C503.195 38.5078 503.027 38.2969 502.809 38.1172C502.59 37.9375 502.324 37.7969 502.012 37.6953C501.699 37.5938 501.348 37.543 500.957 37.543C500.594 37.543 500.26 37.5918 499.955 37.6895C499.654 37.7871 499.395 37.9199 499.176 38.0879C498.957 38.2559 498.787 38.4531 498.666 38.6797C498.545 38.9023 498.484 39.1426 498.484 39.4004C498.484 39.6621 498.543 39.8926 498.66 40.0918C498.777 40.2871 498.943 40.457 499.158 40.6016C499.369 40.75 499.623 40.877 499.92 40.9824C500.221 41.0879 500.553 41.1777 500.916 41.252C501.213 41.3105 501.461 41.377 501.66 41.4512C501.859 41.5215 502.02 41.5996 502.141 41.6855C502.262 41.7715 502.348 41.8672 502.398 41.9727C502.449 42.0742 502.475 42.1895 502.475 42.3184ZM515.242 36.125H514.152V37.6602H512.488V38.498H514.152V41.9434C514.152 42.334 514.203 42.668 514.305 42.9453C514.41 43.2188 514.553 43.4414 514.732 43.6133C514.912 43.7891 515.123 43.918 515.365 44C515.611 44.0781 515.875 44.1172 516.156 44.1172C516.324 44.1172 516.492 44.1094 516.66 44.0938C516.832 44.0781 516.994 44.0547 517.146 44.0234C517.299 43.9961 517.439 43.9629 517.568 43.9238C517.697 43.8809 517.807 43.832 517.896 43.7773L517.744 43.0098C517.678 43.0254 517.592 43.0449 517.486 43.0684C517.385 43.0879 517.275 43.1074 517.158 43.127C517.037 43.1465 516.914 43.1641 516.789 43.1797C516.664 43.1914 516.543 43.1973 516.426 43.1973C516.266 43.1973 516.113 43.1777 515.969 43.1387C515.828 43.0996 515.703 43.0312 515.594 42.9336C515.484 42.8398 515.398 42.7129 515.336 42.5527C515.273 42.3926 515.242 42.1895 515.242 41.9434V38.498H517.656V37.6602H515.242V36.125ZM519.578 40.7715V40.9004C519.578 41.3574 519.645 41.7812 519.777 42.1719C519.91 42.5625 520.102 42.9023 520.352 43.1914C520.598 43.4805 520.898 43.707 521.254 43.8711C521.613 44.0352 522.018 44.1172 522.467 44.1172C522.912 44.1172 523.312 44.0352 523.668 43.8711C524.023 43.707 524.326 43.4805 524.576 43.1914C524.822 42.9023 525.012 42.5625 525.145 42.1719C525.277 41.7812 525.344 41.3574 525.344 40.9004V40.7715C525.344 40.3145 525.277 39.8906 525.145 39.5C525.012 39.1055 524.822 38.7637 524.576 38.4746C524.326 38.1855 524.021 37.959 523.662 37.7949C523.307 37.627 522.904 37.543 522.455 37.543C522.01 37.543 521.609 37.627 521.254 37.7949C520.898 37.959 520.598 38.1855 520.352 38.4746C520.102 38.7637 519.91 39.1055 519.777 39.5C519.645 39.8906 519.578 40.3145 519.578 40.7715ZM520.662 40.9004V40.7715C520.662 40.4629 520.699 40.168 520.773 39.8867C520.848 39.6016 520.961 39.3516 521.113 39.1367C521.262 38.9219 521.447 38.752 521.67 38.627C521.893 38.498 522.154 38.4336 522.455 38.4336C522.756 38.4336 523.018 38.498 523.24 38.627C523.467 38.752 523.656 38.9219 523.809 39.1367C523.957 39.3516 524.068 39.6016 524.143 39.8867C524.221 40.168 524.26 40.4629 524.26 40.7715V40.9004C524.26 41.2129 524.223 41.5117 524.148 41.7969C524.074 42.0781 523.963 42.3262 523.814 42.541C523.662 42.7559 523.473 42.9258 523.246 43.0508C523.023 43.1758 522.764 43.2383 522.467 43.2383C522.166 43.2383 521.902 43.1758 521.676 43.0508C521.449 42.9258 521.262 42.7559 521.113 42.541C520.961 42.3262 520.848 42.0781 520.773 41.7969C520.699 41.5117 520.662 41.2129 520.662 40.9004ZM538.451 37.543C537.99 37.543 537.578 37.6445 537.215 37.8477C536.855 38.0469 536.547 38.3203 536.289 38.668L536.283 38.5098L536.236 37.6602H535.205V44H536.295V39.9336C536.365 39.7383 536.453 39.5625 536.559 39.4062C536.668 39.2461 536.795 39.1113 536.939 39.002C537.1 38.877 537.287 38.7832 537.502 38.7207C537.717 38.6543 537.957 38.6211 538.223 38.6211C538.43 38.6211 538.627 38.6328 538.814 38.6562C539.006 38.6758 539.207 38.709 539.418 38.7559L539.564 37.6953C539.455 37.6484 539.291 37.6113 539.072 37.584C538.857 37.5566 538.65 37.543 538.451 37.543ZM544.305 44.1172C544.922 44.1172 545.439 43.9941 545.857 43.748C546.279 43.498 546.596 43.2129 546.807 42.8926L546.145 42.377C545.945 42.6348 545.695 42.8418 545.395 42.998C545.094 43.1543 544.75 43.2324 544.363 43.2324C544.07 43.2324 543.803 43.1777 543.561 43.0684C543.318 42.959 543.111 42.8086 542.939 42.6172C542.771 42.4375 542.639 42.2305 542.541 41.9961C542.447 41.7617 542.387 41.4902 542.359 41.1816V41.1406H546.889V40.6543C546.889 40.2129 546.832 39.8027 546.719 39.4238C546.609 39.0449 546.441 38.7148 546.215 38.4336C545.988 38.1562 545.703 37.9395 545.359 37.7832C545.02 37.623 544.621 37.543 544.164 37.543C543.801 37.543 543.445 37.6172 543.098 37.7656C542.754 37.9141 542.447 38.127 542.178 38.4043C541.904 38.6855 541.686 39.0293 541.521 39.4355C541.357 39.8379 541.275 40.2949 541.275 40.8066V41.0527C541.275 41.4941 541.35 41.9023 541.498 42.2773C541.646 42.6523 541.854 42.9766 542.119 43.25C542.385 43.5234 542.703 43.7363 543.074 43.8887C543.449 44.041 543.859 44.1172 544.305 44.1172ZM544.164 38.4336C544.441 38.4336 544.68 38.4844 544.879 38.5859C545.082 38.6875 545.25 38.8203 545.383 38.9844C545.516 39.1484 545.619 39.3438 545.693 39.5703C545.768 39.793 545.805 40.002 545.805 40.1973V40.25H542.395C542.438 39.957 542.512 39.6992 542.617 39.4766C542.727 39.25 542.859 39.0586 543.016 38.9023C543.172 38.75 543.348 38.6348 543.543 38.5566C543.738 38.4746 543.945 38.4336 544.164 38.4336ZM552.877 44H554.008V43.9062C553.938 43.7305 553.883 43.5254 553.844 43.291C553.805 43.0527 553.785 42.8281 553.785 42.6172V39.6699C553.785 39.3145 553.721 39.0039 553.592 38.7383C553.463 38.4727 553.287 38.25 553.064 38.0703C552.838 37.8945 552.57 37.7637 552.262 37.6777C551.953 37.5879 551.619 37.543 551.26 37.543C550.865 37.543 550.512 37.5977 550.199 37.707C549.891 37.8164 549.629 37.959 549.414 38.1348C549.195 38.3145 549.027 38.5156 548.91 38.7383C548.797 38.9609 548.738 39.1875 548.734 39.418H549.824C549.824 39.2852 549.855 39.1582 549.918 39.0371C549.984 38.9121 550.076 38.8047 550.193 38.7148C550.311 38.625 550.453 38.5527 550.621 38.498C550.793 38.4434 550.986 38.416 551.201 38.416C551.432 38.416 551.639 38.4453 551.822 38.5039C552.01 38.5625 552.168 38.6445 552.297 38.75C552.426 38.8594 552.525 38.9902 552.596 39.1426C552.666 39.2949 552.701 39.4668 552.701 39.6582V40.1562H551.518C551.076 40.1562 550.676 40.1992 550.316 40.2852C549.961 40.3711 549.656 40.5 549.402 40.6719C549.148 40.8477 548.951 41.0664 548.811 41.3281C548.674 41.5898 548.605 41.8945 548.605 42.2422C548.605 42.5078 548.656 42.7559 548.758 42.9863C548.863 43.2129 549.012 43.4082 549.203 43.5723C549.391 43.7402 549.619 43.873 549.889 43.9707C550.162 44.0684 550.467 44.1172 550.803 44.1172C551.01 44.1172 551.205 44.0957 551.389 44.0527C551.572 44.0098 551.746 43.9512 551.91 43.877C552.07 43.8027 552.217 43.7168 552.35 43.6191C552.486 43.5215 552.609 43.418 552.719 43.3086C552.73 43.4414 552.748 43.5703 552.771 43.6953C552.799 43.8164 552.834 43.918 552.877 44ZM550.961 43.1738C550.75 43.1738 550.564 43.1465 550.404 43.0918C550.244 43.0371 550.111 42.9609 550.006 42.8633C549.9 42.7695 549.82 42.6562 549.766 42.5234C549.715 42.3906 549.689 42.2461 549.689 42.0898C549.689 41.9258 549.719 41.7793 549.777 41.6504C549.84 41.5215 549.93 41.4102 550.047 41.3164C550.211 41.1836 550.432 41.0859 550.709 41.0234C550.99 40.957 551.318 40.9238 551.693 40.9238H552.701V42.207C552.639 42.332 552.553 42.4531 552.443 42.5703C552.334 42.6836 552.205 42.7852 552.057 42.875C551.904 42.9648 551.736 43.0371 551.553 43.0918C551.369 43.1465 551.172 43.1738 550.961 43.1738ZM556.088 35V35.9434H558.244V43.0625H556.088V44H561.396V43.0625H559.328V35H556.088ZM570.221 44H572.195C572.605 43.9961 572.986 43.9473 573.338 43.8535C573.693 43.7598 574.012 43.625 574.293 43.4492C574.559 43.2812 574.799 43.0781 575.014 42.8398C575.229 42.6016 575.406 42.3359 575.547 42.043C575.684 41.7617 575.787 41.4531 575.857 41.1172C575.932 40.7812 575.969 40.4258 575.969 40.0508V39.4238C575.965 39.0332 575.924 38.666 575.846 38.3223C575.771 37.9785 575.662 37.6621 575.518 37.373C575.357 37.0332 575.143 36.7344 574.873 36.4766C574.607 36.2148 574.301 36.0039 573.953 35.8438C573.703 35.7266 573.43 35.6367 573.133 35.5742C572.84 35.5078 572.527 35.4727 572.195 35.4688H570.221V44ZM571.322 36.3594H572.195C572.465 36.3633 572.713 36.3945 572.939 36.4531C573.166 36.5078 573.371 36.5859 573.555 36.6875C573.812 36.8242 574.029 37.0039 574.205 37.2266C574.385 37.4453 574.527 37.6914 574.633 37.9648C574.715 38.1758 574.775 38.4043 574.814 38.6504C574.857 38.8926 574.881 39.1465 574.885 39.4121V40.0508C574.881 40.3125 574.859 40.5645 574.82 40.8066C574.781 41.0449 574.723 41.2676 574.645 41.4746C574.555 41.7285 574.432 41.959 574.275 42.166C574.123 42.3691 573.941 42.541 573.73 42.6816C573.531 42.8184 573.303 42.9238 573.045 42.998C572.791 43.0723 572.508 43.1113 572.195 43.1152H571.322V36.3594ZM583.088 40.2266V39.2539C583.084 38.9492 583.057 38.6406 583.006 38.3281C582.959 38.0156 582.885 37.7148 582.783 37.4258C582.678 37.1367 582.545 36.8672 582.385 36.6172C582.229 36.3633 582.041 36.1426 581.822 35.9551C581.604 35.7676 581.352 35.6211 581.066 35.5156C580.781 35.4062 580.463 35.3516 580.111 35.3516C579.76 35.3516 579.441 35.4062 579.156 35.5156C578.875 35.6211 578.625 35.7676 578.406 35.9551C578.188 36.1465 577.998 36.3691 577.838 36.623C577.682 36.873 577.553 37.1426 577.451 37.4316C577.346 37.7207 577.268 38.0215 577.217 38.334C577.17 38.6426 577.145 38.9492 577.141 39.2539V40.2266C577.145 40.5312 577.172 40.8379 577.223 41.1465C577.273 41.4551 577.352 41.7539 577.457 42.043C577.559 42.332 577.689 42.6035 577.85 42.8574C578.01 43.1074 578.199 43.3262 578.418 43.5137C578.637 43.7012 578.887 43.8496 579.168 43.959C579.453 44.0645 579.771 44.1172 580.123 44.1172C580.475 44.1172 580.791 44.0645 581.072 43.959C581.357 43.8496 581.609 43.7012 581.828 43.5137C582.047 43.3262 582.234 43.1074 582.391 42.8574C582.551 42.6074 582.682 42.3379 582.783 42.0488C582.885 41.7598 582.959 41.4609 583.006 41.1523C583.057 40.8398 583.084 40.5312 583.088 40.2266ZM582.016 39.2422V40.2266C582.012 40.4297 581.998 40.6426 581.975 40.8652C581.955 41.0879 581.918 41.3066 581.863 41.5215C581.805 41.7402 581.729 41.9492 581.635 42.1484C581.545 42.3438 581.432 42.5156 581.295 42.6641C581.154 42.8164 580.986 42.9375 580.791 43.0273C580.6 43.1172 580.377 43.1621 580.123 43.1621C579.869 43.1621 579.646 43.1172 579.455 43.0273C579.264 42.9375 579.098 42.8164 578.957 42.6641C578.816 42.5156 578.699 42.3418 578.605 42.1426C578.512 41.9434 578.436 41.7344 578.377 41.5156C578.318 41.3008 578.275 41.082 578.248 40.8594C578.225 40.6367 578.211 40.4258 578.207 40.2266V39.2422C578.211 39.043 578.225 38.834 578.248 38.6152C578.275 38.3926 578.318 38.1719 578.377 37.9531C578.432 37.7383 578.506 37.5332 578.6 37.3379C578.693 37.1387 578.811 36.9629 578.951 36.8105C579.092 36.6621 579.258 36.543 579.449 36.4531C579.641 36.3633 579.861 36.3184 580.111 36.3184C580.365 36.3184 580.588 36.3633 580.779 36.4531C580.971 36.5391 581.137 36.6562 581.277 36.8047C581.418 36.957 581.535 37.1328 581.629 37.332C581.723 37.5273 581.799 37.7324 581.857 37.9473C581.912 38.166 581.951 38.3867 581.975 38.6094C581.998 38.8281 582.012 39.0391 582.016 39.2422ZM585.936 35.4688H584.594V44H585.648V40.5957L585.561 37.1562L587.008 41.627H587.629L589.205 37.0332L589.117 40.5957V44H590.172V35.4688H588.824L587.324 39.7344L585.936 35.4688Z"
    fill="white" pathLength="1" stroke-dashoffset="0px" stroke-dasharray="1px 1px"></path>
  <path d="M454 45.1719H590.928V45.7578H454V45.1719Z" fill="white" pathLength="1" stroke-dashoffset="0px"
    stroke-dasharray="1px 1px"></path>
  <path d="M141.429 96V81.0703H141.275L134.774 83.4185V85.8999L138.547 84.5464V96H141.429Z" fill="black" pathLength="1"
    stroke-dashoffset="0px" stroke-dasharray="1px 1px"></path>
  <path d="M333.429 96V81.0703H333.275L326.774 83.4185V85.8999L330.547 84.5464V96H333.429Z" fill="black" pathLength="1"
    stroke-dashoffset="0px" stroke-dasharray="1px 1px"></path>
  <path
    d="M285.589 158.648L287.866 159.212C287.975 159.103 288.091 159 288.214 158.904C288.337 158.802 288.478 158.713 288.635 158.638C288.792 158.562 288.973 158.501 289.178 158.453C289.383 158.405 289.626 158.381 289.906 158.381C290.323 158.381 290.686 158.446 290.993 158.576C291.301 158.706 291.557 158.891 291.762 159.13C291.967 159.369 292.118 159.656 292.213 159.991C292.316 160.319 292.367 160.682 292.367 161.078C292.367 161.481 292.326 161.857 292.244 162.206C292.169 162.555 292.049 162.855 291.885 163.108C291.714 163.361 291.492 163.56 291.219 163.703C290.952 163.847 290.627 163.918 290.245 163.918C289.623 163.918 289.11 163.741 288.707 163.385C288.31 163.03 288.078 162.527 288.009 161.878H285.2C285.22 162.568 285.374 163.184 285.661 163.724C285.955 164.257 286.334 164.708 286.799 165.077C287.264 165.446 287.794 165.727 288.389 165.918C288.99 166.109 289.612 166.205 290.255 166.205C291.103 166.205 291.837 166.072 292.459 165.805C293.082 165.539 293.598 165.176 294.008 164.718C294.418 164.26 294.722 163.73 294.92 163.129C295.119 162.527 295.218 161.892 295.218 161.222C295.218 160.436 295.115 159.731 294.91 159.109C294.705 158.487 294.411 157.961 294.028 157.53C293.639 157.1 293.16 156.771 292.593 156.546C292.032 156.313 291.393 156.197 290.675 156.197C290.169 156.197 289.722 156.262 289.332 156.392C288.942 156.522 288.642 156.648 288.43 156.771L288.789 153.49H294.726V151.07H286.44L285.589 158.648Z"
    fill="black" pathLength="1" stroke-dashoffset="0px" stroke-dasharray="1px 1px"></path>
  <path
    d="M379.208 166V163.713H372.655L375.465 160.74C375.95 160.241 376.391 159.766 376.788 159.314C377.184 158.856 377.526 158.409 377.813 157.971C378.093 157.534 378.309 157.093 378.459 156.648C378.616 156.197 378.695 155.726 378.695 155.233C378.695 154.584 378.592 153.993 378.387 153.459C378.182 152.919 377.885 152.458 377.495 152.075C377.099 151.692 376.606 151.395 376.019 151.183C375.438 150.971 374.768 150.865 374.009 150.865C373.216 150.865 372.491 150.995 371.835 151.255C371.186 151.508 370.632 151.856 370.174 152.301C369.709 152.745 369.35 153.265 369.097 153.859C368.844 154.447 368.718 155.073 368.718 155.736H371.579C371.579 155.333 371.63 154.974 371.732 154.659C371.835 154.345 371.985 154.082 372.184 153.87C372.375 153.665 372.614 153.511 372.901 153.408C373.195 153.299 373.534 153.244 373.917 153.244C374.21 153.244 374.477 153.292 374.716 153.388C374.962 153.483 375.174 153.62 375.352 153.798C375.523 153.982 375.656 154.205 375.752 154.464C375.848 154.724 375.896 155.021 375.896 155.356C375.896 155.582 375.858 155.814 375.783 156.054C375.714 156.293 375.602 156.549 375.444 156.823C375.28 157.103 375.068 157.411 374.809 157.746C374.549 158.081 374.231 158.453 373.855 158.863L369.025 164.052V166H379.208Z"
    fill="black" pathLength="1" stroke-dashoffset="0px" stroke-dasharray="1px 1px"></path>
  <path
    d="M103.208 166V163.713H96.6553L99.4648 160.74C99.9502 160.241 100.391 159.766 100.788 159.314C101.184 158.856 101.526 158.409 101.813 157.971C102.093 157.534 102.309 157.093 102.459 156.648C102.616 156.197 102.695 155.726 102.695 155.233C102.695 154.584 102.592 153.993 102.387 153.459C102.182 152.919 101.885 152.458 101.495 152.075C101.099 151.692 100.606 151.395 100.019 151.183C99.4375 150.971 98.7676 150.865 98.0088 150.865C97.2158 150.865 96.4912 150.995 95.835 151.255C95.1855 151.508 94.6318 151.856 94.1738 152.301C93.709 152.745 93.3501 153.265 93.0972 153.859C92.8442 154.447 92.7178 155.073 92.7178 155.736H95.5786C95.5786 155.333 95.6299 154.974 95.7324 154.659C95.835 154.345 95.9854 154.082 96.1836 153.87C96.375 153.665 96.6143 153.511 96.9014 153.408C97.1953 153.299 97.5337 153.244 97.9165 153.244C98.2104 153.244 98.4771 153.292 98.7163 153.388C98.9624 153.483 99.1743 153.62 99.3521 153.798C99.5229 153.982 99.6562 154.205 99.752 154.464C99.8477 154.724 99.8955 155.021 99.8955 155.356C99.8955 155.582 99.8579 155.814 99.7827 156.054C99.7144 156.293 99.6016 156.549 99.4443 156.823C99.2803 157.103 99.0684 157.411 98.8086 157.746C98.5488 158.081 98.231 158.453 97.855 158.863L93.0254 164.052V166H103.208Z"
    fill="black" pathLength="1" stroke-dashoffset="0px" stroke-dasharray="1px 1px"></path>
  <path
    d="M53.3169 229.284V231.499H54.8652C55.2549 231.499 55.6035 231.543 55.9111 231.632C56.2256 231.721 56.4956 231.858 56.7212 232.042C56.9399 232.227 57.1074 232.463 57.2236 232.75C57.3398 233.037 57.3979 233.382 57.3979 233.786C57.3979 234.107 57.3467 234.397 57.2441 234.657C57.1484 234.917 57.0049 235.136 56.8135 235.313C56.6152 235.512 56.3691 235.662 56.0752 235.765C55.7812 235.867 55.4497 235.918 55.0806 235.918C54.7524 235.918 54.4517 235.871 54.1782 235.775C53.9048 235.672 53.6689 235.532 53.4707 235.354C53.2656 235.184 53.1084 234.979 52.999 234.739C52.8896 234.493 52.835 234.227 52.835 233.939H49.9844C49.9844 234.664 50.1245 235.293 50.4048 235.826C50.6919 236.359 51.0713 236.8 51.543 237.149C52.0146 237.504 52.5513 237.771 53.1528 237.949C53.7612 238.12 54.3833 238.205 55.019 238.205C55.7573 238.205 56.4443 238.109 57.0801 237.918C57.7227 237.72 58.2764 237.433 58.7412 237.057C59.2061 236.688 59.5718 236.229 59.8384 235.683C60.105 235.136 60.2383 234.514 60.2383 233.816C60.2383 233.42 60.1904 233.044 60.0947 232.688C59.999 232.333 59.8521 232.005 59.6538 231.704C59.4556 231.41 59.2026 231.147 58.895 230.915C58.5942 230.682 58.2354 230.491 57.8184 230.34C58.1738 230.169 58.4883 229.968 58.7617 229.735C59.0352 229.496 59.2642 229.236 59.4487 228.956C59.6333 228.676 59.7734 228.382 59.8691 228.074C59.9648 227.76 60.0127 227.442 60.0127 227.121C60.0127 226.423 59.8896 225.812 59.6436 225.285C59.4043 224.752 59.0659 224.304 58.6284 223.942C58.1909 223.586 57.6646 223.32 57.0493 223.142C56.4341 222.958 55.7573 222.865 55.019 222.865C54.3354 222.865 53.6963 222.964 53.1016 223.163C52.5137 223.361 52.001 223.638 51.5635 223.993C51.126 224.355 50.7808 224.786 50.5278 225.285C50.2817 225.784 50.1587 226.338 50.1587 226.946H53.0093C53.0093 226.673 53.064 226.427 53.1733 226.208C53.2827 225.989 53.4331 225.801 53.6245 225.644C53.8091 225.494 54.0244 225.377 54.2705 225.295C54.5234 225.213 54.7935 225.172 55.0806 225.172C55.4292 225.172 55.7334 225.22 55.9932 225.316C56.2598 225.412 56.4785 225.545 56.6494 225.716C56.8203 225.894 56.9468 226.105 57.0288 226.352C57.1177 226.591 57.1621 226.857 57.1621 227.151C57.1621 227.452 57.1177 227.732 57.0288 227.992C56.9468 228.245 56.8203 228.46 56.6494 228.638C56.4648 228.843 56.2222 229.004 55.9214 229.12C55.6274 229.229 55.2754 229.284 54.8652 229.284H53.3169Z"
    fill="black" pathLength="1" stroke-dashoffset="0px" stroke-dasharray="1px 1px"></path>
  <path
    d="M146.772 232.453V223.07H143.88L137.605 232.976L137.718 234.76H143.921V238H146.772V234.76H148.505V232.453H146.772ZM140.404 232.453L143.645 227.397L143.921 226.905V232.453H140.404Z"
    fill="black" pathLength="1" stroke-dashoffset="0px" stroke-dasharray="1px 1px"></path>
  <path
    d="M176.589 158.648L178.866 159.212C178.975 159.103 179.091 159 179.214 158.904C179.337 158.802 179.478 158.713 179.635 158.638C179.792 158.562 179.973 158.501 180.178 158.453C180.383 158.405 180.626 158.381 180.906 158.381C181.323 158.381 181.686 158.446 181.993 158.576C182.301 158.706 182.557 158.891 182.762 159.13C182.967 159.369 183.118 159.656 183.213 159.991C183.316 160.319 183.367 160.682 183.367 161.078C183.367 161.481 183.326 161.857 183.244 162.206C183.169 162.555 183.049 162.855 182.885 163.108C182.714 163.361 182.492 163.56 182.219 163.703C181.952 163.847 181.627 163.918 181.245 163.918C180.623 163.918 180.11 163.741 179.707 163.385C179.31 163.03 179.078 162.527 179.009 161.878H176.2C176.22 162.568 176.374 163.184 176.661 163.724C176.955 164.257 177.334 164.708 177.799 165.077C178.264 165.446 178.794 165.727 179.389 165.918C179.99 166.109 180.612 166.205 181.255 166.205C182.103 166.205 182.837 166.072 183.459 165.805C184.082 165.539 184.598 165.176 185.008 164.718C185.418 164.26 185.722 163.73 185.92 163.129C186.119 162.527 186.218 161.892 186.218 161.222C186.218 160.436 186.115 159.731 185.91 159.109C185.705 158.487 185.411 157.961 185.028 157.53C184.639 157.1 184.16 156.771 183.593 156.546C183.032 156.313 182.393 156.197 181.675 156.197C181.169 156.197 180.722 156.262 180.332 156.392C179.942 156.522 179.642 156.648 179.43 156.771L179.789 153.49H185.726V151.07H177.44L176.589 158.648Z"
    fill="black" pathLength="1" stroke-dashoffset="0px" stroke-dasharray="1px 1px"></path>
  <path
    d="M168.47 87.4697C168.177 87.7626 168.177 88.2374 168.47 88.5303L173.243 93.3033C173.536 93.5962 174.01 93.5962 174.303 93.3033C174.596 93.0104 174.596 92.5355 174.303 92.2426L170.061 88L174.303 83.7574C174.596 83.4645 174.596 82.9896 174.303 82.6967C174.01 82.4038 173.536 82.4038 173.243 82.6967L168.47 87.4697ZM307.53 88.5303C307.823 88.2374 307.823 87.7626 307.53 87.4697L302.757 82.6967C302.464 82.4038 301.99 82.4038 301.697 82.6967C301.404 82.9896 301.404 83.4645 301.697 83.7574L305.939 88L301.697 92.2426C301.404 92.5355 301.404 93.0104 301.697 93.3033C301.99 93.5962 302.464 93.5962 302.757 93.3033L307.53 88.5303ZM169 88.75H307V87.25H169V88.75Z"
    fill="#E139F0" pathLength="1" stroke-dashoffset="0px" stroke-dasharray="1px 1px"></path>
  <path
    d="M194.49 74.1775V71.625H193.722V78H194.49V74.7378C194.545 74.6493 194.608 74.569 194.677 74.4971C194.749 74.4224 194.826 74.3573 194.909 74.302C195.014 74.2301 195.129 74.1747 195.254 74.136C195.378 74.0972 195.51 74.0779 195.648 74.0779C195.817 74.0751 195.966 74.0986 196.096 74.1484C196.226 74.1955 196.334 74.2674 196.42 74.3643C196.5 74.4528 196.561 74.5649 196.603 74.7004C196.644 74.8333 196.665 74.9882 196.665 75.1653V78H197.433V75.1736C197.433 74.872 197.395 74.6119 197.321 74.3933C197.249 74.172 197.145 73.9893 197.009 73.8455C196.874 73.7016 196.709 73.5964 196.515 73.53C196.324 73.4609 196.111 73.4263 195.876 73.4263C195.696 73.429 195.526 73.4553 195.366 73.5051C195.208 73.5549 195.063 73.6283 194.93 73.7251C194.847 73.7832 194.768 73.851 194.693 73.9285C194.619 74.0032 194.551 74.0862 194.49 74.1775ZM201.778 78H202.579V77.9336C202.529 77.8091 202.491 77.6638 202.463 77.4978C202.435 77.329 202.421 77.1699 202.421 77.0205V74.9329C202.421 74.6811 202.376 74.4611 202.284 74.2729C202.193 74.0848 202.069 73.9271 201.911 73.7998C201.75 73.6753 201.561 73.5826 201.342 73.5217C201.124 73.4581 200.887 73.4263 200.633 73.4263C200.353 73.4263 200.103 73.465 199.881 73.5425C199.663 73.62 199.477 73.7209 199.325 73.8455C199.17 73.9727 199.051 74.1152 198.968 74.2729C198.888 74.4307 198.847 74.5911 198.844 74.7544H199.616C199.616 74.6603 199.638 74.5704 199.682 74.4846C199.729 74.3961 199.794 74.32 199.877 74.2563C199.96 74.1927 200.061 74.1415 200.18 74.1028C200.302 74.064 200.439 74.0447 200.591 74.0447C200.754 74.0447 200.901 74.0654 201.031 74.1069C201.164 74.1484 201.276 74.2065 201.367 74.2812C201.458 74.3587 201.529 74.4514 201.579 74.5593C201.629 74.6672 201.654 74.789 201.654 74.9246V75.2773H200.815C200.503 75.2773 200.219 75.3078 199.964 75.3687C199.713 75.4295 199.497 75.5208 199.317 75.6426C199.137 75.7671 198.997 75.922 198.898 76.1074C198.801 76.2928 198.752 76.5086 198.752 76.7549C198.752 76.943 198.788 77.1187 198.86 77.282C198.935 77.4425 199.04 77.5808 199.176 77.697C199.309 77.816 199.47 77.9101 199.661 77.9792C199.855 78.0484 200.071 78.083 200.309 78.083C200.455 78.083 200.594 78.0678 200.724 78.0374C200.854 78.0069 200.977 77.9654 201.093 77.9128C201.207 77.8603 201.31 77.7994 201.405 77.7302C201.501 77.6611 201.589 77.5877 201.666 77.5103C201.674 77.6043 201.687 77.6956 201.703 77.7842C201.723 77.87 201.748 77.9419 201.778 78ZM200.421 77.4148C200.271 77.4148 200.14 77.3954 200.027 77.3567C199.913 77.318 199.819 77.264 199.744 77.1948C199.67 77.1284 199.613 77.0482 199.574 76.9541C199.538 76.86 199.52 76.7576 199.52 76.647C199.52 76.5308 199.541 76.427 199.583 76.3357C199.627 76.2444 199.69 76.1655 199.773 76.0991C199.89 76.005 200.046 75.9359 200.242 75.8916C200.442 75.8446 200.674 75.821 200.94 75.821H201.654V76.73C201.609 76.8185 201.548 76.9043 201.471 76.9873C201.393 77.0675 201.302 77.1395 201.197 77.2031C201.089 77.2668 200.97 77.318 200.84 77.3567C200.71 77.3954 200.57 77.4148 200.421 77.4148ZM206.916 76.8088C206.916 76.8808 206.902 76.9486 206.875 77.0122C206.847 77.0758 206.807 77.134 206.754 77.1865C206.669 77.2723 206.55 77.3401 206.397 77.3899C206.245 77.4369 206.067 77.4604 205.862 77.4604C205.732 77.4604 205.601 77.4466 205.468 77.4189C205.335 77.3913 205.215 77.3442 205.107 77.2778C204.996 77.2114 204.903 77.1243 204.829 77.0164C204.757 76.9084 204.715 76.7756 204.704 76.6179H203.936C203.936 76.8088 203.979 76.9928 204.065 77.1699C204.153 77.347 204.281 77.502 204.447 77.6348C204.61 77.7703 204.811 77.8796 205.049 77.9626C205.287 78.0429 205.558 78.083 205.862 78.083C206.128 78.083 206.373 78.0512 206.597 77.9875C206.821 77.9239 207.013 77.834 207.174 77.7178C207.334 77.6016 207.459 77.4618 207.547 77.2986C207.638 77.1353 207.684 76.9541 207.684 76.7549C207.684 76.5695 207.644 76.4062 207.564 76.2651C207.486 76.124 207.373 75.9995 207.223 75.8916C207.074 75.7865 206.89 75.6965 206.671 75.6218C206.453 75.5444 206.205 75.4766 205.928 75.4185C205.718 75.377 205.544 75.3341 205.406 75.2898C205.27 75.2455 205.162 75.1957 205.082 75.1404C204.999 75.085 204.941 75.0228 204.907 74.9536C204.874 74.8844 204.858 74.8056 204.858 74.717C204.858 74.6313 204.878 74.5483 204.92 74.468C204.961 74.3878 205.024 74.3172 205.107 74.2563C205.187 74.1955 205.288 74.1471 205.41 74.1111C205.534 74.0751 205.678 74.0571 205.841 74.0571C205.999 74.0571 206.14 74.0793 206.265 74.1235C206.392 74.1678 206.5 74.2259 206.588 74.2979C206.677 74.3698 206.746 74.4528 206.796 74.5469C206.846 74.6382 206.871 74.7323 206.871 74.8291H207.638C207.638 74.6326 207.596 74.45 207.51 74.2812C207.427 74.1097 207.308 73.9603 207.153 73.833C206.998 73.7057 206.81 73.6061 206.588 73.5342C206.367 73.4622 206.118 73.4263 205.841 73.4263C205.584 73.4263 205.347 73.4609 205.132 73.53C204.919 73.5992 204.735 73.6933 204.58 73.8123C204.425 73.9312 204.304 74.071 204.219 74.2314C204.133 74.3892 204.09 74.5593 204.09 74.7419C204.09 74.9273 204.131 75.0906 204.214 75.2317C204.297 75.37 204.415 75.4904 204.567 75.5928C204.717 75.6979 204.896 75.7878 205.107 75.8625C205.32 75.9373 205.555 76.0009 205.812 76.0535C206.023 76.095 206.198 76.142 206.339 76.1946C206.48 76.2444 206.594 76.2997 206.68 76.3606C206.765 76.4215 206.826 76.4893 206.862 76.564C206.898 76.6359 206.916 76.7175 206.916 76.8088ZM216.055 77.4604C215.815 77.4604 215.613 77.4134 215.449 77.3193C215.289 77.2225 215.16 77.0966 215.063 76.9417C214.964 76.7895 214.892 76.6179 214.848 76.427C214.806 76.2333 214.785 76.0382 214.785 75.8418V75.6675C214.785 75.4738 214.806 75.2815 214.848 75.0906C214.892 74.8997 214.964 74.7267 215.063 74.5718C215.163 74.4196 215.293 74.2965 215.454 74.2024C215.617 74.1056 215.817 74.0571 216.055 74.0571C216.21 74.0571 216.354 74.0834 216.487 74.136C216.623 74.1886 216.739 74.2605 216.836 74.3518C216.933 74.4431 217.009 74.5496 217.064 74.6714C217.122 74.7904 217.153 74.9176 217.155 75.0532H217.882C217.882 74.8263 217.836 74.6133 217.745 74.4141C217.653 74.2148 217.527 74.0419 217.367 73.8953C217.204 73.7514 217.01 73.6379 216.786 73.5549C216.565 73.4692 216.321 73.4263 216.055 73.4263C215.715 73.4263 215.418 73.4871 215.163 73.6089C214.909 73.7306 214.697 73.8939 214.528 74.0986C214.357 74.3062 214.228 74.5455 214.142 74.8167C214.056 75.0878 214.013 75.3714 214.013 75.6675V75.8418C214.013 76.1406 214.056 76.4256 214.142 76.6968C214.228 76.9652 214.357 77.2017 214.528 77.4065C214.697 77.614 214.909 77.7786 215.163 77.9004C215.418 78.0221 215.715 78.083 216.055 78.083C216.293 78.083 216.522 78.0429 216.74 77.9626C216.959 77.8796 217.153 77.769 217.321 77.6306C217.49 77.495 217.624 77.3373 217.724 77.1575C217.826 76.9749 217.879 76.7839 217.882 76.5847H217.155C217.153 76.7092 217.119 76.8254 217.056 76.9333C216.995 77.0385 216.913 77.1298 216.811 77.2073C216.708 77.2875 216.591 77.3498 216.458 77.394C216.328 77.4383 216.194 77.4604 216.055 77.4604ZM220.015 74.1775V71.625H219.247V78H220.015V74.7378C220.07 74.6493 220.132 74.569 220.202 74.4971C220.274 74.4224 220.351 74.3573 220.434 74.302C220.539 74.2301 220.654 74.1747 220.779 74.136C220.903 74.0972 221.035 74.0779 221.173 74.0779C221.342 74.0751 221.491 74.0986 221.621 74.1484C221.751 74.1955 221.859 74.2674 221.945 74.3643C222.025 74.4528 222.086 74.5649 222.127 74.7004C222.169 74.8333 222.19 74.9882 222.19 75.1653V78H222.958V75.1736C222.958 74.872 222.92 74.6119 222.845 74.3933C222.774 74.172 222.67 73.9893 222.534 73.8455C222.399 73.7016 222.234 73.5964 222.04 73.53C221.849 73.4609 221.636 73.4263 221.401 73.4263C221.221 73.429 221.051 73.4553 220.891 73.5051C220.733 73.5549 220.588 73.6283 220.455 73.7251C220.372 73.7832 220.293 73.851 220.218 73.9285C220.144 74.0032 220.076 74.0862 220.015 74.1775ZM227.303 78H228.104V77.9336C228.054 77.8091 228.015 77.6638 227.988 77.4978C227.96 77.329 227.946 77.1699 227.946 77.0205V74.9329C227.946 74.6811 227.901 74.4611 227.809 74.2729C227.718 74.0848 227.594 73.9271 227.436 73.7998C227.275 73.6753 227.086 73.5826 226.867 73.5217C226.649 73.4581 226.412 73.4263 226.157 73.4263C225.878 73.4263 225.628 73.465 225.406 73.5425C225.188 73.62 225.002 73.7209 224.85 73.8455C224.695 73.9727 224.576 74.1152 224.493 74.2729C224.413 74.4307 224.371 74.5911 224.369 74.7544H225.141C225.141 74.6603 225.163 74.5704 225.207 74.4846C225.254 74.3961 225.319 74.32 225.402 74.2563C225.485 74.1927 225.586 74.1415 225.705 74.1028C225.827 74.064 225.964 74.0447 226.116 74.0447C226.279 74.0447 226.426 74.0654 226.556 74.1069C226.689 74.1484 226.801 74.2065 226.892 74.2812C226.983 74.3587 227.054 74.4514 227.104 74.5593C227.154 74.6672 227.178 74.789 227.178 74.9246V75.2773H226.34C226.027 75.2773 225.744 75.3078 225.489 75.3687C225.237 75.4295 225.022 75.5208 224.842 75.6426C224.662 75.7671 224.522 75.922 224.423 76.1074C224.326 76.2928 224.277 76.5086 224.277 76.7549C224.277 76.943 224.313 77.1187 224.385 77.282C224.46 77.4425 224.565 77.5808 224.701 77.697C224.833 77.816 224.995 77.9101 225.186 77.9792C225.38 78.0484 225.596 78.083 225.834 78.083C225.98 78.083 226.119 78.0678 226.249 78.0374C226.379 78.0069 226.502 77.9654 226.618 77.9128C226.732 77.8603 226.835 77.7994 226.929 77.7302C227.026 77.6611 227.113 77.5877 227.191 77.5103C227.199 77.6043 227.212 77.6956 227.228 77.7842C227.248 77.87 227.273 77.9419 227.303 78ZM225.946 77.4148C225.796 77.4148 225.665 77.3954 225.552 77.3567C225.438 77.318 225.344 77.264 225.269 77.1948C225.195 77.1284 225.138 77.0482 225.099 76.9541C225.063 76.86 225.045 76.7576 225.045 76.647C225.045 76.5308 225.066 76.427 225.107 76.3357C225.152 76.2444 225.215 76.1655 225.298 76.0991C225.415 76.005 225.571 75.9359 225.767 75.8916C225.967 75.8446 226.199 75.821 226.465 75.821H227.178V76.73C227.134 76.8185 227.073 76.9043 226.996 76.9873C226.918 77.0675 226.827 77.1395 226.722 77.2031C226.614 77.2668 226.495 77.318 226.365 77.3567C226.235 77.3954 226.095 77.4148 225.946 77.4148ZM229.457 78H230.225V74.7793C230.277 74.6825 230.338 74.5939 230.407 74.5137C230.479 74.4334 230.557 74.3629 230.64 74.302C230.742 74.2328 230.854 74.1789 230.976 74.1401C231.098 74.0986 231.229 74.0779 231.37 74.0779C231.534 74.0779 231.677 74.0972 231.802 74.136C231.929 74.1747 232.037 74.237 232.126 74.3228C232.212 74.4085 232.277 74.5206 232.321 74.6589C232.365 74.7973 232.387 74.9661 232.387 75.1653V78H233.155V75.1487C233.155 74.8499 233.118 74.5925 233.043 74.3767C232.971 74.1581 232.867 73.9783 232.732 73.8372C232.596 73.696 232.431 73.5923 232.238 73.5259C232.047 73.4595 231.834 73.4263 231.599 73.4263C231.424 73.429 231.258 73.4553 231.101 73.5051C230.946 73.5522 230.802 73.62 230.669 73.7085C230.58 73.7666 230.496 73.8358 230.416 73.916C230.338 73.9935 230.266 74.0793 230.2 74.1733L230.146 73.5093H229.457V78ZM234.421 75.7173V75.8044C234.421 76.1254 234.462 76.4256 234.545 76.7051C234.628 76.9818 234.747 77.2225 234.902 77.4272C235.055 77.632 235.241 77.7925 235.463 77.9087C235.684 78.0249 235.932 78.083 236.206 78.083C236.369 78.083 236.521 78.065 236.662 78.0291C236.803 77.9958 236.932 77.9474 237.048 77.8838C237.123 77.8423 237.192 77.7939 237.256 77.7385C237.322 77.6832 237.384 77.6223 237.442 77.5559V77.9419C237.442 78.1356 237.415 78.3071 237.359 78.4565C237.304 78.606 237.225 78.7305 237.123 78.8301C237.018 78.9325 236.892 79.0099 236.745 79.0625C236.598 79.1151 236.434 79.1414 236.251 79.1414C236.149 79.1414 236.046 79.1303 235.944 79.1082C235.842 79.0888 235.739 79.0556 235.637 79.0085C235.535 78.9615 235.434 78.8979 235.334 78.8176C235.234 78.7402 235.138 78.6447 235.043 78.5312L234.645 78.9919C234.747 79.1386 234.869 79.2617 235.01 79.3613C235.154 79.4609 235.304 79.5398 235.458 79.5979C235.611 79.6588 235.761 79.7017 235.911 79.7266C236.06 79.7542 236.193 79.7681 236.309 79.7681C236.592 79.7681 236.849 79.7266 237.081 79.6436C237.314 79.5605 237.514 79.4388 237.683 79.2783C237.849 79.1178 237.978 78.9228 238.069 78.6931C238.163 78.4635 238.21 78.2006 238.21 77.9045V73.5093H237.513L237.476 73.999C237.423 73.9326 237.366 73.8717 237.305 73.8164C237.247 73.7611 237.185 73.7126 237.119 73.6711C236.997 73.5909 236.86 73.53 236.708 73.4885C236.558 73.447 236.394 73.4263 236.214 73.4263C235.934 73.4263 235.684 73.483 235.463 73.5964C235.241 73.7099 235.053 73.8676 234.898 74.0696C234.743 74.2716 234.624 74.5137 234.541 74.7959C234.461 75.0754 234.421 75.3825 234.421 75.7173ZM235.189 75.8044V75.7173C235.189 75.4987 235.211 75.2912 235.255 75.0947C235.302 74.8955 235.375 74.7198 235.475 74.5676C235.572 74.4182 235.696 74.2992 235.849 74.2107C236.004 74.1222 236.189 74.0779 236.405 74.0779C236.532 74.0779 236.648 74.0945 236.753 74.1277C236.859 74.1581 236.954 74.201 237.04 74.2563C237.126 74.3145 237.202 74.3822 237.268 74.4597C237.334 74.5372 237.393 74.623 237.442 74.717V76.7756C237.393 76.8725 237.334 76.961 237.268 77.0413C237.202 77.1215 237.127 77.1907 237.044 77.2488C236.958 77.3069 236.861 77.3525 236.753 77.3857C236.648 77.4162 236.529 77.4314 236.396 77.4314C236.183 77.4314 236.001 77.3885 235.849 77.3027C235.696 77.2142 235.572 77.0952 235.475 76.9458C235.375 76.7964 235.302 76.6235 235.255 76.427C235.211 76.2306 235.189 76.023 235.189 75.8044ZM241.651 78.083C242.088 78.083 242.455 77.9958 242.751 77.8215C243.05 77.6444 243.274 77.4425 243.423 77.2156L242.954 76.8503C242.813 77.033 242.636 77.1796 242.423 77.2903C242.21 77.401 241.966 77.4563 241.692 77.4563C241.485 77.4563 241.295 77.4176 241.124 77.3401C240.952 77.2626 240.806 77.1561 240.684 77.0205C240.565 76.8932 240.471 76.7466 240.402 76.5806C240.335 76.4146 240.292 76.2222 240.273 76.0037V75.9746H243.481V75.6301C243.481 75.3175 243.441 75.0269 243.361 74.7585C243.283 74.4902 243.164 74.2563 243.004 74.0571C242.843 73.8607 242.641 73.7071 242.398 73.5964C242.157 73.483 241.875 73.4263 241.551 73.4263C241.294 73.4263 241.042 73.4788 240.796 73.584C240.552 73.6891 240.335 73.8399 240.144 74.0364C239.951 74.2356 239.796 74.4791 239.679 74.7668C239.563 75.0518 239.505 75.3756 239.505 75.738V75.9124C239.505 76.225 239.558 76.5142 239.663 76.7798C239.768 77.0454 239.915 77.2751 240.103 77.4688C240.291 77.6624 240.516 77.8132 240.779 77.9211C241.045 78.0291 241.335 78.083 241.651 78.083ZM241.551 74.0571C241.748 74.0571 241.917 74.0931 242.058 74.165C242.201 74.237 242.32 74.3311 242.415 74.4473C242.509 74.5635 242.582 74.7018 242.635 74.8623C242.687 75.02 242.713 75.1681 242.713 75.3064V75.3438H240.298C240.328 75.1362 240.381 74.9536 240.456 74.7959C240.533 74.6354 240.627 74.4998 240.738 74.3892C240.848 74.2812 240.973 74.1996 241.111 74.1443C241.25 74.0862 241.396 74.0571 241.551 74.0571ZM244.627 75.7173V75.8044C244.627 76.1254 244.67 76.4256 244.755 76.7051C244.841 76.9818 244.962 77.2225 245.116 77.4272C245.271 77.632 245.458 77.7925 245.677 77.9087C245.898 78.0249 246.144 78.083 246.416 78.083C246.692 78.083 246.934 78.036 247.142 77.9419C247.349 77.8478 247.528 77.7095 247.677 77.5269L247.71 78H248.416V71.625H247.648V73.9534C247.502 73.7818 247.327 73.6518 247.125 73.5632C246.926 73.4719 246.692 73.4263 246.424 73.4263C246.15 73.4263 245.902 73.483 245.681 73.5964C245.46 73.7099 245.271 73.8676 245.116 74.0696C244.959 74.2716 244.837 74.5137 244.751 74.7959C244.668 75.0754 244.627 75.3825 244.627 75.7173ZM245.395 75.8044V75.7173C245.395 75.4987 245.418 75.2912 245.465 75.0947C245.512 74.8955 245.585 74.7198 245.685 74.5676C245.782 74.4182 245.906 74.2992 246.059 74.2107C246.214 74.1222 246.399 74.0779 246.615 74.0779C246.867 74.0779 247.077 74.1374 247.246 74.2563C247.414 74.3726 247.549 74.522 247.648 74.7046V76.7881C247.549 76.9845 247.414 77.1409 247.246 77.2571C247.077 77.3733 246.864 77.4314 246.606 77.4314C246.393 77.4314 246.211 77.3885 246.059 77.3027C245.906 77.2142 245.782 77.0952 245.685 76.9458C245.585 76.7964 245.512 76.6235 245.465 76.427C245.418 76.2306 245.395 76.023 245.395 75.8044ZM251.276 76.2983H252.043C252.043 76.1904 252.046 76.095 252.052 76.012C252.057 75.9262 252.071 75.8459 252.093 75.7712C252.115 75.6965 252.149 75.6232 252.193 75.5513C252.24 75.4793 252.305 75.4032 252.388 75.323C252.518 75.2068 252.649 75.0809 252.782 74.9453C252.918 74.8097 253.04 74.6631 253.147 74.5054C253.255 74.3504 253.344 74.1858 253.413 74.0115C253.482 73.8344 253.517 73.6462 253.517 73.447C253.517 73.198 253.477 72.9766 253.396 72.783C253.316 72.5893 253.2 72.4246 253.048 72.2891C252.896 72.1535 252.709 72.0511 252.488 71.9819C252.269 71.91 252.02 71.874 251.74 71.874C251.489 71.874 251.253 71.9086 251.035 71.9778C250.819 72.0442 250.632 72.141 250.475 72.2683C250.314 72.3984 250.187 72.5561 250.093 72.7415C249.999 72.9268 249.95 73.1357 249.948 73.3682H250.715C250.715 73.2243 250.744 73.1012 250.802 72.9988C250.861 72.8936 250.938 72.8065 251.035 72.7373C251.129 72.6709 251.237 72.6225 251.359 72.592C251.483 72.5588 251.61 72.5422 251.74 72.5422C251.909 72.5422 252.059 72.5644 252.189 72.6086C252.319 72.6529 252.427 72.7179 252.512 72.8037C252.59 72.8812 252.648 72.9766 252.687 73.0901C252.728 73.2008 252.749 73.328 252.749 73.4719C252.749 73.6103 252.723 73.7417 252.67 73.8662C252.618 73.9907 252.551 74.1083 252.471 74.219C252.388 74.3324 252.297 74.4403 252.197 74.5427C252.1 74.6451 252.005 74.7447 251.911 74.8416C251.772 74.9688 251.662 75.0795 251.579 75.1736C251.496 75.2649 251.432 75.3604 251.388 75.46C251.343 75.5623 251.314 75.6785 251.301 75.8086C251.287 75.9359 251.278 76.0991 251.276 76.2983ZM251.188 77.5974C251.188 77.7247 251.227 77.8312 251.305 77.917C251.385 78.0028 251.504 78.0457 251.662 78.0457C251.819 78.0457 251.938 78.0028 252.019 77.917C252.102 77.8312 252.143 77.7247 252.143 77.5974C252.143 77.4646 252.102 77.3539 252.019 77.2654C251.938 77.1768 251.819 77.1326 251.662 77.1326C251.504 77.1326 251.385 77.1768 251.305 77.2654C251.227 77.3539 251.188 77.4646 251.188 77.5974ZM260.797 75.543V75.6343C260.797 76.0272 260.826 76.3952 260.884 76.7383C260.945 77.0814 261.026 77.3982 261.129 77.6887C261.231 77.982 261.35 78.249 261.486 78.4897C261.624 78.7305 261.769 78.9421 261.921 79.1248C262.074 79.3101 262.23 79.4679 262.39 79.5979C262.554 79.7279 262.711 79.8276 262.864 79.8967L263.088 79.2742C262.98 79.1912 262.87 79.0874 262.76 78.9629C262.649 78.8384 262.544 78.6917 262.444 78.5229C262.35 78.368 262.262 78.1868 262.179 77.9792C262.098 77.7717 262.028 77.5462 261.967 77.3027C261.923 77.1284 261.881 76.8946 261.843 76.6013C261.807 76.308 261.789 75.9884 261.789 75.6426V75.5347C261.789 75.1833 261.808 74.8582 261.847 74.5593C261.885 74.2605 261.937 73.988 262 73.7417C262.072 73.4871 262.155 73.252 262.249 73.0361C262.346 72.8203 262.45 72.6335 262.561 72.4758C262.646 72.3541 262.733 72.2462 262.822 72.1521C262.911 72.058 262.999 71.9778 263.088 71.9114L262.864 71.2805C262.711 71.3497 262.554 71.4493 262.39 71.5793C262.23 71.7066 262.074 71.863 261.921 72.0483C261.769 72.2337 261.624 72.4468 261.486 72.6875C261.35 72.9282 261.231 73.1938 261.129 73.4844C261.026 73.7777 260.945 74.0972 260.884 74.4431C260.826 74.7862 260.797 75.1528 260.797 75.543ZM265.055 78H266.213V74.8083C266.252 74.7475 266.295 74.6921 266.342 74.6423C266.389 74.5925 266.441 74.5496 266.499 74.5137C266.571 74.4639 266.653 74.4265 266.744 74.4016C266.838 74.3767 266.941 74.3643 267.051 74.3643C267.184 74.3643 267.303 74.3781 267.408 74.4058C267.513 74.4307 267.603 74.4763 267.678 74.5427C267.753 74.6091 267.809 74.7004 267.848 74.8167C267.89 74.9301 267.91 75.0754 267.91 75.2524V78H269.064V75.2358C269.064 74.9093 269.025 74.6326 268.948 74.4058C268.873 74.1761 268.768 73.988 268.633 73.8413C268.494 73.6974 268.331 73.5923 268.143 73.5259C267.955 73.4595 267.747 73.4263 267.52 73.4263C267.343 73.4263 267.176 73.4512 267.018 73.501C266.86 73.5508 266.715 73.6227 266.582 73.7168C266.505 73.7721 266.431 73.8344 266.362 73.9036C266.293 73.9727 266.229 74.0488 266.171 74.1318L266.101 73.5093H265.055V78ZM270.002 75.7131V75.8003C270.002 76.1296 270.049 76.4339 270.143 76.7134C270.237 76.9901 270.376 77.2308 270.558 77.4355C270.738 77.6403 270.96 77.8008 271.222 77.917C271.488 78.0304 271.79 78.0872 272.127 78.0872C272.462 78.0872 272.761 78.0304 273.024 77.917C273.287 77.8008 273.508 77.6403 273.688 77.4355C273.868 77.2308 274.005 76.9901 274.099 76.7134C274.193 76.4339 274.24 76.1296 274.24 75.8003V75.7131C274.24 75.3866 274.193 75.085 274.099 74.8083C274.005 74.5289 273.868 74.2868 273.688 74.082C273.505 73.8773 273.282 73.7168 273.02 73.6006C272.757 73.4844 272.456 73.4263 272.119 73.4263C271.781 73.4263 271.481 73.4844 271.218 73.6006C270.958 73.7168 270.738 73.8773 270.558 74.082C270.376 74.2868 270.237 74.5289 270.143 74.8083C270.049 75.085 270.002 75.3866 270.002 75.7131ZM271.156 75.8003V75.7131C271.156 75.5305 271.174 75.3576 271.21 75.1943C271.246 75.0311 271.303 74.8872 271.38 74.7627C271.458 74.6382 271.557 74.54 271.679 74.468C271.801 74.3961 271.947 74.3601 272.119 74.3601C272.293 74.3601 272.441 74.3961 272.563 74.468C272.685 74.54 272.784 74.6382 272.862 74.7627C272.937 74.8872 272.992 75.0311 273.028 75.1943C273.064 75.3576 273.082 75.5305 273.082 75.7131V75.8003C273.082 75.9884 273.064 76.1655 273.028 76.3315C272.992 76.4948 272.937 76.6373 272.862 76.759C272.784 76.8835 272.685 76.9818 272.563 77.0537C272.441 77.1257 272.296 77.1616 272.127 77.1616C271.953 77.1616 271.803 77.1257 271.679 77.0537C271.557 76.9818 271.458 76.8835 271.38 76.759C271.303 76.6373 271.246 76.4948 271.21 76.3315C271.174 76.1655 271.156 75.9884 271.156 75.8003ZM278.336 75.6343V75.543C278.336 75.1639 278.306 74.8056 278.245 74.468C278.184 74.1277 278.101 73.8109 277.996 73.5176C277.891 73.2243 277.768 72.9573 277.626 72.7166C277.488 72.4731 277.34 72.2559 277.182 72.0649C277.025 71.8768 276.863 71.7163 276.697 71.5835C276.531 71.4507 276.369 71.3497 276.211 71.2805L275.991 71.8989C276.074 71.9626 276.157 72.04 276.24 72.1313C276.326 72.2199 276.409 72.3209 276.489 72.4343C276.608 72.6059 276.72 72.8092 276.825 73.0444C276.933 73.2796 277.025 73.5452 277.099 73.8413C277.157 74.0793 277.203 74.3394 277.236 74.6216C277.272 74.9038 277.29 75.2082 277.29 75.5347V75.6426C277.29 75.9774 277.272 76.2887 277.236 76.5764C277.203 76.8642 277.157 77.127 277.099 77.365C277.03 77.6251 276.95 77.8603 276.859 78.0706C276.77 78.2808 276.672 78.469 276.564 78.635C276.473 78.7761 276.379 78.8993 276.282 79.0044C276.185 79.1123 276.088 79.2022 275.991 79.2742L276.211 79.8967C276.369 79.8276 276.531 79.7266 276.697 79.5938C276.863 79.4609 277.025 79.2991 277.182 79.1082C277.34 78.92 277.488 78.7042 277.626 78.4607C277.768 78.22 277.891 77.953 277.996 77.6597C278.101 77.3664 278.184 77.0509 278.245 76.7134C278.306 76.373 278.336 76.0133 278.336 75.6343Z"
    fill="#E139F0" pathLength="1" stroke-dashoffset="0px" stroke-dasharray="1px 1px"></path>
</svg>